M48
; DRILL file {KiCad (5.1.5)-3} date 1/24/2020 4:32:06 PM
; FORMAT={-:-/ absolute / inch / decimal}
; #@! TF.CreationDate,2020-01-24T16:32:06-05:00
; #@! TF.GenerationSoftware,Kicad,Pcbnew,(5.1.5)-3
; #@! TF.FileFunction,Plated,1,2,PTH
FMAT,2
INCH
T1C0.0157
T2C0.0335
T3C0.0394
T4C0.0400
T5C0.0409
T6C0.0453
T7C0.0500
T8C0.0512
T9C0.0551
T10C0.0591
T11C0.0811
T12C0.0866
T13C0.1120
%
G90
G05
T1
X3.075Y-2.9
X3.075Y-4.475
X3.125Y-3.1
X3.15Y-4.55
X3.175Y-3.525
X3.175Y-3.725
X3.25Y-2.825
X3.3Y-2.85
X3.35Y-2.85
X3.4Y-2.825
X3.4Y-3.2
X3.4Y-3.425
X3.45Y-3.175
X3.45Y-3.425
X3.5Y-3.975
X3.5Y-4.025
X3.525Y-3.1
X3.55Y-5.625
X3.575Y-3.425
X3.6Y-4.2
X3.9Y-4.55
X4.225Y-4.575
X4.25Y-5.1
X4.325Y-5.175
X4.35Y-4.3
X4.5Y-5.125
X4.55Y-4.625
X4.575Y-4.725
X4.6Y-4.5
X4.6Y-4.6
X4.65Y-4.575
X4.675Y-5.125
X4.675Y-5.275
X4.675Y-5.375
X4.7Y-4.55
X4.75Y-4.525
X4.85Y-4.375
X4.875Y-3.975
X4.875Y-4.025
X4.875Y-4.075
X4.875Y-4.25
X4.875Y-4.7
X4.925Y-3.375
X4.925Y-4.25
X4.95Y-4.7
X4.975Y-2.975
X4.975Y-4.5
X4.975Y-5.3
X5.0Y-3.375
X5.0Y-3.425
X5.0Y-4.75
X5.0Y-4.825
X5.025Y-4.0
X5.025Y-4.5
X5.075Y-4.0
X5.075Y-4.5
X5.125Y-4.525
X5.125Y-5.4
X5.15Y-4.0
X5.15Y-5.075
X5.175Y-4.55
X5.175Y-5.4
X5.2Y-4.775
X5.2Y-5.075
X5.225Y-3.1
X5.225Y-4.625
X5.275Y-4.625
X5.3Y-4.2
X5.3Y-4.675
X5.3Y-4.725
X5.3Y-5.125
X5.32Y-4.05
X5.4Y-2.625
X5.4Y-2.675
X5.45Y-2.625
X5.45Y-2.675
X5.475Y-3.1
X5.475Y-3.35
X5.5Y-5.125
X5.6Y-5.125
X5.625Y-3.1
X5.675Y-3.3
X5.675Y-3.425
X5.675Y-4.775
X5.675Y-5.425
X5.7Y-5.125
X5.725Y-2.675
X5.725Y-3.875
X5.725Y-3.925
X5.725Y-3.975
X5.725Y-4.55
X5.725Y-4.775
X5.775Y-4.775
X5.8Y-5.125
X5.875Y-4.725
X5.9Y-5.125
X5.9Y-5.425
X5.95Y-4.625
X5.95Y-4.925
X6.025Y-2.875
X6.075Y-2.575
X6.1Y-4.075
X6.125Y-4.675
X6.15Y-4.1
X6.175Y-2.35
X6.175Y-2.85
X6.175Y-4.525
X6.25Y-5.5
X6.4Y-4.525
X6.45Y-4.575
X6.5Y-4.625
X6.55Y-4.675
X6.75Y-4.05
X6.875Y-4.1
X6.875Y-4.525
X6.875Y-4.575
X6.875Y-4.625
X6.9Y-3.15
X6.9Y-3.2
X6.9Y-3.25
X6.9Y-3.3
X6.9Y-3.35
X6.9Y-3.4
X6.9Y-3.45
X6.9Y-3.5
X6.9Y-4.925
X6.95Y-3.15
X6.95Y-3.2
X6.95Y-3.25
X6.95Y-3.3
X6.95Y-3.35
X6.95Y-3.4
X6.95Y-3.45
X6.95Y-4.925
X6.95Y-5.5
X7.0Y-3.15
X7.0Y-3.2
X7.0Y-3.25
X7.0Y-3.3
X7.0Y-3.35
X7.0Y-3.4
X7.0Y-3.45
X7.0Y-4.925
X7.025Y-4.775
X7.05Y-4.925
X7.1Y-3.25
X7.1Y-3.3
X7.1Y-3.35
X7.1Y-3.4
X7.1Y-3.45
X7.1Y-4.35
X7.15Y-3.25
X7.15Y-3.3
X7.15Y-3.35
X7.15Y-3.4
X7.15Y-3.45
X7.15Y-5.175
X7.2Y-3.25
X7.2Y-3.3
X7.2Y-3.35
X7.2Y-3.4
X7.2Y-3.45
X7.2Y-3.5
X7.2Y-4.45
X7.2Y-4.95
X7.2Y-5.175
X7.225Y-4.675
X7.25Y-3.25
X7.25Y-3.3
X7.25Y-3.35
X7.25Y-3.4
X7.25Y-3.45
X7.25Y-3.5
X7.25Y-3.95
X7.25Y-4.075
X7.25Y-4.95
X7.25Y-5.175
X7.3Y-4.95
X7.3Y-5.175
X7.4Y-5.75
X7.4Y-5.925
X7.425Y-3.95
X7.425Y-4.075
X7.45Y-4.5
X7.45Y-5.4
X7.475Y-3.95
X7.5Y-5.4
X7.55Y-4.45
X7.55Y-4.6
X7.55Y-4.75
X7.55Y-4.9
X7.55Y-5.05
X7.55Y-5.4
X7.6Y-3.825
X7.6Y-5.575
X7.6Y-5.75
X7.6Y-5.925
X7.675Y-3.75
X7.75Y-2.9
X7.75Y-4.45
X7.75Y-4.6
X7.75Y-4.75
X7.75Y-4.9
X7.75Y-5.05
X7.75Y-5.375
X7.8Y-3.1
X7.85Y-3.525
X7.85Y-3.725
X7.9Y-4.275
X7.925Y-2.825
X7.975Y-2.85
X8.025Y-2.85
X8.05Y-4.125
X8.075Y-2.825
X8.075Y-3.2
X8.075Y-3.425
X8.1Y-3.875
X8.1Y-3.925
X8.125Y-3.175
X8.125Y-3.425
X8.15Y-3.825
X8.2Y-3.1
X8.25Y-3.425
T2
X7.95Y-3.225
X7.95Y-3.325
X7.95Y-3.425
X7.95Y-3.525
X7.95Y-3.725
X7.95Y-3.825
X7.95Y-3.925
X3.275Y-3.225
X3.275Y-3.325
X3.275Y-3.425
X3.275Y-3.525
X3.275Y-3.725
X3.275Y-3.825
X3.275Y-3.925
T3
X3.2Y-4.464
X3.3Y-4.464
X3.4Y-4.464
X5.225Y-3.325
X5.225Y-3.525
X5.225Y-3.725
X5.225Y-3.825
X7.0275Y-5.5725
X7.0275Y-5.8725
T4
X3.275Y-2.375
X3.275Y-2.475
X3.275Y-2.575
X3.375Y-2.375
X3.375Y-2.475
X3.375Y-2.575
X8.05Y-4.35
X8.05Y-4.45
X8.05Y-4.55
X8.05Y-4.65
X8.05Y-4.75
X8.05Y-4.85
X8.05Y-4.95
X8.05Y-5.05
X8.05Y-5.15
X8.05Y-5.25
X8.15Y-4.35
X8.15Y-4.45
X8.15Y-4.55
X8.15Y-4.65
X8.15Y-4.75
X8.15Y-4.85
X8.15Y-4.95
X8.15Y-5.05
X8.15Y-5.15
X8.15Y-5.25
X7.95Y-2.375
X7.95Y-2.475
X7.95Y-2.575
X8.05Y-2.375
X8.05Y-2.475
X8.05Y-2.575
T5
X5.25Y-4.25
X5.25Y-5.25
X5.35Y-4.25
X5.35Y-5.25
X5.45Y-4.25
X5.45Y-5.25
X5.55Y-4.25
X5.55Y-5.25
X5.65Y-4.25
X5.65Y-5.25
X5.75Y-4.25
X5.75Y-5.25
X5.85Y-4.25
X5.85Y-5.25
X5.95Y-4.25
X5.95Y-5.25
X6.05Y-4.25
X6.05Y-5.25
X6.15Y-4.25
X6.15Y-5.25
X6.25Y-4.25
X6.25Y-5.25
X6.35Y-4.25
X6.35Y-5.25
X6.45Y-4.25
X6.45Y-5.25
X6.55Y-4.25
X6.55Y-5.25
X6.65Y-4.25
X6.65Y-5.25
X6.75Y-4.25
X6.75Y-5.25
X6.85Y-4.25
X6.85Y-5.25
X6.95Y-4.25
X6.95Y-5.25
X7.05Y-4.25
X7.05Y-5.25
T6
X4.025Y-3.85
X4.425Y-3.85
X6.85Y-3.85
X7.25Y-3.85
T8
X6.3275Y-5.5725
X6.6275Y-5.5725
T9
X4.8085Y-2.375
X5.025Y-2.375
X5.35Y-5.6
X5.35Y-5.8165
X5.075Y-5.6
X5.075Y-5.8165
X5.625Y-5.6
X5.625Y-5.8165
X5.7904Y-5.6
X5.7904Y-5.8165
X5.9557Y-5.6
X5.9557Y-5.8165
X6.1211Y-5.6
X6.1211Y-5.8165
X3.975Y-5.6
X3.975Y-5.8165
X4.1404Y-5.6
X4.1404Y-5.8165
X4.3057Y-5.6
X4.3057Y-5.8165
X4.4711Y-5.6
X4.4711Y-5.8165
X4.6364Y-5.6
X4.6364Y-5.8165
X4.8018Y-5.6
X4.8018Y-5.8165
T10
X5.525Y-4.025
X5.825Y-3.225
X6.025Y-3.225
X6.325Y-3.225
X6.325Y-4.025
X3.2933Y-5.05
X4.1Y-5.05
T11
X3.875Y-3.35
X6.7Y-3.35
T12
X4.575Y-3.25
X7.4Y-3.25
T13
X8.025Y-5.775
X3.275Y-5.775
T7
G00X4.1724Y-2.6
M15
G01X4.0165Y-2.6
M16
G05
G00X4.4835Y-2.6
M15
G01X4.3276Y-2.6
M16
G05
G00X6.9974Y-2.6
M15
G01X6.8415Y-2.6
M16
G05
G00X7.3085Y-2.6
M15
G01X7.1526Y-2.6
M16
G05
T0
M30
