G04 #@! TF.GenerationSoftware,KiCad,Pcbnew,(5.1.4)-1*
G04 #@! TF.CreationDate,2019-11-19T11:44:18-05:00*
G04 #@! TF.ProjectId,PacMan,5061634d-616e-42e6-9b69-6361645f7063,rev?*
G04 #@! TF.SameCoordinates,Original*
G04 #@! TF.FileFunction,Soldermask,Bot*
G04 #@! TF.FilePolarity,Negative*
%FSLAX46Y46*%
G04 Gerber Fmt 4.6, Leading zero omitted, Abs format (unit mm)*
G04 Created by KiCad (PCBNEW (5.1.4)-1) date 2019-11-19 11:44:18*
%MOMM*%
%LPD*%
G04 APERTURE LIST*
%ADD10C,0.100000*%
G04 APERTURE END LIST*
D10*
G36*
X156758156Y-158232794D02*
G01*
X157479140Y-158376206D01*
X158270972Y-158704193D01*
X158983601Y-159180357D01*
X159589643Y-159786399D01*
X160065807Y-160499028D01*
X160393794Y-161290860D01*
X160475656Y-161702410D01*
X160550529Y-162078820D01*
X160561000Y-162131464D01*
X160561000Y-162988536D01*
X160393794Y-163829140D01*
X160065807Y-164620972D01*
X159589643Y-165333601D01*
X158983601Y-165939643D01*
X158270972Y-166415807D01*
X157479140Y-166743794D01*
X156758156Y-166887206D01*
X156638537Y-166911000D01*
X155781463Y-166911000D01*
X155661844Y-166887206D01*
X154940860Y-166743794D01*
X154149028Y-166415807D01*
X153436399Y-165939643D01*
X152830357Y-165333601D01*
X152354193Y-164620972D01*
X152026206Y-163829140D01*
X151859000Y-162988536D01*
X151859000Y-162131464D01*
X151869472Y-162078820D01*
X151944344Y-161702410D01*
X152026206Y-161290860D01*
X152354193Y-160499028D01*
X152830357Y-159786399D01*
X153436399Y-159180357D01*
X154149028Y-158704193D01*
X154940860Y-158376206D01*
X155661844Y-158232794D01*
X155781463Y-158209000D01*
X156638537Y-158209000D01*
X156758156Y-158232794D01*
X156758156Y-158232794D01*
G37*
G36*
X27218156Y-158232794D02*
G01*
X27939140Y-158376206D01*
X28730972Y-158704193D01*
X29443601Y-159180357D01*
X30049643Y-159786399D01*
X30525807Y-160499028D01*
X30853794Y-161290860D01*
X30935656Y-161702410D01*
X31010529Y-162078820D01*
X31021000Y-162131464D01*
X31021000Y-162988536D01*
X30853794Y-163829140D01*
X30525807Y-164620972D01*
X30049643Y-165333601D01*
X29443601Y-165939643D01*
X28730972Y-166415807D01*
X27939140Y-166743794D01*
X27218156Y-166887206D01*
X27098537Y-166911000D01*
X26241463Y-166911000D01*
X26121844Y-166887206D01*
X25400860Y-166743794D01*
X24609028Y-166415807D01*
X23896399Y-165939643D01*
X23290357Y-165333601D01*
X22814193Y-164620972D01*
X22486206Y-163829140D01*
X22319000Y-162988536D01*
X22319000Y-162131464D01*
X22329472Y-162078820D01*
X22404344Y-161702410D01*
X22486206Y-161290860D01*
X22814193Y-160499028D01*
X23290357Y-159786399D01*
X23896399Y-159180357D01*
X24609028Y-158704193D01*
X25400860Y-158376206D01*
X26121844Y-158232794D01*
X26241463Y-158209000D01*
X27098537Y-158209000D01*
X27218156Y-158232794D01*
X27218156Y-158232794D01*
G37*
G36*
X140705064Y-162755889D02*
G01*
X140896333Y-162835115D01*
X140896335Y-162835116D01*
X141068473Y-162950135D01*
X141214865Y-163096527D01*
X141329885Y-163268667D01*
X141409111Y-163459936D01*
X141449500Y-163662984D01*
X141449500Y-163870016D01*
X141409111Y-164073064D01*
X141329885Y-164264333D01*
X141329884Y-164264335D01*
X141214865Y-164436473D01*
X141068473Y-164582865D01*
X140896335Y-164697884D01*
X140896334Y-164697885D01*
X140896333Y-164697885D01*
X140705064Y-164777111D01*
X140502016Y-164817500D01*
X140294984Y-164817500D01*
X140091936Y-164777111D01*
X139900667Y-164697885D01*
X139900666Y-164697885D01*
X139900665Y-164697884D01*
X139728527Y-164582865D01*
X139582135Y-164436473D01*
X139467116Y-164264335D01*
X139467115Y-164264333D01*
X139387889Y-164073064D01*
X139347500Y-163870016D01*
X139347500Y-163662984D01*
X139387889Y-163459936D01*
X139467115Y-163268667D01*
X139582135Y-163096527D01*
X139728527Y-162950135D01*
X139900665Y-162835116D01*
X139900667Y-162835115D01*
X140091936Y-162755889D01*
X140294984Y-162715500D01*
X140502016Y-162715500D01*
X140705064Y-162755889D01*
X140705064Y-162755889D01*
G37*
G36*
X102899643Y-160029272D02*
G01*
X103095016Y-160088538D01*
X103163736Y-160109384D01*
X103393201Y-160232036D01*
X103407119Y-160239475D01*
X103448797Y-160273680D01*
X103620450Y-160414550D01*
X103763092Y-160588360D01*
X103795525Y-160627880D01*
X103795526Y-160627882D01*
X103925616Y-160871263D01*
X103946462Y-160939983D01*
X104005728Y-161135356D01*
X104026000Y-161341182D01*
X104026000Y-162078817D01*
X104005728Y-162284643D01*
X103954129Y-162454741D01*
X103925616Y-162548737D01*
X103814891Y-162755889D01*
X103795525Y-162792120D01*
X103760239Y-162835116D01*
X103620450Y-163005450D01*
X103462691Y-163134918D01*
X103407120Y-163180525D01*
X103407118Y-163180526D01*
X103163737Y-163310616D01*
X103095017Y-163331462D01*
X102899644Y-163390728D01*
X102625000Y-163417778D01*
X102350357Y-163390728D01*
X102154984Y-163331462D01*
X102086264Y-163310616D01*
X101842883Y-163180526D01*
X101842881Y-163180525D01*
X101801203Y-163146320D01*
X101629550Y-163005450D01*
X101461763Y-162801000D01*
X101454475Y-162792120D01*
X101435109Y-162755889D01*
X101324384Y-162548737D01*
X101295870Y-162454740D01*
X101244272Y-162284644D01*
X101224000Y-162078818D01*
X101224000Y-161341183D01*
X101244272Y-161135357D01*
X101324383Y-160871268D01*
X101324384Y-160871264D01*
X101454474Y-160627883D01*
X101454475Y-160627881D01*
X101488680Y-160586203D01*
X101629550Y-160414550D01*
X101803360Y-160271908D01*
X101842880Y-160239475D01*
X101856798Y-160232036D01*
X102086263Y-160109384D01*
X102154983Y-160088538D01*
X102350356Y-160029272D01*
X102625000Y-160002222D01*
X102899643Y-160029272D01*
X102899643Y-160029272D01*
G37*
G36*
X111299643Y-160029272D02*
G01*
X111495016Y-160088538D01*
X111563736Y-160109384D01*
X111793201Y-160232036D01*
X111807119Y-160239475D01*
X111848797Y-160273680D01*
X112020450Y-160414550D01*
X112163092Y-160588360D01*
X112195525Y-160627880D01*
X112195526Y-160627882D01*
X112325616Y-160871263D01*
X112346462Y-160939983D01*
X112405728Y-161135356D01*
X112426000Y-161341182D01*
X112426000Y-162078817D01*
X112405728Y-162284643D01*
X112354129Y-162454741D01*
X112325616Y-162548737D01*
X112214891Y-162755889D01*
X112195525Y-162792120D01*
X112160239Y-162835116D01*
X112020450Y-163005450D01*
X111862691Y-163134918D01*
X111807120Y-163180525D01*
X111807118Y-163180526D01*
X111563737Y-163310616D01*
X111495017Y-163331462D01*
X111299644Y-163390728D01*
X111025000Y-163417778D01*
X110750357Y-163390728D01*
X110554984Y-163331462D01*
X110486264Y-163310616D01*
X110242883Y-163180526D01*
X110242881Y-163180525D01*
X110201203Y-163146320D01*
X110029550Y-163005450D01*
X109861763Y-162801000D01*
X109854475Y-162792120D01*
X109835109Y-162755889D01*
X109724384Y-162548737D01*
X109695870Y-162454740D01*
X109644272Y-162284644D01*
X109624000Y-162078818D01*
X109624000Y-161341183D01*
X109644272Y-161135357D01*
X109724383Y-160871268D01*
X109724384Y-160871264D01*
X109854474Y-160627883D01*
X109854475Y-160627881D01*
X109888680Y-160586203D01*
X110029550Y-160414550D01*
X110203360Y-160271908D01*
X110242880Y-160239475D01*
X110256798Y-160232036D01*
X110486263Y-160109384D01*
X110554983Y-160088538D01*
X110750356Y-160029272D01*
X111025000Y-160002222D01*
X111299643Y-160029272D01*
X111299643Y-160029272D01*
G37*
G36*
X107099643Y-160029272D02*
G01*
X107295016Y-160088538D01*
X107363736Y-160109384D01*
X107593201Y-160232036D01*
X107607119Y-160239475D01*
X107648797Y-160273680D01*
X107820450Y-160414550D01*
X107963092Y-160588360D01*
X107995525Y-160627880D01*
X107995526Y-160627882D01*
X108125616Y-160871263D01*
X108146462Y-160939983D01*
X108205728Y-161135356D01*
X108226000Y-161341182D01*
X108226000Y-162078817D01*
X108205728Y-162284643D01*
X108154129Y-162454741D01*
X108125616Y-162548737D01*
X108014891Y-162755889D01*
X107995525Y-162792120D01*
X107960239Y-162835116D01*
X107820450Y-163005450D01*
X107662691Y-163134918D01*
X107607120Y-163180525D01*
X107607118Y-163180526D01*
X107363737Y-163310616D01*
X107295017Y-163331462D01*
X107099644Y-163390728D01*
X106825000Y-163417778D01*
X106550357Y-163390728D01*
X106354984Y-163331462D01*
X106286264Y-163310616D01*
X106042883Y-163180526D01*
X106042881Y-163180525D01*
X106001203Y-163146320D01*
X105829550Y-163005450D01*
X105661763Y-162801000D01*
X105654475Y-162792120D01*
X105635109Y-162755889D01*
X105524384Y-162548737D01*
X105495870Y-162454740D01*
X105444272Y-162284644D01*
X105424000Y-162078818D01*
X105424000Y-161341183D01*
X105444272Y-161135357D01*
X105524383Y-160871268D01*
X105524384Y-160871264D01*
X105654474Y-160627883D01*
X105654475Y-160627881D01*
X105688680Y-160586203D01*
X105829550Y-160414550D01*
X106003360Y-160271908D01*
X106042880Y-160239475D01*
X106056798Y-160232036D01*
X106286263Y-160109384D01*
X106354983Y-160088538D01*
X106550356Y-160029272D01*
X106825000Y-160002222D01*
X107099643Y-160029272D01*
X107099643Y-160029272D01*
G37*
G36*
X98699643Y-160029272D02*
G01*
X98895016Y-160088538D01*
X98963736Y-160109384D01*
X99193201Y-160232036D01*
X99207119Y-160239475D01*
X99248797Y-160273680D01*
X99420450Y-160414550D01*
X99563092Y-160588360D01*
X99595525Y-160627880D01*
X99595526Y-160627882D01*
X99725616Y-160871263D01*
X99746462Y-160939983D01*
X99805728Y-161135356D01*
X99826000Y-161341182D01*
X99826000Y-162078817D01*
X99805728Y-162284643D01*
X99754129Y-162454741D01*
X99725616Y-162548737D01*
X99614891Y-162755889D01*
X99595525Y-162792120D01*
X99560239Y-162835116D01*
X99420450Y-163005450D01*
X99262691Y-163134918D01*
X99207120Y-163180525D01*
X99207118Y-163180526D01*
X98963737Y-163310616D01*
X98895017Y-163331462D01*
X98699644Y-163390728D01*
X98425000Y-163417778D01*
X98150357Y-163390728D01*
X97954984Y-163331462D01*
X97886264Y-163310616D01*
X97642883Y-163180526D01*
X97642881Y-163180525D01*
X97601203Y-163146320D01*
X97429550Y-163005450D01*
X97261763Y-162801000D01*
X97254475Y-162792120D01*
X97235109Y-162755889D01*
X97124384Y-162548737D01*
X97095870Y-162454740D01*
X97044272Y-162284644D01*
X97024000Y-162078818D01*
X97024000Y-161341183D01*
X97044272Y-161135357D01*
X97124383Y-160871268D01*
X97124384Y-160871264D01*
X97254474Y-160627883D01*
X97254475Y-160627881D01*
X97288680Y-160586203D01*
X97429550Y-160414550D01*
X97603360Y-160271908D01*
X97642880Y-160239475D01*
X97656798Y-160232036D01*
X97886263Y-160109384D01*
X97954983Y-160088538D01*
X98150356Y-160029272D01*
X98425000Y-160002222D01*
X98699643Y-160029272D01*
X98699643Y-160029272D01*
G37*
G36*
X53369643Y-160029272D02*
G01*
X53565016Y-160088538D01*
X53633736Y-160109384D01*
X53863201Y-160232036D01*
X53877119Y-160239475D01*
X53918797Y-160273680D01*
X54090450Y-160414550D01*
X54233092Y-160588360D01*
X54265525Y-160627880D01*
X54265526Y-160627882D01*
X54395616Y-160871263D01*
X54416462Y-160939983D01*
X54475728Y-161135356D01*
X54496000Y-161341182D01*
X54496000Y-162078817D01*
X54475728Y-162284643D01*
X54424129Y-162454741D01*
X54395616Y-162548737D01*
X54284891Y-162755889D01*
X54265525Y-162792120D01*
X54230239Y-162835116D01*
X54090450Y-163005450D01*
X53932691Y-163134918D01*
X53877120Y-163180525D01*
X53877118Y-163180526D01*
X53633737Y-163310616D01*
X53565017Y-163331462D01*
X53369644Y-163390728D01*
X53095000Y-163417778D01*
X52820357Y-163390728D01*
X52624984Y-163331462D01*
X52556264Y-163310616D01*
X52312883Y-163180526D01*
X52312881Y-163180525D01*
X52271203Y-163146320D01*
X52099550Y-163005450D01*
X51931763Y-162801000D01*
X51924475Y-162792120D01*
X51905109Y-162755889D01*
X51794384Y-162548737D01*
X51765870Y-162454740D01*
X51714272Y-162284644D01*
X51694000Y-162078818D01*
X51694000Y-161341183D01*
X51714272Y-161135357D01*
X51794383Y-160871268D01*
X51794384Y-160871264D01*
X51924474Y-160627883D01*
X51924475Y-160627881D01*
X51958680Y-160586203D01*
X52099550Y-160414550D01*
X52273360Y-160271908D01*
X52312880Y-160239475D01*
X52326798Y-160232036D01*
X52556263Y-160109384D01*
X52624983Y-160088538D01*
X52820356Y-160029272D01*
X53095000Y-160002222D01*
X53369643Y-160029272D01*
X53369643Y-160029272D01*
G37*
G36*
X57569643Y-160029272D02*
G01*
X57765016Y-160088538D01*
X57833736Y-160109384D01*
X58063201Y-160232036D01*
X58077119Y-160239475D01*
X58118797Y-160273680D01*
X58290450Y-160414550D01*
X58433092Y-160588360D01*
X58465525Y-160627880D01*
X58465526Y-160627882D01*
X58595616Y-160871263D01*
X58616462Y-160939983D01*
X58675728Y-161135356D01*
X58696000Y-161341182D01*
X58696000Y-162078817D01*
X58675728Y-162284643D01*
X58624129Y-162454741D01*
X58595616Y-162548737D01*
X58484891Y-162755889D01*
X58465525Y-162792120D01*
X58430239Y-162835116D01*
X58290450Y-163005450D01*
X58132691Y-163134918D01*
X58077120Y-163180525D01*
X58077118Y-163180526D01*
X57833737Y-163310616D01*
X57765017Y-163331462D01*
X57569644Y-163390728D01*
X57295000Y-163417778D01*
X57020357Y-163390728D01*
X56824984Y-163331462D01*
X56756264Y-163310616D01*
X56512883Y-163180526D01*
X56512881Y-163180525D01*
X56471203Y-163146320D01*
X56299550Y-163005450D01*
X56131763Y-162801000D01*
X56124475Y-162792120D01*
X56105109Y-162755889D01*
X55994384Y-162548737D01*
X55965870Y-162454740D01*
X55914272Y-162284644D01*
X55894000Y-162078818D01*
X55894000Y-161341183D01*
X55914272Y-161135357D01*
X55994383Y-160871268D01*
X55994384Y-160871264D01*
X56124474Y-160627883D01*
X56124475Y-160627881D01*
X56158680Y-160586203D01*
X56299550Y-160414550D01*
X56473360Y-160271908D01*
X56512880Y-160239475D01*
X56526798Y-160232036D01*
X56756263Y-160109384D01*
X56824983Y-160088538D01*
X57020356Y-160029272D01*
X57295000Y-160002222D01*
X57569643Y-160029272D01*
X57569643Y-160029272D01*
G37*
G36*
X49169643Y-160029272D02*
G01*
X49365016Y-160088538D01*
X49433736Y-160109384D01*
X49663201Y-160232036D01*
X49677119Y-160239475D01*
X49718797Y-160273680D01*
X49890450Y-160414550D01*
X50033092Y-160588360D01*
X50065525Y-160627880D01*
X50065526Y-160627882D01*
X50195616Y-160871263D01*
X50216462Y-160939983D01*
X50275728Y-161135356D01*
X50296000Y-161341182D01*
X50296000Y-162078817D01*
X50275728Y-162284643D01*
X50224129Y-162454741D01*
X50195616Y-162548737D01*
X50084891Y-162755889D01*
X50065525Y-162792120D01*
X50030239Y-162835116D01*
X49890450Y-163005450D01*
X49732691Y-163134918D01*
X49677120Y-163180525D01*
X49677118Y-163180526D01*
X49433737Y-163310616D01*
X49365017Y-163331462D01*
X49169644Y-163390728D01*
X48895000Y-163417778D01*
X48620357Y-163390728D01*
X48424984Y-163331462D01*
X48356264Y-163310616D01*
X48112883Y-163180526D01*
X48112881Y-163180525D01*
X48071203Y-163146320D01*
X47899550Y-163005450D01*
X47731763Y-162801000D01*
X47724475Y-162792120D01*
X47705109Y-162755889D01*
X47594384Y-162548737D01*
X47565870Y-162454740D01*
X47514272Y-162284644D01*
X47494000Y-162078818D01*
X47494000Y-161341183D01*
X47514272Y-161135357D01*
X47594383Y-160871268D01*
X47594384Y-160871264D01*
X47724474Y-160627883D01*
X47724475Y-160627881D01*
X47758680Y-160586203D01*
X47899550Y-160414550D01*
X48073360Y-160271908D01*
X48112880Y-160239475D01*
X48126798Y-160232036D01*
X48356263Y-160109384D01*
X48424983Y-160088538D01*
X48620356Y-160029272D01*
X48895000Y-160002222D01*
X49169643Y-160029272D01*
X49169643Y-160029272D01*
G37*
G36*
X65969643Y-160029272D02*
G01*
X66165016Y-160088538D01*
X66233736Y-160109384D01*
X66463201Y-160232036D01*
X66477119Y-160239475D01*
X66518797Y-160273680D01*
X66690450Y-160414550D01*
X66833092Y-160588360D01*
X66865525Y-160627880D01*
X66865526Y-160627882D01*
X66995616Y-160871263D01*
X67016462Y-160939983D01*
X67075728Y-161135356D01*
X67096000Y-161341182D01*
X67096000Y-162078817D01*
X67075728Y-162284643D01*
X67024129Y-162454741D01*
X66995616Y-162548737D01*
X66884891Y-162755889D01*
X66865525Y-162792120D01*
X66830239Y-162835116D01*
X66690450Y-163005450D01*
X66532691Y-163134918D01*
X66477120Y-163180525D01*
X66477118Y-163180526D01*
X66233737Y-163310616D01*
X66165017Y-163331462D01*
X65969644Y-163390728D01*
X65695000Y-163417778D01*
X65420357Y-163390728D01*
X65224984Y-163331462D01*
X65156264Y-163310616D01*
X64912883Y-163180526D01*
X64912881Y-163180525D01*
X64871203Y-163146320D01*
X64699550Y-163005450D01*
X64531763Y-162801000D01*
X64524475Y-162792120D01*
X64505109Y-162755889D01*
X64394384Y-162548737D01*
X64365870Y-162454740D01*
X64314272Y-162284644D01*
X64294000Y-162078818D01*
X64294000Y-161341183D01*
X64314272Y-161135357D01*
X64394383Y-160871268D01*
X64394384Y-160871264D01*
X64524474Y-160627883D01*
X64524475Y-160627881D01*
X64558680Y-160586203D01*
X64699550Y-160414550D01*
X64873360Y-160271908D01*
X64912880Y-160239475D01*
X64926798Y-160232036D01*
X65156263Y-160109384D01*
X65224983Y-160088538D01*
X65420356Y-160029272D01*
X65695000Y-160002222D01*
X65969643Y-160029272D01*
X65969643Y-160029272D01*
G37*
G36*
X70169643Y-160029272D02*
G01*
X70365016Y-160088538D01*
X70433736Y-160109384D01*
X70663201Y-160232036D01*
X70677119Y-160239475D01*
X70718797Y-160273680D01*
X70890450Y-160414550D01*
X71033092Y-160588360D01*
X71065525Y-160627880D01*
X71065526Y-160627882D01*
X71195616Y-160871263D01*
X71216462Y-160939983D01*
X71275728Y-161135356D01*
X71296000Y-161341182D01*
X71296000Y-162078817D01*
X71275728Y-162284643D01*
X71224129Y-162454741D01*
X71195616Y-162548737D01*
X71084891Y-162755889D01*
X71065525Y-162792120D01*
X71030239Y-162835116D01*
X70890450Y-163005450D01*
X70732691Y-163134918D01*
X70677120Y-163180525D01*
X70677118Y-163180526D01*
X70433737Y-163310616D01*
X70365017Y-163331462D01*
X70169644Y-163390728D01*
X69895000Y-163417778D01*
X69620357Y-163390728D01*
X69424984Y-163331462D01*
X69356264Y-163310616D01*
X69112883Y-163180526D01*
X69112881Y-163180525D01*
X69071203Y-163146320D01*
X68899550Y-163005450D01*
X68731763Y-162801000D01*
X68724475Y-162792120D01*
X68705109Y-162755889D01*
X68594384Y-162548737D01*
X68565870Y-162454740D01*
X68514272Y-162284644D01*
X68494000Y-162078818D01*
X68494000Y-161341183D01*
X68514272Y-161135357D01*
X68594383Y-160871268D01*
X68594384Y-160871264D01*
X68724474Y-160627883D01*
X68724475Y-160627881D01*
X68758680Y-160586203D01*
X68899550Y-160414550D01*
X69073360Y-160271908D01*
X69112880Y-160239475D01*
X69126798Y-160232036D01*
X69356263Y-160109384D01*
X69424983Y-160088538D01*
X69620356Y-160029272D01*
X69895000Y-160002222D01*
X70169643Y-160029272D01*
X70169643Y-160029272D01*
G37*
G36*
X80919643Y-160029272D02*
G01*
X81115016Y-160088538D01*
X81183736Y-160109384D01*
X81413201Y-160232036D01*
X81427119Y-160239475D01*
X81468797Y-160273680D01*
X81640450Y-160414550D01*
X81783092Y-160588360D01*
X81815525Y-160627880D01*
X81815526Y-160627882D01*
X81945616Y-160871263D01*
X81966462Y-160939983D01*
X82025728Y-161135356D01*
X82046000Y-161341182D01*
X82046000Y-162078817D01*
X82025728Y-162284643D01*
X81974129Y-162454741D01*
X81945616Y-162548737D01*
X81834891Y-162755889D01*
X81815525Y-162792120D01*
X81780239Y-162835116D01*
X81640450Y-163005450D01*
X81482691Y-163134918D01*
X81427120Y-163180525D01*
X81427118Y-163180526D01*
X81183737Y-163310616D01*
X81115017Y-163331462D01*
X80919644Y-163390728D01*
X80645000Y-163417778D01*
X80370357Y-163390728D01*
X80174984Y-163331462D01*
X80106264Y-163310616D01*
X79862883Y-163180526D01*
X79862881Y-163180525D01*
X79821203Y-163146320D01*
X79649550Y-163005450D01*
X79481763Y-162801000D01*
X79474475Y-162792120D01*
X79455109Y-162755889D01*
X79344384Y-162548737D01*
X79315870Y-162454740D01*
X79264272Y-162284644D01*
X79244000Y-162078818D01*
X79244000Y-161341183D01*
X79264272Y-161135357D01*
X79344383Y-160871268D01*
X79344384Y-160871264D01*
X79474474Y-160627883D01*
X79474475Y-160627881D01*
X79508680Y-160586203D01*
X79649550Y-160414550D01*
X79823360Y-160271908D01*
X79862880Y-160239475D01*
X79876798Y-160232036D01*
X80106263Y-160109384D01*
X80174983Y-160088538D01*
X80370356Y-160029272D01*
X80645000Y-160002222D01*
X80919643Y-160029272D01*
X80919643Y-160029272D01*
G37*
G36*
X87904643Y-160029272D02*
G01*
X88100016Y-160088538D01*
X88168736Y-160109384D01*
X88398201Y-160232036D01*
X88412119Y-160239475D01*
X88453797Y-160273680D01*
X88625450Y-160414550D01*
X88768092Y-160588360D01*
X88800525Y-160627880D01*
X88800526Y-160627882D01*
X88930616Y-160871263D01*
X88951462Y-160939983D01*
X89010728Y-161135356D01*
X89031000Y-161341182D01*
X89031000Y-162078817D01*
X89010728Y-162284643D01*
X88959129Y-162454741D01*
X88930616Y-162548737D01*
X88819891Y-162755889D01*
X88800525Y-162792120D01*
X88765239Y-162835116D01*
X88625450Y-163005450D01*
X88467691Y-163134918D01*
X88412120Y-163180525D01*
X88412118Y-163180526D01*
X88168737Y-163310616D01*
X88100017Y-163331462D01*
X87904644Y-163390728D01*
X87630000Y-163417778D01*
X87355357Y-163390728D01*
X87159984Y-163331462D01*
X87091264Y-163310616D01*
X86847883Y-163180526D01*
X86847881Y-163180525D01*
X86806203Y-163146320D01*
X86634550Y-163005450D01*
X86466763Y-162801000D01*
X86459475Y-162792120D01*
X86440109Y-162755889D01*
X86329384Y-162548737D01*
X86300870Y-162454740D01*
X86249272Y-162284644D01*
X86229000Y-162078818D01*
X86229000Y-161341183D01*
X86249272Y-161135357D01*
X86329383Y-160871268D01*
X86329384Y-160871264D01*
X86459474Y-160627883D01*
X86459475Y-160627881D01*
X86493680Y-160586203D01*
X86634550Y-160414550D01*
X86808360Y-160271908D01*
X86847880Y-160239475D01*
X86861798Y-160232036D01*
X87091263Y-160109384D01*
X87159983Y-160088538D01*
X87355356Y-160029272D01*
X87630000Y-160002222D01*
X87904643Y-160029272D01*
X87904643Y-160029272D01*
G37*
G36*
X61769643Y-160029272D02*
G01*
X61965016Y-160088538D01*
X62033736Y-160109384D01*
X62263201Y-160232036D01*
X62277119Y-160239475D01*
X62318797Y-160273680D01*
X62490450Y-160414550D01*
X62633092Y-160588360D01*
X62665525Y-160627880D01*
X62665526Y-160627882D01*
X62795616Y-160871263D01*
X62816462Y-160939983D01*
X62875728Y-161135356D01*
X62896000Y-161341182D01*
X62896000Y-162078817D01*
X62875728Y-162284643D01*
X62824129Y-162454741D01*
X62795616Y-162548737D01*
X62684891Y-162755889D01*
X62665525Y-162792120D01*
X62630239Y-162835116D01*
X62490450Y-163005450D01*
X62332691Y-163134918D01*
X62277120Y-163180525D01*
X62277118Y-163180526D01*
X62033737Y-163310616D01*
X61965017Y-163331462D01*
X61769644Y-163390728D01*
X61495000Y-163417778D01*
X61220357Y-163390728D01*
X61024984Y-163331462D01*
X60956264Y-163310616D01*
X60712883Y-163180526D01*
X60712881Y-163180525D01*
X60671203Y-163146320D01*
X60499550Y-163005450D01*
X60331763Y-162801000D01*
X60324475Y-162792120D01*
X60305109Y-162755889D01*
X60194384Y-162548737D01*
X60165870Y-162454740D01*
X60114272Y-162284644D01*
X60094000Y-162078818D01*
X60094000Y-161341183D01*
X60114272Y-161135357D01*
X60194383Y-160871268D01*
X60194384Y-160871264D01*
X60324474Y-160627883D01*
X60324475Y-160627881D01*
X60358680Y-160586203D01*
X60499550Y-160414550D01*
X60673360Y-160271908D01*
X60712880Y-160239475D01*
X60726798Y-160232036D01*
X60956263Y-160109384D01*
X61024983Y-160088538D01*
X61220356Y-160029272D01*
X61495000Y-160002222D01*
X61769643Y-160029272D01*
X61769643Y-160029272D01*
G37*
G36*
X44497585Y-159728802D02*
G01*
X44647410Y-159758604D01*
X44929674Y-159875521D01*
X45183705Y-160045259D01*
X45399741Y-160261295D01*
X45569479Y-160515326D01*
X45686396Y-160797590D01*
X45746000Y-161097240D01*
X45746000Y-161402760D01*
X45686396Y-161702410D01*
X45569479Y-161984674D01*
X45399741Y-162238705D01*
X45183705Y-162454741D01*
X44929674Y-162624479D01*
X44647410Y-162741396D01*
X44497585Y-162771198D01*
X44347761Y-162801000D01*
X44042239Y-162801000D01*
X43892415Y-162771198D01*
X43742590Y-162741396D01*
X43460326Y-162624479D01*
X43206295Y-162454741D01*
X42990259Y-162238705D01*
X42820521Y-161984674D01*
X42703604Y-161702410D01*
X42644000Y-161402760D01*
X42644000Y-161097240D01*
X42703604Y-160797590D01*
X42820521Y-160515326D01*
X42990259Y-160261295D01*
X43206295Y-160045259D01*
X43460326Y-159875521D01*
X43742590Y-159758604D01*
X43892415Y-159728802D01*
X44042239Y-159699000D01*
X44347761Y-159699000D01*
X44497585Y-159728802D01*
X44497585Y-159728802D01*
G37*
G36*
X116027585Y-159728802D02*
G01*
X116177410Y-159758604D01*
X116459674Y-159875521D01*
X116713705Y-160045259D01*
X116929741Y-160261295D01*
X117099479Y-160515326D01*
X117216396Y-160797590D01*
X117276000Y-161097240D01*
X117276000Y-161402760D01*
X117216396Y-161702410D01*
X117099479Y-161984674D01*
X116929741Y-162238705D01*
X116713705Y-162454741D01*
X116459674Y-162624479D01*
X116177410Y-162741396D01*
X116027585Y-162771198D01*
X115877761Y-162801000D01*
X115572239Y-162801000D01*
X115422415Y-162771198D01*
X115272590Y-162741396D01*
X114990326Y-162624479D01*
X114736295Y-162454741D01*
X114520259Y-162238705D01*
X114350521Y-161984674D01*
X114233604Y-161702410D01*
X114174000Y-161402760D01*
X114174000Y-161097240D01*
X114233604Y-160797590D01*
X114350521Y-160515326D01*
X114520259Y-160261295D01*
X114736295Y-160045259D01*
X114990326Y-159875521D01*
X115272590Y-159758604D01*
X115422415Y-159728802D01*
X115572239Y-159699000D01*
X115877761Y-159699000D01*
X116027585Y-159728802D01*
X116027585Y-159728802D01*
G37*
G36*
X94027585Y-159728802D02*
G01*
X94177410Y-159758604D01*
X94459674Y-159875521D01*
X94713705Y-160045259D01*
X94929741Y-160261295D01*
X95099479Y-160515326D01*
X95216396Y-160797590D01*
X95276000Y-161097240D01*
X95276000Y-161402760D01*
X95216396Y-161702410D01*
X95099479Y-161984674D01*
X94929741Y-162238705D01*
X94713705Y-162454741D01*
X94459674Y-162624479D01*
X94177410Y-162741396D01*
X94027585Y-162771198D01*
X93877761Y-162801000D01*
X93572239Y-162801000D01*
X93422415Y-162771198D01*
X93272590Y-162741396D01*
X92990326Y-162624479D01*
X92736295Y-162454741D01*
X92520259Y-162238705D01*
X92350521Y-161984674D01*
X92233604Y-161702410D01*
X92174000Y-161402760D01*
X92174000Y-161097240D01*
X92233604Y-160797590D01*
X92350521Y-160515326D01*
X92520259Y-160261295D01*
X92736295Y-160045259D01*
X92990326Y-159875521D01*
X93272590Y-159758604D01*
X93422415Y-159728802D01*
X93572239Y-159699000D01*
X93877761Y-159699000D01*
X94027585Y-159728802D01*
X94027585Y-159728802D01*
G37*
G36*
X74897585Y-159728802D02*
G01*
X75047410Y-159758604D01*
X75329674Y-159875521D01*
X75583705Y-160045259D01*
X75799741Y-160261295D01*
X75969479Y-160515326D01*
X76086396Y-160797590D01*
X76146000Y-161097240D01*
X76146000Y-161402760D01*
X76086396Y-161702410D01*
X75969479Y-161984674D01*
X75799741Y-162238705D01*
X75583705Y-162454741D01*
X75329674Y-162624479D01*
X75047410Y-162741396D01*
X74897585Y-162771198D01*
X74747761Y-162801000D01*
X74442239Y-162801000D01*
X74292415Y-162771198D01*
X74142590Y-162741396D01*
X73860326Y-162624479D01*
X73606295Y-162454741D01*
X73390259Y-162238705D01*
X73220521Y-161984674D01*
X73103604Y-161702410D01*
X73044000Y-161402760D01*
X73044000Y-161097240D01*
X73103604Y-160797590D01*
X73220521Y-160515326D01*
X73390259Y-160261295D01*
X73606295Y-160045259D01*
X73860326Y-159875521D01*
X74142590Y-159758604D01*
X74292415Y-159728802D01*
X74442239Y-159699000D01*
X74747761Y-159699000D01*
X74897585Y-159728802D01*
X74897585Y-159728802D01*
G37*
G36*
X111299643Y-154529272D02*
G01*
X111495016Y-154588538D01*
X111563736Y-154609384D01*
X111766624Y-154717830D01*
X111807119Y-154739475D01*
X111842419Y-154768445D01*
X112020450Y-154914550D01*
X112158025Y-155082187D01*
X112195525Y-155127880D01*
X112195526Y-155127882D01*
X112325616Y-155371263D01*
X112328541Y-155380907D01*
X112405728Y-155635356D01*
X112426000Y-155841182D01*
X112426000Y-156578817D01*
X112405728Y-156784643D01*
X112367066Y-156912093D01*
X112325616Y-157048737D01*
X112246100Y-157197500D01*
X112195525Y-157292120D01*
X112150075Y-157347500D01*
X112020450Y-157505450D01*
X111862691Y-157634918D01*
X111807120Y-157680525D01*
X111807118Y-157680526D01*
X111563737Y-157810616D01*
X111495017Y-157831462D01*
X111299644Y-157890728D01*
X111025000Y-157917778D01*
X110750357Y-157890728D01*
X110554984Y-157831462D01*
X110486264Y-157810616D01*
X110242883Y-157680526D01*
X110242881Y-157680525D01*
X110201203Y-157646320D01*
X110029550Y-157505450D01*
X109862047Y-157301346D01*
X109854475Y-157292120D01*
X109803900Y-157197500D01*
X109724384Y-157048737D01*
X109698335Y-156962865D01*
X109644272Y-156784644D01*
X109624000Y-156578818D01*
X109624000Y-155841183D01*
X109644272Y-155635357D01*
X109724383Y-155371268D01*
X109724384Y-155371264D01*
X109854474Y-155127883D01*
X109854475Y-155127881D01*
X109891975Y-155082187D01*
X110029550Y-154914550D01*
X110203360Y-154771908D01*
X110242880Y-154739475D01*
X110283375Y-154717830D01*
X110486263Y-154609384D01*
X110554983Y-154588538D01*
X110750356Y-154529272D01*
X111025000Y-154502222D01*
X111299643Y-154529272D01*
X111299643Y-154529272D01*
G37*
G36*
X107099643Y-154529272D02*
G01*
X107295016Y-154588538D01*
X107363736Y-154609384D01*
X107566624Y-154717830D01*
X107607119Y-154739475D01*
X107642419Y-154768445D01*
X107820450Y-154914550D01*
X107958025Y-155082187D01*
X107995525Y-155127880D01*
X107995526Y-155127882D01*
X108125616Y-155371263D01*
X108128541Y-155380907D01*
X108205728Y-155635356D01*
X108226000Y-155841182D01*
X108226000Y-156578817D01*
X108205728Y-156784643D01*
X108167066Y-156912093D01*
X108125616Y-157048737D01*
X108046100Y-157197500D01*
X107995525Y-157292120D01*
X107950075Y-157347500D01*
X107820450Y-157505450D01*
X107662691Y-157634918D01*
X107607120Y-157680525D01*
X107607118Y-157680526D01*
X107363737Y-157810616D01*
X107295017Y-157831462D01*
X107099644Y-157890728D01*
X106825000Y-157917778D01*
X106550357Y-157890728D01*
X106354984Y-157831462D01*
X106286264Y-157810616D01*
X106042883Y-157680526D01*
X106042881Y-157680525D01*
X106001203Y-157646320D01*
X105829550Y-157505450D01*
X105662047Y-157301346D01*
X105654475Y-157292120D01*
X105603900Y-157197500D01*
X105524384Y-157048737D01*
X105498335Y-156962865D01*
X105444272Y-156784644D01*
X105424000Y-156578818D01*
X105424000Y-155841183D01*
X105444272Y-155635357D01*
X105524383Y-155371268D01*
X105524384Y-155371264D01*
X105654474Y-155127883D01*
X105654475Y-155127881D01*
X105691975Y-155082187D01*
X105829550Y-154914550D01*
X106003360Y-154771908D01*
X106042880Y-154739475D01*
X106083375Y-154717830D01*
X106286263Y-154609384D01*
X106354983Y-154588538D01*
X106550356Y-154529272D01*
X106825000Y-154502222D01*
X107099643Y-154529272D01*
X107099643Y-154529272D01*
G37*
G36*
X102899643Y-154529272D02*
G01*
X103095016Y-154588538D01*
X103163736Y-154609384D01*
X103366624Y-154717830D01*
X103407119Y-154739475D01*
X103442419Y-154768445D01*
X103620450Y-154914550D01*
X103758025Y-155082187D01*
X103795525Y-155127880D01*
X103795526Y-155127882D01*
X103925616Y-155371263D01*
X103928541Y-155380907D01*
X104005728Y-155635356D01*
X104026000Y-155841182D01*
X104026000Y-156578817D01*
X104005728Y-156784643D01*
X103967066Y-156912093D01*
X103925616Y-157048737D01*
X103846100Y-157197500D01*
X103795525Y-157292120D01*
X103750075Y-157347500D01*
X103620450Y-157505450D01*
X103462691Y-157634918D01*
X103407120Y-157680525D01*
X103407118Y-157680526D01*
X103163737Y-157810616D01*
X103095017Y-157831462D01*
X102899644Y-157890728D01*
X102625000Y-157917778D01*
X102350357Y-157890728D01*
X102154984Y-157831462D01*
X102086264Y-157810616D01*
X101842883Y-157680526D01*
X101842881Y-157680525D01*
X101801203Y-157646320D01*
X101629550Y-157505450D01*
X101462047Y-157301346D01*
X101454475Y-157292120D01*
X101403900Y-157197500D01*
X101324384Y-157048737D01*
X101298335Y-156962865D01*
X101244272Y-156784644D01*
X101224000Y-156578818D01*
X101224000Y-155841183D01*
X101244272Y-155635357D01*
X101324383Y-155371268D01*
X101324384Y-155371264D01*
X101454474Y-155127883D01*
X101454475Y-155127881D01*
X101491975Y-155082187D01*
X101629550Y-154914550D01*
X101803360Y-154771908D01*
X101842880Y-154739475D01*
X101883375Y-154717830D01*
X102086263Y-154609384D01*
X102154983Y-154588538D01*
X102350356Y-154529272D01*
X102625000Y-154502222D01*
X102899643Y-154529272D01*
X102899643Y-154529272D01*
G37*
G36*
X61769643Y-154529272D02*
G01*
X61965016Y-154588538D01*
X62033736Y-154609384D01*
X62236624Y-154717830D01*
X62277119Y-154739475D01*
X62312419Y-154768445D01*
X62490450Y-154914550D01*
X62628025Y-155082187D01*
X62665525Y-155127880D01*
X62665526Y-155127882D01*
X62795616Y-155371263D01*
X62798541Y-155380907D01*
X62875728Y-155635356D01*
X62896000Y-155841182D01*
X62896000Y-156578817D01*
X62875728Y-156784643D01*
X62837066Y-156912093D01*
X62795616Y-157048737D01*
X62716100Y-157197500D01*
X62665525Y-157292120D01*
X62620075Y-157347500D01*
X62490450Y-157505450D01*
X62332691Y-157634918D01*
X62277120Y-157680525D01*
X62277118Y-157680526D01*
X62033737Y-157810616D01*
X61965017Y-157831462D01*
X61769644Y-157890728D01*
X61495000Y-157917778D01*
X61220357Y-157890728D01*
X61024984Y-157831462D01*
X60956264Y-157810616D01*
X60712883Y-157680526D01*
X60712881Y-157680525D01*
X60671203Y-157646320D01*
X60499550Y-157505450D01*
X60332047Y-157301346D01*
X60324475Y-157292120D01*
X60273900Y-157197500D01*
X60194384Y-157048737D01*
X60168335Y-156962865D01*
X60114272Y-156784644D01*
X60094000Y-156578818D01*
X60094000Y-155841183D01*
X60114272Y-155635357D01*
X60194383Y-155371268D01*
X60194384Y-155371264D01*
X60324474Y-155127883D01*
X60324475Y-155127881D01*
X60361975Y-155082187D01*
X60499550Y-154914550D01*
X60673360Y-154771908D01*
X60712880Y-154739475D01*
X60753375Y-154717830D01*
X60956263Y-154609384D01*
X61024983Y-154588538D01*
X61220356Y-154529272D01*
X61495000Y-154502222D01*
X61769643Y-154529272D01*
X61769643Y-154529272D01*
G37*
G36*
X65969643Y-154529272D02*
G01*
X66165016Y-154588538D01*
X66233736Y-154609384D01*
X66436624Y-154717830D01*
X66477119Y-154739475D01*
X66512419Y-154768445D01*
X66690450Y-154914550D01*
X66828025Y-155082187D01*
X66865525Y-155127880D01*
X66865526Y-155127882D01*
X66995616Y-155371263D01*
X66998541Y-155380907D01*
X67075728Y-155635356D01*
X67096000Y-155841182D01*
X67096000Y-156578817D01*
X67075728Y-156784643D01*
X67037066Y-156912093D01*
X66995616Y-157048737D01*
X66916100Y-157197500D01*
X66865525Y-157292120D01*
X66820075Y-157347500D01*
X66690450Y-157505450D01*
X66532691Y-157634918D01*
X66477120Y-157680525D01*
X66477118Y-157680526D01*
X66233737Y-157810616D01*
X66165017Y-157831462D01*
X65969644Y-157890728D01*
X65695000Y-157917778D01*
X65420357Y-157890728D01*
X65224984Y-157831462D01*
X65156264Y-157810616D01*
X64912883Y-157680526D01*
X64912881Y-157680525D01*
X64871203Y-157646320D01*
X64699550Y-157505450D01*
X64532047Y-157301346D01*
X64524475Y-157292120D01*
X64473900Y-157197500D01*
X64394384Y-157048737D01*
X64368335Y-156962865D01*
X64314272Y-156784644D01*
X64294000Y-156578818D01*
X64294000Y-155841183D01*
X64314272Y-155635357D01*
X64394383Y-155371268D01*
X64394384Y-155371264D01*
X64524474Y-155127883D01*
X64524475Y-155127881D01*
X64561975Y-155082187D01*
X64699550Y-154914550D01*
X64873360Y-154771908D01*
X64912880Y-154739475D01*
X64953375Y-154717830D01*
X65156263Y-154609384D01*
X65224983Y-154588538D01*
X65420356Y-154529272D01*
X65695000Y-154502222D01*
X65969643Y-154529272D01*
X65969643Y-154529272D01*
G37*
G36*
X70169643Y-154529272D02*
G01*
X70365016Y-154588538D01*
X70433736Y-154609384D01*
X70636624Y-154717830D01*
X70677119Y-154739475D01*
X70712419Y-154768445D01*
X70890450Y-154914550D01*
X71028025Y-155082187D01*
X71065525Y-155127880D01*
X71065526Y-155127882D01*
X71195616Y-155371263D01*
X71198541Y-155380907D01*
X71275728Y-155635356D01*
X71296000Y-155841182D01*
X71296000Y-156578817D01*
X71275728Y-156784643D01*
X71237066Y-156912093D01*
X71195616Y-157048737D01*
X71116100Y-157197500D01*
X71065525Y-157292120D01*
X71020075Y-157347500D01*
X70890450Y-157505450D01*
X70732691Y-157634918D01*
X70677120Y-157680525D01*
X70677118Y-157680526D01*
X70433737Y-157810616D01*
X70365017Y-157831462D01*
X70169644Y-157890728D01*
X69895000Y-157917778D01*
X69620357Y-157890728D01*
X69424984Y-157831462D01*
X69356264Y-157810616D01*
X69112883Y-157680526D01*
X69112881Y-157680525D01*
X69071203Y-157646320D01*
X68899550Y-157505450D01*
X68732047Y-157301346D01*
X68724475Y-157292120D01*
X68673900Y-157197500D01*
X68594384Y-157048737D01*
X68568335Y-156962865D01*
X68514272Y-156784644D01*
X68494000Y-156578818D01*
X68494000Y-155841183D01*
X68514272Y-155635357D01*
X68594383Y-155371268D01*
X68594384Y-155371264D01*
X68724474Y-155127883D01*
X68724475Y-155127881D01*
X68761975Y-155082187D01*
X68899550Y-154914550D01*
X69073360Y-154771908D01*
X69112880Y-154739475D01*
X69153375Y-154717830D01*
X69356263Y-154609384D01*
X69424983Y-154588538D01*
X69620356Y-154529272D01*
X69895000Y-154502222D01*
X70169643Y-154529272D01*
X70169643Y-154529272D01*
G37*
G36*
X57569643Y-154529272D02*
G01*
X57765016Y-154588538D01*
X57833736Y-154609384D01*
X58036624Y-154717830D01*
X58077119Y-154739475D01*
X58112419Y-154768445D01*
X58290450Y-154914550D01*
X58428025Y-155082187D01*
X58465525Y-155127880D01*
X58465526Y-155127882D01*
X58595616Y-155371263D01*
X58598541Y-155380907D01*
X58675728Y-155635356D01*
X58696000Y-155841182D01*
X58696000Y-156578817D01*
X58675728Y-156784643D01*
X58637066Y-156912093D01*
X58595616Y-157048737D01*
X58516100Y-157197500D01*
X58465525Y-157292120D01*
X58420075Y-157347500D01*
X58290450Y-157505450D01*
X58132691Y-157634918D01*
X58077120Y-157680525D01*
X58077118Y-157680526D01*
X57833737Y-157810616D01*
X57765017Y-157831462D01*
X57569644Y-157890728D01*
X57295000Y-157917778D01*
X57020357Y-157890728D01*
X56824984Y-157831462D01*
X56756264Y-157810616D01*
X56512883Y-157680526D01*
X56512881Y-157680525D01*
X56471203Y-157646320D01*
X56299550Y-157505450D01*
X56132047Y-157301346D01*
X56124475Y-157292120D01*
X56073900Y-157197500D01*
X55994384Y-157048737D01*
X55968335Y-156962865D01*
X55914272Y-156784644D01*
X55894000Y-156578818D01*
X55894000Y-155841183D01*
X55914272Y-155635357D01*
X55994383Y-155371268D01*
X55994384Y-155371264D01*
X56124474Y-155127883D01*
X56124475Y-155127881D01*
X56161975Y-155082187D01*
X56299550Y-154914550D01*
X56473360Y-154771908D01*
X56512880Y-154739475D01*
X56553375Y-154717830D01*
X56756263Y-154609384D01*
X56824983Y-154588538D01*
X57020356Y-154529272D01*
X57295000Y-154502222D01*
X57569643Y-154529272D01*
X57569643Y-154529272D01*
G37*
G36*
X53369643Y-154529272D02*
G01*
X53565016Y-154588538D01*
X53633736Y-154609384D01*
X53836624Y-154717830D01*
X53877119Y-154739475D01*
X53912419Y-154768445D01*
X54090450Y-154914550D01*
X54228025Y-155082187D01*
X54265525Y-155127880D01*
X54265526Y-155127882D01*
X54395616Y-155371263D01*
X54398541Y-155380907D01*
X54475728Y-155635356D01*
X54496000Y-155841182D01*
X54496000Y-156578817D01*
X54475728Y-156784643D01*
X54437066Y-156912093D01*
X54395616Y-157048737D01*
X54316100Y-157197500D01*
X54265525Y-157292120D01*
X54220075Y-157347500D01*
X54090450Y-157505450D01*
X53932691Y-157634918D01*
X53877120Y-157680525D01*
X53877118Y-157680526D01*
X53633737Y-157810616D01*
X53565017Y-157831462D01*
X53369644Y-157890728D01*
X53095000Y-157917778D01*
X52820357Y-157890728D01*
X52624984Y-157831462D01*
X52556264Y-157810616D01*
X52312883Y-157680526D01*
X52312881Y-157680525D01*
X52271203Y-157646320D01*
X52099550Y-157505450D01*
X51932047Y-157301346D01*
X51924475Y-157292120D01*
X51873900Y-157197500D01*
X51794384Y-157048737D01*
X51768335Y-156962865D01*
X51714272Y-156784644D01*
X51694000Y-156578818D01*
X51694000Y-155841183D01*
X51714272Y-155635357D01*
X51794383Y-155371268D01*
X51794384Y-155371264D01*
X51924474Y-155127883D01*
X51924475Y-155127881D01*
X51961975Y-155082187D01*
X52099550Y-154914550D01*
X52273360Y-154771908D01*
X52312880Y-154739475D01*
X52353375Y-154717830D01*
X52556263Y-154609384D01*
X52624983Y-154588538D01*
X52820356Y-154529272D01*
X53095000Y-154502222D01*
X53369643Y-154529272D01*
X53369643Y-154529272D01*
G37*
G36*
X50169031Y-154512621D02*
G01*
X50198486Y-154521556D01*
X50225623Y-154536062D01*
X50249414Y-154555586D01*
X50268938Y-154579377D01*
X50283444Y-154606514D01*
X50292379Y-154635969D01*
X50296000Y-154672734D01*
X50296000Y-157747266D01*
X50292379Y-157784031D01*
X50283444Y-157813486D01*
X50268938Y-157840623D01*
X50249414Y-157864414D01*
X50225623Y-157883938D01*
X50198486Y-157898444D01*
X50169031Y-157907379D01*
X50132266Y-157911000D01*
X47657734Y-157911000D01*
X47620969Y-157907379D01*
X47591514Y-157898444D01*
X47564377Y-157883938D01*
X47540586Y-157864414D01*
X47521062Y-157840623D01*
X47506556Y-157813486D01*
X47497621Y-157784031D01*
X47494000Y-157747266D01*
X47494000Y-154672734D01*
X47497621Y-154635969D01*
X47506556Y-154606514D01*
X47521062Y-154579377D01*
X47540586Y-154555586D01*
X47564377Y-154536062D01*
X47591514Y-154521556D01*
X47620969Y-154512621D01*
X47657734Y-154509000D01*
X50132266Y-154509000D01*
X50169031Y-154512621D01*
X50169031Y-154512621D01*
G37*
G36*
X99699031Y-154512621D02*
G01*
X99728486Y-154521556D01*
X99755623Y-154536062D01*
X99779414Y-154555586D01*
X99798938Y-154579377D01*
X99813444Y-154606514D01*
X99822379Y-154635969D01*
X99826000Y-154672734D01*
X99826000Y-157747266D01*
X99822379Y-157784031D01*
X99813444Y-157813486D01*
X99798938Y-157840623D01*
X99779414Y-157864414D01*
X99755623Y-157883938D01*
X99728486Y-157898444D01*
X99699031Y-157907379D01*
X99662266Y-157911000D01*
X97187734Y-157911000D01*
X97150969Y-157907379D01*
X97121514Y-157898444D01*
X97094377Y-157883938D01*
X97070586Y-157864414D01*
X97051062Y-157840623D01*
X97036556Y-157813486D01*
X97027621Y-157784031D01*
X97024000Y-157747266D01*
X97024000Y-154672734D01*
X97027621Y-154635969D01*
X97036556Y-154606514D01*
X97051062Y-154579377D01*
X97070586Y-154555586D01*
X97094377Y-154536062D01*
X97121514Y-154521556D01*
X97150969Y-154512621D01*
X97187734Y-154509000D01*
X99662266Y-154509000D01*
X99699031Y-154512621D01*
X99699031Y-154512621D01*
G37*
G36*
X81919031Y-154512621D02*
G01*
X81948486Y-154521556D01*
X81975623Y-154536062D01*
X81999414Y-154555586D01*
X82018938Y-154579377D01*
X82033444Y-154606514D01*
X82042379Y-154635969D01*
X82046000Y-154672734D01*
X82046000Y-157747266D01*
X82042379Y-157784031D01*
X82033444Y-157813486D01*
X82018938Y-157840623D01*
X81999414Y-157864414D01*
X81975623Y-157883938D01*
X81948486Y-157898444D01*
X81919031Y-157907379D01*
X81882266Y-157911000D01*
X79407734Y-157911000D01*
X79370969Y-157907379D01*
X79341514Y-157898444D01*
X79314377Y-157883938D01*
X79290586Y-157864414D01*
X79271062Y-157840623D01*
X79256556Y-157813486D01*
X79247621Y-157784031D01*
X79244000Y-157747266D01*
X79244000Y-154672734D01*
X79247621Y-154635969D01*
X79256556Y-154606514D01*
X79271062Y-154579377D01*
X79290586Y-154555586D01*
X79314377Y-154536062D01*
X79341514Y-154521556D01*
X79370969Y-154512621D01*
X79407734Y-154509000D01*
X81882266Y-154509000D01*
X81919031Y-154512621D01*
X81919031Y-154512621D01*
G37*
G36*
X88904031Y-154512621D02*
G01*
X88933486Y-154521556D01*
X88960623Y-154536062D01*
X88984414Y-154555586D01*
X89003938Y-154579377D01*
X89018444Y-154606514D01*
X89027379Y-154635969D01*
X89031000Y-154672734D01*
X89031000Y-157747266D01*
X89027379Y-157784031D01*
X89018444Y-157813486D01*
X89003938Y-157840623D01*
X88984414Y-157864414D01*
X88960623Y-157883938D01*
X88933486Y-157898444D01*
X88904031Y-157907379D01*
X88867266Y-157911000D01*
X86392734Y-157911000D01*
X86355969Y-157907379D01*
X86326514Y-157898444D01*
X86299377Y-157883938D01*
X86275586Y-157864414D01*
X86256062Y-157840623D01*
X86241556Y-157813486D01*
X86232621Y-157784031D01*
X86229000Y-157747266D01*
X86229000Y-154672734D01*
X86232621Y-154635969D01*
X86241556Y-154606514D01*
X86256062Y-154579377D01*
X86275586Y-154555586D01*
X86299377Y-154536062D01*
X86326514Y-154521556D01*
X86355969Y-154512621D01*
X86392734Y-154509000D01*
X88867266Y-154509000D01*
X88904031Y-154512621D01*
X88904031Y-154512621D01*
G37*
G36*
X130588818Y-154991653D02*
G01*
X130807385Y-155082187D01*
X130807387Y-155082188D01*
X131004093Y-155213622D01*
X131171378Y-155380907D01*
X131302812Y-155577613D01*
X131302813Y-155577615D01*
X131393347Y-155796182D01*
X131439500Y-156028210D01*
X131439500Y-156264790D01*
X131393347Y-156496818D01*
X131359380Y-156578820D01*
X131302812Y-156715387D01*
X131171378Y-156912093D01*
X131004093Y-157079378D01*
X130807387Y-157210812D01*
X130807386Y-157210813D01*
X130807385Y-157210813D01*
X130588818Y-157301347D01*
X130356790Y-157347500D01*
X130120210Y-157347500D01*
X129888182Y-157301347D01*
X129669615Y-157210813D01*
X129669614Y-157210813D01*
X129669613Y-157210812D01*
X129472907Y-157079378D01*
X129305622Y-156912093D01*
X129174188Y-156715387D01*
X129117620Y-156578820D01*
X129083653Y-156496818D01*
X129037500Y-156264790D01*
X129037500Y-156028210D01*
X129083653Y-155796182D01*
X129174187Y-155577615D01*
X129174188Y-155577613D01*
X129305622Y-155380907D01*
X129472907Y-155213622D01*
X129669613Y-155082188D01*
X129669615Y-155082187D01*
X129888182Y-154991653D01*
X130120210Y-154945500D01*
X130356790Y-154945500D01*
X130588818Y-154991653D01*
X130588818Y-154991653D01*
G37*
G36*
X122968818Y-154991653D02*
G01*
X123187385Y-155082187D01*
X123187387Y-155082188D01*
X123384093Y-155213622D01*
X123551378Y-155380907D01*
X123682812Y-155577613D01*
X123682813Y-155577615D01*
X123773347Y-155796182D01*
X123819500Y-156028210D01*
X123819500Y-156264790D01*
X123773347Y-156496818D01*
X123739380Y-156578820D01*
X123682812Y-156715387D01*
X123551378Y-156912093D01*
X123384093Y-157079378D01*
X123187387Y-157210812D01*
X123187386Y-157210813D01*
X123187385Y-157210813D01*
X122968818Y-157301347D01*
X122736790Y-157347500D01*
X122500210Y-157347500D01*
X122268182Y-157301347D01*
X122049615Y-157210813D01*
X122049614Y-157210813D01*
X122049613Y-157210812D01*
X121852907Y-157079378D01*
X121685622Y-156912093D01*
X121554188Y-156715387D01*
X121497620Y-156578820D01*
X121463653Y-156496818D01*
X121417500Y-156264790D01*
X121417500Y-156028210D01*
X121463653Y-155796182D01*
X121554187Y-155577615D01*
X121554188Y-155577613D01*
X121685622Y-155380907D01*
X121852907Y-155213622D01*
X122049613Y-155082188D01*
X122049615Y-155082187D01*
X122268182Y-154991653D01*
X122500210Y-154945500D01*
X122736790Y-154945500D01*
X122968818Y-154991653D01*
X122968818Y-154991653D01*
G37*
G36*
X140705064Y-155135889D02*
G01*
X140896333Y-155215115D01*
X140896335Y-155215116D01*
X141068473Y-155330135D01*
X141214865Y-155476527D01*
X141320993Y-155635358D01*
X141329885Y-155648667D01*
X141409111Y-155839936D01*
X141449500Y-156042984D01*
X141449500Y-156250016D01*
X141409111Y-156453064D01*
X141357021Y-156578820D01*
X141329884Y-156644335D01*
X141214865Y-156816473D01*
X141068473Y-156962865D01*
X140896335Y-157077884D01*
X140896334Y-157077885D01*
X140896333Y-157077885D01*
X140705064Y-157157111D01*
X140502016Y-157197500D01*
X140294984Y-157197500D01*
X140091936Y-157157111D01*
X139900667Y-157077885D01*
X139900666Y-157077885D01*
X139900665Y-157077884D01*
X139728527Y-156962865D01*
X139582135Y-156816473D01*
X139467116Y-156644335D01*
X139439979Y-156578820D01*
X139387889Y-156453064D01*
X139347500Y-156250016D01*
X139347500Y-156042984D01*
X139387889Y-155839936D01*
X139467115Y-155648667D01*
X139476008Y-155635358D01*
X139582135Y-155476527D01*
X139728527Y-155330135D01*
X139900665Y-155215116D01*
X139900667Y-155215115D01*
X140091936Y-155135889D01*
X140294984Y-155095500D01*
X140502016Y-155095500D01*
X140705064Y-155135889D01*
X140705064Y-155135889D01*
G37*
G36*
X158929294Y-145148633D02*
G01*
X159101695Y-145200931D01*
X159260583Y-145285858D01*
X159399849Y-145400151D01*
X159514142Y-145539417D01*
X159599069Y-145698305D01*
X159651367Y-145870706D01*
X159669025Y-146050000D01*
X159651367Y-146229294D01*
X159599069Y-146401695D01*
X159514142Y-146560583D01*
X159399849Y-146699849D01*
X159260583Y-146814142D01*
X159101695Y-146899069D01*
X158929294Y-146951367D01*
X158794931Y-146964600D01*
X158705069Y-146964600D01*
X158570706Y-146951367D01*
X158398305Y-146899069D01*
X158239417Y-146814142D01*
X158100151Y-146699849D01*
X157985858Y-146560583D01*
X157900931Y-146401695D01*
X157848633Y-146229294D01*
X157830975Y-146050000D01*
X157848633Y-145870706D01*
X157900931Y-145698305D01*
X157985858Y-145539417D01*
X158100151Y-145400151D01*
X158239417Y-145285858D01*
X158398305Y-145200931D01*
X158570706Y-145148633D01*
X158705069Y-145135400D01*
X158794931Y-145135400D01*
X158929294Y-145148633D01*
X158929294Y-145148633D01*
G37*
G36*
X156389294Y-145148633D02*
G01*
X156561695Y-145200931D01*
X156720583Y-145285858D01*
X156859849Y-145400151D01*
X156974142Y-145539417D01*
X157059069Y-145698305D01*
X157111367Y-145870706D01*
X157129025Y-146050000D01*
X157111367Y-146229294D01*
X157059069Y-146401695D01*
X156974142Y-146560583D01*
X156859849Y-146699849D01*
X156720583Y-146814142D01*
X156561695Y-146899069D01*
X156389294Y-146951367D01*
X156254931Y-146964600D01*
X156165069Y-146964600D01*
X156030706Y-146951367D01*
X155858305Y-146899069D01*
X155699417Y-146814142D01*
X155560151Y-146699849D01*
X155445858Y-146560583D01*
X155360931Y-146401695D01*
X155308633Y-146229294D01*
X155290975Y-146050000D01*
X155308633Y-145870706D01*
X155360931Y-145698305D01*
X155445858Y-145539417D01*
X155560151Y-145400151D01*
X155699417Y-145285858D01*
X155858305Y-145200931D01*
X156030706Y-145148633D01*
X156165069Y-145135400D01*
X156254931Y-145135400D01*
X156389294Y-145148633D01*
X156389294Y-145148633D01*
G37*
G36*
X74405443Y-143250519D02*
G01*
X74471627Y-143257037D01*
X74641466Y-143308557D01*
X74797991Y-143392222D01*
X74833729Y-143421552D01*
X74935186Y-143504814D01*
X75018448Y-143606271D01*
X75047778Y-143642009D01*
X75131443Y-143798534D01*
X75182963Y-143968373D01*
X75200359Y-144145000D01*
X75182963Y-144321627D01*
X75131443Y-144491466D01*
X75047778Y-144647991D01*
X75018448Y-144683729D01*
X74935186Y-144785186D01*
X74833729Y-144868448D01*
X74797991Y-144897778D01*
X74641466Y-144981443D01*
X74471627Y-145032963D01*
X74405443Y-145039481D01*
X74339260Y-145046000D01*
X74250740Y-145046000D01*
X74184557Y-145039481D01*
X74118373Y-145032963D01*
X73948534Y-144981443D01*
X73792009Y-144897778D01*
X73756271Y-144868448D01*
X73654814Y-144785186D01*
X73571552Y-144683729D01*
X73542222Y-144647991D01*
X73458557Y-144491466D01*
X73407037Y-144321627D01*
X73389641Y-144145000D01*
X73407037Y-143968373D01*
X73458557Y-143798534D01*
X73542222Y-143642009D01*
X73571552Y-143606271D01*
X73654814Y-143504814D01*
X73756271Y-143421552D01*
X73792009Y-143392222D01*
X73948534Y-143308557D01*
X74118373Y-143257037D01*
X74184557Y-143250519D01*
X74250740Y-143244000D01*
X74339260Y-143244000D01*
X74405443Y-143250519D01*
X74405443Y-143250519D01*
G37*
G36*
X158929294Y-142608633D02*
G01*
X159101695Y-142660931D01*
X159260583Y-142745858D01*
X159399849Y-142860151D01*
X159514142Y-142999417D01*
X159599069Y-143158305D01*
X159651367Y-143330706D01*
X159669025Y-143510000D01*
X159651367Y-143689294D01*
X159599069Y-143861695D01*
X159514142Y-144020583D01*
X159399849Y-144159849D01*
X159260583Y-144274142D01*
X159101695Y-144359069D01*
X158929294Y-144411367D01*
X158794931Y-144424600D01*
X158705069Y-144424600D01*
X158570706Y-144411367D01*
X158398305Y-144359069D01*
X158239417Y-144274142D01*
X158100151Y-144159849D01*
X157985858Y-144020583D01*
X157900931Y-143861695D01*
X157848633Y-143689294D01*
X157830975Y-143510000D01*
X157848633Y-143330706D01*
X157900931Y-143158305D01*
X157985858Y-142999417D01*
X158100151Y-142860151D01*
X158239417Y-142745858D01*
X158398305Y-142660931D01*
X158570706Y-142608633D01*
X158705069Y-142595400D01*
X158794931Y-142595400D01*
X158929294Y-142608633D01*
X158929294Y-142608633D01*
G37*
G36*
X156389294Y-142608633D02*
G01*
X156561695Y-142660931D01*
X156720583Y-142745858D01*
X156859849Y-142860151D01*
X156974142Y-142999417D01*
X157059069Y-143158305D01*
X157111367Y-143330706D01*
X157129025Y-143510000D01*
X157111367Y-143689294D01*
X157059069Y-143861695D01*
X156974142Y-144020583D01*
X156859849Y-144159849D01*
X156720583Y-144274142D01*
X156561695Y-144359069D01*
X156389294Y-144411367D01*
X156254931Y-144424600D01*
X156165069Y-144424600D01*
X156030706Y-144411367D01*
X155858305Y-144359069D01*
X155699417Y-144274142D01*
X155560151Y-144159849D01*
X155445858Y-144020583D01*
X155360931Y-143861695D01*
X155308633Y-143689294D01*
X155290975Y-143510000D01*
X155308633Y-143330706D01*
X155360931Y-143158305D01*
X155445858Y-142999417D01*
X155560151Y-142860151D01*
X155699417Y-142745858D01*
X155858305Y-142660931D01*
X156030706Y-142608633D01*
X156165069Y-142595400D01*
X156254931Y-142595400D01*
X156389294Y-142608633D01*
X156389294Y-142608633D01*
G37*
G36*
X74405442Y-140710518D02*
G01*
X74471627Y-140717037D01*
X74641466Y-140768557D01*
X74797991Y-140852222D01*
X74833729Y-140881552D01*
X74935186Y-140964814D01*
X75018448Y-141066271D01*
X75047778Y-141102009D01*
X75131443Y-141258534D01*
X75182963Y-141428373D01*
X75200359Y-141605000D01*
X75182963Y-141781627D01*
X75131443Y-141951466D01*
X75047778Y-142107991D01*
X75018448Y-142143729D01*
X74935186Y-142245186D01*
X74833729Y-142328448D01*
X74797991Y-142357778D01*
X74641466Y-142441443D01*
X74471627Y-142492963D01*
X74405442Y-142499482D01*
X74339260Y-142506000D01*
X74250740Y-142506000D01*
X74184558Y-142499482D01*
X74118373Y-142492963D01*
X73948534Y-142441443D01*
X73792009Y-142357778D01*
X73756271Y-142328448D01*
X73654814Y-142245186D01*
X73571552Y-142143729D01*
X73542222Y-142107991D01*
X73458557Y-141951466D01*
X73407037Y-141781627D01*
X73389641Y-141605000D01*
X73407037Y-141428373D01*
X73458557Y-141258534D01*
X73542222Y-141102009D01*
X73571552Y-141066271D01*
X73654814Y-140964814D01*
X73756271Y-140881552D01*
X73792009Y-140852222D01*
X73948534Y-140768557D01*
X74118373Y-140717037D01*
X74184558Y-140710518D01*
X74250740Y-140704000D01*
X74339260Y-140704000D01*
X74405442Y-140710518D01*
X74405442Y-140710518D01*
G37*
G36*
X156389294Y-140068633D02*
G01*
X156561695Y-140120931D01*
X156720583Y-140205858D01*
X156859849Y-140320151D01*
X156974142Y-140459417D01*
X157059069Y-140618305D01*
X157111367Y-140790706D01*
X157129025Y-140970000D01*
X157111367Y-141149294D01*
X157059069Y-141321695D01*
X156974142Y-141480583D01*
X156859849Y-141619849D01*
X156720583Y-141734142D01*
X156561695Y-141819069D01*
X156389294Y-141871367D01*
X156254931Y-141884600D01*
X156165069Y-141884600D01*
X156030706Y-141871367D01*
X155858305Y-141819069D01*
X155699417Y-141734142D01*
X155560151Y-141619849D01*
X155445858Y-141480583D01*
X155360931Y-141321695D01*
X155308633Y-141149294D01*
X155290975Y-140970000D01*
X155308633Y-140790706D01*
X155360931Y-140618305D01*
X155445858Y-140459417D01*
X155560151Y-140320151D01*
X155699417Y-140205858D01*
X155858305Y-140120931D01*
X156030706Y-140068633D01*
X156165069Y-140055400D01*
X156254931Y-140055400D01*
X156389294Y-140068633D01*
X156389294Y-140068633D01*
G37*
G36*
X158929294Y-140068633D02*
G01*
X159101695Y-140120931D01*
X159260583Y-140205858D01*
X159399849Y-140320151D01*
X159514142Y-140459417D01*
X159599069Y-140618305D01*
X159651367Y-140790706D01*
X159669025Y-140970000D01*
X159651367Y-141149294D01*
X159599069Y-141321695D01*
X159514142Y-141480583D01*
X159399849Y-141619849D01*
X159260583Y-141734142D01*
X159101695Y-141819069D01*
X158929294Y-141871367D01*
X158794931Y-141884600D01*
X158705069Y-141884600D01*
X158570706Y-141871367D01*
X158398305Y-141819069D01*
X158239417Y-141734142D01*
X158100151Y-141619849D01*
X157985858Y-141480583D01*
X157900931Y-141321695D01*
X157848633Y-141149294D01*
X157830975Y-140970000D01*
X157848633Y-140790706D01*
X157900931Y-140618305D01*
X157985858Y-140459417D01*
X158100151Y-140320151D01*
X158239417Y-140205858D01*
X158398305Y-140120931D01*
X158570706Y-140068633D01*
X158705069Y-140055400D01*
X158794931Y-140055400D01*
X158929294Y-140068633D01*
X158929294Y-140068633D01*
G37*
G36*
X74405443Y-138170519D02*
G01*
X74471627Y-138177037D01*
X74641466Y-138228557D01*
X74797991Y-138312222D01*
X74833729Y-138341552D01*
X74935186Y-138424814D01*
X75018448Y-138526271D01*
X75047778Y-138562009D01*
X75131443Y-138718534D01*
X75182963Y-138888373D01*
X75200359Y-139065000D01*
X75182963Y-139241627D01*
X75131443Y-139411466D01*
X75047778Y-139567991D01*
X75018448Y-139603729D01*
X74935186Y-139705186D01*
X74833729Y-139788448D01*
X74797991Y-139817778D01*
X74641466Y-139901443D01*
X74471627Y-139952963D01*
X74405443Y-139959481D01*
X74339260Y-139966000D01*
X74250740Y-139966000D01*
X74184557Y-139959481D01*
X74118373Y-139952963D01*
X73948534Y-139901443D01*
X73792009Y-139817778D01*
X73756271Y-139788448D01*
X73654814Y-139705186D01*
X73571552Y-139603729D01*
X73542222Y-139567991D01*
X73458557Y-139411466D01*
X73407037Y-139241627D01*
X73389641Y-139065000D01*
X73407037Y-138888373D01*
X73458557Y-138718534D01*
X73542222Y-138562009D01*
X73571552Y-138526271D01*
X73654814Y-138424814D01*
X73756271Y-138341552D01*
X73792009Y-138312222D01*
X73948534Y-138228557D01*
X74118373Y-138177037D01*
X74184557Y-138170519D01*
X74250740Y-138164000D01*
X74339260Y-138164000D01*
X74405443Y-138170519D01*
X74405443Y-138170519D01*
G37*
G36*
X158929294Y-137528633D02*
G01*
X159101695Y-137580931D01*
X159260583Y-137665858D01*
X159399849Y-137780151D01*
X159514142Y-137919417D01*
X159599069Y-138078305D01*
X159651367Y-138250706D01*
X159669025Y-138430000D01*
X159651367Y-138609294D01*
X159599069Y-138781695D01*
X159514142Y-138940583D01*
X159399849Y-139079849D01*
X159260583Y-139194142D01*
X159101695Y-139279069D01*
X158929294Y-139331367D01*
X158794931Y-139344600D01*
X158705069Y-139344600D01*
X158570706Y-139331367D01*
X158398305Y-139279069D01*
X158239417Y-139194142D01*
X158100151Y-139079849D01*
X157985858Y-138940583D01*
X157900931Y-138781695D01*
X157848633Y-138609294D01*
X157830975Y-138430000D01*
X157848633Y-138250706D01*
X157900931Y-138078305D01*
X157985858Y-137919417D01*
X158100151Y-137780151D01*
X158239417Y-137665858D01*
X158398305Y-137580931D01*
X158570706Y-137528633D01*
X158705069Y-137515400D01*
X158794931Y-137515400D01*
X158929294Y-137528633D01*
X158929294Y-137528633D01*
G37*
G36*
X156389294Y-137528633D02*
G01*
X156561695Y-137580931D01*
X156720583Y-137665858D01*
X156859849Y-137780151D01*
X156974142Y-137919417D01*
X157059069Y-138078305D01*
X157111367Y-138250706D01*
X157129025Y-138430000D01*
X157111367Y-138609294D01*
X157059069Y-138781695D01*
X156974142Y-138940583D01*
X156859849Y-139079849D01*
X156720583Y-139194142D01*
X156561695Y-139279069D01*
X156389294Y-139331367D01*
X156254931Y-139344600D01*
X156165069Y-139344600D01*
X156030706Y-139331367D01*
X155858305Y-139279069D01*
X155699417Y-139194142D01*
X155560151Y-139079849D01*
X155445858Y-138940583D01*
X155360931Y-138781695D01*
X155308633Y-138609294D01*
X155290975Y-138430000D01*
X155308633Y-138250706D01*
X155360931Y-138078305D01*
X155445858Y-137919417D01*
X155560151Y-137780151D01*
X155699417Y-137665858D01*
X155858305Y-137580931D01*
X156030706Y-137528633D01*
X156165069Y-137515400D01*
X156254931Y-137515400D01*
X156389294Y-137528633D01*
X156389294Y-137528633D01*
G37*
G36*
X112505443Y-137535519D02*
G01*
X112571627Y-137542037D01*
X112741466Y-137593557D01*
X112897991Y-137677222D01*
X112933729Y-137706552D01*
X113035186Y-137789814D01*
X113118448Y-137891271D01*
X113147778Y-137927009D01*
X113147779Y-137927011D01*
X113228648Y-138078304D01*
X113231443Y-138083534D01*
X113282963Y-138253373D01*
X113300359Y-138430000D01*
X113282963Y-138606627D01*
X113249017Y-138718532D01*
X113231442Y-138776468D01*
X113189610Y-138854729D01*
X113147778Y-138932991D01*
X113141547Y-138940583D01*
X113035186Y-139070186D01*
X112933729Y-139153448D01*
X112897991Y-139182778D01*
X112741466Y-139266443D01*
X112571627Y-139317963D01*
X112505443Y-139324481D01*
X112439260Y-139331000D01*
X112350740Y-139331000D01*
X112284557Y-139324481D01*
X112218373Y-139317963D01*
X112048534Y-139266443D01*
X111892009Y-139182778D01*
X111856271Y-139153448D01*
X111754814Y-139070186D01*
X111648453Y-138940583D01*
X111642222Y-138932991D01*
X111600390Y-138854729D01*
X111558558Y-138776468D01*
X111540983Y-138718532D01*
X111507037Y-138606627D01*
X111489641Y-138430000D01*
X111507037Y-138253373D01*
X111558557Y-138083534D01*
X111561353Y-138078304D01*
X111642221Y-137927011D01*
X111642222Y-137927009D01*
X111671552Y-137891271D01*
X111754814Y-137789814D01*
X111856271Y-137706552D01*
X111892009Y-137677222D01*
X112048534Y-137593557D01*
X112218373Y-137542037D01*
X112284557Y-137535519D01*
X112350740Y-137529000D01*
X112439260Y-137529000D01*
X112505443Y-137535519D01*
X112505443Y-137535519D01*
G37*
G36*
X94725443Y-137535519D02*
G01*
X94791627Y-137542037D01*
X94961466Y-137593557D01*
X95117991Y-137677222D01*
X95153729Y-137706552D01*
X95255186Y-137789814D01*
X95338448Y-137891271D01*
X95367778Y-137927009D01*
X95367779Y-137927011D01*
X95448648Y-138078304D01*
X95451443Y-138083534D01*
X95502963Y-138253373D01*
X95520359Y-138430000D01*
X95502963Y-138606627D01*
X95469017Y-138718532D01*
X95451442Y-138776468D01*
X95409610Y-138854729D01*
X95367778Y-138932991D01*
X95361547Y-138940583D01*
X95255186Y-139070186D01*
X95153729Y-139153448D01*
X95117991Y-139182778D01*
X94961466Y-139266443D01*
X94791627Y-139317963D01*
X94725443Y-139324481D01*
X94659260Y-139331000D01*
X94570740Y-139331000D01*
X94504557Y-139324481D01*
X94438373Y-139317963D01*
X94268534Y-139266443D01*
X94112009Y-139182778D01*
X94076271Y-139153448D01*
X93974814Y-139070186D01*
X93868453Y-138940583D01*
X93862222Y-138932991D01*
X93820390Y-138854729D01*
X93778558Y-138776468D01*
X93760983Y-138718532D01*
X93727037Y-138606627D01*
X93709641Y-138430000D01*
X93727037Y-138253373D01*
X93778557Y-138083534D01*
X93781353Y-138078304D01*
X93862221Y-137927011D01*
X93862222Y-137927009D01*
X93891552Y-137891271D01*
X93974814Y-137789814D01*
X94076271Y-137706552D01*
X94112009Y-137677222D01*
X94268534Y-137593557D01*
X94438373Y-137542037D01*
X94504557Y-137535519D01*
X94570740Y-137529000D01*
X94659260Y-137529000D01*
X94725443Y-137535519D01*
X94725443Y-137535519D01*
G37*
G36*
X122665443Y-137535519D02*
G01*
X122731627Y-137542037D01*
X122901466Y-137593557D01*
X123057991Y-137677222D01*
X123093729Y-137706552D01*
X123195186Y-137789814D01*
X123278448Y-137891271D01*
X123307778Y-137927009D01*
X123307779Y-137927011D01*
X123388648Y-138078304D01*
X123391443Y-138083534D01*
X123442963Y-138253373D01*
X123460359Y-138430000D01*
X123442963Y-138606627D01*
X123409017Y-138718532D01*
X123391442Y-138776468D01*
X123349610Y-138854729D01*
X123307778Y-138932991D01*
X123301547Y-138940583D01*
X123195186Y-139070186D01*
X123093729Y-139153448D01*
X123057991Y-139182778D01*
X122901466Y-139266443D01*
X122731627Y-139317963D01*
X122665443Y-139324481D01*
X122599260Y-139331000D01*
X122510740Y-139331000D01*
X122444557Y-139324481D01*
X122378373Y-139317963D01*
X122208534Y-139266443D01*
X122052009Y-139182778D01*
X122016271Y-139153448D01*
X121914814Y-139070186D01*
X121808453Y-138940583D01*
X121802222Y-138932991D01*
X121760390Y-138854729D01*
X121718558Y-138776468D01*
X121700983Y-138718532D01*
X121667037Y-138606627D01*
X121649641Y-138430000D01*
X121667037Y-138253373D01*
X121718557Y-138083534D01*
X121721353Y-138078304D01*
X121802221Y-137927011D01*
X121802222Y-137927009D01*
X121831552Y-137891271D01*
X121914814Y-137789814D01*
X122016271Y-137706552D01*
X122052009Y-137677222D01*
X122208534Y-137593557D01*
X122378373Y-137542037D01*
X122444557Y-137535519D01*
X122510740Y-137529000D01*
X122599260Y-137529000D01*
X122665443Y-137535519D01*
X122665443Y-137535519D01*
G37*
G36*
X120125443Y-137535519D02*
G01*
X120191627Y-137542037D01*
X120361466Y-137593557D01*
X120517991Y-137677222D01*
X120553729Y-137706552D01*
X120655186Y-137789814D01*
X120738448Y-137891271D01*
X120767778Y-137927009D01*
X120767779Y-137927011D01*
X120848648Y-138078304D01*
X120851443Y-138083534D01*
X120902963Y-138253373D01*
X120920359Y-138430000D01*
X120902963Y-138606627D01*
X120869017Y-138718532D01*
X120851442Y-138776468D01*
X120809610Y-138854729D01*
X120767778Y-138932991D01*
X120761547Y-138940583D01*
X120655186Y-139070186D01*
X120553729Y-139153448D01*
X120517991Y-139182778D01*
X120361466Y-139266443D01*
X120191627Y-139317963D01*
X120125443Y-139324481D01*
X120059260Y-139331000D01*
X119970740Y-139331000D01*
X119904557Y-139324481D01*
X119838373Y-139317963D01*
X119668534Y-139266443D01*
X119512009Y-139182778D01*
X119476271Y-139153448D01*
X119374814Y-139070186D01*
X119268453Y-138940583D01*
X119262222Y-138932991D01*
X119220390Y-138854729D01*
X119178558Y-138776468D01*
X119160983Y-138718532D01*
X119127037Y-138606627D01*
X119109641Y-138430000D01*
X119127037Y-138253373D01*
X119178557Y-138083534D01*
X119181353Y-138078304D01*
X119262221Y-137927011D01*
X119262222Y-137927009D01*
X119291552Y-137891271D01*
X119374814Y-137789814D01*
X119476271Y-137706552D01*
X119512009Y-137677222D01*
X119668534Y-137593557D01*
X119838373Y-137542037D01*
X119904557Y-137535519D01*
X119970740Y-137529000D01*
X120059260Y-137529000D01*
X120125443Y-137535519D01*
X120125443Y-137535519D01*
G37*
G36*
X92185443Y-137535519D02*
G01*
X92251627Y-137542037D01*
X92421466Y-137593557D01*
X92577991Y-137677222D01*
X92613729Y-137706552D01*
X92715186Y-137789814D01*
X92798448Y-137891271D01*
X92827778Y-137927009D01*
X92827779Y-137927011D01*
X92908648Y-138078304D01*
X92911443Y-138083534D01*
X92962963Y-138253373D01*
X92980359Y-138430000D01*
X92962963Y-138606627D01*
X92929017Y-138718532D01*
X92911442Y-138776468D01*
X92869610Y-138854729D01*
X92827778Y-138932991D01*
X92821547Y-138940583D01*
X92715186Y-139070186D01*
X92613729Y-139153448D01*
X92577991Y-139182778D01*
X92421466Y-139266443D01*
X92251627Y-139317963D01*
X92185443Y-139324481D01*
X92119260Y-139331000D01*
X92030740Y-139331000D01*
X91964557Y-139324481D01*
X91898373Y-139317963D01*
X91728534Y-139266443D01*
X91572009Y-139182778D01*
X91536271Y-139153448D01*
X91434814Y-139070186D01*
X91328453Y-138940583D01*
X91322222Y-138932991D01*
X91280390Y-138854729D01*
X91238558Y-138776468D01*
X91220983Y-138718532D01*
X91187037Y-138606627D01*
X91169641Y-138430000D01*
X91187037Y-138253373D01*
X91238557Y-138083534D01*
X91241353Y-138078304D01*
X91322221Y-137927011D01*
X91322222Y-137927009D01*
X91351552Y-137891271D01*
X91434814Y-137789814D01*
X91536271Y-137706552D01*
X91572009Y-137677222D01*
X91728534Y-137593557D01*
X91898373Y-137542037D01*
X91964557Y-137535519D01*
X92030740Y-137529000D01*
X92119260Y-137529000D01*
X92185443Y-137535519D01*
X92185443Y-137535519D01*
G37*
G36*
X99805443Y-137535519D02*
G01*
X99871627Y-137542037D01*
X100041466Y-137593557D01*
X100197991Y-137677222D01*
X100233729Y-137706552D01*
X100335186Y-137789814D01*
X100418448Y-137891271D01*
X100447778Y-137927009D01*
X100447779Y-137927011D01*
X100528648Y-138078304D01*
X100531443Y-138083534D01*
X100582963Y-138253373D01*
X100600359Y-138430000D01*
X100582963Y-138606627D01*
X100549017Y-138718532D01*
X100531442Y-138776468D01*
X100489610Y-138854729D01*
X100447778Y-138932991D01*
X100441547Y-138940583D01*
X100335186Y-139070186D01*
X100233729Y-139153448D01*
X100197991Y-139182778D01*
X100041466Y-139266443D01*
X99871627Y-139317963D01*
X99805443Y-139324481D01*
X99739260Y-139331000D01*
X99650740Y-139331000D01*
X99584557Y-139324481D01*
X99518373Y-139317963D01*
X99348534Y-139266443D01*
X99192009Y-139182778D01*
X99156271Y-139153448D01*
X99054814Y-139070186D01*
X98948453Y-138940583D01*
X98942222Y-138932991D01*
X98900390Y-138854729D01*
X98858558Y-138776468D01*
X98840983Y-138718532D01*
X98807037Y-138606627D01*
X98789641Y-138430000D01*
X98807037Y-138253373D01*
X98858557Y-138083534D01*
X98861353Y-138078304D01*
X98942221Y-137927011D01*
X98942222Y-137927009D01*
X98971552Y-137891271D01*
X99054814Y-137789814D01*
X99156271Y-137706552D01*
X99192009Y-137677222D01*
X99348534Y-137593557D01*
X99518373Y-137542037D01*
X99584557Y-137535519D01*
X99650740Y-137529000D01*
X99739260Y-137529000D01*
X99805443Y-137535519D01*
X99805443Y-137535519D01*
G37*
G36*
X90436000Y-139331000D02*
G01*
X88634000Y-139331000D01*
X88634000Y-137529000D01*
X90436000Y-137529000D01*
X90436000Y-139331000D01*
X90436000Y-139331000D01*
G37*
G36*
X125205443Y-137535519D02*
G01*
X125271627Y-137542037D01*
X125441466Y-137593557D01*
X125597991Y-137677222D01*
X125633729Y-137706552D01*
X125735186Y-137789814D01*
X125818448Y-137891271D01*
X125847778Y-137927009D01*
X125847779Y-137927011D01*
X125928648Y-138078304D01*
X125931443Y-138083534D01*
X125982963Y-138253373D01*
X126000359Y-138430000D01*
X125982963Y-138606627D01*
X125949017Y-138718532D01*
X125931442Y-138776468D01*
X125889610Y-138854729D01*
X125847778Y-138932991D01*
X125841547Y-138940583D01*
X125735186Y-139070186D01*
X125633729Y-139153448D01*
X125597991Y-139182778D01*
X125441466Y-139266443D01*
X125271627Y-139317963D01*
X125205443Y-139324481D01*
X125139260Y-139331000D01*
X125050740Y-139331000D01*
X124984557Y-139324481D01*
X124918373Y-139317963D01*
X124748534Y-139266443D01*
X124592009Y-139182778D01*
X124556271Y-139153448D01*
X124454814Y-139070186D01*
X124348453Y-138940583D01*
X124342222Y-138932991D01*
X124300390Y-138854729D01*
X124258558Y-138776468D01*
X124240983Y-138718532D01*
X124207037Y-138606627D01*
X124189641Y-138430000D01*
X124207037Y-138253373D01*
X124258557Y-138083534D01*
X124261353Y-138078304D01*
X124342221Y-137927011D01*
X124342222Y-137927009D01*
X124371552Y-137891271D01*
X124454814Y-137789814D01*
X124556271Y-137706552D01*
X124592009Y-137677222D01*
X124748534Y-137593557D01*
X124918373Y-137542037D01*
X124984557Y-137535519D01*
X125050740Y-137529000D01*
X125139260Y-137529000D01*
X125205443Y-137535519D01*
X125205443Y-137535519D01*
G37*
G36*
X117585443Y-137535519D02*
G01*
X117651627Y-137542037D01*
X117821466Y-137593557D01*
X117977991Y-137677222D01*
X118013729Y-137706552D01*
X118115186Y-137789814D01*
X118198448Y-137891271D01*
X118227778Y-137927009D01*
X118227779Y-137927011D01*
X118308648Y-138078304D01*
X118311443Y-138083534D01*
X118362963Y-138253373D01*
X118380359Y-138430000D01*
X118362963Y-138606627D01*
X118329017Y-138718532D01*
X118311442Y-138776468D01*
X118269610Y-138854729D01*
X118227778Y-138932991D01*
X118221547Y-138940583D01*
X118115186Y-139070186D01*
X118013729Y-139153448D01*
X117977991Y-139182778D01*
X117821466Y-139266443D01*
X117651627Y-139317963D01*
X117585443Y-139324481D01*
X117519260Y-139331000D01*
X117430740Y-139331000D01*
X117364557Y-139324481D01*
X117298373Y-139317963D01*
X117128534Y-139266443D01*
X116972009Y-139182778D01*
X116936271Y-139153448D01*
X116834814Y-139070186D01*
X116728453Y-138940583D01*
X116722222Y-138932991D01*
X116680390Y-138854729D01*
X116638558Y-138776468D01*
X116620983Y-138718532D01*
X116587037Y-138606627D01*
X116569641Y-138430000D01*
X116587037Y-138253373D01*
X116638557Y-138083534D01*
X116641353Y-138078304D01*
X116722221Y-137927011D01*
X116722222Y-137927009D01*
X116751552Y-137891271D01*
X116834814Y-137789814D01*
X116936271Y-137706552D01*
X116972009Y-137677222D01*
X117128534Y-137593557D01*
X117298373Y-137542037D01*
X117364557Y-137535519D01*
X117430740Y-137529000D01*
X117519260Y-137529000D01*
X117585443Y-137535519D01*
X117585443Y-137535519D01*
G37*
G36*
X115045443Y-137535519D02*
G01*
X115111627Y-137542037D01*
X115281466Y-137593557D01*
X115437991Y-137677222D01*
X115473729Y-137706552D01*
X115575186Y-137789814D01*
X115658448Y-137891271D01*
X115687778Y-137927009D01*
X115687779Y-137927011D01*
X115768648Y-138078304D01*
X115771443Y-138083534D01*
X115822963Y-138253373D01*
X115840359Y-138430000D01*
X115822963Y-138606627D01*
X115789017Y-138718532D01*
X115771442Y-138776468D01*
X115729610Y-138854729D01*
X115687778Y-138932991D01*
X115681547Y-138940583D01*
X115575186Y-139070186D01*
X115473729Y-139153448D01*
X115437991Y-139182778D01*
X115281466Y-139266443D01*
X115111627Y-139317963D01*
X115045443Y-139324481D01*
X114979260Y-139331000D01*
X114890740Y-139331000D01*
X114824557Y-139324481D01*
X114758373Y-139317963D01*
X114588534Y-139266443D01*
X114432009Y-139182778D01*
X114396271Y-139153448D01*
X114294814Y-139070186D01*
X114188453Y-138940583D01*
X114182222Y-138932991D01*
X114140390Y-138854729D01*
X114098558Y-138776468D01*
X114080983Y-138718532D01*
X114047037Y-138606627D01*
X114029641Y-138430000D01*
X114047037Y-138253373D01*
X114098557Y-138083534D01*
X114101353Y-138078304D01*
X114182221Y-137927011D01*
X114182222Y-137927009D01*
X114211552Y-137891271D01*
X114294814Y-137789814D01*
X114396271Y-137706552D01*
X114432009Y-137677222D01*
X114588534Y-137593557D01*
X114758373Y-137542037D01*
X114824557Y-137535519D01*
X114890740Y-137529000D01*
X114979260Y-137529000D01*
X115045443Y-137535519D01*
X115045443Y-137535519D01*
G37*
G36*
X104885443Y-137535519D02*
G01*
X104951627Y-137542037D01*
X105121466Y-137593557D01*
X105277991Y-137677222D01*
X105313729Y-137706552D01*
X105415186Y-137789814D01*
X105498448Y-137891271D01*
X105527778Y-137927009D01*
X105527779Y-137927011D01*
X105608648Y-138078304D01*
X105611443Y-138083534D01*
X105662963Y-138253373D01*
X105680359Y-138430000D01*
X105662963Y-138606627D01*
X105629017Y-138718532D01*
X105611442Y-138776468D01*
X105569610Y-138854729D01*
X105527778Y-138932991D01*
X105521547Y-138940583D01*
X105415186Y-139070186D01*
X105313729Y-139153448D01*
X105277991Y-139182778D01*
X105121466Y-139266443D01*
X104951627Y-139317963D01*
X104885443Y-139324481D01*
X104819260Y-139331000D01*
X104730740Y-139331000D01*
X104664557Y-139324481D01*
X104598373Y-139317963D01*
X104428534Y-139266443D01*
X104272009Y-139182778D01*
X104236271Y-139153448D01*
X104134814Y-139070186D01*
X104028453Y-138940583D01*
X104022222Y-138932991D01*
X103980390Y-138854729D01*
X103938558Y-138776468D01*
X103920983Y-138718532D01*
X103887037Y-138606627D01*
X103869641Y-138430000D01*
X103887037Y-138253373D01*
X103938557Y-138083534D01*
X103941353Y-138078304D01*
X104022221Y-137927011D01*
X104022222Y-137927009D01*
X104051552Y-137891271D01*
X104134814Y-137789814D01*
X104236271Y-137706552D01*
X104272009Y-137677222D01*
X104428534Y-137593557D01*
X104598373Y-137542037D01*
X104664557Y-137535519D01*
X104730740Y-137529000D01*
X104819260Y-137529000D01*
X104885443Y-137535519D01*
X104885443Y-137535519D01*
G37*
G36*
X107425443Y-137535519D02*
G01*
X107491627Y-137542037D01*
X107661466Y-137593557D01*
X107817991Y-137677222D01*
X107853729Y-137706552D01*
X107955186Y-137789814D01*
X108038448Y-137891271D01*
X108067778Y-137927009D01*
X108067779Y-137927011D01*
X108148648Y-138078304D01*
X108151443Y-138083534D01*
X108202963Y-138253373D01*
X108220359Y-138430000D01*
X108202963Y-138606627D01*
X108169017Y-138718532D01*
X108151442Y-138776468D01*
X108109610Y-138854729D01*
X108067778Y-138932991D01*
X108061547Y-138940583D01*
X107955186Y-139070186D01*
X107853729Y-139153448D01*
X107817991Y-139182778D01*
X107661466Y-139266443D01*
X107491627Y-139317963D01*
X107425443Y-139324481D01*
X107359260Y-139331000D01*
X107270740Y-139331000D01*
X107204557Y-139324481D01*
X107138373Y-139317963D01*
X106968534Y-139266443D01*
X106812009Y-139182778D01*
X106776271Y-139153448D01*
X106674814Y-139070186D01*
X106568453Y-138940583D01*
X106562222Y-138932991D01*
X106520390Y-138854729D01*
X106478558Y-138776468D01*
X106460983Y-138718532D01*
X106427037Y-138606627D01*
X106409641Y-138430000D01*
X106427037Y-138253373D01*
X106478557Y-138083534D01*
X106481353Y-138078304D01*
X106562221Y-137927011D01*
X106562222Y-137927009D01*
X106591552Y-137891271D01*
X106674814Y-137789814D01*
X106776271Y-137706552D01*
X106812009Y-137677222D01*
X106968534Y-137593557D01*
X107138373Y-137542037D01*
X107204557Y-137535519D01*
X107270740Y-137529000D01*
X107359260Y-137529000D01*
X107425443Y-137535519D01*
X107425443Y-137535519D01*
G37*
G36*
X102345443Y-137535519D02*
G01*
X102411627Y-137542037D01*
X102581466Y-137593557D01*
X102737991Y-137677222D01*
X102773729Y-137706552D01*
X102875186Y-137789814D01*
X102958448Y-137891271D01*
X102987778Y-137927009D01*
X102987779Y-137927011D01*
X103068648Y-138078304D01*
X103071443Y-138083534D01*
X103122963Y-138253373D01*
X103140359Y-138430000D01*
X103122963Y-138606627D01*
X103089017Y-138718532D01*
X103071442Y-138776468D01*
X103029610Y-138854729D01*
X102987778Y-138932991D01*
X102981547Y-138940583D01*
X102875186Y-139070186D01*
X102773729Y-139153448D01*
X102737991Y-139182778D01*
X102581466Y-139266443D01*
X102411627Y-139317963D01*
X102345443Y-139324481D01*
X102279260Y-139331000D01*
X102190740Y-139331000D01*
X102124557Y-139324481D01*
X102058373Y-139317963D01*
X101888534Y-139266443D01*
X101732009Y-139182778D01*
X101696271Y-139153448D01*
X101594814Y-139070186D01*
X101488453Y-138940583D01*
X101482222Y-138932991D01*
X101440390Y-138854729D01*
X101398558Y-138776468D01*
X101380983Y-138718532D01*
X101347037Y-138606627D01*
X101329641Y-138430000D01*
X101347037Y-138253373D01*
X101398557Y-138083534D01*
X101401353Y-138078304D01*
X101482221Y-137927011D01*
X101482222Y-137927009D01*
X101511552Y-137891271D01*
X101594814Y-137789814D01*
X101696271Y-137706552D01*
X101732009Y-137677222D01*
X101888534Y-137593557D01*
X102058373Y-137542037D01*
X102124557Y-137535519D01*
X102190740Y-137529000D01*
X102279260Y-137529000D01*
X102345443Y-137535519D01*
X102345443Y-137535519D01*
G37*
G36*
X109965443Y-137535519D02*
G01*
X110031627Y-137542037D01*
X110201466Y-137593557D01*
X110357991Y-137677222D01*
X110393729Y-137706552D01*
X110495186Y-137789814D01*
X110578448Y-137891271D01*
X110607778Y-137927009D01*
X110607779Y-137927011D01*
X110688648Y-138078304D01*
X110691443Y-138083534D01*
X110742963Y-138253373D01*
X110760359Y-138430000D01*
X110742963Y-138606627D01*
X110709017Y-138718532D01*
X110691442Y-138776468D01*
X110649610Y-138854729D01*
X110607778Y-138932991D01*
X110601547Y-138940583D01*
X110495186Y-139070186D01*
X110393729Y-139153448D01*
X110357991Y-139182778D01*
X110201466Y-139266443D01*
X110031627Y-139317963D01*
X109965443Y-139324481D01*
X109899260Y-139331000D01*
X109810740Y-139331000D01*
X109744557Y-139324481D01*
X109678373Y-139317963D01*
X109508534Y-139266443D01*
X109352009Y-139182778D01*
X109316271Y-139153448D01*
X109214814Y-139070186D01*
X109108453Y-138940583D01*
X109102222Y-138932991D01*
X109060390Y-138854729D01*
X109018558Y-138776468D01*
X109000983Y-138718532D01*
X108967037Y-138606627D01*
X108949641Y-138430000D01*
X108967037Y-138253373D01*
X109018557Y-138083534D01*
X109021353Y-138078304D01*
X109102221Y-137927011D01*
X109102222Y-137927009D01*
X109131552Y-137891271D01*
X109214814Y-137789814D01*
X109316271Y-137706552D01*
X109352009Y-137677222D01*
X109508534Y-137593557D01*
X109678373Y-137542037D01*
X109744557Y-137535519D01*
X109810740Y-137529000D01*
X109899260Y-137529000D01*
X109965443Y-137535519D01*
X109965443Y-137535519D01*
G37*
G36*
X97265443Y-137535519D02*
G01*
X97331627Y-137542037D01*
X97501466Y-137593557D01*
X97657991Y-137677222D01*
X97693729Y-137706552D01*
X97795186Y-137789814D01*
X97878448Y-137891271D01*
X97907778Y-137927009D01*
X97907779Y-137927011D01*
X97988648Y-138078304D01*
X97991443Y-138083534D01*
X98042963Y-138253373D01*
X98060359Y-138430000D01*
X98042963Y-138606627D01*
X98009017Y-138718532D01*
X97991442Y-138776468D01*
X97949610Y-138854729D01*
X97907778Y-138932991D01*
X97901547Y-138940583D01*
X97795186Y-139070186D01*
X97693729Y-139153448D01*
X97657991Y-139182778D01*
X97501466Y-139266443D01*
X97331627Y-139317963D01*
X97265443Y-139324481D01*
X97199260Y-139331000D01*
X97110740Y-139331000D01*
X97044557Y-139324481D01*
X96978373Y-139317963D01*
X96808534Y-139266443D01*
X96652009Y-139182778D01*
X96616271Y-139153448D01*
X96514814Y-139070186D01*
X96408453Y-138940583D01*
X96402222Y-138932991D01*
X96360390Y-138854729D01*
X96318558Y-138776468D01*
X96300983Y-138718532D01*
X96267037Y-138606627D01*
X96249641Y-138430000D01*
X96267037Y-138253373D01*
X96318557Y-138083534D01*
X96321353Y-138078304D01*
X96402221Y-137927011D01*
X96402222Y-137927009D01*
X96431552Y-137891271D01*
X96514814Y-137789814D01*
X96616271Y-137706552D01*
X96652009Y-137677222D01*
X96808534Y-137593557D01*
X96978373Y-137542037D01*
X97044557Y-137535519D01*
X97110740Y-137529000D01*
X97199260Y-137529000D01*
X97265443Y-137535519D01*
X97265443Y-137535519D01*
G37*
G36*
X74405442Y-135630518D02*
G01*
X74471627Y-135637037D01*
X74641466Y-135688557D01*
X74797991Y-135772222D01*
X74833729Y-135801552D01*
X74935186Y-135884814D01*
X75018448Y-135986271D01*
X75047778Y-136022009D01*
X75131443Y-136178534D01*
X75182963Y-136348373D01*
X75200359Y-136525000D01*
X75182963Y-136701627D01*
X75131443Y-136871466D01*
X75047778Y-137027991D01*
X75018448Y-137063729D01*
X74935186Y-137165186D01*
X74833729Y-137248448D01*
X74797991Y-137277778D01*
X74641466Y-137361443D01*
X74471627Y-137412963D01*
X74405443Y-137419481D01*
X74339260Y-137426000D01*
X74250740Y-137426000D01*
X74184557Y-137419481D01*
X74118373Y-137412963D01*
X73948534Y-137361443D01*
X73792009Y-137277778D01*
X73756271Y-137248448D01*
X73654814Y-137165186D01*
X73571552Y-137063729D01*
X73542222Y-137027991D01*
X73458557Y-136871466D01*
X73407037Y-136701627D01*
X73389641Y-136525000D01*
X73407037Y-136348373D01*
X73458557Y-136178534D01*
X73542222Y-136022009D01*
X73571552Y-135986271D01*
X73654814Y-135884814D01*
X73756271Y-135801552D01*
X73792009Y-135772222D01*
X73948534Y-135688557D01*
X74118373Y-135637037D01*
X74184558Y-135630518D01*
X74250740Y-135624000D01*
X74339260Y-135624000D01*
X74405442Y-135630518D01*
X74405442Y-135630518D01*
G37*
G36*
X158929294Y-134988633D02*
G01*
X159101695Y-135040931D01*
X159260583Y-135125858D01*
X159399849Y-135240151D01*
X159514142Y-135379417D01*
X159599069Y-135538305D01*
X159651367Y-135710706D01*
X159669025Y-135890000D01*
X159651367Y-136069294D01*
X159599069Y-136241695D01*
X159514142Y-136400583D01*
X159399849Y-136539849D01*
X159260583Y-136654142D01*
X159101695Y-136739069D01*
X158929294Y-136791367D01*
X158794931Y-136804600D01*
X158705069Y-136804600D01*
X158570706Y-136791367D01*
X158398305Y-136739069D01*
X158239417Y-136654142D01*
X158100151Y-136539849D01*
X157985858Y-136400583D01*
X157900931Y-136241695D01*
X157848633Y-136069294D01*
X157830975Y-135890000D01*
X157848633Y-135710706D01*
X157900931Y-135538305D01*
X157985858Y-135379417D01*
X158100151Y-135240151D01*
X158239417Y-135125858D01*
X158398305Y-135040931D01*
X158570706Y-134988633D01*
X158705069Y-134975400D01*
X158794931Y-134975400D01*
X158929294Y-134988633D01*
X158929294Y-134988633D01*
G37*
G36*
X156389294Y-134988633D02*
G01*
X156561695Y-135040931D01*
X156720583Y-135125858D01*
X156859849Y-135240151D01*
X156974142Y-135379417D01*
X157059069Y-135538305D01*
X157111367Y-135710706D01*
X157129025Y-135890000D01*
X157111367Y-136069294D01*
X157059069Y-136241695D01*
X156974142Y-136400583D01*
X156859849Y-136539849D01*
X156720583Y-136654142D01*
X156561695Y-136739069D01*
X156389294Y-136791367D01*
X156254931Y-136804600D01*
X156165069Y-136804600D01*
X156030706Y-136791367D01*
X155858305Y-136739069D01*
X155699417Y-136654142D01*
X155560151Y-136539849D01*
X155445858Y-136400583D01*
X155360931Y-136241695D01*
X155308633Y-136069294D01*
X155290975Y-135890000D01*
X155308633Y-135710706D01*
X155360931Y-135538305D01*
X155445858Y-135379417D01*
X155560151Y-135240151D01*
X155699417Y-135125858D01*
X155858305Y-135040931D01*
X156030706Y-134988633D01*
X156165069Y-134975400D01*
X156254931Y-134975400D01*
X156389294Y-134988633D01*
X156389294Y-134988633D01*
G37*
G36*
X74405442Y-133090518D02*
G01*
X74471627Y-133097037D01*
X74641466Y-133148557D01*
X74797991Y-133232222D01*
X74833729Y-133261552D01*
X74935186Y-133344814D01*
X75018448Y-133446271D01*
X75047778Y-133482009D01*
X75131443Y-133638534D01*
X75182963Y-133808373D01*
X75200359Y-133985000D01*
X75182963Y-134161627D01*
X75131443Y-134331466D01*
X75047778Y-134487991D01*
X75018448Y-134523729D01*
X74935186Y-134625186D01*
X74833729Y-134708448D01*
X74797991Y-134737778D01*
X74641466Y-134821443D01*
X74471627Y-134872963D01*
X74405442Y-134879482D01*
X74339260Y-134886000D01*
X74250740Y-134886000D01*
X74184558Y-134879482D01*
X74118373Y-134872963D01*
X73948534Y-134821443D01*
X73792009Y-134737778D01*
X73756271Y-134708448D01*
X73654814Y-134625186D01*
X73571552Y-134523729D01*
X73542222Y-134487991D01*
X73458557Y-134331466D01*
X73407037Y-134161627D01*
X73389641Y-133985000D01*
X73407037Y-133808373D01*
X73458557Y-133638534D01*
X73542222Y-133482009D01*
X73571552Y-133446271D01*
X73654814Y-133344814D01*
X73756271Y-133261552D01*
X73792009Y-133232222D01*
X73948534Y-133148557D01*
X74118373Y-133097037D01*
X74184558Y-133090518D01*
X74250740Y-133084000D01*
X74339260Y-133084000D01*
X74405442Y-133090518D01*
X74405442Y-133090518D01*
G37*
G36*
X156389294Y-132448633D02*
G01*
X156561695Y-132500931D01*
X156720583Y-132585858D01*
X156859849Y-132700151D01*
X156974142Y-132839417D01*
X157059069Y-132998305D01*
X157111367Y-133170706D01*
X157129025Y-133350000D01*
X157111367Y-133529294D01*
X157059069Y-133701695D01*
X156974142Y-133860583D01*
X156859849Y-133999849D01*
X156720583Y-134114142D01*
X156561695Y-134199069D01*
X156389294Y-134251367D01*
X156254931Y-134264600D01*
X156165069Y-134264600D01*
X156030706Y-134251367D01*
X155858305Y-134199069D01*
X155699417Y-134114142D01*
X155560151Y-133999849D01*
X155445858Y-133860583D01*
X155360931Y-133701695D01*
X155308633Y-133529294D01*
X155290975Y-133350000D01*
X155308633Y-133170706D01*
X155360931Y-132998305D01*
X155445858Y-132839417D01*
X155560151Y-132700151D01*
X155699417Y-132585858D01*
X155858305Y-132500931D01*
X156030706Y-132448633D01*
X156165069Y-132435400D01*
X156254931Y-132435400D01*
X156389294Y-132448633D01*
X156389294Y-132448633D01*
G37*
G36*
X158929294Y-132448633D02*
G01*
X159101695Y-132500931D01*
X159260583Y-132585858D01*
X159399849Y-132700151D01*
X159514142Y-132839417D01*
X159599069Y-132998305D01*
X159651367Y-133170706D01*
X159669025Y-133350000D01*
X159651367Y-133529294D01*
X159599069Y-133701695D01*
X159514142Y-133860583D01*
X159399849Y-133999849D01*
X159260583Y-134114142D01*
X159101695Y-134199069D01*
X158929294Y-134251367D01*
X158794931Y-134264600D01*
X158705069Y-134264600D01*
X158570706Y-134251367D01*
X158398305Y-134199069D01*
X158239417Y-134114142D01*
X158100151Y-133999849D01*
X157985858Y-133860583D01*
X157900931Y-133701695D01*
X157848633Y-133529294D01*
X157830975Y-133350000D01*
X157848633Y-133170706D01*
X157900931Y-132998305D01*
X157985858Y-132839417D01*
X158100151Y-132700151D01*
X158239417Y-132585858D01*
X158398305Y-132500931D01*
X158570706Y-132448633D01*
X158705069Y-132435400D01*
X158794931Y-132435400D01*
X158929294Y-132448633D01*
X158929294Y-132448633D01*
G37*
G36*
X143728674Y-131079465D02*
G01*
X143766367Y-131090899D01*
X143801103Y-131109466D01*
X143831548Y-131134452D01*
X143856534Y-131164897D01*
X143875101Y-131199633D01*
X143886535Y-131237326D01*
X143891000Y-131282661D01*
X143891000Y-132369339D01*
X143886535Y-132414674D01*
X143875101Y-132452367D01*
X143856534Y-132487103D01*
X143831548Y-132517548D01*
X143801103Y-132542534D01*
X143766367Y-132561101D01*
X143728674Y-132572535D01*
X143683339Y-132577000D01*
X142846661Y-132577000D01*
X142801326Y-132572535D01*
X142763633Y-132561101D01*
X142728897Y-132542534D01*
X142698452Y-132517548D01*
X142673466Y-132487103D01*
X142654899Y-132452367D01*
X142643465Y-132414674D01*
X142639000Y-132369339D01*
X142639000Y-131282661D01*
X142643465Y-131237326D01*
X142654899Y-131199633D01*
X142673466Y-131164897D01*
X142698452Y-131134452D01*
X142728897Y-131109466D01*
X142763633Y-131090899D01*
X142801326Y-131079465D01*
X142846661Y-131075000D01*
X143683339Y-131075000D01*
X143728674Y-131079465D01*
X143728674Y-131079465D01*
G37*
G36*
X141678674Y-131079465D02*
G01*
X141716367Y-131090899D01*
X141751103Y-131109466D01*
X141781548Y-131134452D01*
X141806534Y-131164897D01*
X141825101Y-131199633D01*
X141836535Y-131237326D01*
X141841000Y-131282661D01*
X141841000Y-132369339D01*
X141836535Y-132414674D01*
X141825101Y-132452367D01*
X141806534Y-132487103D01*
X141781548Y-132517548D01*
X141751103Y-132542534D01*
X141716367Y-132561101D01*
X141678674Y-132572535D01*
X141633339Y-132577000D01*
X140796661Y-132577000D01*
X140751326Y-132572535D01*
X140713633Y-132561101D01*
X140678897Y-132542534D01*
X140648452Y-132517548D01*
X140623466Y-132487103D01*
X140604899Y-132452367D01*
X140593465Y-132414674D01*
X140589000Y-132369339D01*
X140589000Y-131282661D01*
X140593465Y-131237326D01*
X140604899Y-131199633D01*
X140623466Y-131164897D01*
X140648452Y-131134452D01*
X140678897Y-131109466D01*
X140713633Y-131090899D01*
X140751326Y-131079465D01*
X140796661Y-131075000D01*
X141633339Y-131075000D01*
X141678674Y-131079465D01*
X141678674Y-131079465D01*
G37*
G36*
X75196000Y-132346000D02*
G01*
X73394000Y-132346000D01*
X73394000Y-130544000D01*
X75196000Y-130544000D01*
X75196000Y-132346000D01*
X75196000Y-132346000D01*
G37*
G36*
X158929294Y-129908633D02*
G01*
X159101695Y-129960931D01*
X159260583Y-130045858D01*
X159399849Y-130160151D01*
X159514142Y-130299417D01*
X159599069Y-130458305D01*
X159651367Y-130630706D01*
X159669025Y-130810000D01*
X159651367Y-130989294D01*
X159599069Y-131161695D01*
X159514142Y-131320583D01*
X159399849Y-131459849D01*
X159260583Y-131574142D01*
X159101695Y-131659069D01*
X158929294Y-131711367D01*
X158794931Y-131724600D01*
X158705069Y-131724600D01*
X158570706Y-131711367D01*
X158398305Y-131659069D01*
X158239417Y-131574142D01*
X158100151Y-131459849D01*
X157985858Y-131320583D01*
X157900931Y-131161695D01*
X157848633Y-130989294D01*
X157830975Y-130810000D01*
X157848633Y-130630706D01*
X157900931Y-130458305D01*
X157985858Y-130299417D01*
X158100151Y-130160151D01*
X158239417Y-130045858D01*
X158398305Y-129960931D01*
X158570706Y-129908633D01*
X158705069Y-129895400D01*
X158794931Y-129895400D01*
X158929294Y-129908633D01*
X158929294Y-129908633D01*
G37*
G36*
X156389294Y-129908633D02*
G01*
X156561695Y-129960931D01*
X156720583Y-130045858D01*
X156859849Y-130160151D01*
X156974142Y-130299417D01*
X157059069Y-130458305D01*
X157111367Y-130630706D01*
X157129025Y-130810000D01*
X157111367Y-130989294D01*
X157059069Y-131161695D01*
X156974142Y-131320583D01*
X156859849Y-131459849D01*
X156720583Y-131574142D01*
X156561695Y-131659069D01*
X156389294Y-131711367D01*
X156254931Y-131724600D01*
X156165069Y-131724600D01*
X156030706Y-131711367D01*
X155858305Y-131659069D01*
X155699417Y-131574142D01*
X155560151Y-131459849D01*
X155445858Y-131320583D01*
X155360931Y-131161695D01*
X155308633Y-130989294D01*
X155290975Y-130810000D01*
X155308633Y-130630706D01*
X155360931Y-130458305D01*
X155445858Y-130299417D01*
X155560151Y-130160151D01*
X155699417Y-130045858D01*
X155858305Y-129960931D01*
X156030706Y-129908633D01*
X156165069Y-129895400D01*
X156254931Y-129895400D01*
X156389294Y-129908633D01*
X156389294Y-129908633D01*
G37*
G36*
X158929294Y-127368633D02*
G01*
X159101695Y-127420931D01*
X159260583Y-127505858D01*
X159399849Y-127620151D01*
X159514142Y-127759417D01*
X159599069Y-127918305D01*
X159651367Y-128090706D01*
X159669025Y-128270000D01*
X159651367Y-128449294D01*
X159599069Y-128621695D01*
X159514142Y-128780583D01*
X159399849Y-128919849D01*
X159260583Y-129034142D01*
X159101695Y-129119069D01*
X158929294Y-129171367D01*
X158794931Y-129184600D01*
X158705069Y-129184600D01*
X158570706Y-129171367D01*
X158398305Y-129119069D01*
X158239417Y-129034142D01*
X158100151Y-128919849D01*
X157985858Y-128780583D01*
X157900931Y-128621695D01*
X157848633Y-128449294D01*
X157830975Y-128270000D01*
X157848633Y-128090706D01*
X157900931Y-127918305D01*
X157985858Y-127759417D01*
X158100151Y-127620151D01*
X158239417Y-127505858D01*
X158398305Y-127420931D01*
X158570706Y-127368633D01*
X158705069Y-127355400D01*
X158794931Y-127355400D01*
X158929294Y-127368633D01*
X158929294Y-127368633D01*
G37*
G36*
X156389294Y-127368633D02*
G01*
X156561695Y-127420931D01*
X156720583Y-127505858D01*
X156859849Y-127620151D01*
X156974142Y-127759417D01*
X157059069Y-127918305D01*
X157111367Y-128090706D01*
X157129025Y-128270000D01*
X157111367Y-128449294D01*
X157059069Y-128621695D01*
X156974142Y-128780583D01*
X156859849Y-128919849D01*
X156720583Y-129034142D01*
X156561695Y-129119069D01*
X156389294Y-129171367D01*
X156254931Y-129184600D01*
X156165069Y-129184600D01*
X156030706Y-129171367D01*
X155858305Y-129119069D01*
X155699417Y-129034142D01*
X155560151Y-128919849D01*
X155445858Y-128780583D01*
X155360931Y-128621695D01*
X155308633Y-128449294D01*
X155290975Y-128270000D01*
X155308633Y-128090706D01*
X155360931Y-127918305D01*
X155445858Y-127759417D01*
X155560151Y-127620151D01*
X155699417Y-127505858D01*
X155858305Y-127420931D01*
X156030706Y-127368633D01*
X156165069Y-127355400D01*
X156254931Y-127355400D01*
X156389294Y-127368633D01*
X156389294Y-127368633D01*
G37*
G36*
X143728674Y-127015465D02*
G01*
X143766367Y-127026899D01*
X143801103Y-127045466D01*
X143831548Y-127070452D01*
X143856534Y-127100897D01*
X143875101Y-127135633D01*
X143886535Y-127173326D01*
X143891000Y-127218661D01*
X143891000Y-128305339D01*
X143886535Y-128350674D01*
X143875101Y-128388367D01*
X143856534Y-128423103D01*
X143831548Y-128453548D01*
X143801103Y-128478534D01*
X143766367Y-128497101D01*
X143728674Y-128508535D01*
X143683339Y-128513000D01*
X142846661Y-128513000D01*
X142801326Y-128508535D01*
X142763633Y-128497101D01*
X142728897Y-128478534D01*
X142698452Y-128453548D01*
X142673466Y-128423103D01*
X142654899Y-128388367D01*
X142643465Y-128350674D01*
X142639000Y-128305339D01*
X142639000Y-127218661D01*
X142643465Y-127173326D01*
X142654899Y-127135633D01*
X142673466Y-127100897D01*
X142698452Y-127070452D01*
X142728897Y-127045466D01*
X142763633Y-127026899D01*
X142801326Y-127015465D01*
X142846661Y-127011000D01*
X143683339Y-127011000D01*
X143728674Y-127015465D01*
X143728674Y-127015465D01*
G37*
G36*
X141678674Y-127015465D02*
G01*
X141716367Y-127026899D01*
X141751103Y-127045466D01*
X141781548Y-127070452D01*
X141806534Y-127100897D01*
X141825101Y-127135633D01*
X141836535Y-127173326D01*
X141841000Y-127218661D01*
X141841000Y-128305339D01*
X141836535Y-128350674D01*
X141825101Y-128388367D01*
X141806534Y-128423103D01*
X141781548Y-128453548D01*
X141751103Y-128478534D01*
X141716367Y-128497101D01*
X141678674Y-128508535D01*
X141633339Y-128513000D01*
X140796661Y-128513000D01*
X140751326Y-128508535D01*
X140713633Y-128497101D01*
X140678897Y-128478534D01*
X140648452Y-128453548D01*
X140623466Y-128423103D01*
X140604899Y-128388367D01*
X140593465Y-128350674D01*
X140589000Y-128305339D01*
X140589000Y-127218661D01*
X140593465Y-127173326D01*
X140604899Y-127135633D01*
X140623466Y-127100897D01*
X140648452Y-127070452D01*
X140678897Y-127045466D01*
X140713633Y-127026899D01*
X140751326Y-127015465D01*
X140796661Y-127011000D01*
X141633339Y-127011000D01*
X141678674Y-127015465D01*
X141678674Y-127015465D01*
G37*
G36*
X158929294Y-124828633D02*
G01*
X159101695Y-124880931D01*
X159260583Y-124965858D01*
X159399849Y-125080151D01*
X159514142Y-125219417D01*
X159599069Y-125378305D01*
X159651367Y-125550706D01*
X159669025Y-125730000D01*
X159651367Y-125909294D01*
X159599069Y-126081695D01*
X159514142Y-126240583D01*
X159399849Y-126379849D01*
X159260583Y-126494142D01*
X159101695Y-126579069D01*
X158929294Y-126631367D01*
X158794931Y-126644600D01*
X158705069Y-126644600D01*
X158570706Y-126631367D01*
X158398305Y-126579069D01*
X158239417Y-126494142D01*
X158100151Y-126379849D01*
X157985858Y-126240583D01*
X157900931Y-126081695D01*
X157848633Y-125909294D01*
X157830975Y-125730000D01*
X157848633Y-125550706D01*
X157900931Y-125378305D01*
X157985858Y-125219417D01*
X158100151Y-125080151D01*
X158239417Y-124965858D01*
X158398305Y-124880931D01*
X158570706Y-124828633D01*
X158705069Y-124815400D01*
X158794931Y-124815400D01*
X158929294Y-124828633D01*
X158929294Y-124828633D01*
G37*
G36*
X156389294Y-124828633D02*
G01*
X156561695Y-124880931D01*
X156720583Y-124965858D01*
X156859849Y-125080151D01*
X156974142Y-125219417D01*
X157059069Y-125378305D01*
X157111367Y-125550706D01*
X157129025Y-125730000D01*
X157111367Y-125909294D01*
X157059069Y-126081695D01*
X156974142Y-126240583D01*
X156859849Y-126379849D01*
X156720583Y-126494142D01*
X156561695Y-126579069D01*
X156389294Y-126631367D01*
X156254931Y-126644600D01*
X156165069Y-126644600D01*
X156030706Y-126631367D01*
X155858305Y-126579069D01*
X155699417Y-126494142D01*
X155560151Y-126379849D01*
X155445858Y-126240583D01*
X155360931Y-126081695D01*
X155308633Y-125909294D01*
X155290975Y-125730000D01*
X155308633Y-125550706D01*
X155360931Y-125378305D01*
X155445858Y-125219417D01*
X155560151Y-125080151D01*
X155699417Y-124965858D01*
X155858305Y-124880931D01*
X156030706Y-124828633D01*
X156165069Y-124815400D01*
X156254931Y-124815400D01*
X156389294Y-124828633D01*
X156389294Y-124828633D01*
G37*
G36*
X141678674Y-122951465D02*
G01*
X141716367Y-122962899D01*
X141751103Y-122981466D01*
X141781548Y-123006452D01*
X141806534Y-123036897D01*
X141825101Y-123071633D01*
X141836535Y-123109326D01*
X141841000Y-123154661D01*
X141841000Y-124241339D01*
X141836535Y-124286674D01*
X141825101Y-124324367D01*
X141806534Y-124359103D01*
X141781548Y-124389548D01*
X141751103Y-124414534D01*
X141716367Y-124433101D01*
X141678674Y-124444535D01*
X141633339Y-124449000D01*
X140796661Y-124449000D01*
X140751326Y-124444535D01*
X140713633Y-124433101D01*
X140678897Y-124414534D01*
X140648452Y-124389548D01*
X140623466Y-124359103D01*
X140604899Y-124324367D01*
X140593465Y-124286674D01*
X140589000Y-124241339D01*
X140589000Y-123154661D01*
X140593465Y-123109326D01*
X140604899Y-123071633D01*
X140623466Y-123036897D01*
X140648452Y-123006452D01*
X140678897Y-122981466D01*
X140713633Y-122962899D01*
X140751326Y-122951465D01*
X140796661Y-122947000D01*
X141633339Y-122947000D01*
X141678674Y-122951465D01*
X141678674Y-122951465D01*
G37*
G36*
X143728674Y-122951465D02*
G01*
X143766367Y-122962899D01*
X143801103Y-122981466D01*
X143831548Y-123006452D01*
X143856534Y-123036897D01*
X143875101Y-123071633D01*
X143886535Y-123109326D01*
X143891000Y-123154661D01*
X143891000Y-124241339D01*
X143886535Y-124286674D01*
X143875101Y-124324367D01*
X143856534Y-124359103D01*
X143831548Y-124389548D01*
X143801103Y-124414534D01*
X143766367Y-124433101D01*
X143728674Y-124444535D01*
X143683339Y-124449000D01*
X142846661Y-124449000D01*
X142801326Y-124444535D01*
X142763633Y-124433101D01*
X142728897Y-124414534D01*
X142698452Y-124389548D01*
X142673466Y-124359103D01*
X142654899Y-124324367D01*
X142643465Y-124286674D01*
X142639000Y-124241339D01*
X142639000Y-123154661D01*
X142643465Y-123109326D01*
X142654899Y-123071633D01*
X142673466Y-123036897D01*
X142698452Y-123006452D01*
X142728897Y-122981466D01*
X142763633Y-122962899D01*
X142801326Y-122951465D01*
X142846661Y-122947000D01*
X143683339Y-122947000D01*
X143728674Y-122951465D01*
X143728674Y-122951465D01*
G37*
G36*
X157124600Y-124104600D02*
G01*
X155295400Y-124104600D01*
X155295400Y-122275400D01*
X157124600Y-122275400D01*
X157124600Y-124104600D01*
X157124600Y-124104600D01*
G37*
G36*
X158929294Y-122288633D02*
G01*
X159101695Y-122340931D01*
X159260583Y-122425858D01*
X159399849Y-122540151D01*
X159514142Y-122679417D01*
X159599069Y-122838305D01*
X159651367Y-123010706D01*
X159669025Y-123190000D01*
X159651367Y-123369294D01*
X159599069Y-123541695D01*
X159514142Y-123700583D01*
X159399849Y-123839849D01*
X159260583Y-123954142D01*
X159101695Y-124039069D01*
X158929294Y-124091367D01*
X158794931Y-124104600D01*
X158705069Y-124104600D01*
X158570706Y-124091367D01*
X158398305Y-124039069D01*
X158239417Y-123954142D01*
X158100151Y-123839849D01*
X157985858Y-123700583D01*
X157900931Y-123541695D01*
X157848633Y-123369294D01*
X157830975Y-123190000D01*
X157848633Y-123010706D01*
X157900931Y-122838305D01*
X157985858Y-122679417D01*
X158100151Y-122540151D01*
X158239417Y-122425858D01*
X158398305Y-122340931D01*
X158570706Y-122288633D01*
X158705069Y-122275400D01*
X158794931Y-122275400D01*
X158929294Y-122288633D01*
X158929294Y-122288633D01*
G37*
G36*
X33215562Y-120548181D02*
G01*
X33250481Y-120558774D01*
X33282663Y-120575976D01*
X33310873Y-120599127D01*
X33334024Y-120627337D01*
X33351226Y-120659519D01*
X33361819Y-120694438D01*
X33366000Y-120736895D01*
X33366000Y-123103105D01*
X33361819Y-123145562D01*
X33351226Y-123180481D01*
X33334024Y-123212663D01*
X33310873Y-123240873D01*
X33282663Y-123264024D01*
X33250481Y-123281226D01*
X33215562Y-123291819D01*
X33173105Y-123296000D01*
X32031895Y-123296000D01*
X31989438Y-123291819D01*
X31954519Y-123281226D01*
X31922337Y-123264024D01*
X31894127Y-123240873D01*
X31870976Y-123212663D01*
X31853774Y-123180481D01*
X31843181Y-123145562D01*
X31839000Y-123103105D01*
X31839000Y-120736895D01*
X31843181Y-120694438D01*
X31853774Y-120659519D01*
X31870976Y-120627337D01*
X31894127Y-120599127D01*
X31922337Y-120575976D01*
X31954519Y-120558774D01*
X31989438Y-120548181D01*
X32031895Y-120544000D01*
X33173105Y-120544000D01*
X33215562Y-120548181D01*
X33215562Y-120548181D01*
G37*
G36*
X35320562Y-120548181D02*
G01*
X35355481Y-120558774D01*
X35387663Y-120575976D01*
X35415873Y-120599127D01*
X35439024Y-120627337D01*
X35456226Y-120659519D01*
X35466819Y-120694438D01*
X35471000Y-120736895D01*
X35471000Y-123103105D01*
X35466819Y-123145562D01*
X35456226Y-123180481D01*
X35439024Y-123212663D01*
X35415873Y-123240873D01*
X35387663Y-123264024D01*
X35355481Y-123281226D01*
X35320562Y-123291819D01*
X35278105Y-123296000D01*
X34136895Y-123296000D01*
X34094438Y-123291819D01*
X34059519Y-123281226D01*
X34027337Y-123264024D01*
X33999127Y-123240873D01*
X33975976Y-123212663D01*
X33958774Y-123180481D01*
X33948181Y-123145562D01*
X33944000Y-123103105D01*
X33944000Y-120736895D01*
X33948181Y-120694438D01*
X33958774Y-120659519D01*
X33975976Y-120627337D01*
X33999127Y-120599127D01*
X34027337Y-120575976D01*
X34059519Y-120558774D01*
X34094438Y-120548181D01*
X34136895Y-120544000D01*
X35278105Y-120544000D01*
X35320562Y-120548181D01*
X35320562Y-120548181D01*
G37*
G36*
X38295562Y-120548181D02*
G01*
X38330481Y-120558774D01*
X38362663Y-120575976D01*
X38390873Y-120599127D01*
X38414024Y-120627337D01*
X38431226Y-120659519D01*
X38441819Y-120694438D01*
X38446000Y-120736895D01*
X38446000Y-123103105D01*
X38441819Y-123145562D01*
X38431226Y-123180481D01*
X38414024Y-123212663D01*
X38390873Y-123240873D01*
X38362663Y-123264024D01*
X38330481Y-123281226D01*
X38295562Y-123291819D01*
X38253105Y-123296000D01*
X37111895Y-123296000D01*
X37069438Y-123291819D01*
X37034519Y-123281226D01*
X37002337Y-123264024D01*
X36974127Y-123240873D01*
X36950976Y-123212663D01*
X36933774Y-123180481D01*
X36923181Y-123145562D01*
X36919000Y-123103105D01*
X36919000Y-120736895D01*
X36923181Y-120694438D01*
X36933774Y-120659519D01*
X36950976Y-120627337D01*
X36974127Y-120599127D01*
X37002337Y-120575976D01*
X37034519Y-120558774D01*
X37069438Y-120548181D01*
X37111895Y-120544000D01*
X38253105Y-120544000D01*
X38295562Y-120548181D01*
X38295562Y-120548181D01*
G37*
G36*
X30240562Y-120548181D02*
G01*
X30275481Y-120558774D01*
X30307663Y-120575976D01*
X30335873Y-120599127D01*
X30359024Y-120627337D01*
X30376226Y-120659519D01*
X30386819Y-120694438D01*
X30391000Y-120736895D01*
X30391000Y-123103105D01*
X30386819Y-123145562D01*
X30376226Y-123180481D01*
X30359024Y-123212663D01*
X30335873Y-123240873D01*
X30307663Y-123264024D01*
X30275481Y-123281226D01*
X30240562Y-123291819D01*
X30198105Y-123296000D01*
X29056895Y-123296000D01*
X29014438Y-123291819D01*
X28979519Y-123281226D01*
X28947337Y-123264024D01*
X28919127Y-123240873D01*
X28895976Y-123212663D01*
X28878774Y-123180481D01*
X28868181Y-123145562D01*
X28864000Y-123103105D01*
X28864000Y-120736895D01*
X28868181Y-120694438D01*
X28878774Y-120659519D01*
X28895976Y-120627337D01*
X28919127Y-120599127D01*
X28947337Y-120575976D01*
X28979519Y-120558774D01*
X29014438Y-120548181D01*
X29056895Y-120544000D01*
X30198105Y-120544000D01*
X30240562Y-120548181D01*
X30240562Y-120548181D01*
G37*
G36*
X105363674Y-119148465D02*
G01*
X105401367Y-119159899D01*
X105436103Y-119178466D01*
X105466548Y-119203452D01*
X105491534Y-119233897D01*
X105510101Y-119268633D01*
X105521535Y-119306326D01*
X105526000Y-119351661D01*
X105526000Y-120188339D01*
X105521535Y-120233674D01*
X105510101Y-120271367D01*
X105491534Y-120306103D01*
X105466548Y-120336548D01*
X105436103Y-120361534D01*
X105401367Y-120380101D01*
X105363674Y-120391535D01*
X105318339Y-120396000D01*
X104231661Y-120396000D01*
X104186326Y-120391535D01*
X104148633Y-120380101D01*
X104113897Y-120361534D01*
X104083452Y-120336548D01*
X104058466Y-120306103D01*
X104039899Y-120271367D01*
X104028465Y-120233674D01*
X104024000Y-120188339D01*
X104024000Y-119351661D01*
X104028465Y-119306326D01*
X104039899Y-119268633D01*
X104058466Y-119233897D01*
X104083452Y-119203452D01*
X104113897Y-119178466D01*
X104148633Y-119159899D01*
X104186326Y-119148465D01*
X104231661Y-119144000D01*
X105318339Y-119144000D01*
X105363674Y-119148465D01*
X105363674Y-119148465D01*
G37*
G36*
X97743674Y-119148465D02*
G01*
X97781367Y-119159899D01*
X97816103Y-119178466D01*
X97846548Y-119203452D01*
X97871534Y-119233897D01*
X97890101Y-119268633D01*
X97901535Y-119306326D01*
X97906000Y-119351661D01*
X97906000Y-120188339D01*
X97901535Y-120233674D01*
X97890101Y-120271367D01*
X97871534Y-120306103D01*
X97846548Y-120336548D01*
X97816103Y-120361534D01*
X97781367Y-120380101D01*
X97743674Y-120391535D01*
X97698339Y-120396000D01*
X96611661Y-120396000D01*
X96566326Y-120391535D01*
X96528633Y-120380101D01*
X96493897Y-120361534D01*
X96463452Y-120336548D01*
X96438466Y-120306103D01*
X96419899Y-120271367D01*
X96408465Y-120233674D01*
X96404000Y-120188339D01*
X96404000Y-119351661D01*
X96408465Y-119306326D01*
X96419899Y-119268633D01*
X96438466Y-119233897D01*
X96463452Y-119203452D01*
X96493897Y-119178466D01*
X96528633Y-119159899D01*
X96566326Y-119148465D01*
X96611661Y-119144000D01*
X97698339Y-119144000D01*
X97743674Y-119148465D01*
X97743674Y-119148465D01*
G37*
G36*
X141678674Y-118887465D02*
G01*
X141716367Y-118898899D01*
X141751103Y-118917466D01*
X141781548Y-118942452D01*
X141806534Y-118972897D01*
X141825101Y-119007633D01*
X141836535Y-119045326D01*
X141841000Y-119090661D01*
X141841000Y-120177339D01*
X141836535Y-120222674D01*
X141825101Y-120260367D01*
X141806534Y-120295103D01*
X141781548Y-120325548D01*
X141751103Y-120350534D01*
X141716367Y-120369101D01*
X141678674Y-120380535D01*
X141633339Y-120385000D01*
X140796661Y-120385000D01*
X140751326Y-120380535D01*
X140713633Y-120369101D01*
X140678897Y-120350534D01*
X140648452Y-120325548D01*
X140623466Y-120295103D01*
X140604899Y-120260367D01*
X140593465Y-120222674D01*
X140589000Y-120177339D01*
X140589000Y-119090661D01*
X140593465Y-119045326D01*
X140604899Y-119007633D01*
X140623466Y-118972897D01*
X140648452Y-118942452D01*
X140678897Y-118917466D01*
X140713633Y-118898899D01*
X140751326Y-118887465D01*
X140796661Y-118883000D01*
X141633339Y-118883000D01*
X141678674Y-118887465D01*
X141678674Y-118887465D01*
G37*
G36*
X143728674Y-118887465D02*
G01*
X143766367Y-118898899D01*
X143801103Y-118917466D01*
X143831548Y-118942452D01*
X143856534Y-118972897D01*
X143875101Y-119007633D01*
X143886535Y-119045326D01*
X143891000Y-119090661D01*
X143891000Y-120177339D01*
X143886535Y-120222674D01*
X143875101Y-120260367D01*
X143856534Y-120295103D01*
X143831548Y-120325548D01*
X143801103Y-120350534D01*
X143766367Y-120369101D01*
X143728674Y-120380535D01*
X143683339Y-120385000D01*
X142846661Y-120385000D01*
X142801326Y-120380535D01*
X142763633Y-120369101D01*
X142728897Y-120350534D01*
X142698452Y-120325548D01*
X142673466Y-120295103D01*
X142654899Y-120260367D01*
X142643465Y-120222674D01*
X142639000Y-120177339D01*
X142639000Y-119090661D01*
X142643465Y-119045326D01*
X142654899Y-119007633D01*
X142673466Y-118972897D01*
X142698452Y-118942452D01*
X142728897Y-118917466D01*
X142763633Y-118898899D01*
X142801326Y-118887465D01*
X142846661Y-118883000D01*
X143683339Y-118883000D01*
X143728674Y-118887465D01*
X143728674Y-118887465D01*
G37*
G36*
X33889810Y-118250935D02*
G01*
X34036309Y-118311617D01*
X34036310Y-118311618D01*
X34168158Y-118399716D01*
X34280284Y-118511842D01*
X34280285Y-118511844D01*
X34368383Y-118643691D01*
X34429065Y-118790190D01*
X34460000Y-118945713D01*
X34460000Y-119104287D01*
X34429065Y-119259810D01*
X34368383Y-119406309D01*
X34368382Y-119406310D01*
X34280284Y-119538158D01*
X34168158Y-119650284D01*
X34101785Y-119694633D01*
X34036309Y-119738383D01*
X33889810Y-119799065D01*
X33734287Y-119830000D01*
X33575713Y-119830000D01*
X33420190Y-119799065D01*
X33273691Y-119738383D01*
X33208215Y-119694633D01*
X33141842Y-119650284D01*
X33029716Y-119538158D01*
X32941618Y-119406310D01*
X32941617Y-119406309D01*
X32880935Y-119259810D01*
X32850000Y-119104287D01*
X32850000Y-118945713D01*
X32880935Y-118790190D01*
X32941617Y-118643691D01*
X33029715Y-118511844D01*
X33029716Y-118511842D01*
X33141842Y-118399716D01*
X33273690Y-118311618D01*
X33273691Y-118311617D01*
X33420190Y-118250935D01*
X33575713Y-118220000D01*
X33734287Y-118220000D01*
X33889810Y-118250935D01*
X33889810Y-118250935D01*
G37*
G36*
X37000000Y-119830000D02*
G01*
X35390000Y-119830000D01*
X35390000Y-118220000D01*
X37000000Y-118220000D01*
X37000000Y-119830000D01*
X37000000Y-119830000D01*
G37*
G36*
X31349810Y-118250935D02*
G01*
X31496309Y-118311617D01*
X31496310Y-118311618D01*
X31628158Y-118399716D01*
X31740284Y-118511842D01*
X31740285Y-118511844D01*
X31828383Y-118643691D01*
X31889065Y-118790190D01*
X31920000Y-118945713D01*
X31920000Y-119104287D01*
X31889065Y-119259810D01*
X31828383Y-119406309D01*
X31828382Y-119406310D01*
X31740284Y-119538158D01*
X31628158Y-119650284D01*
X31561785Y-119694633D01*
X31496309Y-119738383D01*
X31349810Y-119799065D01*
X31194287Y-119830000D01*
X31035713Y-119830000D01*
X30880190Y-119799065D01*
X30733691Y-119738383D01*
X30668215Y-119694633D01*
X30601842Y-119650284D01*
X30489716Y-119538158D01*
X30401618Y-119406310D01*
X30401617Y-119406309D01*
X30340935Y-119259810D01*
X30310000Y-119104287D01*
X30310000Y-118945713D01*
X30340935Y-118790190D01*
X30401617Y-118643691D01*
X30489715Y-118511844D01*
X30489716Y-118511842D01*
X30601842Y-118399716D01*
X30733690Y-118311618D01*
X30733691Y-118311617D01*
X30880190Y-118250935D01*
X31035713Y-118220000D01*
X31194287Y-118220000D01*
X31349810Y-118250935D01*
X31349810Y-118250935D01*
G37*
G36*
X97743674Y-117098465D02*
G01*
X97781367Y-117109899D01*
X97816103Y-117128466D01*
X97846548Y-117153452D01*
X97871534Y-117183897D01*
X97890101Y-117218633D01*
X97901535Y-117256326D01*
X97906000Y-117301661D01*
X97906000Y-118138339D01*
X97901535Y-118183674D01*
X97890101Y-118221367D01*
X97871534Y-118256103D01*
X97846548Y-118286548D01*
X97816103Y-118311534D01*
X97781367Y-118330101D01*
X97743674Y-118341535D01*
X97698339Y-118346000D01*
X96611661Y-118346000D01*
X96566326Y-118341535D01*
X96528633Y-118330101D01*
X96493897Y-118311534D01*
X96463452Y-118286548D01*
X96438466Y-118256103D01*
X96419899Y-118221367D01*
X96408465Y-118183674D01*
X96404000Y-118138339D01*
X96404000Y-117301661D01*
X96408465Y-117256326D01*
X96419899Y-117218633D01*
X96438466Y-117183897D01*
X96463452Y-117153452D01*
X96493897Y-117128466D01*
X96528633Y-117109899D01*
X96566326Y-117098465D01*
X96611661Y-117094000D01*
X97698339Y-117094000D01*
X97743674Y-117098465D01*
X97743674Y-117098465D01*
G37*
G36*
X105363674Y-117098465D02*
G01*
X105401367Y-117109899D01*
X105436103Y-117128466D01*
X105466548Y-117153452D01*
X105491534Y-117183897D01*
X105510101Y-117218633D01*
X105521535Y-117256326D01*
X105526000Y-117301661D01*
X105526000Y-118138339D01*
X105521535Y-118183674D01*
X105510101Y-118221367D01*
X105491534Y-118256103D01*
X105466548Y-118286548D01*
X105436103Y-118311534D01*
X105401367Y-118330101D01*
X105363674Y-118341535D01*
X105318339Y-118346000D01*
X104231661Y-118346000D01*
X104186326Y-118341535D01*
X104148633Y-118330101D01*
X104113897Y-118311534D01*
X104083452Y-118286548D01*
X104058466Y-118256103D01*
X104039899Y-118221367D01*
X104028465Y-118183674D01*
X104024000Y-118138339D01*
X104024000Y-117301661D01*
X104028465Y-117256326D01*
X104039899Y-117218633D01*
X104058466Y-117183897D01*
X104083452Y-117153452D01*
X104113897Y-117128466D01*
X104148633Y-117109899D01*
X104186326Y-117098465D01*
X104231661Y-117094000D01*
X105318339Y-117094000D01*
X105363674Y-117098465D01*
X105363674Y-117098465D01*
G37*
G36*
X143728674Y-114823465D02*
G01*
X143766367Y-114834899D01*
X143801103Y-114853466D01*
X143831548Y-114878452D01*
X143856534Y-114908897D01*
X143875101Y-114943633D01*
X143886535Y-114981326D01*
X143891000Y-115026661D01*
X143891000Y-116113339D01*
X143886535Y-116158674D01*
X143875101Y-116196367D01*
X143856534Y-116231103D01*
X143831548Y-116261548D01*
X143801103Y-116286534D01*
X143766367Y-116305101D01*
X143728674Y-116316535D01*
X143683339Y-116321000D01*
X142846661Y-116321000D01*
X142801326Y-116316535D01*
X142763633Y-116305101D01*
X142728897Y-116286534D01*
X142698452Y-116261548D01*
X142673466Y-116231103D01*
X142654899Y-116196367D01*
X142643465Y-116158674D01*
X142639000Y-116113339D01*
X142639000Y-115026661D01*
X142643465Y-114981326D01*
X142654899Y-114943633D01*
X142673466Y-114908897D01*
X142698452Y-114878452D01*
X142728897Y-114853466D01*
X142763633Y-114834899D01*
X142801326Y-114823465D01*
X142846661Y-114819000D01*
X143683339Y-114819000D01*
X143728674Y-114823465D01*
X143728674Y-114823465D01*
G37*
G36*
X141678674Y-114823465D02*
G01*
X141716367Y-114834899D01*
X141751103Y-114853466D01*
X141781548Y-114878452D01*
X141806534Y-114908897D01*
X141825101Y-114943633D01*
X141836535Y-114981326D01*
X141841000Y-115026661D01*
X141841000Y-116113339D01*
X141836535Y-116158674D01*
X141825101Y-116196367D01*
X141806534Y-116231103D01*
X141781548Y-116261548D01*
X141751103Y-116286534D01*
X141716367Y-116305101D01*
X141678674Y-116316535D01*
X141633339Y-116321000D01*
X140796661Y-116321000D01*
X140751326Y-116316535D01*
X140713633Y-116305101D01*
X140678897Y-116286534D01*
X140648452Y-116261548D01*
X140623466Y-116231103D01*
X140604899Y-116196367D01*
X140593465Y-116158674D01*
X140589000Y-116113339D01*
X140589000Y-115026661D01*
X140593465Y-114981326D01*
X140604899Y-114943633D01*
X140623466Y-114908897D01*
X140648452Y-114878452D01*
X140678897Y-114853466D01*
X140713633Y-114834899D01*
X140751326Y-114823465D01*
X140796661Y-114819000D01*
X141633339Y-114819000D01*
X141678674Y-114823465D01*
X141678674Y-114823465D01*
G37*
G36*
X117585442Y-114040518D02*
G01*
X117651627Y-114047037D01*
X117821466Y-114098557D01*
X117977991Y-114182222D01*
X118013729Y-114211552D01*
X118115186Y-114294814D01*
X118198448Y-114396271D01*
X118227778Y-114432009D01*
X118311443Y-114588534D01*
X118362963Y-114758373D01*
X118380359Y-114935000D01*
X118362963Y-115111627D01*
X118311443Y-115281466D01*
X118227778Y-115437991D01*
X118198448Y-115473729D01*
X118115186Y-115575186D01*
X118013729Y-115658448D01*
X117977991Y-115687778D01*
X117821466Y-115771443D01*
X117651627Y-115822963D01*
X117585443Y-115829481D01*
X117519260Y-115836000D01*
X117430740Y-115836000D01*
X117364557Y-115829481D01*
X117298373Y-115822963D01*
X117128534Y-115771443D01*
X116972009Y-115687778D01*
X116936271Y-115658448D01*
X116834814Y-115575186D01*
X116751552Y-115473729D01*
X116722222Y-115437991D01*
X116638557Y-115281466D01*
X116587037Y-115111627D01*
X116569641Y-114935000D01*
X116587037Y-114758373D01*
X116638557Y-114588534D01*
X116722222Y-114432009D01*
X116751552Y-114396271D01*
X116834814Y-114294814D01*
X116936271Y-114211552D01*
X116972009Y-114182222D01*
X117128534Y-114098557D01*
X117298373Y-114047037D01*
X117364558Y-114040518D01*
X117430740Y-114034000D01*
X117519260Y-114034000D01*
X117585442Y-114040518D01*
X117585442Y-114040518D01*
G37*
G36*
X115045442Y-114040518D02*
G01*
X115111627Y-114047037D01*
X115281466Y-114098557D01*
X115437991Y-114182222D01*
X115473729Y-114211552D01*
X115575186Y-114294814D01*
X115658448Y-114396271D01*
X115687778Y-114432009D01*
X115771443Y-114588534D01*
X115822963Y-114758373D01*
X115840359Y-114935000D01*
X115822963Y-115111627D01*
X115771443Y-115281466D01*
X115687778Y-115437991D01*
X115658448Y-115473729D01*
X115575186Y-115575186D01*
X115473729Y-115658448D01*
X115437991Y-115687778D01*
X115281466Y-115771443D01*
X115111627Y-115822963D01*
X115045443Y-115829481D01*
X114979260Y-115836000D01*
X114890740Y-115836000D01*
X114824557Y-115829481D01*
X114758373Y-115822963D01*
X114588534Y-115771443D01*
X114432009Y-115687778D01*
X114396271Y-115658448D01*
X114294814Y-115575186D01*
X114211552Y-115473729D01*
X114182222Y-115437991D01*
X114098557Y-115281466D01*
X114047037Y-115111627D01*
X114029641Y-114935000D01*
X114047037Y-114758373D01*
X114098557Y-114588534D01*
X114182222Y-114432009D01*
X114211552Y-114396271D01*
X114294814Y-114294814D01*
X114396271Y-114211552D01*
X114432009Y-114182222D01*
X114588534Y-114098557D01*
X114758373Y-114047037D01*
X114824558Y-114040518D01*
X114890740Y-114034000D01*
X114979260Y-114034000D01*
X115045442Y-114040518D01*
X115045442Y-114040518D01*
G37*
G36*
X112505442Y-114040518D02*
G01*
X112571627Y-114047037D01*
X112741466Y-114098557D01*
X112897991Y-114182222D01*
X112933729Y-114211552D01*
X113035186Y-114294814D01*
X113118448Y-114396271D01*
X113147778Y-114432009D01*
X113231443Y-114588534D01*
X113282963Y-114758373D01*
X113300359Y-114935000D01*
X113282963Y-115111627D01*
X113231443Y-115281466D01*
X113147778Y-115437991D01*
X113118448Y-115473729D01*
X113035186Y-115575186D01*
X112933729Y-115658448D01*
X112897991Y-115687778D01*
X112741466Y-115771443D01*
X112571627Y-115822963D01*
X112505443Y-115829481D01*
X112439260Y-115836000D01*
X112350740Y-115836000D01*
X112284557Y-115829481D01*
X112218373Y-115822963D01*
X112048534Y-115771443D01*
X111892009Y-115687778D01*
X111856271Y-115658448D01*
X111754814Y-115575186D01*
X111671552Y-115473729D01*
X111642222Y-115437991D01*
X111558557Y-115281466D01*
X111507037Y-115111627D01*
X111489641Y-114935000D01*
X111507037Y-114758373D01*
X111558557Y-114588534D01*
X111642222Y-114432009D01*
X111671552Y-114396271D01*
X111754814Y-114294814D01*
X111856271Y-114211552D01*
X111892009Y-114182222D01*
X112048534Y-114098557D01*
X112218373Y-114047037D01*
X112284558Y-114040518D01*
X112350740Y-114034000D01*
X112439260Y-114034000D01*
X112505442Y-114040518D01*
X112505442Y-114040518D01*
G37*
G36*
X109965442Y-114040518D02*
G01*
X110031627Y-114047037D01*
X110201466Y-114098557D01*
X110357991Y-114182222D01*
X110393729Y-114211552D01*
X110495186Y-114294814D01*
X110578448Y-114396271D01*
X110607778Y-114432009D01*
X110691443Y-114588534D01*
X110742963Y-114758373D01*
X110760359Y-114935000D01*
X110742963Y-115111627D01*
X110691443Y-115281466D01*
X110607778Y-115437991D01*
X110578448Y-115473729D01*
X110495186Y-115575186D01*
X110393729Y-115658448D01*
X110357991Y-115687778D01*
X110201466Y-115771443D01*
X110031627Y-115822963D01*
X109965443Y-115829481D01*
X109899260Y-115836000D01*
X109810740Y-115836000D01*
X109744557Y-115829481D01*
X109678373Y-115822963D01*
X109508534Y-115771443D01*
X109352009Y-115687778D01*
X109316271Y-115658448D01*
X109214814Y-115575186D01*
X109131552Y-115473729D01*
X109102222Y-115437991D01*
X109018557Y-115281466D01*
X108967037Y-115111627D01*
X108949641Y-114935000D01*
X108967037Y-114758373D01*
X109018557Y-114588534D01*
X109102222Y-114432009D01*
X109131552Y-114396271D01*
X109214814Y-114294814D01*
X109316271Y-114211552D01*
X109352009Y-114182222D01*
X109508534Y-114098557D01*
X109678373Y-114047037D01*
X109744558Y-114040518D01*
X109810740Y-114034000D01*
X109899260Y-114034000D01*
X109965442Y-114040518D01*
X109965442Y-114040518D01*
G37*
G36*
X107425442Y-114040518D02*
G01*
X107491627Y-114047037D01*
X107661466Y-114098557D01*
X107817991Y-114182222D01*
X107853729Y-114211552D01*
X107955186Y-114294814D01*
X108038448Y-114396271D01*
X108067778Y-114432009D01*
X108151443Y-114588534D01*
X108202963Y-114758373D01*
X108220359Y-114935000D01*
X108202963Y-115111627D01*
X108151443Y-115281466D01*
X108067778Y-115437991D01*
X108038448Y-115473729D01*
X107955186Y-115575186D01*
X107853729Y-115658448D01*
X107817991Y-115687778D01*
X107661466Y-115771443D01*
X107491627Y-115822963D01*
X107425443Y-115829481D01*
X107359260Y-115836000D01*
X107270740Y-115836000D01*
X107204557Y-115829481D01*
X107138373Y-115822963D01*
X106968534Y-115771443D01*
X106812009Y-115687778D01*
X106776271Y-115658448D01*
X106674814Y-115575186D01*
X106591552Y-115473729D01*
X106562222Y-115437991D01*
X106478557Y-115281466D01*
X106427037Y-115111627D01*
X106409641Y-114935000D01*
X106427037Y-114758373D01*
X106478557Y-114588534D01*
X106562222Y-114432009D01*
X106591552Y-114396271D01*
X106674814Y-114294814D01*
X106776271Y-114211552D01*
X106812009Y-114182222D01*
X106968534Y-114098557D01*
X107138373Y-114047037D01*
X107204558Y-114040518D01*
X107270740Y-114034000D01*
X107359260Y-114034000D01*
X107425442Y-114040518D01*
X107425442Y-114040518D01*
G37*
G36*
X104885442Y-114040518D02*
G01*
X104951627Y-114047037D01*
X105121466Y-114098557D01*
X105277991Y-114182222D01*
X105313729Y-114211552D01*
X105415186Y-114294814D01*
X105498448Y-114396271D01*
X105527778Y-114432009D01*
X105611443Y-114588534D01*
X105662963Y-114758373D01*
X105680359Y-114935000D01*
X105662963Y-115111627D01*
X105611443Y-115281466D01*
X105527778Y-115437991D01*
X105498448Y-115473729D01*
X105415186Y-115575186D01*
X105313729Y-115658448D01*
X105277991Y-115687778D01*
X105121466Y-115771443D01*
X104951627Y-115822963D01*
X104885443Y-115829481D01*
X104819260Y-115836000D01*
X104730740Y-115836000D01*
X104664557Y-115829481D01*
X104598373Y-115822963D01*
X104428534Y-115771443D01*
X104272009Y-115687778D01*
X104236271Y-115658448D01*
X104134814Y-115575186D01*
X104051552Y-115473729D01*
X104022222Y-115437991D01*
X103938557Y-115281466D01*
X103887037Y-115111627D01*
X103869641Y-114935000D01*
X103887037Y-114758373D01*
X103938557Y-114588534D01*
X104022222Y-114432009D01*
X104051552Y-114396271D01*
X104134814Y-114294814D01*
X104236271Y-114211552D01*
X104272009Y-114182222D01*
X104428534Y-114098557D01*
X104598373Y-114047037D01*
X104664558Y-114040518D01*
X104730740Y-114034000D01*
X104819260Y-114034000D01*
X104885442Y-114040518D01*
X104885442Y-114040518D01*
G37*
G36*
X102345442Y-114040518D02*
G01*
X102411627Y-114047037D01*
X102581466Y-114098557D01*
X102737991Y-114182222D01*
X102773729Y-114211552D01*
X102875186Y-114294814D01*
X102958448Y-114396271D01*
X102987778Y-114432009D01*
X103071443Y-114588534D01*
X103122963Y-114758373D01*
X103140359Y-114935000D01*
X103122963Y-115111627D01*
X103071443Y-115281466D01*
X102987778Y-115437991D01*
X102958448Y-115473729D01*
X102875186Y-115575186D01*
X102773729Y-115658448D01*
X102737991Y-115687778D01*
X102581466Y-115771443D01*
X102411627Y-115822963D01*
X102345443Y-115829481D01*
X102279260Y-115836000D01*
X102190740Y-115836000D01*
X102124557Y-115829481D01*
X102058373Y-115822963D01*
X101888534Y-115771443D01*
X101732009Y-115687778D01*
X101696271Y-115658448D01*
X101594814Y-115575186D01*
X101511552Y-115473729D01*
X101482222Y-115437991D01*
X101398557Y-115281466D01*
X101347037Y-115111627D01*
X101329641Y-114935000D01*
X101347037Y-114758373D01*
X101398557Y-114588534D01*
X101482222Y-114432009D01*
X101511552Y-114396271D01*
X101594814Y-114294814D01*
X101696271Y-114211552D01*
X101732009Y-114182222D01*
X101888534Y-114098557D01*
X102058373Y-114047037D01*
X102124558Y-114040518D01*
X102190740Y-114034000D01*
X102279260Y-114034000D01*
X102345442Y-114040518D01*
X102345442Y-114040518D01*
G37*
G36*
X94725442Y-114040518D02*
G01*
X94791627Y-114047037D01*
X94961466Y-114098557D01*
X95117991Y-114182222D01*
X95153729Y-114211552D01*
X95255186Y-114294814D01*
X95338448Y-114396271D01*
X95367778Y-114432009D01*
X95451443Y-114588534D01*
X95502963Y-114758373D01*
X95520359Y-114935000D01*
X95502963Y-115111627D01*
X95451443Y-115281466D01*
X95367778Y-115437991D01*
X95338448Y-115473729D01*
X95255186Y-115575186D01*
X95153729Y-115658448D01*
X95117991Y-115687778D01*
X94961466Y-115771443D01*
X94791627Y-115822963D01*
X94725443Y-115829481D01*
X94659260Y-115836000D01*
X94570740Y-115836000D01*
X94504557Y-115829481D01*
X94438373Y-115822963D01*
X94268534Y-115771443D01*
X94112009Y-115687778D01*
X94076271Y-115658448D01*
X93974814Y-115575186D01*
X93891552Y-115473729D01*
X93862222Y-115437991D01*
X93778557Y-115281466D01*
X93727037Y-115111627D01*
X93709641Y-114935000D01*
X93727037Y-114758373D01*
X93778557Y-114588534D01*
X93862222Y-114432009D01*
X93891552Y-114396271D01*
X93974814Y-114294814D01*
X94076271Y-114211552D01*
X94112009Y-114182222D01*
X94268534Y-114098557D01*
X94438373Y-114047037D01*
X94504558Y-114040518D01*
X94570740Y-114034000D01*
X94659260Y-114034000D01*
X94725442Y-114040518D01*
X94725442Y-114040518D01*
G37*
G36*
X92185442Y-114040518D02*
G01*
X92251627Y-114047037D01*
X92421466Y-114098557D01*
X92577991Y-114182222D01*
X92613729Y-114211552D01*
X92715186Y-114294814D01*
X92798448Y-114396271D01*
X92827778Y-114432009D01*
X92911443Y-114588534D01*
X92962963Y-114758373D01*
X92980359Y-114935000D01*
X92962963Y-115111627D01*
X92911443Y-115281466D01*
X92827778Y-115437991D01*
X92798448Y-115473729D01*
X92715186Y-115575186D01*
X92613729Y-115658448D01*
X92577991Y-115687778D01*
X92421466Y-115771443D01*
X92251627Y-115822963D01*
X92185443Y-115829481D01*
X92119260Y-115836000D01*
X92030740Y-115836000D01*
X91964557Y-115829481D01*
X91898373Y-115822963D01*
X91728534Y-115771443D01*
X91572009Y-115687778D01*
X91536271Y-115658448D01*
X91434814Y-115575186D01*
X91351552Y-115473729D01*
X91322222Y-115437991D01*
X91238557Y-115281466D01*
X91187037Y-115111627D01*
X91169641Y-114935000D01*
X91187037Y-114758373D01*
X91238557Y-114588534D01*
X91322222Y-114432009D01*
X91351552Y-114396271D01*
X91434814Y-114294814D01*
X91536271Y-114211552D01*
X91572009Y-114182222D01*
X91728534Y-114098557D01*
X91898373Y-114047037D01*
X91964558Y-114040518D01*
X92030740Y-114034000D01*
X92119260Y-114034000D01*
X92185442Y-114040518D01*
X92185442Y-114040518D01*
G37*
G36*
X89645442Y-114040518D02*
G01*
X89711627Y-114047037D01*
X89881466Y-114098557D01*
X90037991Y-114182222D01*
X90073729Y-114211552D01*
X90175186Y-114294814D01*
X90258448Y-114396271D01*
X90287778Y-114432009D01*
X90371443Y-114588534D01*
X90422963Y-114758373D01*
X90440359Y-114935000D01*
X90422963Y-115111627D01*
X90371443Y-115281466D01*
X90287778Y-115437991D01*
X90258448Y-115473729D01*
X90175186Y-115575186D01*
X90073729Y-115658448D01*
X90037991Y-115687778D01*
X89881466Y-115771443D01*
X89711627Y-115822963D01*
X89645443Y-115829481D01*
X89579260Y-115836000D01*
X89490740Y-115836000D01*
X89424557Y-115829481D01*
X89358373Y-115822963D01*
X89188534Y-115771443D01*
X89032009Y-115687778D01*
X88996271Y-115658448D01*
X88894814Y-115575186D01*
X88811552Y-115473729D01*
X88782222Y-115437991D01*
X88698557Y-115281466D01*
X88647037Y-115111627D01*
X88629641Y-114935000D01*
X88647037Y-114758373D01*
X88698557Y-114588534D01*
X88782222Y-114432009D01*
X88811552Y-114396271D01*
X88894814Y-114294814D01*
X88996271Y-114211552D01*
X89032009Y-114182222D01*
X89188534Y-114098557D01*
X89358373Y-114047037D01*
X89424558Y-114040518D01*
X89490740Y-114034000D01*
X89579260Y-114034000D01*
X89645442Y-114040518D01*
X89645442Y-114040518D01*
G37*
G36*
X120125442Y-114040518D02*
G01*
X120191627Y-114047037D01*
X120361466Y-114098557D01*
X120517991Y-114182222D01*
X120553729Y-114211552D01*
X120655186Y-114294814D01*
X120738448Y-114396271D01*
X120767778Y-114432009D01*
X120851443Y-114588534D01*
X120902963Y-114758373D01*
X120920359Y-114935000D01*
X120902963Y-115111627D01*
X120851443Y-115281466D01*
X120767778Y-115437991D01*
X120738448Y-115473729D01*
X120655186Y-115575186D01*
X120553729Y-115658448D01*
X120517991Y-115687778D01*
X120361466Y-115771443D01*
X120191627Y-115822963D01*
X120125443Y-115829481D01*
X120059260Y-115836000D01*
X119970740Y-115836000D01*
X119904557Y-115829481D01*
X119838373Y-115822963D01*
X119668534Y-115771443D01*
X119512009Y-115687778D01*
X119476271Y-115658448D01*
X119374814Y-115575186D01*
X119291552Y-115473729D01*
X119262222Y-115437991D01*
X119178557Y-115281466D01*
X119127037Y-115111627D01*
X119109641Y-114935000D01*
X119127037Y-114758373D01*
X119178557Y-114588534D01*
X119262222Y-114432009D01*
X119291552Y-114396271D01*
X119374814Y-114294814D01*
X119476271Y-114211552D01*
X119512009Y-114182222D01*
X119668534Y-114098557D01*
X119838373Y-114047037D01*
X119904558Y-114040518D01*
X119970740Y-114034000D01*
X120059260Y-114034000D01*
X120125442Y-114040518D01*
X120125442Y-114040518D01*
G37*
G36*
X122665442Y-114040518D02*
G01*
X122731627Y-114047037D01*
X122901466Y-114098557D01*
X123057991Y-114182222D01*
X123093729Y-114211552D01*
X123195186Y-114294814D01*
X123278448Y-114396271D01*
X123307778Y-114432009D01*
X123391443Y-114588534D01*
X123442963Y-114758373D01*
X123460359Y-114935000D01*
X123442963Y-115111627D01*
X123391443Y-115281466D01*
X123307778Y-115437991D01*
X123278448Y-115473729D01*
X123195186Y-115575186D01*
X123093729Y-115658448D01*
X123057991Y-115687778D01*
X122901466Y-115771443D01*
X122731627Y-115822963D01*
X122665443Y-115829481D01*
X122599260Y-115836000D01*
X122510740Y-115836000D01*
X122444557Y-115829481D01*
X122378373Y-115822963D01*
X122208534Y-115771443D01*
X122052009Y-115687778D01*
X122016271Y-115658448D01*
X121914814Y-115575186D01*
X121831552Y-115473729D01*
X121802222Y-115437991D01*
X121718557Y-115281466D01*
X121667037Y-115111627D01*
X121649641Y-114935000D01*
X121667037Y-114758373D01*
X121718557Y-114588534D01*
X121802222Y-114432009D01*
X121831552Y-114396271D01*
X121914814Y-114294814D01*
X122016271Y-114211552D01*
X122052009Y-114182222D01*
X122208534Y-114098557D01*
X122378373Y-114047037D01*
X122444558Y-114040518D01*
X122510740Y-114034000D01*
X122599260Y-114034000D01*
X122665442Y-114040518D01*
X122665442Y-114040518D01*
G37*
G36*
X125205442Y-114040518D02*
G01*
X125271627Y-114047037D01*
X125441466Y-114098557D01*
X125597991Y-114182222D01*
X125633729Y-114211552D01*
X125735186Y-114294814D01*
X125818448Y-114396271D01*
X125847778Y-114432009D01*
X125931443Y-114588534D01*
X125982963Y-114758373D01*
X126000359Y-114935000D01*
X125982963Y-115111627D01*
X125931443Y-115281466D01*
X125847778Y-115437991D01*
X125818448Y-115473729D01*
X125735186Y-115575186D01*
X125633729Y-115658448D01*
X125597991Y-115687778D01*
X125441466Y-115771443D01*
X125271627Y-115822963D01*
X125205443Y-115829481D01*
X125139260Y-115836000D01*
X125050740Y-115836000D01*
X124984557Y-115829481D01*
X124918373Y-115822963D01*
X124748534Y-115771443D01*
X124592009Y-115687778D01*
X124556271Y-115658448D01*
X124454814Y-115575186D01*
X124371552Y-115473729D01*
X124342222Y-115437991D01*
X124258557Y-115281466D01*
X124207037Y-115111627D01*
X124189641Y-114935000D01*
X124207037Y-114758373D01*
X124258557Y-114588534D01*
X124342222Y-114432009D01*
X124371552Y-114396271D01*
X124454814Y-114294814D01*
X124556271Y-114211552D01*
X124592009Y-114182222D01*
X124748534Y-114098557D01*
X124918373Y-114047037D01*
X124984558Y-114040518D01*
X125050740Y-114034000D01*
X125139260Y-114034000D01*
X125205442Y-114040518D01*
X125205442Y-114040518D01*
G37*
G36*
X99805442Y-114040518D02*
G01*
X99871627Y-114047037D01*
X100041466Y-114098557D01*
X100197991Y-114182222D01*
X100233729Y-114211552D01*
X100335186Y-114294814D01*
X100418448Y-114396271D01*
X100447778Y-114432009D01*
X100531443Y-114588534D01*
X100582963Y-114758373D01*
X100600359Y-114935000D01*
X100582963Y-115111627D01*
X100531443Y-115281466D01*
X100447778Y-115437991D01*
X100418448Y-115473729D01*
X100335186Y-115575186D01*
X100233729Y-115658448D01*
X100197991Y-115687778D01*
X100041466Y-115771443D01*
X99871627Y-115822963D01*
X99805443Y-115829481D01*
X99739260Y-115836000D01*
X99650740Y-115836000D01*
X99584557Y-115829481D01*
X99518373Y-115822963D01*
X99348534Y-115771443D01*
X99192009Y-115687778D01*
X99156271Y-115658448D01*
X99054814Y-115575186D01*
X98971552Y-115473729D01*
X98942222Y-115437991D01*
X98858557Y-115281466D01*
X98807037Y-115111627D01*
X98789641Y-114935000D01*
X98807037Y-114758373D01*
X98858557Y-114588534D01*
X98942222Y-114432009D01*
X98971552Y-114396271D01*
X99054814Y-114294814D01*
X99156271Y-114211552D01*
X99192009Y-114182222D01*
X99348534Y-114098557D01*
X99518373Y-114047037D01*
X99584558Y-114040518D01*
X99650740Y-114034000D01*
X99739260Y-114034000D01*
X99805442Y-114040518D01*
X99805442Y-114040518D01*
G37*
G36*
X97265442Y-114040518D02*
G01*
X97331627Y-114047037D01*
X97501466Y-114098557D01*
X97657991Y-114182222D01*
X97693729Y-114211552D01*
X97795186Y-114294814D01*
X97878448Y-114396271D01*
X97907778Y-114432009D01*
X97991443Y-114588534D01*
X98042963Y-114758373D01*
X98060359Y-114935000D01*
X98042963Y-115111627D01*
X97991443Y-115281466D01*
X97907778Y-115437991D01*
X97878448Y-115473729D01*
X97795186Y-115575186D01*
X97693729Y-115658448D01*
X97657991Y-115687778D01*
X97501466Y-115771443D01*
X97331627Y-115822963D01*
X97265443Y-115829481D01*
X97199260Y-115836000D01*
X97110740Y-115836000D01*
X97044557Y-115829481D01*
X96978373Y-115822963D01*
X96808534Y-115771443D01*
X96652009Y-115687778D01*
X96616271Y-115658448D01*
X96514814Y-115575186D01*
X96431552Y-115473729D01*
X96402222Y-115437991D01*
X96318557Y-115281466D01*
X96267037Y-115111627D01*
X96249641Y-114935000D01*
X96267037Y-114758373D01*
X96318557Y-114588534D01*
X96402222Y-114432009D01*
X96431552Y-114396271D01*
X96514814Y-114294814D01*
X96616271Y-114211552D01*
X96652009Y-114182222D01*
X96808534Y-114098557D01*
X96978373Y-114047037D01*
X97044558Y-114040518D01*
X97110740Y-114034000D01*
X97199260Y-114034000D01*
X97265442Y-114040518D01*
X97265442Y-114040518D01*
G37*
G36*
X62425562Y-110388181D02*
G01*
X62460481Y-110398774D01*
X62492663Y-110415976D01*
X62520873Y-110439127D01*
X62544024Y-110467337D01*
X62561226Y-110499519D01*
X62571819Y-110534438D01*
X62576000Y-110576895D01*
X62576000Y-112943105D01*
X62571819Y-112985562D01*
X62561226Y-113020481D01*
X62544024Y-113052663D01*
X62520873Y-113080873D01*
X62492663Y-113104024D01*
X62460481Y-113121226D01*
X62425562Y-113131819D01*
X62383105Y-113136000D01*
X61241895Y-113136000D01*
X61199438Y-113131819D01*
X61164519Y-113121226D01*
X61132337Y-113104024D01*
X61104127Y-113080873D01*
X61080976Y-113052663D01*
X61063774Y-113020481D01*
X61053181Y-112985562D01*
X61049000Y-112943105D01*
X61049000Y-110576895D01*
X61053181Y-110534438D01*
X61063774Y-110499519D01*
X61080976Y-110467337D01*
X61104127Y-110439127D01*
X61132337Y-110415976D01*
X61164519Y-110398774D01*
X61199438Y-110388181D01*
X61241895Y-110384000D01*
X62383105Y-110384000D01*
X62425562Y-110388181D01*
X62425562Y-110388181D01*
G37*
G36*
X59450562Y-110388181D02*
G01*
X59485481Y-110398774D01*
X59517663Y-110415976D01*
X59545873Y-110439127D01*
X59569024Y-110467337D01*
X59586226Y-110499519D01*
X59596819Y-110534438D01*
X59601000Y-110576895D01*
X59601000Y-112943105D01*
X59596819Y-112985562D01*
X59586226Y-113020481D01*
X59569024Y-113052663D01*
X59545873Y-113080873D01*
X59517663Y-113104024D01*
X59485481Y-113121226D01*
X59450562Y-113131819D01*
X59408105Y-113136000D01*
X58266895Y-113136000D01*
X58224438Y-113131819D01*
X58189519Y-113121226D01*
X58157337Y-113104024D01*
X58129127Y-113080873D01*
X58105976Y-113052663D01*
X58088774Y-113020481D01*
X58078181Y-112985562D01*
X58074000Y-112943105D01*
X58074000Y-110576895D01*
X58078181Y-110534438D01*
X58088774Y-110499519D01*
X58105976Y-110467337D01*
X58129127Y-110439127D01*
X58157337Y-110415976D01*
X58189519Y-110398774D01*
X58224438Y-110388181D01*
X58266895Y-110384000D01*
X59408105Y-110384000D01*
X59450562Y-110388181D01*
X59450562Y-110388181D01*
G37*
G36*
X32291000Y-112936000D02*
G01*
X29939000Y-112936000D01*
X29939000Y-110584000D01*
X32291000Y-110584000D01*
X32291000Y-112936000D01*
X32291000Y-112936000D01*
G37*
G36*
X70676560Y-110599064D02*
G01*
X70828027Y-110629193D01*
X71042045Y-110717842D01*
X71042046Y-110717843D01*
X71234654Y-110846539D01*
X71398461Y-111010346D01*
X71439870Y-111072319D01*
X71527158Y-111202955D01*
X71615807Y-111416973D01*
X71661000Y-111644174D01*
X71661000Y-111875826D01*
X71615807Y-112103027D01*
X71527158Y-112317045D01*
X71527157Y-112317046D01*
X71398461Y-112509654D01*
X71234654Y-112673461D01*
X71106249Y-112759258D01*
X71042045Y-112802158D01*
X70828027Y-112890807D01*
X70679408Y-112920369D01*
X70600827Y-112936000D01*
X70369173Y-112936000D01*
X70290592Y-112920369D01*
X70141973Y-112890807D01*
X69927955Y-112802158D01*
X69863751Y-112759258D01*
X69735346Y-112673461D01*
X69571539Y-112509654D01*
X69442843Y-112317046D01*
X69442842Y-112317045D01*
X69354193Y-112103027D01*
X69309000Y-111875826D01*
X69309000Y-111644174D01*
X69354193Y-111416973D01*
X69442842Y-111202955D01*
X69530130Y-111072319D01*
X69571539Y-111010346D01*
X69735346Y-110846539D01*
X69927954Y-110717843D01*
X69927955Y-110717842D01*
X70141973Y-110629193D01*
X70293440Y-110599064D01*
X70369173Y-110584000D01*
X70600827Y-110584000D01*
X70676560Y-110599064D01*
X70676560Y-110599064D01*
G37*
G36*
X23686560Y-110599064D02*
G01*
X23838027Y-110629193D01*
X24052045Y-110717842D01*
X24052046Y-110717843D01*
X24244654Y-110846539D01*
X24408461Y-111010346D01*
X24449870Y-111072319D01*
X24537158Y-111202955D01*
X24625807Y-111416973D01*
X24671000Y-111644174D01*
X24671000Y-111875826D01*
X24625807Y-112103027D01*
X24537158Y-112317045D01*
X24537157Y-112317046D01*
X24408461Y-112509654D01*
X24244654Y-112673461D01*
X24116249Y-112759258D01*
X24052045Y-112802158D01*
X23838027Y-112890807D01*
X23689408Y-112920369D01*
X23610827Y-112936000D01*
X23379173Y-112936000D01*
X23300592Y-112920369D01*
X23151973Y-112890807D01*
X22937955Y-112802158D01*
X22873751Y-112759258D01*
X22745346Y-112673461D01*
X22581539Y-112509654D01*
X22452843Y-112317046D01*
X22452842Y-112317045D01*
X22364193Y-112103027D01*
X22319000Y-111875826D01*
X22319000Y-111644174D01*
X22364193Y-111416973D01*
X22452842Y-111202955D01*
X22540130Y-111072319D01*
X22581539Y-111010346D01*
X22745346Y-110846539D01*
X22937954Y-110717843D01*
X22937955Y-110717842D01*
X23151973Y-110629193D01*
X23303440Y-110599064D01*
X23379173Y-110584000D01*
X23610827Y-110584000D01*
X23686560Y-110599064D01*
X23686560Y-110599064D01*
G37*
G36*
X36386560Y-110599064D02*
G01*
X36538027Y-110629193D01*
X36752045Y-110717842D01*
X36752046Y-110717843D01*
X36944654Y-110846539D01*
X37108461Y-111010346D01*
X37149870Y-111072319D01*
X37237158Y-111202955D01*
X37325807Y-111416973D01*
X37371000Y-111644174D01*
X37371000Y-111875826D01*
X37325807Y-112103027D01*
X37237158Y-112317045D01*
X37237157Y-112317046D01*
X37108461Y-112509654D01*
X36944654Y-112673461D01*
X36816249Y-112759258D01*
X36752045Y-112802158D01*
X36538027Y-112890807D01*
X36389408Y-112920369D01*
X36310827Y-112936000D01*
X36079173Y-112936000D01*
X36000592Y-112920369D01*
X35851973Y-112890807D01*
X35637955Y-112802158D01*
X35573751Y-112759258D01*
X35445346Y-112673461D01*
X35281539Y-112509654D01*
X35152843Y-112317046D01*
X35152842Y-112317045D01*
X35064193Y-112103027D01*
X35019000Y-111875826D01*
X35019000Y-111644174D01*
X35064193Y-111416973D01*
X35152842Y-111202955D01*
X35240130Y-111072319D01*
X35281539Y-111010346D01*
X35445346Y-110846539D01*
X35637954Y-110717843D01*
X35637955Y-110717842D01*
X35851973Y-110629193D01*
X36003440Y-110599064D01*
X36079173Y-110584000D01*
X36310827Y-110584000D01*
X36386560Y-110599064D01*
X36386560Y-110599064D01*
G37*
G36*
X50356560Y-110599064D02*
G01*
X50508027Y-110629193D01*
X50722045Y-110717842D01*
X50722046Y-110717843D01*
X50914654Y-110846539D01*
X51078461Y-111010346D01*
X51119870Y-111072319D01*
X51207158Y-111202955D01*
X51295807Y-111416973D01*
X51341000Y-111644174D01*
X51341000Y-111875826D01*
X51295807Y-112103027D01*
X51207158Y-112317045D01*
X51207157Y-112317046D01*
X51078461Y-112509654D01*
X50914654Y-112673461D01*
X50786249Y-112759258D01*
X50722045Y-112802158D01*
X50508027Y-112890807D01*
X50359408Y-112920369D01*
X50280827Y-112936000D01*
X50049173Y-112936000D01*
X49970592Y-112920369D01*
X49821973Y-112890807D01*
X49607955Y-112802158D01*
X49543751Y-112759258D01*
X49415346Y-112673461D01*
X49251539Y-112509654D01*
X49122843Y-112317046D01*
X49122842Y-112317045D01*
X49034193Y-112103027D01*
X48989000Y-111875826D01*
X48989000Y-111644174D01*
X49034193Y-111416973D01*
X49122842Y-111202955D01*
X49210130Y-111072319D01*
X49251539Y-111010346D01*
X49415346Y-110846539D01*
X49607954Y-110717843D01*
X49607955Y-110717842D01*
X49821973Y-110629193D01*
X49973440Y-110599064D01*
X50049173Y-110584000D01*
X50280827Y-110584000D01*
X50356560Y-110599064D01*
X50356560Y-110599064D01*
G37*
G36*
X158976348Y-111013820D02*
G01*
X158976350Y-111013821D01*
X158976351Y-111013821D01*
X159117574Y-111072317D01*
X159117577Y-111072319D01*
X159244669Y-111157239D01*
X159352761Y-111265331D01*
X159437681Y-111392423D01*
X159437683Y-111392426D01*
X159447851Y-111416975D01*
X159496180Y-111533652D01*
X159526000Y-111683569D01*
X159526000Y-111836431D01*
X159518164Y-111875827D01*
X159496179Y-111986351D01*
X159437683Y-112127574D01*
X159437681Y-112127577D01*
X159352761Y-112254669D01*
X159244669Y-112362761D01*
X159117577Y-112447681D01*
X159117574Y-112447683D01*
X158976351Y-112506179D01*
X158976350Y-112506179D01*
X158976348Y-112506180D01*
X158826431Y-112536000D01*
X158673569Y-112536000D01*
X158523652Y-112506180D01*
X158523650Y-112506179D01*
X158523649Y-112506179D01*
X158382426Y-112447683D01*
X158382423Y-112447681D01*
X158255331Y-112362761D01*
X158147239Y-112254669D01*
X158062319Y-112127577D01*
X158062317Y-112127574D01*
X158003821Y-111986351D01*
X157981837Y-111875827D01*
X157974000Y-111836431D01*
X157974000Y-111683569D01*
X158003820Y-111533652D01*
X158052149Y-111416975D01*
X158062317Y-111392426D01*
X158062319Y-111392423D01*
X158147239Y-111265331D01*
X158255331Y-111157239D01*
X158382423Y-111072319D01*
X158382426Y-111072317D01*
X158523649Y-111013821D01*
X158523650Y-111013821D01*
X158523652Y-111013820D01*
X158673569Y-110984000D01*
X158826431Y-110984000D01*
X158976348Y-111013820D01*
X158976348Y-111013820D01*
G37*
G36*
X158976348Y-108473820D02*
G01*
X158976350Y-108473821D01*
X158976351Y-108473821D01*
X159117574Y-108532317D01*
X159117577Y-108532319D01*
X159244669Y-108617239D01*
X159352761Y-108725331D01*
X159437681Y-108852423D01*
X159437683Y-108852426D01*
X159496179Y-108993649D01*
X159526000Y-109143571D01*
X159526000Y-109296429D01*
X159496179Y-109446351D01*
X159437683Y-109587574D01*
X159437681Y-109587577D01*
X159352761Y-109714669D01*
X159244669Y-109822761D01*
X159117577Y-109907681D01*
X159117574Y-109907683D01*
X158976351Y-109966179D01*
X158976350Y-109966179D01*
X158976348Y-109966180D01*
X158826431Y-109996000D01*
X158673569Y-109996000D01*
X158523652Y-109966180D01*
X158523650Y-109966179D01*
X158523649Y-109966179D01*
X158382426Y-109907683D01*
X158382423Y-109907681D01*
X158255331Y-109822761D01*
X158147239Y-109714669D01*
X158062319Y-109587577D01*
X158062317Y-109587574D01*
X158003821Y-109446351D01*
X157974000Y-109296429D01*
X157974000Y-109143571D01*
X158003821Y-108993649D01*
X158062317Y-108852426D01*
X158062319Y-108852423D01*
X158147239Y-108725331D01*
X158255331Y-108617239D01*
X158382423Y-108532319D01*
X158382426Y-108532317D01*
X158523649Y-108473821D01*
X158523650Y-108473821D01*
X158523652Y-108473820D01*
X158673569Y-108444000D01*
X158826431Y-108444000D01*
X158976348Y-108473820D01*
X158976348Y-108473820D01*
G37*
G36*
X35143674Y-107203465D02*
G01*
X35181367Y-107214899D01*
X35216103Y-107233466D01*
X35246548Y-107258452D01*
X35271534Y-107288897D01*
X35290101Y-107323633D01*
X35301535Y-107361326D01*
X35306000Y-107406661D01*
X35306000Y-108493339D01*
X35301535Y-108538674D01*
X35290101Y-108576367D01*
X35271534Y-108611103D01*
X35246548Y-108641548D01*
X35216103Y-108666534D01*
X35181367Y-108685101D01*
X35143674Y-108696535D01*
X35098339Y-108701000D01*
X34261661Y-108701000D01*
X34216326Y-108696535D01*
X34178633Y-108685101D01*
X34143897Y-108666534D01*
X34113452Y-108641548D01*
X34088466Y-108611103D01*
X34069899Y-108576367D01*
X34058465Y-108538674D01*
X34054000Y-108493339D01*
X34054000Y-107406661D01*
X34058465Y-107361326D01*
X34069899Y-107323633D01*
X34088466Y-107288897D01*
X34113452Y-107258452D01*
X34143897Y-107233466D01*
X34178633Y-107214899D01*
X34216326Y-107203465D01*
X34261661Y-107199000D01*
X35098339Y-107199000D01*
X35143674Y-107203465D01*
X35143674Y-107203465D01*
G37*
G36*
X33093674Y-107203465D02*
G01*
X33131367Y-107214899D01*
X33166103Y-107233466D01*
X33196548Y-107258452D01*
X33221534Y-107288897D01*
X33240101Y-107323633D01*
X33251535Y-107361326D01*
X33256000Y-107406661D01*
X33256000Y-108493339D01*
X33251535Y-108538674D01*
X33240101Y-108576367D01*
X33221534Y-108611103D01*
X33196548Y-108641548D01*
X33166103Y-108666534D01*
X33131367Y-108685101D01*
X33093674Y-108696535D01*
X33048339Y-108701000D01*
X32211661Y-108701000D01*
X32166326Y-108696535D01*
X32128633Y-108685101D01*
X32093897Y-108666534D01*
X32063452Y-108641548D01*
X32038466Y-108611103D01*
X32019899Y-108576367D01*
X32008465Y-108538674D01*
X32004000Y-108493339D01*
X32004000Y-107406661D01*
X32008465Y-107361326D01*
X32019899Y-107323633D01*
X32038466Y-107288897D01*
X32063452Y-107258452D01*
X32093897Y-107233466D01*
X32128633Y-107214899D01*
X32166326Y-107203465D01*
X32211661Y-107199000D01*
X33048339Y-107199000D01*
X33093674Y-107203465D01*
X33093674Y-107203465D01*
G37*
G36*
X158976348Y-105933820D02*
G01*
X158976350Y-105933821D01*
X158976351Y-105933821D01*
X159117574Y-105992317D01*
X159117577Y-105992319D01*
X159244669Y-106077239D01*
X159352761Y-106185331D01*
X159437681Y-106312423D01*
X159437683Y-106312426D01*
X159496179Y-106453649D01*
X159526000Y-106603571D01*
X159526000Y-106756429D01*
X159496179Y-106906351D01*
X159437683Y-107047574D01*
X159437681Y-107047577D01*
X159352761Y-107174669D01*
X159244669Y-107282761D01*
X159127088Y-107361326D01*
X159117574Y-107367683D01*
X158976351Y-107426179D01*
X158976350Y-107426179D01*
X158976348Y-107426180D01*
X158826431Y-107456000D01*
X158673569Y-107456000D01*
X158523652Y-107426180D01*
X158523650Y-107426179D01*
X158523649Y-107426179D01*
X158382426Y-107367683D01*
X158372912Y-107361326D01*
X158255331Y-107282761D01*
X158147239Y-107174669D01*
X158062319Y-107047577D01*
X158062317Y-107047574D01*
X158003821Y-106906351D01*
X157974000Y-106756429D01*
X157974000Y-106603571D01*
X158003821Y-106453649D01*
X158062317Y-106312426D01*
X158062319Y-106312423D01*
X158147239Y-106185331D01*
X158255331Y-106077239D01*
X158382423Y-105992319D01*
X158382426Y-105992317D01*
X158523649Y-105933821D01*
X158523650Y-105933821D01*
X158523652Y-105933820D01*
X158673569Y-105904000D01*
X158826431Y-105904000D01*
X158976348Y-105933820D01*
X158976348Y-105933820D01*
G37*
G36*
X158976348Y-103393820D02*
G01*
X158976350Y-103393821D01*
X158976351Y-103393821D01*
X159117574Y-103452317D01*
X159117577Y-103452319D01*
X159244669Y-103537239D01*
X159352761Y-103645331D01*
X159437681Y-103772423D01*
X159437683Y-103772426D01*
X159496179Y-103913649D01*
X159526000Y-104063571D01*
X159526000Y-104216429D01*
X159496179Y-104366351D01*
X159437683Y-104507574D01*
X159437681Y-104507577D01*
X159352761Y-104634669D01*
X159244669Y-104742761D01*
X159117577Y-104827681D01*
X159117574Y-104827683D01*
X158976351Y-104886179D01*
X158976350Y-104886179D01*
X158976348Y-104886180D01*
X158826431Y-104916000D01*
X158673569Y-104916000D01*
X158523652Y-104886180D01*
X158523650Y-104886179D01*
X158523649Y-104886179D01*
X158382426Y-104827683D01*
X158382423Y-104827681D01*
X158255331Y-104742761D01*
X158147239Y-104634669D01*
X158062319Y-104507577D01*
X158062317Y-104507574D01*
X158003821Y-104366351D01*
X157974000Y-104216429D01*
X157974000Y-104063571D01*
X158003821Y-103913649D01*
X158062317Y-103772426D01*
X158062319Y-103772423D01*
X158147239Y-103645331D01*
X158255331Y-103537239D01*
X158382423Y-103452319D01*
X158382426Y-103452317D01*
X158523649Y-103393821D01*
X158523650Y-103393821D01*
X158523652Y-103393820D01*
X158673569Y-103364000D01*
X158826431Y-103364000D01*
X158976348Y-103393820D01*
X158976348Y-103393820D01*
G37*
G36*
X158976348Y-98313820D02*
G01*
X158976350Y-98313821D01*
X158976351Y-98313821D01*
X159117574Y-98372317D01*
X159117577Y-98372319D01*
X159244669Y-98457239D01*
X159352761Y-98565331D01*
X159437681Y-98692423D01*
X159437683Y-98692426D01*
X159496179Y-98833649D01*
X159526000Y-98983571D01*
X159526000Y-99136429D01*
X159496179Y-99286351D01*
X159437683Y-99427574D01*
X159437681Y-99427577D01*
X159352761Y-99554669D01*
X159244669Y-99662761D01*
X159117577Y-99747681D01*
X159117574Y-99747683D01*
X158976351Y-99806179D01*
X158976350Y-99806179D01*
X158976348Y-99806180D01*
X158826431Y-99836000D01*
X158673569Y-99836000D01*
X158523652Y-99806180D01*
X158523650Y-99806179D01*
X158523649Y-99806179D01*
X158382426Y-99747683D01*
X158382423Y-99747681D01*
X158255331Y-99662761D01*
X158147239Y-99554669D01*
X158062319Y-99427577D01*
X158062317Y-99427574D01*
X158003821Y-99286351D01*
X157974000Y-99136429D01*
X157974000Y-98983571D01*
X158003821Y-98833649D01*
X158062317Y-98692426D01*
X158062319Y-98692423D01*
X158147239Y-98565331D01*
X158255331Y-98457239D01*
X158382423Y-98372319D01*
X158382426Y-98372317D01*
X158523649Y-98313821D01*
X158523650Y-98313821D01*
X158523652Y-98313820D01*
X158673569Y-98284000D01*
X158826431Y-98284000D01*
X158976348Y-98313820D01*
X158976348Y-98313820D01*
G37*
G36*
X158976348Y-95773820D02*
G01*
X158976350Y-95773821D01*
X158976351Y-95773821D01*
X159117574Y-95832317D01*
X159117577Y-95832319D01*
X159244669Y-95917239D01*
X159352761Y-96025331D01*
X159437681Y-96152423D01*
X159437683Y-96152426D01*
X159496179Y-96293649D01*
X159496180Y-96293652D01*
X159526000Y-96443569D01*
X159526000Y-96596431D01*
X159519170Y-96630770D01*
X159496179Y-96746351D01*
X159437683Y-96887574D01*
X159437681Y-96887577D01*
X159352761Y-97014669D01*
X159244669Y-97122761D01*
X159117577Y-97207681D01*
X159117574Y-97207683D01*
X158976351Y-97266179D01*
X158976350Y-97266179D01*
X158976348Y-97266180D01*
X158826431Y-97296000D01*
X158673569Y-97296000D01*
X158523652Y-97266180D01*
X158523650Y-97266179D01*
X158523649Y-97266179D01*
X158382426Y-97207683D01*
X158382423Y-97207681D01*
X158255331Y-97122761D01*
X158147239Y-97014669D01*
X158062319Y-96887577D01*
X158062317Y-96887574D01*
X158003821Y-96746351D01*
X157980831Y-96630770D01*
X157974000Y-96596431D01*
X157974000Y-96443569D01*
X158003820Y-96293652D01*
X158003821Y-96293649D01*
X158062317Y-96152426D01*
X158062319Y-96152423D01*
X158147239Y-96025331D01*
X158255331Y-95917239D01*
X158382423Y-95832319D01*
X158382426Y-95832317D01*
X158523649Y-95773821D01*
X158523650Y-95773821D01*
X158523652Y-95773820D01*
X158673569Y-95744000D01*
X158826431Y-95744000D01*
X158976348Y-95773820D01*
X158976348Y-95773820D01*
G37*
G36*
X61813674Y-95138465D02*
G01*
X61851367Y-95149899D01*
X61886103Y-95168466D01*
X61916548Y-95193452D01*
X61941534Y-95223897D01*
X61960101Y-95258633D01*
X61971535Y-95296326D01*
X61976000Y-95341661D01*
X61976000Y-96428339D01*
X61971535Y-96473674D01*
X61960101Y-96511367D01*
X61941534Y-96546103D01*
X61916548Y-96576548D01*
X61886103Y-96601534D01*
X61851367Y-96620101D01*
X61813674Y-96631535D01*
X61768339Y-96636000D01*
X60931661Y-96636000D01*
X60886326Y-96631535D01*
X60848633Y-96620101D01*
X60813897Y-96601534D01*
X60783452Y-96576548D01*
X60758466Y-96546103D01*
X60739899Y-96511367D01*
X60728465Y-96473674D01*
X60724000Y-96428339D01*
X60724000Y-95341661D01*
X60728465Y-95296326D01*
X60739899Y-95258633D01*
X60758466Y-95223897D01*
X60783452Y-95193452D01*
X60813897Y-95168466D01*
X60848633Y-95149899D01*
X60886326Y-95138465D01*
X60931661Y-95134000D01*
X61768339Y-95134000D01*
X61813674Y-95138465D01*
X61813674Y-95138465D01*
G37*
G36*
X59763674Y-95138465D02*
G01*
X59801367Y-95149899D01*
X59836103Y-95168466D01*
X59866548Y-95193452D01*
X59891534Y-95223897D01*
X59910101Y-95258633D01*
X59921535Y-95296326D01*
X59926000Y-95341661D01*
X59926000Y-96428339D01*
X59921535Y-96473674D01*
X59910101Y-96511367D01*
X59891534Y-96546103D01*
X59866548Y-96576548D01*
X59836103Y-96601534D01*
X59801367Y-96620101D01*
X59763674Y-96631535D01*
X59718339Y-96636000D01*
X58881661Y-96636000D01*
X58836326Y-96631535D01*
X58798633Y-96620101D01*
X58763897Y-96601534D01*
X58733452Y-96576548D01*
X58708466Y-96546103D01*
X58689899Y-96511367D01*
X58678465Y-96473674D01*
X58674000Y-96428339D01*
X58674000Y-95341661D01*
X58678465Y-95296326D01*
X58689899Y-95258633D01*
X58708466Y-95223897D01*
X58733452Y-95193452D01*
X58763897Y-95168466D01*
X58798633Y-95149899D01*
X58836326Y-95138465D01*
X58881661Y-95134000D01*
X59718339Y-95134000D01*
X59763674Y-95138465D01*
X59763674Y-95138465D01*
G37*
G36*
X126963254Y-92007818D02*
G01*
X127336511Y-92162426D01*
X127336513Y-92162427D01*
X127672436Y-92386884D01*
X127958116Y-92672564D01*
X128040332Y-92795608D01*
X128182574Y-93008489D01*
X128337182Y-93381746D01*
X128416000Y-93777993D01*
X128416000Y-94182007D01*
X128337182Y-94578254D01*
X128263557Y-94756000D01*
X128182573Y-94951513D01*
X127958116Y-95287436D01*
X127672436Y-95573116D01*
X127336513Y-95797573D01*
X127336512Y-95797574D01*
X127336511Y-95797574D01*
X126963254Y-95952182D01*
X126567007Y-96031000D01*
X126162993Y-96031000D01*
X125766746Y-95952182D01*
X125393489Y-95797574D01*
X125393488Y-95797574D01*
X125393487Y-95797573D01*
X125057564Y-95573116D01*
X124771884Y-95287436D01*
X124547427Y-94951513D01*
X124466443Y-94756000D01*
X124392818Y-94578254D01*
X124314000Y-94182007D01*
X124314000Y-93777993D01*
X124392818Y-93381746D01*
X124547426Y-93008489D01*
X124689669Y-92795608D01*
X124771884Y-92672564D01*
X125057564Y-92386884D01*
X125393487Y-92162427D01*
X125393489Y-92162426D01*
X125766746Y-92007818D01*
X126162993Y-91929000D01*
X126567007Y-91929000D01*
X126963254Y-92007818D01*
X126963254Y-92007818D01*
G37*
G36*
X159526000Y-94756000D02*
G01*
X157974000Y-94756000D01*
X157974000Y-93204000D01*
X159526000Y-93204000D01*
X159526000Y-94756000D01*
X159526000Y-94756000D01*
G37*
G36*
X32780562Y-90068181D02*
G01*
X32815481Y-90078774D01*
X32847663Y-90095976D01*
X32875873Y-90119127D01*
X32899024Y-90147337D01*
X32916226Y-90179519D01*
X32926819Y-90214438D01*
X32931000Y-90256895D01*
X32931000Y-92623105D01*
X32926819Y-92665562D01*
X32916226Y-92700481D01*
X32899024Y-92732663D01*
X32875873Y-92760873D01*
X32847663Y-92784024D01*
X32815481Y-92801226D01*
X32780562Y-92811819D01*
X32738105Y-92816000D01*
X31596895Y-92816000D01*
X31554438Y-92811819D01*
X31519519Y-92801226D01*
X31487337Y-92784024D01*
X31459127Y-92760873D01*
X31435976Y-92732663D01*
X31418774Y-92700481D01*
X31408181Y-92665562D01*
X31404000Y-92623105D01*
X31404000Y-90256895D01*
X31408181Y-90214438D01*
X31418774Y-90179519D01*
X31435976Y-90147337D01*
X31459127Y-90119127D01*
X31487337Y-90095976D01*
X31519519Y-90078774D01*
X31554438Y-90068181D01*
X31596895Y-90064000D01*
X32738105Y-90064000D01*
X32780562Y-90068181D01*
X32780562Y-90068181D01*
G37*
G36*
X35755562Y-90068181D02*
G01*
X35790481Y-90078774D01*
X35822663Y-90095976D01*
X35850873Y-90119127D01*
X35874024Y-90147337D01*
X35891226Y-90179519D01*
X35901819Y-90214438D01*
X35906000Y-90256895D01*
X35906000Y-92623105D01*
X35901819Y-92665562D01*
X35891226Y-92700481D01*
X35874024Y-92732663D01*
X35850873Y-92760873D01*
X35822663Y-92784024D01*
X35790481Y-92801226D01*
X35755562Y-92811819D01*
X35713105Y-92816000D01*
X34571895Y-92816000D01*
X34529438Y-92811819D01*
X34494519Y-92801226D01*
X34462337Y-92784024D01*
X34434127Y-92760873D01*
X34410976Y-92732663D01*
X34393774Y-92700481D01*
X34383181Y-92665562D01*
X34379000Y-92623105D01*
X34379000Y-90256895D01*
X34383181Y-90214438D01*
X34393774Y-90179519D01*
X34410976Y-90147337D01*
X34434127Y-90119127D01*
X34462337Y-90095976D01*
X34494519Y-90078774D01*
X34529438Y-90068181D01*
X34571895Y-90064000D01*
X35713105Y-90064000D01*
X35755562Y-90068181D01*
X35755562Y-90068181D01*
G37*
G36*
X57976560Y-90279064D02*
G01*
X58128027Y-90309193D01*
X58342045Y-90397842D01*
X58342046Y-90397843D01*
X58534654Y-90526539D01*
X58698461Y-90690346D01*
X58784258Y-90818751D01*
X58827158Y-90882955D01*
X58915807Y-91096973D01*
X58940477Y-91221000D01*
X58958940Y-91313815D01*
X58961000Y-91324174D01*
X58961000Y-91555826D01*
X58915807Y-91783027D01*
X58827158Y-91997045D01*
X58819959Y-92007819D01*
X58698461Y-92189654D01*
X58534654Y-92353461D01*
X58406249Y-92439258D01*
X58342045Y-92482158D01*
X58128027Y-92570807D01*
X57979408Y-92600369D01*
X57900827Y-92616000D01*
X57669173Y-92616000D01*
X57590592Y-92600369D01*
X57441973Y-92570807D01*
X57227955Y-92482158D01*
X57163751Y-92439258D01*
X57035346Y-92353461D01*
X56871539Y-92189654D01*
X56750041Y-92007819D01*
X56742842Y-91997045D01*
X56654193Y-91783027D01*
X56609000Y-91555826D01*
X56609000Y-91324174D01*
X56611061Y-91313815D01*
X56629523Y-91221000D01*
X56654193Y-91096973D01*
X56742842Y-90882955D01*
X56785742Y-90818751D01*
X56871539Y-90690346D01*
X57035346Y-90526539D01*
X57227954Y-90397843D01*
X57227955Y-90397842D01*
X57441973Y-90309193D01*
X57593440Y-90279064D01*
X57669173Y-90264000D01*
X57900827Y-90264000D01*
X57976560Y-90279064D01*
X57976560Y-90279064D01*
G37*
G36*
X70676560Y-90279064D02*
G01*
X70828027Y-90309193D01*
X71042045Y-90397842D01*
X71042046Y-90397843D01*
X71234654Y-90526539D01*
X71398461Y-90690346D01*
X71484258Y-90818751D01*
X71527158Y-90882955D01*
X71615807Y-91096973D01*
X71640477Y-91221000D01*
X71658940Y-91313815D01*
X71661000Y-91324174D01*
X71661000Y-91555826D01*
X71615807Y-91783027D01*
X71527158Y-91997045D01*
X71519959Y-92007819D01*
X71398461Y-92189654D01*
X71234654Y-92353461D01*
X71106249Y-92439258D01*
X71042045Y-92482158D01*
X70828027Y-92570807D01*
X70679408Y-92600369D01*
X70600827Y-92616000D01*
X70369173Y-92616000D01*
X70290592Y-92600369D01*
X70141973Y-92570807D01*
X69927955Y-92482158D01*
X69863751Y-92439258D01*
X69735346Y-92353461D01*
X69571539Y-92189654D01*
X69450041Y-92007819D01*
X69442842Y-91997045D01*
X69354193Y-91783027D01*
X69309000Y-91555826D01*
X69309000Y-91324174D01*
X69311061Y-91313815D01*
X69329523Y-91221000D01*
X69354193Y-91096973D01*
X69442842Y-90882955D01*
X69485742Y-90818751D01*
X69571539Y-90690346D01*
X69735346Y-90526539D01*
X69927954Y-90397843D01*
X69927955Y-90397842D01*
X70141973Y-90309193D01*
X70293440Y-90279064D01*
X70369173Y-90264000D01*
X70600827Y-90264000D01*
X70676560Y-90279064D01*
X70676560Y-90279064D01*
G37*
G36*
X44006560Y-90279064D02*
G01*
X44158027Y-90309193D01*
X44372045Y-90397842D01*
X44372046Y-90397843D01*
X44564654Y-90526539D01*
X44728461Y-90690346D01*
X44814258Y-90818751D01*
X44857158Y-90882955D01*
X44945807Y-91096973D01*
X44970477Y-91221000D01*
X44988940Y-91313815D01*
X44991000Y-91324174D01*
X44991000Y-91555826D01*
X44945807Y-91783027D01*
X44857158Y-91997045D01*
X44849959Y-92007819D01*
X44728461Y-92189654D01*
X44564654Y-92353461D01*
X44436249Y-92439258D01*
X44372045Y-92482158D01*
X44158027Y-92570807D01*
X44009408Y-92600369D01*
X43930827Y-92616000D01*
X43699173Y-92616000D01*
X43620592Y-92600369D01*
X43471973Y-92570807D01*
X43257955Y-92482158D01*
X43193751Y-92439258D01*
X43065346Y-92353461D01*
X42901539Y-92189654D01*
X42780041Y-92007819D01*
X42772842Y-91997045D01*
X42684193Y-91783027D01*
X42639000Y-91555826D01*
X42639000Y-91324174D01*
X42641061Y-91313815D01*
X42659523Y-91221000D01*
X42684193Y-91096973D01*
X42772842Y-90882955D01*
X42815742Y-90818751D01*
X42901539Y-90690346D01*
X43065346Y-90526539D01*
X43257954Y-90397843D01*
X43257955Y-90397842D01*
X43471973Y-90309193D01*
X43623440Y-90279064D01*
X43699173Y-90264000D01*
X43930827Y-90264000D01*
X44006560Y-90279064D01*
X44006560Y-90279064D01*
G37*
G36*
X23686560Y-90279064D02*
G01*
X23838027Y-90309193D01*
X24052045Y-90397842D01*
X24052046Y-90397843D01*
X24244654Y-90526539D01*
X24408461Y-90690346D01*
X24494258Y-90818751D01*
X24537158Y-90882955D01*
X24625807Y-91096973D01*
X24650477Y-91221000D01*
X24668940Y-91313815D01*
X24671000Y-91324174D01*
X24671000Y-91555826D01*
X24625807Y-91783027D01*
X24537158Y-91997045D01*
X24529959Y-92007819D01*
X24408461Y-92189654D01*
X24244654Y-92353461D01*
X24116249Y-92439258D01*
X24052045Y-92482158D01*
X23838027Y-92570807D01*
X23689408Y-92600369D01*
X23610827Y-92616000D01*
X23379173Y-92616000D01*
X23300592Y-92600369D01*
X23151973Y-92570807D01*
X22937955Y-92482158D01*
X22873751Y-92439258D01*
X22745346Y-92353461D01*
X22581539Y-92189654D01*
X22460041Y-92007819D01*
X22452842Y-91997045D01*
X22364193Y-91783027D01*
X22319000Y-91555826D01*
X22319000Y-91324174D01*
X22321061Y-91313815D01*
X22339523Y-91221000D01*
X22364193Y-91096973D01*
X22452842Y-90882955D01*
X22495742Y-90818751D01*
X22581539Y-90690346D01*
X22745346Y-90526539D01*
X22937954Y-90397843D01*
X22937955Y-90397842D01*
X23151973Y-90309193D01*
X23303440Y-90279064D01*
X23379173Y-90264000D01*
X23610827Y-90264000D01*
X23686560Y-90279064D01*
X23686560Y-90279064D01*
G37*
G36*
X64041000Y-92616000D02*
G01*
X61689000Y-92616000D01*
X61689000Y-90264000D01*
X64041000Y-90264000D01*
X64041000Y-92616000D01*
X64041000Y-92616000D01*
G37*
G36*
X110008228Y-90411703D02*
G01*
X110163100Y-90475853D01*
X110302481Y-90568985D01*
X110421015Y-90687519D01*
X110514147Y-90826900D01*
X110578297Y-90981772D01*
X110611000Y-91146184D01*
X110611000Y-91313816D01*
X110578297Y-91478228D01*
X110514147Y-91633100D01*
X110421015Y-91772481D01*
X110302481Y-91891015D01*
X110163100Y-91984147D01*
X110008228Y-92048297D01*
X109843816Y-92081000D01*
X109676184Y-92081000D01*
X109511772Y-92048297D01*
X109356900Y-91984147D01*
X109217519Y-91891015D01*
X109098985Y-91772481D01*
X109005853Y-91633100D01*
X108941703Y-91478228D01*
X108909000Y-91313816D01*
X108909000Y-91146184D01*
X108941703Y-90981772D01*
X109005853Y-90826900D01*
X109098985Y-90687519D01*
X109217519Y-90568985D01*
X109356900Y-90475853D01*
X109511772Y-90411703D01*
X109676184Y-90379000D01*
X109843816Y-90379000D01*
X110008228Y-90411703D01*
X110008228Y-90411703D01*
G37*
G36*
X139371564Y-89159389D02*
G01*
X139562833Y-89238615D01*
X139562835Y-89238616D01*
X139734973Y-89353635D01*
X139881365Y-89500027D01*
X139996385Y-89672167D01*
X140075611Y-89863436D01*
X140116000Y-90066484D01*
X140116000Y-90273516D01*
X140075611Y-90476564D01*
X140037329Y-90568985D01*
X139996384Y-90667835D01*
X139881365Y-90839973D01*
X139734973Y-90986365D01*
X139562835Y-91101384D01*
X139562834Y-91101385D01*
X139562833Y-91101385D01*
X139371564Y-91180611D01*
X139168516Y-91221000D01*
X138961484Y-91221000D01*
X138758436Y-91180611D01*
X138567167Y-91101385D01*
X138567166Y-91101385D01*
X138567165Y-91101384D01*
X138395027Y-90986365D01*
X138248635Y-90839973D01*
X138133616Y-90667835D01*
X138092671Y-90568985D01*
X138054389Y-90476564D01*
X138014000Y-90273516D01*
X138014000Y-90066484D01*
X138054389Y-89863436D01*
X138133615Y-89672167D01*
X138248635Y-89500027D01*
X138395027Y-89353635D01*
X138567165Y-89238616D01*
X138567167Y-89238615D01*
X138758436Y-89159389D01*
X138961484Y-89119000D01*
X139168516Y-89119000D01*
X139371564Y-89159389D01*
X139371564Y-89159389D01*
G37*
G36*
X105935331Y-86048211D02*
G01*
X106263092Y-86183974D01*
X106558070Y-86381072D01*
X106808928Y-86631930D01*
X107006026Y-86926908D01*
X107141789Y-87254669D01*
X107211000Y-87602616D01*
X107211000Y-87957384D01*
X107141789Y-88305331D01*
X107006026Y-88633092D01*
X106808928Y-88928070D01*
X106558070Y-89178928D01*
X106263092Y-89376026D01*
X105935331Y-89511789D01*
X105587384Y-89581000D01*
X105232616Y-89581000D01*
X104884669Y-89511789D01*
X104556908Y-89376026D01*
X104261930Y-89178928D01*
X104011072Y-88928070D01*
X103813974Y-88633092D01*
X103678211Y-88305331D01*
X103609000Y-87957384D01*
X103609000Y-87602616D01*
X103678211Y-87254669D01*
X103813974Y-86926908D01*
X104011072Y-86631930D01*
X104261930Y-86381072D01*
X104556908Y-86183974D01*
X104884669Y-86048211D01*
X105232616Y-85979000D01*
X105587384Y-85979000D01*
X105935331Y-86048211D01*
X105935331Y-86048211D01*
G37*
G36*
X159006731Y-85604136D02*
G01*
X159109644Y-85614272D01*
X159305017Y-85673538D01*
X159373737Y-85694384D01*
X159576625Y-85802830D01*
X159617120Y-85824475D01*
X159672691Y-85870082D01*
X159830450Y-85999550D01*
X159959918Y-86157309D01*
X160005525Y-86212880D01*
X160005526Y-86212882D01*
X160135616Y-86456263D01*
X160135617Y-86456267D01*
X160215728Y-86720356D01*
X160242778Y-86995000D01*
X160215728Y-87269644D01*
X160156462Y-87465017D01*
X160135616Y-87533737D01*
X160012964Y-87763202D01*
X160005525Y-87777120D01*
X159959918Y-87832691D01*
X159830450Y-87990450D01*
X159672691Y-88119918D01*
X159617120Y-88165525D01*
X159617118Y-88165526D01*
X159373737Y-88295616D01*
X159305017Y-88316462D01*
X159109644Y-88375728D01*
X159006731Y-88385864D01*
X158903820Y-88396000D01*
X158166180Y-88396000D01*
X158063269Y-88385864D01*
X157960356Y-88375728D01*
X157764983Y-88316462D01*
X157696263Y-88295616D01*
X157452882Y-88165526D01*
X157452880Y-88165525D01*
X157397309Y-88119918D01*
X157239550Y-87990450D01*
X157110082Y-87832691D01*
X157064475Y-87777120D01*
X157057036Y-87763202D01*
X156934384Y-87533737D01*
X156913538Y-87465017D01*
X156854272Y-87269644D01*
X156827222Y-86995000D01*
X156854272Y-86720356D01*
X156934383Y-86456267D01*
X156934384Y-86456263D01*
X157064474Y-86212882D01*
X157064475Y-86212880D01*
X157110082Y-86157309D01*
X157239550Y-85999550D01*
X157397309Y-85870082D01*
X157452880Y-85824475D01*
X157493375Y-85802830D01*
X157696263Y-85694384D01*
X157764983Y-85673538D01*
X157960356Y-85614272D01*
X158063269Y-85604136D01*
X158166180Y-85594000D01*
X158903820Y-85594000D01*
X159006731Y-85604136D01*
X159006731Y-85604136D01*
G37*
G36*
X154609031Y-85597621D02*
G01*
X154638486Y-85606556D01*
X154665623Y-85621062D01*
X154689414Y-85640586D01*
X154708938Y-85664377D01*
X154723444Y-85691514D01*
X154732379Y-85720969D01*
X154736000Y-85757734D01*
X154736000Y-88232266D01*
X154732379Y-88269031D01*
X154723444Y-88298486D01*
X154708938Y-88325623D01*
X154689414Y-88349414D01*
X154665623Y-88368938D01*
X154638486Y-88383444D01*
X154609031Y-88392379D01*
X154572266Y-88396000D01*
X151497734Y-88396000D01*
X151460969Y-88392379D01*
X151431514Y-88383444D01*
X151404377Y-88368938D01*
X151380586Y-88349414D01*
X151361062Y-88325623D01*
X151346556Y-88298486D01*
X151337621Y-88269031D01*
X151334000Y-88232266D01*
X151334000Y-85757734D01*
X151337621Y-85720969D01*
X151346556Y-85691514D01*
X151361062Y-85664377D01*
X151380586Y-85640586D01*
X151404377Y-85621062D01*
X151431514Y-85606556D01*
X151460969Y-85597621D01*
X151497734Y-85594000D01*
X154572266Y-85594000D01*
X154609031Y-85597621D01*
X154609031Y-85597621D01*
G37*
G36*
X105935331Y-78128211D02*
G01*
X106263092Y-78263974D01*
X106558070Y-78461072D01*
X106808928Y-78711930D01*
X107006026Y-79006908D01*
X107141789Y-79334669D01*
X107211000Y-79682616D01*
X107211000Y-80037384D01*
X107141789Y-80385331D01*
X107006026Y-80713092D01*
X106808928Y-81008070D01*
X106558070Y-81258928D01*
X106263092Y-81456026D01*
X105935331Y-81591789D01*
X105587384Y-81661000D01*
X105232616Y-81661000D01*
X104884669Y-81591789D01*
X104556908Y-81456026D01*
X104261930Y-81258928D01*
X104011072Y-81008070D01*
X103813974Y-80713092D01*
X103678211Y-80385331D01*
X103609000Y-80037384D01*
X103609000Y-79682616D01*
X103678211Y-79334669D01*
X103813974Y-79006908D01*
X104011072Y-78711930D01*
X104261930Y-78461072D01*
X104556908Y-78263974D01*
X104884669Y-78128211D01*
X105232616Y-78059000D01*
X105587384Y-78059000D01*
X105935331Y-78128211D01*
X105935331Y-78128211D01*
G37*
G36*
X139371564Y-78999389D02*
G01*
X139562833Y-79078615D01*
X139562835Y-79078616D01*
X139734973Y-79193635D01*
X139881365Y-79340027D01*
X139996385Y-79512167D01*
X140075611Y-79703436D01*
X140116000Y-79906484D01*
X140116000Y-80113516D01*
X140075611Y-80316564D01*
X140047126Y-80385332D01*
X139996384Y-80507835D01*
X139881365Y-80679973D01*
X139734973Y-80826365D01*
X139562835Y-80941384D01*
X139562834Y-80941385D01*
X139562833Y-80941385D01*
X139371564Y-81020611D01*
X139168516Y-81061000D01*
X138961484Y-81061000D01*
X138758436Y-81020611D01*
X138567167Y-80941385D01*
X138567166Y-80941385D01*
X138567165Y-80941384D01*
X138395027Y-80826365D01*
X138248635Y-80679973D01*
X138133616Y-80507835D01*
X138082874Y-80385332D01*
X138054389Y-80316564D01*
X138014000Y-80113516D01*
X138014000Y-79906484D01*
X138054389Y-79703436D01*
X138133615Y-79512167D01*
X138248635Y-79340027D01*
X138395027Y-79193635D01*
X138567165Y-79078616D01*
X138567167Y-79078615D01*
X138758436Y-78999389D01*
X138961484Y-78959000D01*
X139168516Y-78959000D01*
X139371564Y-78999389D01*
X139371564Y-78999389D01*
G37*
G36*
X124423254Y-74227818D02*
G01*
X124796511Y-74382426D01*
X124796513Y-74382427D01*
X125044255Y-74547963D01*
X125132436Y-74606884D01*
X125418116Y-74892564D01*
X125642574Y-75228489D01*
X125797182Y-75601746D01*
X125876000Y-75997993D01*
X125876000Y-76402007D01*
X125797182Y-76798254D01*
X125642574Y-77171511D01*
X125642573Y-77171513D01*
X125418116Y-77507436D01*
X125132436Y-77793116D01*
X124796513Y-78017573D01*
X124796512Y-78017574D01*
X124796511Y-78017574D01*
X124423254Y-78172182D01*
X124027007Y-78251000D01*
X123622993Y-78251000D01*
X123226746Y-78172182D01*
X122853489Y-78017574D01*
X122853488Y-78017574D01*
X122853487Y-78017573D01*
X122517564Y-77793116D01*
X122231884Y-77507436D01*
X122007427Y-77171513D01*
X122007426Y-77171511D01*
X121852818Y-76798254D01*
X121774000Y-76402007D01*
X121774000Y-75997993D01*
X121852818Y-75601746D01*
X122007426Y-75228489D01*
X122231884Y-74892564D01*
X122517564Y-74606884D01*
X122605745Y-74547963D01*
X122853487Y-74382427D01*
X122853489Y-74382426D01*
X123226746Y-74227818D01*
X123622993Y-74149000D01*
X124027007Y-74149000D01*
X124423254Y-74227818D01*
X124423254Y-74227818D01*
G37*
G36*
X159495442Y-72765518D02*
G01*
X159561627Y-72772037D01*
X159731466Y-72823557D01*
X159887991Y-72907222D01*
X159923729Y-72936552D01*
X160025186Y-73019814D01*
X160108448Y-73121271D01*
X160137778Y-73157009D01*
X160221443Y-73313534D01*
X160272963Y-73483373D01*
X160290359Y-73660000D01*
X160272963Y-73836627D01*
X160221443Y-74006466D01*
X160137778Y-74162991D01*
X160108448Y-74198729D01*
X160025186Y-74300186D01*
X159924975Y-74382426D01*
X159887991Y-74412778D01*
X159731466Y-74496443D01*
X159561627Y-74547963D01*
X159495442Y-74554482D01*
X159429260Y-74561000D01*
X159340740Y-74561000D01*
X159274558Y-74554482D01*
X159208373Y-74547963D01*
X159038534Y-74496443D01*
X158882009Y-74412778D01*
X158845025Y-74382426D01*
X158744814Y-74300186D01*
X158661552Y-74198729D01*
X158632222Y-74162991D01*
X158548557Y-74006466D01*
X158497037Y-73836627D01*
X158479641Y-73660000D01*
X158497037Y-73483373D01*
X158548557Y-73313534D01*
X158632222Y-73157009D01*
X158661552Y-73121271D01*
X158744814Y-73019814D01*
X158846271Y-72936552D01*
X158882009Y-72907222D01*
X159038534Y-72823557D01*
X159208373Y-72772037D01*
X159274558Y-72765518D01*
X159340740Y-72759000D01*
X159429260Y-72759000D01*
X159495442Y-72765518D01*
X159495442Y-72765518D01*
G37*
G36*
X157746000Y-74561000D02*
G01*
X155944000Y-74561000D01*
X155944000Y-72759000D01*
X157746000Y-72759000D01*
X157746000Y-74561000D01*
X157746000Y-74561000D01*
G37*
G36*
X126963254Y-61647818D02*
G01*
X127336511Y-61802426D01*
X127336513Y-61802427D01*
X127672436Y-62026884D01*
X127958116Y-62312564D01*
X128137945Y-62581696D01*
X128182574Y-62648489D01*
X128337182Y-63021746D01*
X128416000Y-63417993D01*
X128416000Y-63822007D01*
X128337182Y-64218254D01*
X128182574Y-64591511D01*
X128182573Y-64591513D01*
X127958116Y-64927436D01*
X127672436Y-65213116D01*
X127336513Y-65437573D01*
X127336512Y-65437574D01*
X127336511Y-65437574D01*
X126963254Y-65592182D01*
X126567007Y-65671000D01*
X126162993Y-65671000D01*
X125766746Y-65592182D01*
X125393489Y-65437574D01*
X125393488Y-65437574D01*
X125393487Y-65437573D01*
X125057564Y-65213116D01*
X124771884Y-64927436D01*
X124547427Y-64591513D01*
X124547426Y-64591511D01*
X124392818Y-64218254D01*
X124314000Y-63822007D01*
X124314000Y-63417993D01*
X124392818Y-63021746D01*
X124547426Y-62648489D01*
X124592056Y-62581696D01*
X124771884Y-62312564D01*
X125057564Y-62026884D01*
X125393487Y-61802427D01*
X125393489Y-61802426D01*
X125766746Y-61647818D01*
X126162993Y-61569000D01*
X126567007Y-61569000D01*
X126963254Y-61647818D01*
X126963254Y-61647818D01*
G37*
G36*
X72569294Y-61328633D02*
G01*
X72741695Y-61380931D01*
X72900583Y-61465858D01*
X73039849Y-61580151D01*
X73154142Y-61719417D01*
X73239069Y-61878305D01*
X73291367Y-62050706D01*
X73309025Y-62230000D01*
X73291367Y-62409294D01*
X73239069Y-62581695D01*
X73154142Y-62740583D01*
X73039849Y-62879849D01*
X72900583Y-62994142D01*
X72741695Y-63079069D01*
X72569294Y-63131367D01*
X72434931Y-63144600D01*
X72345069Y-63144600D01*
X72210706Y-63131367D01*
X72038305Y-63079069D01*
X71879417Y-62994142D01*
X71740151Y-62879849D01*
X71625858Y-62740583D01*
X71540931Y-62581695D01*
X71488633Y-62409294D01*
X71470975Y-62230000D01*
X71488633Y-62050706D01*
X71540931Y-61878305D01*
X71625858Y-61719417D01*
X71740151Y-61580151D01*
X71879417Y-61465858D01*
X72038305Y-61380931D01*
X72210706Y-61328633D01*
X72345069Y-61315400D01*
X72434931Y-61315400D01*
X72569294Y-61328633D01*
X72569294Y-61328633D01*
G37*
G36*
X70029294Y-61328633D02*
G01*
X70201695Y-61380931D01*
X70360583Y-61465858D01*
X70499849Y-61580151D01*
X70614142Y-61719417D01*
X70699069Y-61878305D01*
X70751367Y-62050706D01*
X70769025Y-62230000D01*
X70751367Y-62409294D01*
X70699069Y-62581695D01*
X70614142Y-62740583D01*
X70499849Y-62879849D01*
X70360583Y-62994142D01*
X70201695Y-63079069D01*
X70029294Y-63131367D01*
X69894931Y-63144600D01*
X69805069Y-63144600D01*
X69670706Y-63131367D01*
X69498305Y-63079069D01*
X69339417Y-62994142D01*
X69200151Y-62879849D01*
X69085858Y-62740583D01*
X69000931Y-62581695D01*
X68948633Y-62409294D01*
X68930975Y-62230000D01*
X68948633Y-62050706D01*
X69000931Y-61878305D01*
X69085858Y-61719417D01*
X69200151Y-61580151D01*
X69339417Y-61465858D01*
X69498305Y-61380931D01*
X69670706Y-61328633D01*
X69805069Y-61315400D01*
X69894931Y-61315400D01*
X70029294Y-61328633D01*
X70029294Y-61328633D01*
G37*
G36*
X67489294Y-61328633D02*
G01*
X67661695Y-61380931D01*
X67820583Y-61465858D01*
X67959849Y-61580151D01*
X68074142Y-61719417D01*
X68159069Y-61878305D01*
X68211367Y-62050706D01*
X68229025Y-62230000D01*
X68211367Y-62409294D01*
X68159069Y-62581695D01*
X68074142Y-62740583D01*
X67959849Y-62879849D01*
X67820583Y-62994142D01*
X67661695Y-63079069D01*
X67489294Y-63131367D01*
X67354931Y-63144600D01*
X67265069Y-63144600D01*
X67130706Y-63131367D01*
X66958305Y-63079069D01*
X66799417Y-62994142D01*
X66660151Y-62879849D01*
X66545858Y-62740583D01*
X66460931Y-62581695D01*
X66408633Y-62409294D01*
X66390975Y-62230000D01*
X66408633Y-62050706D01*
X66460931Y-61878305D01*
X66545858Y-61719417D01*
X66660151Y-61580151D01*
X66799417Y-61465858D01*
X66958305Y-61380931D01*
X67130706Y-61328633D01*
X67265069Y-61315400D01*
X67354931Y-61315400D01*
X67489294Y-61328633D01*
X67489294Y-61328633D01*
G37*
G36*
X110008228Y-61201703D02*
G01*
X110163100Y-61265853D01*
X110302481Y-61358985D01*
X110421015Y-61477519D01*
X110514147Y-61616900D01*
X110578297Y-61771772D01*
X110611000Y-61936184D01*
X110611000Y-62103816D01*
X110578297Y-62268228D01*
X110514147Y-62423100D01*
X110421015Y-62562481D01*
X110302481Y-62681015D01*
X110163100Y-62774147D01*
X110008228Y-62838297D01*
X109843816Y-62871000D01*
X109676184Y-62871000D01*
X109511772Y-62838297D01*
X109356900Y-62774147D01*
X109217519Y-62681015D01*
X109098985Y-62562481D01*
X109005853Y-62423100D01*
X108941703Y-62268228D01*
X108909000Y-62103816D01*
X108909000Y-61936184D01*
X108941703Y-61771772D01*
X109005853Y-61616900D01*
X109098985Y-61477519D01*
X109217519Y-61358985D01*
X109356900Y-61265853D01*
X109511772Y-61201703D01*
X109676184Y-61169000D01*
X109843816Y-61169000D01*
X110008228Y-61201703D01*
X110008228Y-61201703D01*
G37*
G36*
X139371564Y-58799389D02*
G01*
X139562833Y-58878615D01*
X139562835Y-58878616D01*
X139734973Y-58993635D01*
X139881365Y-59140027D01*
X139907685Y-59179417D01*
X139996385Y-59312167D01*
X140075611Y-59503436D01*
X140116000Y-59706484D01*
X140116000Y-59913516D01*
X140075611Y-60116564D01*
X139996385Y-60307833D01*
X139996384Y-60307835D01*
X139881365Y-60479973D01*
X139734973Y-60626365D01*
X139562835Y-60741384D01*
X139562834Y-60741385D01*
X139562833Y-60741385D01*
X139371564Y-60820611D01*
X139168516Y-60861000D01*
X138961484Y-60861000D01*
X138758436Y-60820611D01*
X138567167Y-60741385D01*
X138567166Y-60741385D01*
X138567165Y-60741384D01*
X138395027Y-60626365D01*
X138248635Y-60479973D01*
X138133616Y-60307835D01*
X138133615Y-60307833D01*
X138054389Y-60116564D01*
X138014000Y-59913516D01*
X138014000Y-59706484D01*
X138054389Y-59503436D01*
X138133615Y-59312167D01*
X138222316Y-59179417D01*
X138248635Y-59140027D01*
X138395027Y-58993635D01*
X138567165Y-58878616D01*
X138567167Y-58878615D01*
X138758436Y-58799389D01*
X138961484Y-58759000D01*
X139168516Y-58759000D01*
X139371564Y-58799389D01*
X139371564Y-58799389D01*
G37*
G36*
X70029294Y-58788633D02*
G01*
X70201695Y-58840931D01*
X70360583Y-58925858D01*
X70499849Y-59040151D01*
X70614142Y-59179417D01*
X70699069Y-59338305D01*
X70751367Y-59510706D01*
X70769025Y-59690000D01*
X70751367Y-59869294D01*
X70699069Y-60041695D01*
X70614142Y-60200583D01*
X70499849Y-60339849D01*
X70360583Y-60454142D01*
X70201695Y-60539069D01*
X70029294Y-60591367D01*
X69894931Y-60604600D01*
X69805069Y-60604600D01*
X69670706Y-60591367D01*
X69498305Y-60539069D01*
X69339417Y-60454142D01*
X69200151Y-60339849D01*
X69085858Y-60200583D01*
X69000931Y-60041695D01*
X68948633Y-59869294D01*
X68930975Y-59690000D01*
X68948633Y-59510706D01*
X69000931Y-59338305D01*
X69085858Y-59179417D01*
X69200151Y-59040151D01*
X69339417Y-58925858D01*
X69498305Y-58840931D01*
X69670706Y-58788633D01*
X69805069Y-58775400D01*
X69894931Y-58775400D01*
X70029294Y-58788633D01*
X70029294Y-58788633D01*
G37*
G36*
X67489294Y-58788633D02*
G01*
X67661695Y-58840931D01*
X67820583Y-58925858D01*
X67959849Y-59040151D01*
X68074142Y-59179417D01*
X68159069Y-59338305D01*
X68211367Y-59510706D01*
X68229025Y-59690000D01*
X68211367Y-59869294D01*
X68159069Y-60041695D01*
X68074142Y-60200583D01*
X67959849Y-60339849D01*
X67820583Y-60454142D01*
X67661695Y-60539069D01*
X67489294Y-60591367D01*
X67354931Y-60604600D01*
X67265069Y-60604600D01*
X67130706Y-60591367D01*
X66958305Y-60539069D01*
X66799417Y-60454142D01*
X66660151Y-60339849D01*
X66545858Y-60200583D01*
X66460931Y-60041695D01*
X66408633Y-59869294D01*
X66390975Y-59690000D01*
X66408633Y-59510706D01*
X66460931Y-59338305D01*
X66545858Y-59179417D01*
X66660151Y-59040151D01*
X66799417Y-58925858D01*
X66958305Y-58840931D01*
X67130706Y-58788633D01*
X67265069Y-58775400D01*
X67354931Y-58775400D01*
X67489294Y-58788633D01*
X67489294Y-58788633D01*
G37*
G36*
X73304600Y-60604600D02*
G01*
X71475400Y-60604600D01*
X71475400Y-58775400D01*
X73304600Y-58775400D01*
X73304600Y-60604600D01*
X73304600Y-60604600D01*
G37*
G36*
X105935331Y-56838211D02*
G01*
X106263092Y-56973974D01*
X106558070Y-57171072D01*
X106808928Y-57421930D01*
X107006026Y-57716908D01*
X107141789Y-58044669D01*
X107211000Y-58392616D01*
X107211000Y-58747384D01*
X107141789Y-59095331D01*
X107006026Y-59423092D01*
X106808928Y-59718070D01*
X106558070Y-59968928D01*
X106263092Y-60166026D01*
X105935331Y-60301789D01*
X105587384Y-60371000D01*
X105232616Y-60371000D01*
X104884669Y-60301789D01*
X104556908Y-60166026D01*
X104261930Y-59968928D01*
X104011072Y-59718070D01*
X103813974Y-59423092D01*
X103678211Y-59095331D01*
X103609000Y-58747384D01*
X103609000Y-58392616D01*
X103678211Y-58044669D01*
X103813974Y-57716908D01*
X104011072Y-57421930D01*
X104261930Y-57171072D01*
X104556908Y-56973974D01*
X104884669Y-56838211D01*
X105232616Y-56769000D01*
X105587384Y-56769000D01*
X105935331Y-56838211D01*
X105935331Y-56838211D01*
G37*
G36*
X105935331Y-48918211D02*
G01*
X106263092Y-49053974D01*
X106558070Y-49251072D01*
X106808928Y-49501930D01*
X107006026Y-49796908D01*
X107141789Y-50124669D01*
X107211000Y-50472616D01*
X107211000Y-50827384D01*
X107141789Y-51175331D01*
X107006026Y-51503092D01*
X106808928Y-51798070D01*
X106558070Y-52048928D01*
X106263092Y-52246026D01*
X105935331Y-52381789D01*
X105587384Y-52451000D01*
X105232616Y-52451000D01*
X104884669Y-52381789D01*
X104556908Y-52246026D01*
X104261930Y-52048928D01*
X104011072Y-51798070D01*
X103813974Y-51503092D01*
X103678211Y-51175331D01*
X103609000Y-50827384D01*
X103609000Y-50472616D01*
X103678211Y-50124669D01*
X103813974Y-49796908D01*
X104011072Y-49501930D01*
X104261930Y-49251072D01*
X104556908Y-49053974D01*
X104884669Y-48918211D01*
X105232616Y-48849000D01*
X105587384Y-48849000D01*
X105935331Y-48918211D01*
X105935331Y-48918211D01*
G37*
G36*
X89809643Y-48904272D02*
G01*
X90005016Y-48963538D01*
X90073736Y-48984384D01*
X90203931Y-49053975D01*
X90317119Y-49114475D01*
X90358797Y-49148680D01*
X90530450Y-49289550D01*
X90673092Y-49463360D01*
X90705525Y-49502880D01*
X90705526Y-49502882D01*
X90835616Y-49746263D01*
X90837816Y-49753516D01*
X90915728Y-50010356D01*
X90915728Y-50010358D01*
X90929269Y-50147835D01*
X90936000Y-50216182D01*
X90936000Y-50953817D01*
X90915728Y-51159643D01*
X90856461Y-51355018D01*
X90835616Y-51423737D01*
X90793199Y-51503093D01*
X90705525Y-51667120D01*
X90659918Y-51722691D01*
X90530450Y-51880450D01*
X90372691Y-52009918D01*
X90317120Y-52055525D01*
X90317118Y-52055526D01*
X90073737Y-52185616D01*
X90005017Y-52206462D01*
X89809644Y-52265728D01*
X89535000Y-52292778D01*
X89260357Y-52265728D01*
X89064984Y-52206462D01*
X88996264Y-52185616D01*
X88752883Y-52055526D01*
X88752881Y-52055525D01*
X88711203Y-52021320D01*
X88539550Y-51880450D01*
X88396908Y-51706640D01*
X88364475Y-51667120D01*
X88276801Y-51503093D01*
X88234384Y-51423737D01*
X88159031Y-51175331D01*
X88154272Y-51159644D01*
X88134000Y-50953818D01*
X88134000Y-50216183D01*
X88154272Y-50010357D01*
X88234383Y-49746268D01*
X88234384Y-49746264D01*
X88364474Y-49502883D01*
X88364475Y-49502881D01*
X88398680Y-49461203D01*
X88539550Y-49289550D01*
X88713360Y-49146908D01*
X88752880Y-49114475D01*
X88866068Y-49053975D01*
X88996263Y-48984384D01*
X89064983Y-48963538D01*
X89260356Y-48904272D01*
X89535000Y-48877222D01*
X89809643Y-48904272D01*
X89809643Y-48904272D01*
G37*
G36*
X139371564Y-48639389D02*
G01*
X139562833Y-48718615D01*
X139562835Y-48718616D01*
X139734973Y-48833635D01*
X139881365Y-48980027D01*
X139971200Y-49114474D01*
X139996385Y-49152167D01*
X140075611Y-49343436D01*
X140116000Y-49546484D01*
X140116000Y-49753516D01*
X140075611Y-49956564D01*
X140053328Y-50010359D01*
X139996384Y-50147835D01*
X139881365Y-50319973D01*
X139734973Y-50466365D01*
X139562835Y-50581384D01*
X139562834Y-50581385D01*
X139562833Y-50581385D01*
X139371564Y-50660611D01*
X139168516Y-50701000D01*
X138961484Y-50701000D01*
X138758436Y-50660611D01*
X138567167Y-50581385D01*
X138567166Y-50581385D01*
X138567165Y-50581384D01*
X138395027Y-50466365D01*
X138248635Y-50319973D01*
X138133616Y-50147835D01*
X138076672Y-50010359D01*
X138054389Y-49956564D01*
X138014000Y-49753516D01*
X138014000Y-49546484D01*
X138054389Y-49343436D01*
X138133615Y-49152167D01*
X138158801Y-49114474D01*
X138248635Y-48980027D01*
X138395027Y-48833635D01*
X138567165Y-48718616D01*
X138567167Y-48718615D01*
X138758436Y-48639389D01*
X138961484Y-48599000D01*
X139168516Y-48599000D01*
X139371564Y-48639389D01*
X139371564Y-48639389D01*
G37*
G36*
X156758156Y-41392794D02*
G01*
X157479140Y-41536206D01*
X158270972Y-41864193D01*
X158983601Y-42340357D01*
X159589643Y-42946399D01*
X160065807Y-43659028D01*
X160393794Y-44450860D01*
X160561000Y-45291464D01*
X160561000Y-46148536D01*
X160393794Y-46989140D01*
X160065807Y-47780972D01*
X159589643Y-48493601D01*
X158983601Y-49099643D01*
X158270972Y-49575807D01*
X157479140Y-49903794D01*
X156758156Y-50047206D01*
X156638537Y-50071000D01*
X155781463Y-50071000D01*
X155661844Y-50047206D01*
X154940860Y-49903794D01*
X154149028Y-49575807D01*
X153436399Y-49099643D01*
X152830357Y-48493601D01*
X152354193Y-47780972D01*
X152026206Y-46989140D01*
X151859000Y-46148536D01*
X151859000Y-45291464D01*
X152026206Y-44450860D01*
X152354193Y-43659028D01*
X152830357Y-42946399D01*
X153436399Y-42340357D01*
X154149028Y-41864193D01*
X154940860Y-41536206D01*
X155661844Y-41392794D01*
X155781463Y-41369000D01*
X156638537Y-41369000D01*
X156758156Y-41392794D01*
X156758156Y-41392794D01*
G37*
G36*
X27218156Y-41392794D02*
G01*
X27939140Y-41536206D01*
X28730972Y-41864193D01*
X29443601Y-42340357D01*
X30049643Y-42946399D01*
X30525807Y-43659028D01*
X30853794Y-44450860D01*
X31021000Y-45291464D01*
X31021000Y-46148536D01*
X30853794Y-46989140D01*
X30525807Y-47780972D01*
X30049643Y-48493601D01*
X29443601Y-49099643D01*
X28730972Y-49575807D01*
X27939140Y-49903794D01*
X27218156Y-50047206D01*
X27098537Y-50071000D01*
X26241463Y-50071000D01*
X26121844Y-50047206D01*
X25400860Y-49903794D01*
X24609028Y-49575807D01*
X23896399Y-49099643D01*
X23290357Y-48493601D01*
X22814193Y-47780972D01*
X22486206Y-46989140D01*
X22319000Y-46148536D01*
X22319000Y-45291464D01*
X22486206Y-44450860D01*
X22814193Y-43659028D01*
X23290357Y-42946399D01*
X23896399Y-42340357D01*
X24609028Y-41864193D01*
X25400860Y-41536206D01*
X26121844Y-41392794D01*
X26241463Y-41369000D01*
X27098537Y-41369000D01*
X27218156Y-41392794D01*
X27218156Y-41392794D01*
G37*
G36*
X124423254Y-43867818D02*
G01*
X124796511Y-44022426D01*
X124796513Y-44022427D01*
X125132436Y-44246884D01*
X125418116Y-44532564D01*
X125642574Y-44868489D01*
X125797182Y-45241746D01*
X125876000Y-45637993D01*
X125876000Y-46042007D01*
X125797182Y-46438254D01*
X125671252Y-46742276D01*
X125642573Y-46811513D01*
X125418116Y-47147436D01*
X125132436Y-47433116D01*
X124796513Y-47657573D01*
X124796512Y-47657574D01*
X124796511Y-47657574D01*
X124423254Y-47812182D01*
X124027007Y-47891000D01*
X123622993Y-47891000D01*
X123226746Y-47812182D01*
X122853489Y-47657574D01*
X122853488Y-47657574D01*
X122853487Y-47657573D01*
X122517564Y-47433116D01*
X122231884Y-47147436D01*
X122007427Y-46811513D01*
X121978748Y-46742276D01*
X121852818Y-46438254D01*
X121774000Y-46042007D01*
X121774000Y-45637993D01*
X121852818Y-45241746D01*
X122007426Y-44868489D01*
X122231884Y-44532564D01*
X122517564Y-44246884D01*
X122853487Y-44022427D01*
X122853489Y-44022426D01*
X123226746Y-43867818D01*
X123622993Y-43789000D01*
X124027007Y-43789000D01*
X124423254Y-43867818D01*
X124423254Y-43867818D01*
G37*
G36*
X90809031Y-43387621D02*
G01*
X90838486Y-43396556D01*
X90865623Y-43411062D01*
X90889414Y-43430586D01*
X90908938Y-43454377D01*
X90923444Y-43481514D01*
X90932379Y-43510969D01*
X90936000Y-43547734D01*
X90936000Y-46622266D01*
X90932379Y-46659031D01*
X90923444Y-46688486D01*
X90908938Y-46715623D01*
X90889414Y-46739414D01*
X90865623Y-46758938D01*
X90838486Y-46773444D01*
X90809031Y-46782379D01*
X90772266Y-46786000D01*
X88297734Y-46786000D01*
X88260969Y-46782379D01*
X88231514Y-46773444D01*
X88204377Y-46758938D01*
X88180586Y-46739414D01*
X88161062Y-46715623D01*
X88146556Y-46688486D01*
X88137621Y-46659031D01*
X88134000Y-46622266D01*
X88134000Y-43547734D01*
X88137621Y-43510969D01*
X88146556Y-43481514D01*
X88161062Y-43454377D01*
X88180586Y-43430586D01*
X88204377Y-43411062D01*
X88231514Y-43396556D01*
X88260969Y-43387621D01*
X88297734Y-43384000D01*
X90772266Y-43384000D01*
X90809031Y-43387621D01*
X90809031Y-43387621D01*
G37*
M02*
