M48
; DRILL file {KiCad (5.1.4)-1} date 11/19/2019 11:45:51 AM
; FORMAT={-:-/ absolute / inch / decimal}
; #@! TF.CreationDate,2019-11-19T11:45:51-05:00
; #@! TF.GenerationSoftware,Kicad,Pcbnew,(5.1.4)-1
FMAT,2
INCH
T1C0.0157
T2C0.0335
T3C0.0394
T4C0.0400
T5C0.0453
T6C0.0512
T7C0.0551
T8C0.0591
T9C0.0669
T10C0.0811
T11C0.0866
T12C0.1693
T13C0.0630
T14C0.1181
%
G90
G05
T1
X0.95Y-6.025
X1.15Y-6.025
X1.175Y-3.3
X1.23Y-2.91
X1.33Y-2.91
X1.375Y-3.3
X1.9Y-2.55
X2.125Y-2.925
X2.125Y-5.5
X2.125Y-5.65
X2.175Y-3.2
X2.225Y-3.15
X2.275Y-3.1
X2.3Y-4.92
X2.325Y-2.925
X2.35Y-3.375
X2.4Y-3.325
X2.435Y-2.73
X2.435Y-2.88
X2.445Y-3.045
X2.45Y-3.275
X2.75Y-3.25
X2.75Y-4.875
X2.795Y-2.975
X2.825Y-2.925
X2.875Y-1.75
X2.875Y-4.875
X3.0Y-2.3
X3.0Y-2.5
X3.05Y-2.95
X3.05Y-3.75
X3.05Y-4.225
X3.05Y-4.675
X3.1Y-5.05
X3.125Y-1.75
X3.125Y-3.0
X3.15Y-5.1
X3.175Y-3.0
X3.175Y-3.425
X3.2Y-3.75
X3.225Y-3.0
X3.25Y-3.325
X3.25Y-3.7
X3.25Y-4.275
X3.25Y-4.65
X3.25Y-5.525
X3.3Y-2.025
X3.3Y-2.175
X3.3Y-2.225
X3.3Y-3.175
X3.3496Y-2.2254
X3.35Y-2.175
X3.35Y-3.125
X3.35Y-4.65
X3.35Y-5.225
X3.4Y-2.175
X3.4Y-2.225
X3.4Y-3.075
X3.4Y-5.225
X3.425Y-3.25
X3.45Y-5.225
X3.5Y-4.7
X3.5Y-5.05
X3.5Y-5.1
X3.5Y-5.15
X3.525Y-3.6
X3.575Y-5.675
X3.575Y-5.9
X3.65Y-4.3
X3.725Y-4.75
X3.725Y-5.0
X3.725Y-5.2
X3.75Y-6.0
X3.875Y-4.25
X3.875Y-5.65
X3.9Y-4.7
X3.95Y-3.65
X3.95Y-3.7
X3.95Y-4.65
X3.95Y-4.9
X3.975Y-5.8
X4.0Y-3.65
X4.0Y-3.7
X4.0Y-3.75
X4.0Y-4.65
X4.0Y-4.9
X4.05Y-3.65
X4.05Y-3.7
X4.05Y-3.75
X4.05Y-3.8
X4.05Y-4.7
X4.075Y-4.325
X4.1Y-3.65
X4.1Y-3.7
X4.1Y-3.75
X4.1Y-3.8
X4.1Y-3.85
X4.15Y-3.65
X4.15Y-3.7
X4.15Y-3.75
X4.15Y-3.8
X4.15Y-3.85
X4.15Y-4.215
X4.175Y-4.425
X4.225Y-4.675
X4.25Y-4.75
X4.35Y-4.215
X4.45Y-3.8
X4.45Y-3.85
X4.5Y-3.75
X4.5Y-3.8
X4.5Y-3.85
X4.525Y-4.325
X4.525Y-4.4
X4.525Y-4.75
X4.55Y-3.7
X4.55Y-3.75
X4.55Y-3.8
X4.55Y-3.85
X4.575Y-4.75
X4.6Y-3.65
X4.6Y-3.7
X4.6Y-3.75
X4.6Y-3.8
X4.6Y-3.85
X4.65Y-3.65
X4.65Y-3.7
X4.65Y-3.75
X4.65Y-3.8
X4.65Y-3.85
X4.65Y-5.825
X4.7Y-4.875
X4.7Y-4.925
X4.7Y-4.975
X4.775Y-5.75
X4.85Y-4.975
X4.925Y-4.25
X4.975Y-5.025
X5.025Y-5.075
X5.075Y-4.6
X5.075Y-5.425
X5.1Y-4.8
X5.1Y-4.9
X5.125Y-5.625
X5.175Y-4.55
X5.175Y-5.65
X5.2Y-5.95
X5.225Y-4.55
X5.225Y-5.675
X5.275Y-5.7
X5.375Y-4.25
X5.5Y-4.575
X5.5Y-4.9
X5.5Y-5.05
X5.5025Y-4.7275
X5.505Y-5.205
X5.575Y-4.425
X5.675Y-4.325
X5.7Y-4.55
X5.7Y-4.7
X5.7Y-4.85
X5.7Y-5.0
X5.7Y-5.15
X5.7Y-5.325
X5.7Y-5.725
X5.725Y-5.5
X5.85Y-4.5
X5.925Y-5.4
X5.925Y-5.5
X5.95Y-4.725
X5.95Y-5.325
X6.0Y-4.75
X6.0Y-5.3
X6.0Y-5.7
X6.075Y-4.225
T2
X6.25Y-3.7
X6.25Y-3.8
X6.25Y-3.9
X6.25Y-4.1
X6.25Y-4.2
X6.25Y-4.3
X6.25Y-4.4
T3
X3.525Y-4.525
X3.525Y-5.45
X3.625Y-4.525
X3.625Y-5.45
X3.725Y-4.525
X3.725Y-5.45
X3.825Y-4.525
X3.825Y-5.45
X3.925Y-4.525
X3.925Y-5.45
X4.025Y-4.525
X4.025Y-5.45
X4.125Y-4.525
X4.125Y-5.45
X4.225Y-4.525
X4.225Y-5.45
X4.325Y-4.525
X4.325Y-5.45
X4.425Y-4.525
X4.425Y-5.45
X4.525Y-4.525
X4.525Y-5.45
X4.625Y-4.525
X4.625Y-5.45
X4.725Y-4.525
X4.725Y-5.45
X4.825Y-4.525
X4.825Y-5.45
X4.925Y-4.525
X4.925Y-5.45
X5.5275Y-6.1475
X5.5275Y-6.4475
X2.925Y-5.175
X2.925Y-5.275
X2.925Y-5.375
X2.925Y-5.475
X2.925Y-5.575
X2.925Y-5.675
X1.225Y-4.686
X1.325Y-4.686
X1.425Y-4.686
X6.175Y-2.9
X6.275Y-2.9
T4
X2.65Y-2.35
X2.65Y-2.45
X2.75Y-2.35
X2.75Y-2.45
X2.85Y-2.35
X2.85Y-2.45
X6.15Y-4.85
X6.15Y-4.95
X6.15Y-5.05
X6.15Y-5.15
X6.15Y-5.25
X6.15Y-5.35
X6.15Y-5.45
X6.15Y-5.55
X6.15Y-5.65
X6.15Y-5.75
X6.25Y-4.85
X6.25Y-4.95
X6.25Y-5.05
X6.25Y-5.15
X6.25Y-5.25
X6.25Y-5.35
X6.25Y-5.45
X6.25Y-5.55
X6.25Y-5.65
X6.25Y-5.75
T5
X5.475Y-1.9547
X5.475Y-2.3547
X5.475Y-3.15
X5.475Y-3.55
T6
X4.8275Y-6.1475
X5.1275Y-6.1475
T7
X3.525Y-1.775
X3.525Y-1.9915
X1.925Y-6.15
X1.925Y-6.3665
X2.0904Y-6.15
X2.0904Y-6.3665
X2.2557Y-6.15
X2.2557Y-6.3665
X2.4211Y-6.15
X2.4211Y-6.3665
X2.5864Y-6.15
X2.5864Y-6.3665
X2.7518Y-6.15
X2.7518Y-6.3665
X6.025Y-3.425
X6.2415Y-3.425
X3.175Y-6.15
X3.175Y-6.3665
X3.875Y-6.15
X3.875Y-6.3665
X4.0404Y-6.15
X4.0404Y-6.3665
X4.2057Y-6.15
X4.2057Y-6.3665
X4.3711Y-6.15
X4.3711Y-6.3665
X3.45Y-6.15
X3.45Y-6.3665
T8
X0.925Y-3.6
X0.925Y-4.4
X1.225Y-4.4
X1.425Y-4.4
X1.725Y-3.6
X1.975Y-4.4
X2.275Y-3.6
X2.475Y-3.6
X2.775Y-3.6
X2.775Y-4.4
T9
X4.15Y-3.1441
X4.15Y-3.4559
X4.15Y-1.9941
X4.15Y-2.3059
T10
X4.975Y-2.5047
X4.975Y-3.7
T11
X4.875Y-1.8047
X4.875Y-3.0
T12
X1.05Y-6.4
X6.15Y-6.4
X6.15Y-1.8
X1.05Y-1.8
T13
X4.3213Y-3.5917
X4.3213Y-2.4417
T14
X3.69Y-6.3484
X4.5561Y-6.3484
X1.74Y-6.3484
X2.9368Y-6.3484
T0
M30
