M48
INCH,TZ
FMAT,2
ICI,OFF
T01C.0157
T02C.0335
T03C.0394
T04C.04
T05C.0453
T06C.0512
T07C.0551
T08C.0591
T09C.0669
T10C.0811
T11C.0866
T12C.1693
T13C.063
T14C.1181
%
T01
G05
X1999Y6749
X1999Y58749
X3999Y6749
X4249Y33999
X4799Y37899
X3999Y58749
X4249Y85999
X4799Y89899
X5799Y37899
X6249Y33999
X6249Y85999
X5799Y89899
X11499Y93499
X11499Y41499
X13749Y10499
X13749Y11999
X14249Y34999
X13749Y37749
X13749Y62499
X13749Y63999
X14249Y86999
X13749Y89749
X15499Y17799
X14749Y35499
X15249Y35999
X15749Y37749
X15499Y69799
X14749Y87499
X15249Y87999
X15999Y33249
X16499Y33749
X15749Y89749
X16999Y34249
X16949Y36549
X16849Y38199
X16849Y39699
X15999Y85249
X16499Y85749
X16999Y86249
X16949Y88549
X16849Y90199
X16849Y91699
X19999Y34499
X19999Y18249
X21249Y18249
X20449Y37249
X20749Y37749
X19999Y70249
X19999Y86499
X21249Y70249
X21249Y49499
X20449Y89249
X20749Y89749
X21249Y101499
X23999Y15999
X23499Y16499
X22999Y20249
X22999Y24749
X22999Y29499
X22499Y41999
X22499Y43999
X23749Y36999
X22999Y37499
X23749Y49499
X23999Y67999
X23499Y68499
X22999Y72249
X22999Y76749
X22999Y81499
X23749Y88999
X22999Y89499
X22499Y93999
X22499Y95999
X24999Y11749
X24499Y29499
X24249Y32749
X24749Y36999
X24249Y36999
X24249Y84749
X24249Y88999
X23749Y101499
X25999Y14749
X26499Y14749
X24999Y20499
X25999Y20499
X24999Y24249
X24999Y29999
X24999Y33749
X25499Y35249
X25999Y35749
X26499Y36249
X25995Y44745
X25499Y44749
X26499Y44749
X25499Y45249
X25999Y45249
X26499Y45249
X25499Y46749
X24999Y63749
X25999Y66749
X24999Y72499
X25999Y72499
X24999Y76249
X24499Y81499
X24999Y81999
X24999Y85749
X26499Y66749
X25499Y87249
X24749Y88999
X25999Y87749
X26499Y88249
X25995Y96745
X25499Y96749
X26499Y96749
X25499Y97249
X25499Y98749
X26999Y14749
X27499Y15499
X27499Y15999
X27499Y16499
X27499Y19999
X27749Y30999
X26749Y34499
X26999Y66749
X27499Y67499
X27499Y67999
X27499Y68499
X27499Y71999
X27749Y82999
X26749Y86499
X26499Y97249
X25999Y97249
X28249Y10249
X28249Y7999
X28999Y23999
X28249Y59999
X28249Y62249
X29999Y6999
X29749Y14999
X29749Y16999
X29749Y19499
X29999Y58999
X29749Y66999
X29749Y68999
X29749Y71499
X28999Y75999
X32249Y8999
X31249Y10499
X32499Y17999
X31999Y17999
X31499Y19999
X31999Y20499
X31249Y24499
X31249Y62499
X31249Y76499
X32999Y19999
X32499Y20499
X32999Y28999
X32999Y29499
X32499Y29499
X32999Y29999
X32499Y29999
X31999Y29999
X32499Y30499
X31999Y30499
X32249Y60999
X32499Y69999
X31999Y69999
X31499Y71999
X31999Y72499
X32499Y72499
X32499Y81499
X31999Y81999
X32499Y81999
X33249Y23749
X33499Y28499
X33499Y28999
X32499Y82499
X31999Y82499
X34999Y19499
X34749Y20249
X34249Y22749
X33999Y24849
X33999Y28499
X33999Y28999
X33499Y29499
X33999Y29499
X33499Y29999
X33999Y29999
X33499Y30499
X33999Y30499
X32999Y30499
X32999Y71999
X33249Y75749
X33999Y76849
X33499Y80499
X33999Y80499
X33499Y80999
X32999Y80999
X33999Y80999
X34249Y74749
X33999Y81499
X33499Y81499
X32999Y81499
X33999Y81999
X32999Y81999
X33499Y81999
X33999Y82499
X32999Y82499
X33499Y82499
X34749Y72249
X34999Y71499
X35999Y24849
X37749Y23749
X37749Y22999
X37749Y19499
X37499Y28499
X36999Y28499
X37999Y28499
X37499Y28999
X37999Y28999
X36999Y28999
X35999Y76849
X38249Y19499
X38499Y28499
X38499Y28999
X37499Y29499
X38499Y29499
X37999Y29499
X37999Y29999
X38499Y29999
X38499Y30499
X37749Y71499
X38249Y71499
X37749Y74999
X37749Y75749
X37499Y80499
X36999Y80499
X37499Y80999
X36999Y80999
X38999Y80499
X38999Y60749
X38999Y30499
X38999Y29999
X38999Y29499
X38999Y28999
X38999Y28499
X38999Y8749
X37999Y80499
X38499Y80499
X38999Y80999
X38499Y80999
X37999Y80999
X37999Y81499
X37499Y81499
X37999Y81999
X39499Y70249
X39499Y69749
X39499Y69249
X39499Y18249
X39499Y17749
X39499Y17249
X38999Y81499
X38499Y81499
X38499Y81999
X38999Y81999
X38999Y82499
X38499Y82499
X40249Y9499
X40999Y17249
X40249Y61499
X40999Y69249
X41749Y24499
X43249Y12749
X42749Y16249
X42249Y16749
X42249Y68749
X41749Y76499
X44499Y7499
X44249Y10499
X43749Y10749
X43499Y17999
X43499Y18999
X43249Y20999
X44249Y21499
X43249Y64749
X42749Y68249
X43499Y69999
X43499Y70999
X43249Y72999
X45249Y9999
X44749Y10249
X44749Y21499
X44499Y59499
X45249Y61999
X44749Y62249
X44249Y62499
X43749Y62749
X44749Y73499
X44249Y73499
X46249Y76499
X46249Y24499
X47549Y14949
X47499Y16499
X47499Y17999
X47524Y19724
X47499Y21249
X48249Y22749
X47549Y66949
X47499Y68499
X47499Y69999
X47524Y71724
X47499Y73249
X48249Y74749
X49499Y9749
X49749Y11999
X49499Y13749
X49499Y15499
X49499Y16999
X49499Y18499
X49499Y19999
X49499Y21499
X49249Y23749
X49499Y61749
X49749Y63999
X49499Y65749
X49499Y67499
X49499Y68999
X49499Y70499
X49499Y71999
X49499Y73499
X49249Y75749
X50999Y73999
X50999Y21999
X52499Y9999
X51749Y11999
X51749Y12999
X51999Y13749
X52499Y13999
X52499Y19499
X51999Y19749
X51749Y63999
X51749Y64999
X51999Y65749
X51999Y71749
X53249Y24749
X52499Y61999
X52499Y65999
X52499Y71499
X53249Y76749
T02
X54999Y22999
X54999Y23999
X54999Y24999
X54999Y25999
X54999Y27999
X54999Y28999
X54999Y29999
X54999Y74999
X54999Y75999
X54999Y76999
X54999Y77999
X54999Y79999
X54999Y80999
X54999Y81999
T03
X4749Y20139
X5749Y20139
X4749Y72139
X5749Y72139
X6749Y72139
X6749Y20139
X21749Y10249
X21749Y11249
X21749Y12249
X21749Y13249
X21749Y14249
X21749Y15249
X21749Y62249
X21749Y63249
X21749Y64249
X21749Y65249
X21749Y66249
X21749Y67249
X27749Y12499
X28749Y12499
X28749Y21749
X27749Y21749
X27749Y64499
X28749Y64499
X28749Y73749
X27749Y73749
X30749Y12499
X29749Y12499
X30749Y21749
X29749Y21749
X29749Y64499
X29749Y73749
X31749Y64499
X31749Y21749
X31749Y12499
X30749Y64499
X30749Y73749
X31749Y73749
X33749Y12499
X32749Y12499
X32749Y21749
X34749Y21749
X34749Y12499
X33749Y21749
X32749Y64499
X33749Y64499
X32749Y73749
X33749Y73749
X36749Y12499
X35749Y12499
X35749Y21749
X36749Y21749
X35749Y64499
X34749Y64499
X34749Y73749
X37749Y21749
X37749Y12499
X36749Y64499
X37749Y64499
X36749Y73749
X35749Y73749
X37749Y73749
X38749Y21749
X38749Y12499
X40749Y12499
X39749Y12499
X39749Y21749
X40749Y21749
X38749Y64499
X38749Y73749
X41749Y21749
X41749Y12499
X39749Y64499
X39749Y73749
X41749Y64499
X40749Y64499
X40749Y73749
X41749Y73749
X47774Y57524
X47774Y54524
X47774Y5524
X47774Y2524
X54249Y37999
X55249Y37999
X55249Y89999
X54249Y89999
T04
X18999Y42499
X19999Y42499
X19999Y43499
X18999Y43499
X18999Y94499
X19999Y94499
X19999Y95499
X18999Y95499
X20999Y95499
X20999Y94499
X20999Y43499
X20999Y42499
X53999Y9499
X54999Y9499
X53999Y10499
X54999Y10499
X53999Y11499
X54999Y11499
X53999Y12499
X54999Y12499
X54999Y13499
X53999Y13499
X53999Y14499
X54999Y14499
X53999Y15499
X54999Y15499
X54999Y16499
X53999Y16499
X53999Y17499
X54999Y17499
X54999Y18499
X53999Y18499
X53999Y61499
X54999Y61499
X54999Y62499
X53999Y62499
X54999Y63499
X53999Y63499
X54999Y64499
X53999Y64499
X54999Y65499
X53999Y65499
X53999Y66499
X54999Y66499
X54999Y67499
X53999Y67499
X53999Y68499
X54999Y68499
X53999Y69499
X54999Y69499
X53999Y70499
X54999Y70499
T05
X47249Y31499
X47249Y35499
X47249Y43452
X47249Y47452
X47249Y83499
X47249Y87499
X47249Y95452
X47249Y99452
T06
X40774Y5524
X40774Y57524
X43774Y57524
X43774Y5524
T07
X11749Y3334
X11749Y5499
X11749Y55334
X11749Y57499
X13403Y57499
X13403Y55334
X13403Y5499
X13403Y3334
X15056Y3334
X15056Y5499
X15056Y55334
X15056Y57499
X16710Y57499
X16710Y55334
X16710Y5499
X16710Y3334
X18363Y3334
X18363Y5499
X18363Y55334
X18363Y57499
X20017Y57499
X20017Y55334
X20017Y5499
X20017Y3334
X24249Y3334
X24249Y5499
X24249Y55334
X24249Y57499
X26999Y5499
X26999Y3334
X27749Y47084
X27749Y49249
X26999Y55334
X26999Y57499
X27749Y99084
X27749Y101249
X31249Y57499
X31249Y55334
X31249Y5499
X31249Y3334
X32903Y3334
X32903Y5499
X32903Y55334
X32903Y57499
X34556Y57499
X34556Y55334
X34556Y5499
X34556Y3334
X36210Y3334
X36210Y5499
X36210Y55334
X36210Y57499
X52749Y84749
X52749Y32749
X54914Y32749
X54914Y84749
T08
X1749Y22999
X1749Y30999
X1749Y74999
X1749Y82999
X4749Y74999
X4749Y22999
X6749Y22999
X6749Y74999
X9749Y82999
X9749Y30999
X12249Y22999
X12249Y74999
X15249Y82999
X15249Y30999
X17249Y30999
X17249Y82999
X20249Y82999
X20249Y74999
X20249Y30999
X20249Y22999
T09
X33999Y32440
X33999Y35558
X33999Y43940
X33999Y47058
X33999Y84440
X33999Y87558
X33999Y95940
X33999Y99058
T10
X42249Y29999
X42249Y41952
X42249Y81999
X42249Y93952
T11
X41249Y36999
X41249Y48952
X41249Y88999
X41249Y100952
T12
X2999Y2999
X2999Y48999
X2999Y54999
X2999Y100999
X53999Y100999
X53999Y54999
X53999Y48999
X53999Y2999
T13
X35712Y31082
X35712Y42582
X35712Y83082
X35712Y94582
T14
X9899Y3515
X9899Y55515
X21867Y55515
X21867Y3515
X29399Y3515
X29399Y55515
X38060Y55515
X38060Y3515
M30
