M48
INCH,TZ
FMAT,2
ICI,OFF
T01C.0157
T02C.0335
T03C.0394
T04C.04
T05C.0409
T06C.0453
T07C.05
T08C.0512
T09C.0551
T10C.0591
T11C.0811
T12C.0866
T13C.112
%
T01
G05
X1500Y15000
X750Y15750
X1750Y23250
X1750Y25250
X1250Y29500
X750Y31500
X1500Y58500
X750Y59250
X1750Y66750
X1750Y68750
X1250Y73000
X750Y75000
X2500Y75750
X2500Y32250
X5000Y20250
X5000Y20750
X4500Y26250
X4000Y26250
X4000Y28500
X3000Y32000
X3000Y75500
X5500Y4250
X4500Y28750
X3500Y32000
X4000Y32250
X5000Y63750
X5000Y64250
X4500Y69750
X4000Y69750
X4000Y72000
X4500Y72250
X3500Y75500
X4000Y75750
X6000Y18500
X5750Y26250
X5250Y29500
X5500Y47750
X6000Y62000
X5750Y69750
X5250Y73000
X9000Y58500
X9000Y15000
X13250Y8750
X12500Y9500
X12250Y14750
X13500Y17500
X13250Y52250
X12500Y53000
X12250Y58250
X13500Y61000
X15000Y9250
X15750Y13250
X15500Y14250
X16000Y14500
X16000Y15500
X15000Y52750
X15500Y57750
X16750Y9250
X16750Y7750
X16750Y6750
X16500Y14750
X17000Y15000
X16750Y50250
X16750Y51250
X16750Y52750
X15750Y56750
X16000Y58000
X17500Y15250
X16500Y58250
X17000Y58500
X16000Y59000
X17500Y58750
X18500Y16750
X19750Y7500
X19500Y13500
X18750Y13500
X20000Y13000
X20000Y12250
X20250Y15500
X19750Y15500
X19250Y18000
X18750Y18000
X18750Y19750
X18750Y20250
X18750Y20750
X19250Y26750
X19750Y30750
X19750Y51000
X18750Y57000
X19500Y57000
X18500Y60250
X20250Y20500
X20000Y26250
X20000Y26750
X20000Y55750
X20000Y56500
X19750Y59000
X20250Y59000
X19250Y61500
X18750Y61500
X18750Y63250
X18750Y63750
X18750Y64250
X20250Y64000
X20000Y69750
X20000Y70250
X19250Y70250
X19750Y74250
X20750Y64000
X20750Y59000
X20750Y20500
X20750Y15500
X21250Y6500
X21750Y6500
X21500Y9750
X23000Y9250
X22000Y9750
X22000Y12750
X22250Y14250
X21750Y15000
X21250Y15250
X21500Y20500
X21750Y50000
X21250Y50000
X21500Y53250
X21750Y58500
X21250Y58750
X21500Y64000
X23000Y13750
X23000Y13250
X22750Y14250
X23000Y18500
X22000Y53250
X22000Y56250
X23200Y20000
X22250Y29500
X23000Y52750
X23000Y56750
X23000Y57250
X22250Y57750
X22750Y57750
X23000Y62000
X23200Y63500
X22250Y73000
X25000Y9250
X24750Y27000
X24750Y29500
X24000Y33750
X24500Y33750
X24000Y34250
X24500Y34250
X25000Y52750
X24750Y70500
X24750Y73000
X24000Y77250
X24500Y77250
X24500Y77750
X24000Y77750
X26750Y6250
X26000Y9250
X27000Y9250
X26750Y12750
X27250Y12750
X27750Y12750
X27250Y15000
X27250Y20750
X27250Y21250
X27250Y21750
X26750Y26250
X26750Y27500
X26250Y29500
X27250Y33750
X26750Y49750
X26000Y52750
X26750Y56250
X26750Y69750
X26750Y71000
X26250Y73000
X29000Y6250
X28000Y9250
X29000Y9250
X27000Y52750
X27750Y56250
X27250Y56250
X27250Y58500
X27250Y64250
X27250Y64750
X27250Y65250
X27250Y77250
X29500Y11250
X28750Y13250
X29500Y14250
X29000Y49750
X29000Y52750
X28000Y52750
X28750Y56750
X31250Y13750
X31000Y19750
X30250Y31750
X29500Y54750
X29500Y57750
X31750Y15250
X31500Y19500
X31750Y32000
X30750Y34750
X31750Y37000
X31250Y57250
X31500Y63000
X31000Y63250
X30250Y75250
X30750Y78250
X31750Y75500
X31750Y58750
X32500Y5500
X32500Y49000
X31750Y80500
X35500Y13750
X35000Y14250
X34500Y14750
X34000Y15250
X35500Y57250
X35000Y57750
X34500Y58250
X34000Y58750
X37500Y63500
X37500Y20000
X39500Y5500
X39500Y11250
X39000Y11250
X38750Y14250
X38750Y14750
X38750Y15250
X38750Y19500
X39000Y25500
X39500Y26000
X39000Y26000
X39500Y26500
X39000Y26500
X39000Y27000
X39500Y27000
X39500Y27500
X39000Y27500
X39500Y28000
X39000Y28000
X39500Y28500
X39000Y28500
X39500Y29000
X39000Y29000
X39500Y49000
X39500Y54750
X39000Y54750
X38750Y57750
X38750Y58250
X38750Y58750
X38750Y63000
X40500Y11250
X40000Y11250
X40250Y12750
X40000Y26000
X40000Y26500
X40000Y27000
X40000Y27500
X40000Y28000
X40000Y28500
X40000Y29000
X40000Y54750
X39000Y69000
X39000Y69500
X40500Y54750
X40250Y56250
X39500Y69500
X40000Y69500
X39500Y70000
X40000Y70000
X39000Y70000
X39500Y70500
X39000Y70500
X40000Y70500
X39000Y71000
X40000Y71000
X39500Y71000
X39500Y71500
X39000Y71500
X40000Y71500
X39500Y72000
X40000Y72000
X39000Y72000
X39500Y72500
X40000Y72500
X39000Y72500
X42000Y8750
X41500Y8750
X42000Y11000
X41000Y17000
X41000Y26000
X41000Y26500
X41000Y27000
X41000Y27500
X41000Y28000
X41000Y60500
X41000Y69500
X41000Y70000
X41000Y70500
X41000Y71000
X41000Y71500
X42500Y8750
X43000Y8750
X42500Y11000
X43000Y11000
X42250Y13750
X42000Y16000
X42500Y19750
X42500Y21000
X42500Y25500
X42000Y25500
X41500Y26000
X42500Y26000
X42000Y26000
X42500Y26500
X41500Y26500
X42000Y26500
X42000Y27000
X41500Y27000
X42500Y27000
X41500Y27500
X42000Y27500
X42500Y27500
X42500Y28000
X42000Y28000
X41500Y28000
X42000Y52250
X41500Y52250
X42500Y52250
X43000Y52250
X42000Y54500
X43000Y54500
X42500Y54500
X42250Y57250
X42000Y59500
X42500Y63250
X42500Y64500
X42000Y69000
X42500Y69000
X42500Y69500
X42000Y69500
X41500Y69500
X42000Y70000
X42500Y70000
X41500Y70000
X42000Y70500
X42500Y70500
X41500Y70500
X42000Y71000
X42500Y71000
X41500Y71000
X42500Y71500
X42000Y71500
X41500Y71500
X44000Y3000
X44000Y1250
X44500Y6500
X44500Y15500
X44250Y19750
X44750Y21000
X44250Y21000
X44000Y44750
X44000Y46500
X44500Y50000
X44500Y59000
X44250Y63250
X44750Y64500
X44250Y64500
X46000Y4750
X46000Y3000
X46000Y1250
X45500Y6500
X45000Y6500
X45500Y10000
X45500Y11500
X45500Y13000
X45500Y14500
X45500Y16000
X46000Y22250
X46750Y23000
X46000Y44750
X46000Y46500
X46000Y48250
X45500Y50000
X45000Y50000
X45500Y53500
X45500Y55000
X45500Y56500
X45500Y58000
X45500Y59500
X46000Y65750
X47500Y16000
X47500Y14500
X47500Y13000
X47500Y11500
X47500Y10000
X47500Y6750
X48500Y23250
X48500Y25250
X48000Y29500
X47500Y31500
X47500Y50250
X47500Y53500
X47500Y55000
X47500Y56500
X47500Y58000
X47500Y59500
X46750Y66500
X48000Y73000
X47500Y75000
X49000Y17750
X50250Y32000
X49750Y32000
X49250Y32250
X49000Y61250
X48500Y66750
X48500Y68750
X49750Y75500
X50250Y75500
X49250Y75750
X50500Y19250
X51000Y21250
X51000Y21750
X51500Y22250
X51250Y26250
X50750Y26250
X50750Y28500
X51250Y28750
X50750Y32250
X50500Y62750
X51000Y64750
X51000Y65250
X50750Y69750
X51250Y69750
X50750Y72000
X51250Y72250
X50750Y75750
X52500Y26250
X52000Y29500
X51500Y65750
X52500Y69750
X52000Y73000
T02
X2750Y21250
X2750Y22250
X2750Y23250
X2750Y25250
X2750Y26250
X2750Y27250
X2750Y28250
X2750Y64750
X2750Y65750
X2750Y66750
X2750Y68750
X2750Y69750
X2750Y70750
X2750Y71750
X49500Y71750
X49500Y70750
X49500Y69750
X49500Y68750
X49500Y66750
X49500Y65750
X49500Y64750
X49500Y28250
X49500Y27250
X49500Y26250
X49500Y25250
X49500Y23250
X49500Y22250
X49500Y21250
T03
X3000Y15860
X2000Y15860
X4000Y15860
X2000Y59360
X3000Y59360
X4000Y59360
X22250Y70750
X22250Y68750
X22250Y66750
X22250Y65750
X22250Y27250
X22250Y25250
X22250Y23250
X22250Y22250
X40275Y1775
X40275Y4775
X40275Y45275
X40275Y48275
T04
X2750Y34750
X3750Y34750
X3750Y35750
X2750Y35750
X3750Y36750
X2750Y36750
X2750Y78250
X3750Y78250
X2750Y79250
X3750Y79250
X3750Y80250
X2750Y80250
X51500Y8000
X50500Y8000
X50500Y9000
X51500Y9000
X50500Y10000
X51500Y10000
X51500Y11000
X50500Y11000
X50500Y12000
X51500Y12000
X51500Y13000
X50500Y13000
X50500Y14000
X51500Y14000
X50500Y15000
X51500Y15000
X50500Y16000
X50500Y17000
X49500Y34750
X50500Y34750
X50500Y35750
X49500Y35750
X49500Y36750
X51500Y17000
X51500Y16000
X50500Y36750
X50500Y51500
X51500Y51500
X50500Y52500
X51500Y52500
X50500Y53500
X51500Y53500
X50500Y54500
X51500Y54500
X50500Y55500
X51500Y55500
X51500Y56500
X50500Y56500
X51500Y57500
X50500Y57500
X51500Y58500
X50500Y58500
X50500Y59500
X51500Y59500
X50500Y60500
X51500Y60500
X49500Y78250
X50500Y78250
X50500Y79250
X49500Y79250
X50500Y80250
X49500Y80250
T05
X22500Y8000
X23500Y8000
X23500Y18000
X22500Y18000
X22500Y51500
X23500Y51500
X23500Y61500
X22500Y61500
X24500Y8000
X25500Y8000
X24500Y18000
X25500Y18000
X24500Y51500
X24500Y61500
X26500Y8000
X27500Y8000
X26500Y18000
X27500Y18000
X26500Y51500
X25500Y51500
X26500Y61500
X25500Y61500
X28500Y8000
X29500Y8000
X28500Y18000
X28500Y51500
X27500Y51500
X28500Y61500
X27500Y61500
X31500Y8000
X30500Y8000
X30500Y18000
X29500Y18000
X29500Y51500
X29500Y61500
X32500Y8000
X31500Y18000
X32500Y18000
X30500Y51500
X31500Y51500
X31500Y61500
X30500Y61500
X33500Y51500
X33500Y18000
X33500Y8000
X32500Y51500
X33500Y61500
X32500Y61500
X34500Y8000
X36500Y8000
X35500Y8000
X34500Y18000
X35500Y18000
X36500Y18000
X34500Y51500
X36500Y51500
X35500Y51500
X35500Y61500
X34500Y61500
X36500Y61500
X37500Y18000
X37500Y8000
X38500Y8000
X39500Y8000
X38500Y18000
X38500Y51500
X37500Y51500
X37500Y61500
X38500Y61500
X40500Y18000
X40500Y8000
X39500Y18000
X39500Y51500
X40500Y51500
X40500Y61500
X39500Y61500
T06
X10250Y22000
X10250Y65500
X14250Y65500
X14250Y22000
X38500Y22000
X38500Y65500
X42500Y65500
X42500Y22000
T07
G00X11724Y34500
M15
G01X10165Y34500
M17
G00X11724Y78000
M15
G01X10165Y78000
M17
G00X14835Y78000
M15
G01X13276Y78000
M17
G00X14835Y34500
M15
G01X13276Y34500
M17
G00X39974Y34500
M15
G01X38415Y34500
M17
G00X39974Y78000
M15
G01X38415Y78000
M17
G00X43085Y78000
M15
G01X41526Y78000
M17
G00X43085Y34500
M15
G01X41526Y34500
M17
T08
G05
X33275Y4775
X33275Y48275
X36275Y48275
X36275Y4775
T09
X9750Y2335
X9750Y4500
X9750Y45835
X9750Y48000
X11404Y48000
X11404Y45835
X11404Y4500
X11404Y2335
X13057Y2335
X13057Y4500
X13057Y45835
X13057Y48000
X14711Y48000
X14711Y45835
X14711Y4500
X14711Y2335
X16364Y2335
X16364Y4500
X16364Y45835
X16364Y48000
X18018Y4500
X18018Y2335
X18085Y36750
X18018Y45835
X18018Y48000
X18085Y80250
X20750Y4500
X20750Y2335
X20250Y36750
X20750Y45835
X20750Y48000
X20250Y80250
X23500Y48000
X23500Y45835
X23500Y4500
X23500Y2335
X26250Y2335
X26250Y4500
X26250Y45835
X26250Y48000
X27904Y48000
X27904Y45835
X27904Y4500
X27904Y2335
X29557Y2335
X29557Y4500
X29557Y45835
X29557Y48000
X31211Y48000
X31211Y45835
X31211Y4500
X31211Y2335
T10
X2933Y10000
X2933Y53500
X11000Y53500
X11000Y10000
X25250Y20250
X25250Y63750
X28250Y71750
X28250Y28250
X30250Y28250
X30250Y71750
X33250Y71750
X33250Y63750
X33250Y28250
X33250Y20250
T11
X8750Y27000
X8750Y70500
X37000Y70500
X37000Y27000
T12
X15750Y28000
X15750Y71500
X44000Y71500
X44000Y28000
T13
X2750Y2750
X2750Y40250
X2750Y46250
X2750Y83750
X50250Y83750
X50250Y46250
X50250Y40250
X50250Y2750
M30
