*
%LPD*%
%LNPacMan-B_SilkS*%
%FSLAX25Y25*%
%MOIN*%
%AD*%
%AD*%
%ADD39C,0.005905512*%
%ADD40C,0.000393701*%
%ADD41C,0.004724409*%
G54D39*
%SRX1Y1I0.0J0.0*%
G1X307528Y406469D2*
G1X307903Y406656D1*
G1X308466Y406656D1*
G1X309028Y406469D1*
G1X309403Y406094D1*
G1X309591Y405719D1*
G1X309778Y404969D1*
G1X309778Y404406D1*
G1X309591Y403656D1*
G1X309403Y403281D1*
G1X309028Y402906D1*
G1X308466Y402719D1*
G1X308091Y402719D1*
G1X307528Y402906D1*
G1X307341Y403094D1*
G1X307341Y404406D1*
G1X308091Y404406D1*
G1X305654Y402719D2*
G1X305654Y405344D1*
G1X305654Y406656D2*
G1X305841Y406469D1*
G1X305654Y406281D1*
G1X305466Y406469D1*
G1X305654Y406656D1*
G1X305654Y406281D1*
G1X304341Y405344D2*
G1X302841Y405344D1*
G1X303779Y406656D2*
G1X303779Y403281D1*
G1X303591Y402906D1*
G1X303216Y402719D1*
G1X302841Y402719D1*
G1X301529Y402719D2*
G1X301529Y406656D1*
G1X301529Y404781D2*
G1X299279Y404781D1*
G1X299279Y402719D2*
G1X299279Y406656D1*
G1X295717Y405344D2*
G1X295717Y402719D1*
G1X297405Y405344D2*
G1X297405Y403281D1*
G1X297217Y402906D1*
G1X296842Y402719D1*
G1X296280Y402719D1*
G1X295905Y402906D1*
G1X295717Y403094D1*
G1X293843Y402719D2*
G1X293843Y406656D1*
G1X293843Y405156D2*
G1X293468Y405344D1*
G1X292718Y405344D1*
G1X292343Y405156D1*
G1X292155Y404969D1*
G1X291968Y404594D1*
G1X291968Y403469D1*
G1X292155Y403094D1*
G1X292343Y402906D1*
G1X292718Y402719D1*
G1X293468Y402719D1*
G1X293843Y402906D1*
G1X285031Y402719D2*
G1X286343Y404594D1*
G1X287281Y402719D2*
G1X287281Y406656D1*
G1X285781Y406656D1*
G1X285406Y406469D1*
G1X285219Y406281D1*
G1X285031Y405906D1*
G1X285031Y405344D1*
G1X285219Y404969D1*
G1X285406Y404781D1*
G1X285781Y404594D1*
G1X287281Y404594D1*
G1X281844Y402906D2*
G1X282219Y402719D1*
G1X282969Y402719D1*
G1X283344Y402906D1*
G1X283531Y403281D1*
G1X283531Y404781D1*
G1X283344Y405156D1*
G1X282969Y405344D1*
G1X282219Y405344D1*
G1X281844Y405156D1*
G1X281657Y404781D1*
G1X281657Y404406D1*
G1X283531Y404031D1*
G1X279969Y405344D2*
G1X279969Y401407D1*
G1X279969Y405156D2*
G1X279594Y405344D1*
G1X278844Y405344D1*
G1X278469Y405156D1*
G1X278282Y404969D1*
G1X278094Y404594D1*
G1X278094Y403469D1*
G1X278282Y403094D1*
G1X278469Y402906D1*
G1X278844Y402719D1*
G1X279594Y402719D1*
G1X279969Y402906D1*
G1X275845Y402719D2*
G1X276220Y402906D1*
G1X276407Y403094D1*
G1X276595Y403469D1*
G1X276595Y404594D1*
G1X276407Y404969D1*
G1X276220Y405156D1*
G1X275845Y405344D1*
G1X275282Y405344D1*
G1X274907Y405156D1*
G1X274720Y404969D1*
G1X274532Y404594D1*
G1X274532Y403469D1*
G1X274720Y403094D1*
G1X274907Y402906D1*
G1X275282Y402719D1*
G1X275845Y402719D1*
G1X273033Y402906D2*
G1X272658Y402719D1*
G1X271908Y402719D1*
G1X271533Y402906D1*
G1X271345Y403281D1*
G1X271345Y403469D1*
G1X271533Y403844D1*
G1X271908Y404031D1*
G1X272470Y404031D1*
G1X272845Y404219D1*
G1X273033Y404594D1*
G1X273033Y404781D1*
G1X272845Y405156D1*
G1X272470Y405344D1*
G1X271908Y405344D1*
G1X271533Y405156D1*
G1X269658Y402719D2*
G1X269658Y405344D1*
G1X269658Y406656D2*
G1X269846Y406469D1*
G1X269658Y406281D1*
G1X269471Y406469D1*
G1X269658Y406656D1*
G1X269658Y406281D1*
G1X268346Y405344D2*
G1X266846Y405344D1*
G1X267783Y406656D2*
G1X267783Y403281D1*
G1X267596Y402906D1*
G1X267221Y402719D1*
G1X266846Y402719D1*
G1X264971Y402719D2*
G1X265346Y402906D1*
G1X265534Y403094D1*
G1X265721Y403469D1*
G1X265721Y404594D1*
G1X265534Y404969D1*
G1X265346Y405156D1*
G1X264971Y405344D1*
G1X264409Y405344D1*
G1X264034Y405156D1*
G1X263846Y404969D1*
G1X263659Y404594D1*
G1X263659Y403469D1*
G1X263846Y403094D1*
G1X264034Y402906D1*
G1X264409Y402719D1*
G1X264971Y402719D1*
G1X261971Y402719D2*
G1X261971Y405344D1*
G1X261971Y404594D2*
G1X261784Y404969D1*
G1X261597Y405156D1*
G1X261222Y405344D1*
G1X260847Y405344D1*
G1X259909Y405344D2*
G1X258972Y402719D1*
G1X258034Y405344D2*
G1X258972Y402719D1*
G1X259347Y401782D1*
G1X259534Y401594D1*
G1X259909Y401407D1*
G54D40*
G36*
G1X311000Y327000D2*
G1X311000Y318000D1*
G1X320000Y318000D1*
G1X320000Y327000D1*
G1X311000Y327000D1*
G37*
G1X320000Y327000D2*
G1X311000Y327000D1*
G1X311000Y318000D1*
G1X320000Y318000D1*
G1X320000Y327000D1*
G36*
G1X245000Y327000D2*
G1X245000Y318000D1*
G1X254000Y318000D1*
G1X254000Y327000D1*
G1X245000Y327000D1*
G37*
G1X254000Y327000D2*
G1X245000Y327000D1*
G1X245000Y318000D1*
G1X254000Y318000D1*
G1X254000Y327000D1*
G36*
G1X305000Y379500D2*
G1X305124Y378438D1*
G1X305708Y378046D1*
G1X306500Y378000D1*
G1X307562Y378124D1*
G1X307954Y378708D1*
G1X308000Y379500D1*
G1X307876Y380562D1*
G1X307292Y380954D1*
G1X306500Y381000D1*
G1X305438Y380876D1*
G1X305046Y380292D1*
G1X305000Y379500D1*
G37*
G1X307562Y378124D2*
G1X307954Y378708D1*
G1X308000Y379500D1*
G1X307876Y380562D1*
G1X307292Y380954D1*
G1X306500Y381000D1*
G1X305438Y380876D1*
G1X305046Y380292D1*
G1X305000Y379500D1*
G1X305124Y378438D1*
G1X305708Y378046D1*
G1X306500Y378000D1*
G1X307562Y378124D1*
G36*
G1X287000Y331500D2*
G1X287124Y330438D1*
G1X287708Y330046D1*
G1X288500Y330000D1*
G1X290000Y330000D1*
G1X290000Y324000D1*
G1X293000Y324000D1*
G1X293000Y330000D1*
G1X291500Y330000D1*
G1X290438Y330124D1*
G1X290046Y330708D1*
G1X290000Y331500D1*
G1X289876Y332562D1*
G1X289292Y332954D1*
G1X288500Y333000D1*
G1X287438Y332876D1*
G1X287046Y332292D1*
G1X287000Y331500D1*
G37*
G1X293000Y330000D2*
G1X291500Y330000D1*
G1X290438Y330124D1*
G1X290046Y330708D1*
G1X290000Y331500D1*
G1X289876Y332562D1*
G1X289292Y332954D1*
G1X288500Y333000D1*
G1X287438Y332876D1*
G1X287046Y332292D1*
G1X287000Y331500D1*
G1X287124Y330438D1*
G1X287708Y330046D1*
G1X288500Y330000D1*
G1X290000Y330000D1*
G1X290000Y324000D1*
G1X293000Y324000D1*
G1X293000Y330000D1*
G36*
G1X266000Y343500D2*
G1X266124Y342438D1*
G1X266708Y342046D1*
G1X267500Y342000D1*
G1X268562Y342124D1*
G1X268954Y342708D1*
G1X269000Y343500D1*
G1X268876Y344562D1*
G1X268292Y344954D1*
G1X267500Y345000D1*
G1X266438Y344876D1*
G1X266046Y344292D1*
G1X266000Y343500D1*
G37*
G1X268562Y342124D2*
G1X268954Y342708D1*
G1X269000Y343500D1*
G1X268876Y344562D1*
G1X268292Y344954D1*
G1X267500Y345000D1*
G1X266438Y344876D1*
G1X266046Y344292D1*
G1X266000Y343500D1*
G1X266124Y342438D1*
G1X266708Y342046D1*
G1X267500Y342000D1*
G1X268562Y342124D1*
G36*
G1X257000Y343500D2*
G1X257000Y342000D1*
G1X263000Y342000D1*
G1X263000Y348000D1*
G1X261500Y348000D1*
G1X260438Y347876D1*
G1X260046Y347292D1*
G1X260000Y346500D1*
G1X259876Y345438D1*
G1X259292Y345046D1*
G1X258500Y345000D1*
G1X257438Y344876D1*
G1X257046Y344292D1*
G1X257000Y343500D1*
G37*
G1X263000Y348000D2*
G1X261500Y348000D1*
G1X260438Y347876D1*
G1X260046Y347292D1*
G1X260000Y346500D1*
G1X259876Y345438D1*
G1X259292Y345046D1*
G1X258500Y345000D1*
G1X257438Y344876D1*
G1X257046Y344292D1*
G1X257000Y343500D1*
G1X257000Y342000D1*
G1X263000Y342000D1*
G1X263000Y348000D1*
G36*
G1X257000Y361500D2*
G1X257124Y360438D1*
G1X257708Y360046D1*
G1X258500Y360000D1*
G1X259562Y360124D1*
G1X259954Y360708D1*
G1X260000Y361500D1*
G1X259876Y362562D1*
G1X259292Y362954D1*
G1X258500Y363000D1*
G1X257438Y362876D1*
G1X257046Y362292D1*
G1X257000Y361500D1*
G37*
G1X259562Y360124D2*
G1X259954Y360708D1*
G1X260000Y361500D1*
G1X259876Y362562D1*
G1X259292Y362954D1*
G1X258500Y363000D1*
G1X257438Y362876D1*
G1X257046Y362292D1*
G1X257000Y361500D1*
G1X257124Y360438D1*
G1X257708Y360046D1*
G1X258500Y360000D1*
G1X259562Y360124D1*
G36*
G1X254000Y357000D2*
G1X254000Y354000D1*
G1X263000Y354000D1*
G1X263000Y351000D1*
G1X269000Y351000D1*
G1X269000Y357000D1*
G1X267500Y357000D1*
G1X266438Y356876D1*
G1X266046Y356292D1*
G1X266000Y355500D1*
G1X265876Y354438D1*
G1X265292Y354046D1*
G1X264500Y354000D1*
G1X263438Y354124D1*
G1X263046Y354708D1*
G1X263000Y355500D1*
G1X263124Y356562D1*
G1X263708Y356954D1*
G1X264500Y357000D1*
G1X254000Y357000D1*
G37*
G36*
G1X272000Y346500D2*
G1X272124Y345438D1*
G1X272708Y345046D1*
G1X273500Y345000D1*
G1X274562Y345124D1*
G1X274954Y345708D1*
G1X275000Y346500D1*
G1X275124Y347562D1*
G1X275708Y347954D1*
G1X276500Y348000D1*
G1X277562Y347876D1*
G1X277954Y347292D1*
G1X278000Y346500D1*
G1X278124Y345438D1*
G1X278708Y345046D1*
G1X279500Y345000D1*
G1X280562Y344876D1*
G1X280954Y344292D1*
G1X281000Y343500D1*
G1X281124Y342438D1*
G1X281708Y342046D1*
G1X282500Y342000D1*
G1X284000Y342000D1*
G1X284000Y348000D1*
G1X282500Y348000D1*
G1X281438Y348124D1*
G1X281046Y348708D1*
G1X281000Y349500D1*
G1X280876Y350562D1*
G1X280292Y350954D1*
G1X279500Y351000D1*
G1X278438Y351124D1*
G1X278046Y351708D1*
G1X278000Y352500D1*
G1X278124Y353562D1*
G1X278708Y353954D1*
G1X279500Y354000D1*
G1X281000Y354000D1*
G1X281000Y357000D1*
G1X272000Y357000D1*
G1X272000Y351000D1*
G1X273500Y351000D1*
G1X274562Y350876D1*
G1X274954Y350292D1*
G1X275000Y349500D1*
G1X274876Y348438D1*
G1X274292Y348046D1*
G1X273500Y348000D1*
G1X272438Y347876D1*
G1X272046Y347292D1*
G1X272000Y346500D1*
G37*
G36*
G1X263000Y358500D2*
G1X263000Y357000D1*
G1X264500Y357000D1*
G1X265562Y357124D1*
G1X265954Y357708D1*
G1X266000Y358500D1*
G1X263000Y358500D1*
G37*
G36*
G1X263000Y358500D2*
G1X266000Y358500D1*
G1X266124Y359562D1*
G1X266708Y359954D1*
G1X267500Y360000D1*
G1X268562Y359876D1*
G1X268954Y359292D1*
G1X269000Y358500D1*
G1X272000Y358500D1*
G1X272124Y359562D1*
G1X272708Y359954D1*
G1X273500Y360000D1*
G1X274562Y359876D1*
G1X274954Y359292D1*
G1X275000Y358500D1*
G1X281000Y358500D1*
G1X281000Y360000D1*
G1X275000Y360000D1*
G1X275000Y366000D1*
G1X272000Y366000D1*
G1X272000Y360000D1*
G1X269000Y360000D1*
G1X269000Y366000D1*
G1X266000Y366000D1*
G1X266000Y360000D1*
G1X264500Y360000D1*
G1X263438Y359876D1*
G1X263046Y359292D1*
G1X263000Y358500D1*
G37*
G36*
G1X268292Y357046D2*
G1X267500Y357000D1*
G1X273500Y357000D1*
G1X272438Y357124D1*
G1X272046Y357708D1*
G1X272000Y358500D1*
G1X269000Y358500D1*
G1X268876Y357438D1*
G1X268292Y357046D1*
G37*
G36*
G1X274292Y357046D2*
G1X273500Y357000D1*
G1X281000Y357000D1*
G1X281000Y358500D1*
G1X275000Y358500D1*
G1X274876Y357438D1*
G1X274292Y357046D1*
G37*
G1X275000Y360000D2*
G1X275000Y366000D1*
G1X272000Y366000D1*
G1X272000Y360000D1*
G1X269000Y360000D1*
G1X269000Y366000D1*
G1X266000Y366000D1*
G1X266000Y360000D1*
G1X264500Y360000D1*
G1X263438Y359876D1*
G1X263046Y359292D1*
G1X263000Y358500D1*
G1X263000Y357000D1*
G1X254000Y357000D1*
G1X254000Y355500D1*
G1X263000Y355500D1*
G1X263124Y356562D1*
G1X263708Y356954D1*
G1X264500Y357000D1*
G1X265562Y357124D1*
G1X265954Y357708D1*
G1X266000Y358500D1*
G1X266124Y359562D1*
G1X266708Y359954D1*
G1X267500Y360000D1*
G1X268562Y359876D1*
G1X268954Y359292D1*
G1X269000Y358500D1*
G1X272000Y358500D1*
G1X272124Y359562D1*
G1X272708Y359954D1*
G1X273500Y360000D1*
G1X274562Y359876D1*
G1X274954Y359292D1*
G1X275000Y358500D1*
G1X274876Y357438D1*
G1X274292Y357046D1*
G1X273500Y357000D1*
G1X272438Y357124D1*
G1X272046Y357708D1*
G1X272000Y358500D1*
G1X269000Y358500D1*
G1X268876Y357438D1*
G1X268292Y357046D1*
G1X267500Y357000D1*
G1X266438Y356876D1*
G1X266046Y356292D1*
G1X266000Y355500D1*
G1X265876Y354438D1*
G1X265292Y354046D1*
G1X264500Y354000D1*
G1X263438Y354124D1*
G1X263046Y354708D1*
G1X263000Y355500D1*
G1X254000Y355500D1*
G1X254000Y354000D1*
G1X263000Y354000D1*
G1X263000Y351000D1*
G1X269000Y351000D1*
G1X269000Y357000D1*
G1X272000Y357000D1*
G1X272000Y351000D1*
G1X273500Y351000D1*
G1X274562Y350876D1*
G1X274954Y350292D1*
G1X275000Y349500D1*
G1X274876Y348438D1*
G1X274292Y348046D1*
G1X273500Y348000D1*
G1X272438Y347876D1*
G1X272046Y347292D1*
G1X272000Y346500D1*
G1X272124Y345438D1*
G1X272708Y345046D1*
G1X273500Y345000D1*
G1X274562Y345124D1*
G1X274954Y345708D1*
G1X275000Y346500D1*
G1X275124Y347562D1*
G1X275708Y347954D1*
G1X276500Y348000D1*
G1X277562Y347876D1*
G1X277954Y347292D1*
G1X278000Y346500D1*
G1X278124Y345438D1*
G1X278708Y345046D1*
G1X279500Y345000D1*
G1X280562Y344876D1*
G1X280954Y344292D1*
G1X281000Y343500D1*
G1X281124Y342438D1*
G1X281708Y342046D1*
G1X282500Y342000D1*
G1X284000Y342000D1*
G1X284000Y348000D1*
G1X282500Y348000D1*
G1X281438Y348124D1*
G1X281046Y348708D1*
G1X281000Y349500D1*
G1X280876Y350562D1*
G1X280292Y350954D1*
G1X279500Y351000D1*
G1X278438Y351124D1*
G1X278046Y351708D1*
G1X278000Y352500D1*
G1X278124Y353562D1*
G1X278708Y353954D1*
G1X279500Y354000D1*
G1X281000Y354000D1*
G1X281000Y360000D1*
G1X275000Y360000D1*
G36*
G1X281000Y360000D2*
G1X282500Y360000D1*
G1X283562Y359876D1*
G1X283954Y359292D1*
G1X284000Y358500D1*
G1X284000Y357000D1*
G1X293000Y357000D1*
G1X293000Y361500D1*
G1X287000Y361500D1*
G1X286876Y360438D1*
G1X286292Y360046D1*
G1X285500Y360000D1*
G1X284438Y360124D1*
G1X284046Y360708D1*
G1X284000Y361500D1*
G1X281000Y361500D1*
G1X281000Y360000D1*
G37*
G36*
G1X281000Y361500D2*
G1X284000Y361500D1*
G1X284124Y362562D1*
G1X284708Y362954D1*
G1X285500Y363000D1*
G1X286562Y362876D1*
G1X286954Y362292D1*
G1X287000Y361500D1*
G1X293000Y361500D1*
G1X293000Y363000D1*
G1X294500Y363000D1*
G1X295562Y363124D1*
G1X295954Y363708D1*
G1X296000Y364500D1*
G1X296000Y366000D1*
G1X284000Y366000D1*
G1X284000Y364500D1*
G1X283876Y363438D1*
G1X283292Y363046D1*
G1X282500Y363000D1*
G1X281438Y362876D1*
G1X281046Y362292D1*
G1X281000Y361500D1*
G37*
G1X282500Y360000D2*
G1X283562Y359876D1*
G1X283954Y359292D1*
G1X284000Y358500D1*
G1X284000Y357000D1*
G1X293000Y357000D1*
G1X293000Y363000D1*
G1X294500Y363000D1*
G1X295562Y363124D1*
G1X295954Y363708D1*
G1X296000Y364500D1*
G1X296000Y366000D1*
G1X284000Y366000D1*
G1X284000Y364500D1*
G1X283876Y363438D1*
G1X283292Y363046D1*
G1X282500Y363000D1*
G1X281438Y362876D1*
G1X281046Y362292D1*
G1X281000Y361500D1*
G1X284000Y361500D1*
G1X284124Y362562D1*
G1X284708Y362954D1*
G1X285500Y363000D1*
G1X286562Y362876D1*
G1X286954Y362292D1*
G1X287000Y361500D1*
G1X286876Y360438D1*
G1X286292Y360046D1*
G1X285500Y360000D1*
G1X284438Y360124D1*
G1X284046Y360708D1*
G1X284000Y361500D1*
G1X281000Y361500D1*
G1X281000Y360000D1*
G1X282500Y360000D1*
G36*
G1X278000Y367500D2*
G1X278124Y366438D1*
G1X278708Y366046D1*
G1X279500Y366000D1*
G1X280562Y366124D1*
G1X280954Y366708D1*
G1X281000Y367500D1*
G1X280876Y368562D1*
G1X280292Y368954D1*
G1X279500Y369000D1*
G1X278438Y368876D1*
G1X278046Y368292D1*
G1X278000Y367500D1*
G37*
G1X280562Y366124D2*
G1X280954Y366708D1*
G1X281000Y367500D1*
G1X280876Y368562D1*
G1X280292Y368954D1*
G1X279500Y369000D1*
G1X278438Y368876D1*
G1X278046Y368292D1*
G1X278000Y367500D1*
G1X278124Y366438D1*
G1X278708Y366046D1*
G1X279500Y366000D1*
G1X280562Y366124D1*
G36*
G1X284000Y370500D2*
G1X284124Y369438D1*
G1X284708Y369046D1*
G1X285500Y369000D1*
G1X286562Y369124D1*
G1X286954Y369708D1*
G1X287000Y370500D1*
G1X287124Y371562D1*
G1X287708Y371954D1*
G1X288500Y372000D1*
G1X289562Y371876D1*
G1X289954Y371292D1*
G1X290000Y370500D1*
G1X290124Y369438D1*
G1X290708Y369046D1*
G1X291500Y369000D1*
G1X293000Y369000D1*
G1X293000Y378000D1*
G1X284000Y378000D1*
G1X284000Y376500D1*
G1X284124Y375438D1*
G1X284708Y375046D1*
G1X285500Y375000D1*
G1X286562Y374876D1*
G1X286954Y374292D1*
G1X287000Y373500D1*
G1X286876Y372438D1*
G1X286292Y372046D1*
G1X285500Y372000D1*
G1X284438Y371876D1*
G1X284046Y371292D1*
G1X284000Y370500D1*
G37*
G1X293000Y378000D2*
G1X284000Y378000D1*
G1X284000Y376500D1*
G1X284124Y375438D1*
G1X284708Y375046D1*
G1X285500Y375000D1*
G1X286562Y374876D1*
G1X286954Y374292D1*
G1X287000Y373500D1*
G1X286876Y372438D1*
G1X286292Y372046D1*
G1X285500Y372000D1*
G1X284438Y371876D1*
G1X284046Y371292D1*
G1X284000Y370500D1*
G1X284124Y369438D1*
G1X284708Y369046D1*
G1X285500Y369000D1*
G1X286562Y369124D1*
G1X286954Y369708D1*
G1X287000Y370500D1*
G1X287124Y371562D1*
G1X287708Y371954D1*
G1X288500Y372000D1*
G1X289562Y371876D1*
G1X289954Y371292D1*
G1X290000Y370500D1*
G1X290124Y369438D1*
G1X290708Y369046D1*
G1X291500Y369000D1*
G1X293000Y369000D1*
G1X293000Y378000D1*
G36*
G1X290000Y387000D2*
G1X290000Y381000D1*
G1X296000Y381000D1*
G1X296000Y387000D1*
G1X290000Y387000D1*
G37*
G1X296000Y387000D2*
G1X290000Y387000D1*
G1X290000Y381000D1*
G1X296000Y381000D1*
G1X296000Y387000D1*
G36*
G1X245000Y393000D2*
G1X245000Y384000D1*
G1X254000Y384000D1*
G1X254000Y393000D1*
G1X245000Y393000D1*
G37*
G1X254000Y393000D2*
G1X245000Y393000D1*
G1X245000Y384000D1*
G1X254000Y384000D1*
G1X254000Y393000D1*
G36*
G1X305000Y322500D2*
G1X305000Y312000D1*
G1X326000Y312000D1*
G1X326000Y322500D1*
G1X323000Y322500D1*
G1X323000Y315000D1*
G1X308000Y315000D1*
G1X308000Y322500D1*
G1X305000Y322500D1*
G37*
G36*
G1X305000Y322500D2*
G1X308000Y322500D1*
G1X308000Y330000D1*
G1X323000Y330000D1*
G1X323000Y322500D1*
G1X326000Y322500D1*
G1X326000Y333000D1*
G1X305000Y333000D1*
G1X305000Y322500D1*
G37*
G1X326000Y333000D2*
G1X305000Y333000D1*
G1X305000Y315000D1*
G1X308000Y315000D1*
G1X308000Y330000D1*
G1X323000Y330000D1*
G1X323000Y315000D1*
G1X308000Y315000D1*
G1X305000Y315000D1*
G1X305000Y312000D1*
G1X326000Y312000D1*
G1X326000Y333000D1*
G36*
G1X239000Y322500D2*
G1X239000Y312000D1*
G1X260000Y312000D1*
G1X260000Y322500D1*
G1X257000Y322500D1*
G1X257000Y315000D1*
G1X242000Y315000D1*
G1X242000Y322500D1*
G1X239000Y322500D1*
G37*
G36*
G1X239000Y322500D2*
G1X242000Y322500D1*
G1X242000Y330000D1*
G1X257000Y330000D1*
G1X257000Y322500D1*
G1X260000Y322500D1*
G1X260000Y333000D1*
G1X239000Y333000D1*
G1X239000Y322500D1*
G37*
G1X260000Y333000D2*
G1X239000Y333000D1*
G1X239000Y315000D1*
G1X242000Y315000D1*
G1X242000Y330000D1*
G1X257000Y330000D1*
G1X257000Y315000D1*
G1X242000Y315000D1*
G1X239000Y315000D1*
G1X239000Y312000D1*
G1X260000Y312000D1*
G1X260000Y333000D1*
G36*
G1X239000Y336000D2*
G1X248000Y336000D1*
G1X248000Y337500D1*
G1X248124Y338562D1*
G1X248708Y338954D1*
G1X249500Y339000D1*
G1X250562Y338876D1*
G1X250954Y338292D1*
G1X251000Y337500D1*
G1X251000Y336000D1*
G1X263000Y336000D1*
G1X263000Y330000D1*
G1X264500Y330000D1*
G1X265562Y329876D1*
G1X265954Y329292D1*
G1X266000Y328500D1*
G1X266124Y327438D1*
G1X266708Y327046D1*
G1X267500Y327000D1*
G1X268562Y326876D1*
G1X268954Y326292D1*
G1X269000Y325500D1*
G1X268876Y324438D1*
G1X268292Y324046D1*
G1X267500Y324000D1*
G1X266438Y323876D1*
G1X266046Y323292D1*
G1X266000Y322500D1*
G1X265876Y321438D1*
G1X265292Y321046D1*
G1X264500Y321000D1*
G1X263438Y320876D1*
G1X263046Y320292D1*
G1X263000Y319500D1*
G1X263000Y318000D1*
G1X269000Y318000D1*
G1X269000Y316500D1*
G1X268876Y315438D1*
G1X268292Y315046D1*
G1X267500Y315000D1*
G1X266438Y314876D1*
G1X266046Y314292D1*
G1X266000Y313500D1*
G1X266124Y312438D1*
G1X266708Y312046D1*
G1X267500Y312000D1*
G1X268562Y312124D1*
G1X268954Y312708D1*
G1X269000Y313500D1*
G1X269000Y315000D1*
G1X275000Y315000D1*
G1X275000Y313500D1*
G1X275124Y312438D1*
G1X275708Y312046D1*
G1X276500Y312000D1*
G1X278000Y312000D1*
G1X278000Y321000D1*
G1X276500Y321000D1*
G1X275438Y320876D1*
G1X275046Y320292D1*
G1X275000Y319500D1*
G1X274876Y318438D1*
G1X274292Y318046D1*
G1X273500Y318000D1*
G1X272438Y318124D1*
G1X272046Y318708D1*
G1X272000Y319500D1*
G1X272124Y320562D1*
G1X272708Y320954D1*
G1X273500Y321000D1*
G1X274562Y321124D1*
G1X274954Y321708D1*
G1X275000Y322500D1*
G1X274876Y323562D1*
G1X274292Y323954D1*
G1X273500Y324000D1*
G1X272438Y324124D1*
G1X272046Y324708D1*
G1X272000Y325500D1*
G1X271876Y326562D1*
G1X271292Y326954D1*
G1X270500Y327000D1*
G1X269438Y327124D1*
G1X269046Y327708D1*
G1X269000Y328500D1*
G1X268876Y329562D1*
G1X268292Y329954D1*
G1X267500Y330000D1*
G1X266438Y330124D1*
G1X266046Y330708D1*
G1X266000Y331500D1*
G1X266124Y332562D1*
G1X266708Y332954D1*
G1X267500Y333000D1*
G1X268562Y332876D1*
G1X268954Y332292D1*
G1X269000Y331500D1*
G1X269124Y330438D1*
G1X269708Y330046D1*
G1X270500Y330000D1*
G1X272000Y330000D1*
G1X272000Y336000D1*
G1X275000Y336000D1*
G1X275000Y342000D1*
G1X269000Y342000D1*
G1X269000Y336000D1*
G1X266000Y336000D1*
G1X266000Y342000D1*
G1X264500Y342000D1*
G1X263438Y341876D1*
G1X263046Y341292D1*
G1X263000Y340500D1*
G1X263000Y339000D1*
G1X251000Y339000D1*
G1X251000Y340500D1*
G1X250876Y341562D1*
G1X250292Y341954D1*
G1X249500Y342000D1*
G1X248438Y341876D1*
G1X248046Y341292D1*
G1X248000Y340500D1*
G1X248000Y339000D1*
G1X242000Y339000D1*
G1X242000Y345000D1*
G1X243500Y345000D1*
G1X244562Y344876D1*
G1X244954Y344292D1*
G1X245000Y343500D1*
G1X245124Y342438D1*
G1X245708Y342046D1*
G1X246500Y342000D1*
G1X247562Y342124D1*
G1X247954Y342708D1*
G1X248000Y343500D1*
G1X248000Y345000D1*
G1X257000Y345000D1*
G1X257000Y346500D1*
G1X257124Y347562D1*
G1X257708Y347954D1*
G1X258500Y348000D1*
G1X259562Y348124D1*
G1X259954Y348708D1*
G1X260000Y349500D1*
G1X260000Y351000D1*
G1X254000Y351000D1*
G1X254000Y348000D1*
G1X248000Y348000D1*
G1X248000Y349500D1*
G1X248124Y350562D1*
G1X248708Y350954D1*
G1X249500Y351000D1*
G1X251000Y351000D1*
G1X251000Y357000D1*
G1X249500Y357000D1*
G1X248438Y356876D1*
G1X248046Y356292D1*
G1X248000Y355500D1*
G1X247876Y354438D1*
G1X247292Y354046D1*
G1X246500Y354000D1*
G1X245438Y354124D1*
G1X245046Y354708D1*
G1X245000Y355500D1*
G1X245124Y356562D1*
G1X245708Y356954D1*
G1X246500Y357000D1*
G1X247562Y357124D1*
G1X247954Y357708D1*
G1X248000Y358500D1*
G1X247876Y359562D1*
G1X247292Y359954D1*
G1X246500Y360000D1*
G1X245438Y360124D1*
G1X245046Y360708D1*
G1X245000Y361500D1*
G1X245124Y362562D1*
G1X245708Y362954D1*
G1X246500Y363000D1*
G1X247562Y362876D1*
G1X247954Y362292D1*
G1X248000Y361500D1*
G1X248124Y360438D1*
G1X248708Y360046D1*
G1X249500Y360000D1*
G1X250562Y359876D1*
G1X250954Y359292D1*
G1X251000Y358500D1*
G1X251124Y357438D1*
G1X251708Y357046D1*
G1X252500Y357000D1*
G1X254000Y357000D1*
G1X254000Y363000D1*
G1X255500Y363000D1*
G1X256562Y363124D1*
G1X256954Y363708D1*
G1X257000Y364500D1*
G1X257124Y365562D1*
G1X257708Y365954D1*
G1X258500Y366000D1*
G1X259562Y366124D1*
G1X259954Y366708D1*
G1X260000Y367500D1*
G1X260124Y368562D1*
G1X260708Y368954D1*
G1X261500Y369000D1*
G1X262562Y368876D1*
G1X262954Y368292D1*
G1X263000Y367500D1*
G1X263124Y366438D1*
G1X263708Y366046D1*
G1X264500Y366000D1*
G1X265562Y366124D1*
G1X265954Y366708D1*
G1X266000Y367500D1*
G1X266000Y369000D1*
G1X275000Y369000D1*
G1X275000Y370500D1*
G1X274876Y371562D1*
G1X274292Y371954D1*
G1X273500Y372000D1*
G1X272438Y372124D1*
G1X272046Y372708D1*
G1X272000Y373500D1*
G1X271876Y374562D1*
G1X271292Y374954D1*
G1X270500Y375000D1*
G1X269438Y374876D1*
G1X269046Y374292D1*
G1X269000Y373500D1*
G1X269000Y372000D1*
G1X263000Y372000D1*
G1X263000Y375000D1*
G1X257000Y375000D1*
G1X257000Y373500D1*
G1X257124Y372438D1*
G1X257708Y372046D1*
G1X258500Y372000D1*
G1X259562Y371876D1*
G1X259954Y371292D1*
G1X260000Y370500D1*
G1X259876Y369438D1*
G1X259292Y369046D1*
G1X258500Y369000D1*
G1X257438Y368876D1*
G1X257046Y368292D1*
G1X257000Y367500D1*
G1X256876Y366438D1*
G1X256292Y366046D1*
G1X255500Y366000D1*
G1X254438Y366124D1*
G1X254046Y366708D1*
G1X254000Y367500D1*
G1X253876Y368562D1*
G1X253292Y368954D1*
G1X252500Y369000D1*
G1X251438Y369124D1*
G1X251046Y369708D1*
G1X251000Y370500D1*
G1X250876Y371562D1*
G1X250292Y371954D1*
G1X249500Y372000D1*
G1X248438Y372124D1*
G1X248046Y372708D1*
G1X248000Y373500D1*
G1X247876Y374562D1*
G1X247292Y374954D1*
G1X246500Y375000D1*
G1X245438Y374876D1*
G1X245046Y374292D1*
G1X245000Y373500D1*
G1X244876Y372438D1*
G1X244292Y372046D1*
G1X243500Y372000D1*
G1X242438Y372124D1*
G1X242046Y372708D1*
G1X242000Y373500D1*
G1X241876Y374562D1*
G1X241292Y374954D1*
G1X240500Y375000D1*
G1X239438Y374876D1*
G1X239046Y374292D1*
G1X239000Y373500D1*
G1X239124Y372438D1*
G1X239708Y372046D1*
G1X240500Y372000D1*
G1X241562Y371876D1*
G1X241954Y371292D1*
G1X242000Y370500D1*
G1X241876Y369438D1*
G1X241292Y369046D1*
G1X240500Y369000D1*
G1X239438Y368876D1*
G1X239046Y368292D1*
G1X239000Y367500D1*
G1X239124Y366438D1*
G1X239708Y366046D1*
G1X240500Y366000D1*
G1X241562Y366124D1*
G1X241954Y366708D1*
G1X242000Y367500D1*
G1X242124Y368562D1*
G1X242708Y368954D1*
G1X243500Y369000D1*
G1X244562Y369124D1*
G1X244954Y369708D1*
G1X245000Y370500D1*
G1X245124Y371562D1*
G1X245708Y371954D1*
G1X246500Y372000D1*
G1X247562Y371876D1*
G1X247954Y371292D1*
G1X248000Y370500D1*
G1X248124Y369438D1*
G1X248708Y369046D1*
G1X249500Y369000D1*
G1X250562Y368876D1*
G1X250954Y368292D1*
G1X251000Y367500D1*
G1X251000Y366000D1*
G1X245000Y366000D1*
G1X245000Y363000D1*
G1X239000Y363000D1*
G1X239000Y361500D1*
G1X239124Y360438D1*
G1X239708Y360046D1*
G1X240500Y360000D1*
G1X241562Y359876D1*
G1X241954Y359292D1*
G1X242000Y358500D1*
G1X241876Y357438D1*
G1X241292Y357046D1*
G1X240500Y357000D1*
G1X239438Y356876D1*
G1X239046Y356292D1*
G1X239000Y355500D1*
G1X239000Y354000D1*
G1X245000Y354000D1*
G1X245000Y348000D1*
G1X243500Y348000D1*
G1X242438Y347876D1*
G1X242046Y347292D1*
G1X242000Y346500D1*
G1X241876Y345438D1*
G1X241292Y345046D1*
G1X240500Y345000D1*
G1X239000Y345000D1*
G1X239000Y336000D1*
G37*
G36*
G1X275000Y336000D2*
G1X275000Y330000D1*
G1X276500Y330000D1*
G1X277562Y330124D1*
G1X277954Y330708D1*
G1X278000Y331500D1*
G1X278124Y332562D1*
G1X278708Y332954D1*
G1X279500Y333000D1*
G1X280562Y332876D1*
G1X280954Y332292D1*
G1X281000Y331500D1*
G1X280876Y330438D1*
G1X280292Y330046D1*
G1X279500Y330000D1*
G1X278000Y330000D1*
G1X278000Y321000D1*
G1X287000Y321000D1*
G1X287000Y330000D1*
G1X285500Y330000D1*
G1X284438Y330124D1*
G1X284046Y330708D1*
G1X284000Y331500D1*
G1X284124Y332562D1*
G1X284708Y332954D1*
G1X285500Y333000D1*
G1X286562Y333124D1*
G1X286954Y333708D1*
G1X287000Y334500D1*
G1X287000Y336000D1*
G1X281000Y336000D1*
G1X281000Y342000D1*
G1X278000Y342000D1*
G1X278000Y336000D1*
G1X275000Y336000D1*
G37*
G1X287000Y330000D2*
G1X285500Y330000D1*
G1X284438Y330124D1*
G1X284046Y330708D1*
G1X284000Y331500D1*
G1X284124Y332562D1*
G1X284708Y332954D1*
G1X285500Y333000D1*
G1X286562Y333124D1*
G1X286954Y333708D1*
G1X287000Y334500D1*
G1X287000Y336000D1*
G1X281000Y336000D1*
G1X281000Y342000D1*
G1X278000Y342000D1*
G1X278000Y336000D1*
G1X275000Y336000D1*
G1X275000Y342000D1*
G1X269000Y342000D1*
G1X269000Y336000D1*
G1X266000Y336000D1*
G1X266000Y342000D1*
G1X264500Y342000D1*
G1X263438Y341876D1*
G1X263046Y341292D1*
G1X263000Y340500D1*
G1X263000Y339000D1*
G1X251000Y339000D1*
G1X251000Y340500D1*
G1X250876Y341562D1*
G1X250292Y341954D1*
G1X249500Y342000D1*
G1X248438Y341876D1*
G1X248046Y341292D1*
G1X248000Y340500D1*
G1X248000Y339000D1*
G1X242000Y339000D1*
G1X242000Y345000D1*
G1X243500Y345000D1*
G1X244562Y344876D1*
G1X244954Y344292D1*
G1X245000Y343500D1*
G1X245124Y342438D1*
G1X245708Y342046D1*
G1X246500Y342000D1*
G1X247562Y342124D1*
G1X247954Y342708D1*
G1X248000Y343500D1*
G1X248000Y345000D1*
G1X257000Y345000D1*
G1X257000Y346500D1*
G1X257124Y347562D1*
G1X257708Y347954D1*
G1X258500Y348000D1*
G1X259562Y348124D1*
G1X259954Y348708D1*
G1X260000Y349500D1*
G1X260000Y351000D1*
G1X254000Y351000D1*
G1X254000Y348000D1*
G1X248000Y348000D1*
G1X248000Y349500D1*
G1X248124Y350562D1*
G1X248708Y350954D1*
G1X249500Y351000D1*
G1X251000Y351000D1*
G1X251000Y357000D1*
G1X249500Y357000D1*
G1X248438Y356876D1*
G1X248046Y356292D1*
G1X248000Y355500D1*
G1X247876Y354438D1*
G1X247292Y354046D1*
G1X246500Y354000D1*
G1X245438Y354124D1*
G1X245046Y354708D1*
G1X245000Y355500D1*
G1X245124Y356562D1*
G1X245708Y356954D1*
G1X246500Y357000D1*
G1X247562Y357124D1*
G1X247954Y357708D1*
G1X248000Y358500D1*
G1X247876Y359562D1*
G1X247292Y359954D1*
G1X246500Y360000D1*
G1X245438Y360124D1*
G1X245046Y360708D1*
G1X245000Y361500D1*
G1X245124Y362562D1*
G1X245708Y362954D1*
G1X246500Y363000D1*
G1X247562Y362876D1*
G1X247954Y362292D1*
G1X248000Y361500D1*
G1X248124Y360438D1*
G1X248708Y360046D1*
G1X249500Y360000D1*
G1X250562Y359876D1*
G1X250954Y359292D1*
G1X251000Y358500D1*
G1X251124Y357438D1*
G1X251708Y357046D1*
G1X252500Y357000D1*
G1X254000Y357000D1*
G1X254000Y363000D1*
G1X255500Y363000D1*
G1X256562Y363124D1*
G1X256954Y363708D1*
G1X257000Y364500D1*
G1X257124Y365562D1*
G1X257708Y365954D1*
G1X258500Y366000D1*
G1X259562Y366124D1*
G1X259954Y366708D1*
G1X260000Y367500D1*
G1X260124Y368562D1*
G1X260708Y368954D1*
G1X261500Y369000D1*
G1X262562Y368876D1*
G1X262954Y368292D1*
G1X263000Y367500D1*
G1X263124Y366438D1*
G1X263708Y366046D1*
G1X264500Y366000D1*
G1X265562Y366124D1*
G1X265954Y366708D1*
G1X266000Y367500D1*
G1X266000Y369000D1*
G1X275000Y369000D1*
G1X275000Y370500D1*
G1X274876Y371562D1*
G1X274292Y371954D1*
G1X273500Y372000D1*
G1X272438Y372124D1*
G1X272046Y372708D1*
G1X272000Y373500D1*
G1X271876Y374562D1*
G1X271292Y374954D1*
G1X270500Y375000D1*
G1X269438Y374876D1*
G1X269046Y374292D1*
G1X269000Y373500D1*
G1X269000Y372000D1*
G1X263000Y372000D1*
G1X263000Y375000D1*
G1X257000Y375000D1*
G1X257000Y373500D1*
G1X257124Y372438D1*
G1X257708Y372046D1*
G1X258500Y372000D1*
G1X259562Y371876D1*
G1X259954Y371292D1*
G1X260000Y370500D1*
G1X259876Y369438D1*
G1X259292Y369046D1*
G1X258500Y369000D1*
G1X257438Y368876D1*
G1X257046Y368292D1*
G1X257000Y367500D1*
G1X256876Y366438D1*
G1X256292Y366046D1*
G1X255500Y366000D1*
G1X254438Y366124D1*
G1X254046Y366708D1*
G1X254000Y367500D1*
G1X253876Y368562D1*
G1X253292Y368954D1*
G1X252500Y369000D1*
G1X251438Y369124D1*
G1X251046Y369708D1*
G1X251000Y370500D1*
G1X250876Y371562D1*
G1X250292Y371954D1*
G1X249500Y372000D1*
G1X248438Y372124D1*
G1X248046Y372708D1*
G1X248000Y373500D1*
G1X247876Y374562D1*
G1X247292Y374954D1*
G1X246500Y375000D1*
G1X245438Y374876D1*
G1X245046Y374292D1*
G1X245000Y373500D1*
G1X244876Y372438D1*
G1X244292Y372046D1*
G1X243500Y372000D1*
G1X242438Y372124D1*
G1X242046Y372708D1*
G1X242000Y373500D1*
G1X241876Y374562D1*
G1X241292Y374954D1*
G1X240500Y375000D1*
G1X239438Y374876D1*
G1X239046Y374292D1*
G1X239000Y373500D1*
G1X239124Y372438D1*
G1X239708Y372046D1*
G1X240500Y372000D1*
G1X241562Y371876D1*
G1X241954Y371292D1*
G1X242000Y370500D1*
G1X241876Y369438D1*
G1X241292Y369046D1*
G1X240500Y369000D1*
G1X239438Y368876D1*
G1X239046Y368292D1*
G1X239000Y367500D1*
G1X239124Y366438D1*
G1X239708Y366046D1*
G1X240500Y366000D1*
G1X241562Y366124D1*
G1X241954Y366708D1*
G1X242000Y367500D1*
G1X242124Y368562D1*
G1X242708Y368954D1*
G1X243500Y369000D1*
G1X244562Y369124D1*
G1X244954Y369708D1*
G1X245000Y370500D1*
G1X245124Y371562D1*
G1X245708Y371954D1*
G1X246500Y372000D1*
G1X247562Y371876D1*
G1X247954Y371292D1*
G1X248000Y370500D1*
G1X248124Y369438D1*
G1X248708Y369046D1*
G1X249500Y369000D1*
G1X250562Y368876D1*
G1X250954Y368292D1*
G1X251000Y367500D1*
G1X251000Y366000D1*
G1X245000Y366000D1*
G1X245000Y363000D1*
G1X239000Y363000D1*
G1X239000Y361500D1*
G1X239124Y360438D1*
G1X239708Y360046D1*
G1X240500Y360000D1*
G1X241562Y359876D1*
G1X241954Y359292D1*
G1X242000Y358500D1*
G1X241876Y357438D1*
G1X241292Y357046D1*
G1X240500Y357000D1*
G1X239438Y356876D1*
G1X239046Y356292D1*
G1X239000Y355500D1*
G1X239000Y354000D1*
G1X245000Y354000D1*
G1X245000Y348000D1*
G1X243500Y348000D1*
G1X242438Y347876D1*
G1X242046Y347292D1*
G1X242000Y346500D1*
G1X241876Y345438D1*
G1X241292Y345046D1*
G1X240500Y345000D1*
G1X239000Y345000D1*
G1X239000Y336000D1*
G1X248000Y336000D1*
G1X248000Y337500D1*
G1X248124Y338562D1*
G1X248708Y338954D1*
G1X249500Y339000D1*
G1X250562Y338876D1*
G1X250954Y338292D1*
G1X251000Y337500D1*
G1X251000Y336000D1*
G1X263000Y336000D1*
G1X263000Y331500D1*
G1X266000Y331500D1*
G1X266124Y332562D1*
G1X266708Y332954D1*
G1X267500Y333000D1*
G1X268562Y332876D1*
G1X268954Y332292D1*
G1X269000Y331500D1*
G1X269124Y330438D1*
G1X269708Y330046D1*
G1X270500Y330000D1*
G1X272000Y330000D1*
G1X272000Y336000D1*
G1X275000Y336000D1*
G1X275000Y330000D1*
G1X276500Y330000D1*
G1X277562Y330124D1*
G1X277954Y330708D1*
G1X278000Y331500D1*
G1X278124Y332562D1*
G1X278708Y332954D1*
G1X279500Y333000D1*
G1X280562Y332876D1*
G1X280954Y332292D1*
G1X281000Y331500D1*
G1X280876Y330438D1*
G1X280292Y330046D1*
G1X279500Y330000D1*
G1X278000Y330000D1*
G1X278000Y321000D1*
G1X276500Y321000D1*
G1X275438Y320876D1*
G1X275046Y320292D1*
G1X275000Y319500D1*
G1X274876Y318438D1*
G1X274292Y318046D1*
G1X273500Y318000D1*
G1X272438Y318124D1*
G1X272046Y318708D1*
G1X272000Y319500D1*
G1X272124Y320562D1*
G1X272708Y320954D1*
G1X273500Y321000D1*
G1X274562Y321124D1*
G1X274954Y321708D1*
G1X275000Y322500D1*
G1X274876Y323562D1*
G1X274292Y323954D1*
G1X273500Y324000D1*
G1X272438Y324124D1*
G1X272046Y324708D1*
G1X272000Y325500D1*
G1X271876Y326562D1*
G1X271292Y326954D1*
G1X270500Y327000D1*
G1X269438Y327124D1*
G1X269046Y327708D1*
G1X269000Y328500D1*
G1X268876Y329562D1*
G1X268292Y329954D1*
G1X267500Y330000D1*
G1X266438Y330124D1*
G1X266046Y330708D1*
G1X266000Y331500D1*
G1X263000Y331500D1*
G1X263000Y330000D1*
G1X264500Y330000D1*
G1X265562Y329876D1*
G1X265954Y329292D1*
G1X266000Y328500D1*
G1X266124Y327438D1*
G1X266708Y327046D1*
G1X267500Y327000D1*
G1X268562Y326876D1*
G1X268954Y326292D1*
G1X269000Y325500D1*
G1X268876Y324438D1*
G1X268292Y324046D1*
G1X267500Y324000D1*
G1X266438Y323876D1*
G1X266046Y323292D1*
G1X266000Y322500D1*
G1X265876Y321438D1*
G1X265292Y321046D1*
G1X264500Y321000D1*
G1X263438Y320876D1*
G1X263046Y320292D1*
G1X263000Y319500D1*
G1X263000Y318000D1*
G1X269000Y318000D1*
G1X269000Y316500D1*
G1X268876Y315438D1*
G1X268292Y315046D1*
G1X267500Y315000D1*
G1X266438Y314876D1*
G1X266046Y314292D1*
G1X266000Y313500D1*
G1X266124Y312438D1*
G1X266708Y312046D1*
G1X267500Y312000D1*
G1X268562Y312124D1*
G1X268954Y312708D1*
G1X269000Y313500D1*
G1X269000Y315000D1*
G1X275000Y315000D1*
G1X275000Y313500D1*
G1X275124Y312438D1*
G1X275708Y312046D1*
G1X276500Y312000D1*
G1X278000Y312000D1*
G1X278000Y321000D1*
G1X287000Y321000D1*
G1X287000Y330000D1*
G36*
G1X263000Y375000D2*
G1X269000Y375000D1*
G1X269000Y376500D1*
G1X269124Y377562D1*
G1X269708Y377954D1*
G1X270500Y378000D1*
G1X271562Y377876D1*
G1X271954Y377292D1*
G1X272000Y376500D1*
G1X272124Y375438D1*
G1X272708Y375046D1*
G1X273500Y375000D1*
G1X274562Y374876D1*
G1X274954Y374292D1*
G1X275000Y373500D1*
G1X275124Y372438D1*
G1X275708Y372046D1*
G1X276500Y372000D1*
G1X277562Y372124D1*
G1X277954Y372708D1*
G1X278000Y373500D1*
G1X278124Y374562D1*
G1X278708Y374954D1*
G1X279500Y375000D1*
G1X280562Y375124D1*
G1X280954Y375708D1*
G1X281000Y376500D1*
G1X280876Y377562D1*
G1X280292Y377954D1*
G1X279500Y378000D1*
G1X278438Y378124D1*
G1X278046Y378708D1*
G1X278000Y379500D1*
G1X278124Y380562D1*
G1X278708Y380954D1*
G1X279500Y381000D1*
G1X280562Y380876D1*
G1X280954Y380292D1*
G1X281000Y379500D1*
G1X281124Y378438D1*
G1X281708Y378046D1*
G1X282500Y378000D1*
G1X284000Y378000D1*
G1X284000Y384000D1*
G1X273500Y384000D1*
G1X274562Y383876D1*
G1X274954Y383292D1*
G1X275000Y382500D1*
G1X275000Y381000D1*
G1X269000Y381000D1*
G1X269000Y382500D1*
G1X268876Y383562D1*
G1X268292Y383954D1*
G1X267500Y384000D1*
G1X263000Y384000D1*
G1X263000Y375000D1*
G37*
G36*
G1X281000Y384000D2*
G1X284000Y384000D1*
G1X284000Y387000D1*
G1X290000Y387000D1*
G1X290000Y393000D1*
G1X296000Y393000D1*
G1X296000Y391500D1*
G1X296124Y390438D1*
G1X296708Y390046D1*
G1X297500Y390000D1*
G1X299000Y390000D1*
G1X299000Y384000D1*
G1X314000Y384000D1*
G1X314000Y390000D1*
G1X315500Y390000D1*
G1X316562Y389876D1*
G1X316954Y389292D1*
G1X317000Y388500D1*
G1X317000Y387000D1*
G1X326000Y387000D1*
G1X326000Y393000D1*
G1X324500Y393000D1*
G1X323438Y393124D1*
G1X323046Y393708D1*
G1X323000Y394500D1*
G1X323124Y395562D1*
G1X323708Y395954D1*
G1X324500Y396000D1*
G1X325562Y396124D1*
G1X325954Y396708D1*
G1X326000Y397500D1*
G1X326000Y399000D1*
G1X320000Y399000D1*
G1X320000Y393000D1*
G1X321500Y393000D1*
G1X322562Y392876D1*
G1X322954Y392292D1*
G1X323000Y391500D1*
G1X323000Y390000D1*
G1X317000Y390000D1*
G1X317000Y391500D1*
G1X316876Y392562D1*
G1X316292Y392954D1*
G1X315500Y393000D1*
G1X314000Y393000D1*
G1X314000Y399000D1*
G1X308000Y399000D1*
G1X308000Y397500D1*
G1X308124Y396438D1*
G1X308708Y396046D1*
G1X309500Y396000D1*
G1X310562Y395876D1*
G1X310954Y395292D1*
G1X311000Y394500D1*
G1X310876Y393438D1*
G1X310292Y393046D1*
G1X309500Y393000D1*
G1X308000Y393000D1*
G1X308000Y387000D1*
G1X302000Y387000D1*
G1X302000Y388500D1*
G1X301876Y389562D1*
G1X301292Y389954D1*
G1X300500Y390000D1*
G1X299438Y390124D1*
G1X299046Y390708D1*
G1X299000Y391500D1*
G1X299000Y393000D1*
G1X305000Y393000D1*
G1X305000Y399000D1*
G1X296000Y399000D1*
G1X296000Y396000D1*
G1X290000Y396000D1*
G1X290000Y397500D1*
G1X289876Y398562D1*
G1X289292Y398954D1*
G1X288500Y399000D1*
G1X287000Y399000D1*
G1X287000Y390000D1*
G1X281000Y390000D1*
G1X281000Y384000D1*
G37*
G36*
G1X263000Y387000D2*
G1X263000Y384000D1*
G1X267500Y384000D1*
G1X266438Y384124D1*
G1X266046Y384708D1*
G1X266000Y385500D1*
G1X266000Y387000D1*
G1X272000Y387000D1*
G1X272000Y385500D1*
G1X272124Y384438D1*
G1X272708Y384046D1*
G1X273500Y384000D1*
G1X275000Y384000D1*
G1X275000Y390000D1*
G1X273500Y390000D1*
G1X272438Y390124D1*
G1X272046Y390708D1*
G1X272000Y391500D1*
G1X269000Y391500D1*
G1X268876Y390438D1*
G1X268292Y390046D1*
G1X267500Y390000D1*
G1X266438Y390124D1*
G1X266046Y390708D1*
G1X266000Y391500D1*
G1X263000Y391500D1*
G1X263000Y390000D1*
G1X264500Y390000D1*
G1X265562Y389876D1*
G1X265954Y389292D1*
G1X266000Y388500D1*
G1X265876Y387438D1*
G1X265292Y387046D1*
G1X264500Y387000D1*
G1X263000Y387000D1*
G37*
G36*
G1X263000Y391500D2*
G1X266000Y391500D1*
G1X266124Y392562D1*
G1X266708Y392954D1*
G1X267500Y393000D1*
G1X268562Y392876D1*
G1X268954Y392292D1*
G1X269000Y391500D1*
G1X272000Y391500D1*
G1X272124Y392562D1*
G1X272708Y392954D1*
G1X273500Y393000D1*
G1X274562Y393124D1*
G1X274954Y393708D1*
G1X275000Y394500D1*
G1X275124Y395562D1*
G1X275708Y395954D1*
G1X276500Y396000D1*
G1X277562Y396124D1*
G1X277954Y396708D1*
G1X278000Y397500D1*
G1X277876Y398562D1*
G1X277292Y398954D1*
G1X276500Y399000D1*
G1X275438Y398876D1*
G1X275046Y398292D1*
G1X275000Y397500D1*
G1X274876Y396438D1*
G1X274292Y396046D1*
G1X273500Y396000D1*
G1X272438Y396124D1*
G1X272046Y396708D1*
G1X272000Y397500D1*
G1X272000Y399000D1*
G1X263000Y399000D1*
G1X263000Y391500D1*
G37*
G36*
G1X284000Y349500D2*
G1X293000Y349500D1*
G1X293124Y350562D1*
G1X293708Y350954D1*
G1X294500Y351000D1*
G1X295562Y350876D1*
G1X295954Y350292D1*
G1X296000Y349500D1*
G1X308000Y349500D1*
G1X308000Y360000D1*
G1X309500Y360000D1*
G1X310562Y360124D1*
G1X310954Y360708D1*
G1X311000Y361500D1*
G1X310876Y362562D1*
G1X310292Y362954D1*
G1X309500Y363000D1*
G1X308438Y363124D1*
G1X308046Y363708D1*
G1X308000Y364500D1*
G1X307876Y365562D1*
G1X307292Y365954D1*
G1X306500Y366000D1*
G1X305438Y366124D1*
G1X305046Y366708D1*
G1X305000Y367500D1*
G1X305124Y368562D1*
G1X305708Y368954D1*
G1X306500Y369000D1*
G1X307562Y368876D1*
G1X307954Y368292D1*
G1X308000Y367500D1*
G1X308000Y366000D1*
G1X314000Y366000D1*
G1X314000Y367500D1*
G1X314124Y368562D1*
G1X314708Y368954D1*
G1X315500Y369000D1*
G1X316562Y369124D1*
G1X316954Y369708D1*
G1X317000Y370500D1*
G1X316876Y371562D1*
G1X316292Y371954D1*
G1X315500Y372000D1*
G1X314000Y372000D1*
G1X314000Y378000D1*
G1X315500Y378000D1*
G1X316562Y377876D1*
G1X316954Y377292D1*
G1X317000Y376500D1*
G1X317000Y375000D1*
G1X326000Y375000D1*
G1X326000Y381000D1*
G1X324500Y381000D1*
G1X323438Y381124D1*
G1X323046Y381708D1*
G1X323000Y382500D1*
G1X322876Y383562D1*
G1X322292Y383954D1*
G1X321500Y384000D1*
G1X320000Y384000D1*
G1X320000Y378000D1*
G1X317000Y378000D1*
G1X317000Y384000D1*
G1X311000Y384000D1*
G1X311000Y375000D1*
G1X302000Y375000D1*
G1X302000Y384000D1*
G1X299000Y384000D1*
G1X299000Y381000D1*
G1X296000Y381000D1*
G1X296000Y369000D1*
G1X302000Y369000D1*
G1X302000Y363000D1*
G1X303500Y363000D1*
G1X304562Y362876D1*
G1X304954Y362292D1*
G1X305000Y361500D1*
G1X304876Y360438D1*
G1X304292Y360046D1*
G1X303500Y360000D1*
G1X302438Y360124D1*
G1X302046Y360708D1*
G1X302000Y361500D1*
G1X302000Y363000D1*
G1X296000Y363000D1*
G1X296000Y361500D1*
G1X296124Y360438D1*
G1X296708Y360046D1*
G1X297500Y360000D1*
G1X298562Y359876D1*
G1X298954Y359292D1*
G1X299000Y358500D1*
G1X299000Y357000D1*
G1X305000Y357000D1*
G1X305000Y354000D1*
G1X290000Y354000D1*
G1X290000Y351000D1*
G1X284000Y351000D1*
G1X284000Y349500D1*
G37*
G36*
G1X284000Y349500D2*
G1X284124Y348438D1*
G1X284708Y348046D1*
G1X285500Y348000D1*
G1X286562Y347876D1*
G1X286954Y347292D1*
G1X287000Y346500D1*
G1X287000Y345000D1*
G1X299000Y345000D1*
G1X299000Y340500D1*
G1X302000Y340500D1*
G1X302124Y341562D1*
G1X302708Y341954D1*
G1X303500Y342000D1*
G1X304562Y341876D1*
G1X304954Y341292D1*
G1X305000Y340500D1*
G1X308000Y340500D1*
G1X308000Y345000D1*
G1X302000Y345000D1*
G1X302000Y348000D1*
G1X308000Y348000D1*
G1X308000Y349500D1*
G1X296000Y349500D1*
G1X295876Y348438D1*
G1X295292Y348046D1*
G1X294500Y348000D1*
G1X293438Y348124D1*
G1X293046Y348708D1*
G1X293000Y349500D1*
G1X284000Y349500D1*
G37*
G36*
G1X299000Y340500D2*
G1X299000Y336000D1*
G1X308000Y336000D1*
G1X308000Y340500D1*
G1X305000Y340500D1*
G1X304876Y339438D1*
G1X304292Y339046D1*
G1X303500Y339000D1*
G1X302438Y339124D1*
G1X302046Y339708D1*
G1X302000Y340500D1*
G1X299000Y340500D1*
G37*
G36*
G1X308000Y345000D2*
G1X309500Y345000D1*
G1X310562Y344876D1*
G1X310954Y344292D1*
G1X311000Y343500D1*
G1X311124Y342438D1*
G1X311708Y342046D1*
G1X312500Y342000D1*
G1X313562Y341876D1*
G1X313954Y341292D1*
G1X314000Y340500D1*
G1X314124Y339438D1*
G1X314708Y339046D1*
G1X315500Y339000D1*
G1X316562Y338876D1*
G1X316954Y338292D1*
G1X317000Y337500D1*
G1X317124Y336438D1*
G1X317708Y336046D1*
G1X318500Y336000D1*
G1X319562Y336124D1*
G1X319954Y336708D1*
G1X320000Y337500D1*
G1X319876Y338562D1*
G1X319292Y338954D1*
G1X318500Y339000D1*
G1X317438Y339124D1*
G1X317046Y339708D1*
G1X317000Y340500D1*
G1X317000Y342000D1*
G1X323000Y342000D1*
G1X323000Y340500D1*
G1X323124Y339438D1*
G1X323708Y339046D1*
G1X324500Y339000D1*
G1X326000Y339000D1*
G1X326000Y345000D1*
G1X324500Y345000D1*
G1X323438Y345124D1*
G1X323046Y345708D1*
G1X323000Y346500D1*
G1X323124Y347562D1*
G1X323708Y347954D1*
G1X324500Y348000D1*
G1X326000Y348000D1*
G1X326000Y354000D1*
G1X321500Y354000D1*
G1X322562Y353876D1*
G1X322954Y353292D1*
G1X323000Y352500D1*
G1X322876Y351438D1*
G1X322292Y351046D1*
G1X321500Y351000D1*
G1X320000Y351000D1*
G1X320000Y345000D1*
G1X318500Y345000D1*
G1X317438Y344876D1*
G1X317046Y344292D1*
G1X317000Y343500D1*
G1X316876Y342438D1*
G1X316292Y342046D1*
G1X315500Y342000D1*
G1X314000Y342000D1*
G1X314000Y348000D1*
G1X308000Y348000D1*
G1X308000Y345000D1*
G37*
G36*
G1X311000Y355500D2*
G1X311124Y354438D1*
G1X311708Y354046D1*
G1X312500Y354000D1*
G1X317000Y354000D1*
G1X317000Y363000D1*
G1X318500Y363000D1*
G1X319562Y363124D1*
G1X319954Y363708D1*
G1X320000Y364500D1*
G1X320124Y365562D1*
G1X320708Y365954D1*
G1X321500Y366000D1*
G1X322562Y365876D1*
G1X322954Y365292D1*
G1X323000Y364500D1*
G1X322876Y363438D1*
G1X322292Y363046D1*
G1X321500Y363000D1*
G1X320000Y363000D1*
G1X320000Y354000D1*
G1X326000Y354000D1*
G1X326000Y357000D1*
G1X324500Y357000D1*
G1X323438Y357124D1*
G1X323046Y357708D1*
G1X323000Y358500D1*
G1X323124Y359562D1*
G1X323708Y359954D1*
G1X324500Y360000D1*
G1X326000Y360000D1*
G1X326000Y369000D1*
G1X324500Y369000D1*
G1X323438Y369124D1*
G1X323046Y369708D1*
G1X323000Y370500D1*
G1X322876Y371562D1*
G1X322292Y371954D1*
G1X321500Y372000D1*
G1X320000Y372000D1*
G1X320000Y366000D1*
G1X314000Y366000D1*
G1X314000Y357000D1*
G1X312500Y357000D1*
G1X311438Y356876D1*
G1X311046Y356292D1*
G1X311000Y355500D1*
G37*
G36*
G1X314000Y348000D2*
G1X317000Y348000D1*
G1X317000Y354000D1*
G1X314000Y354000D1*
G1X314000Y348000D1*
G37*
G1X296000Y363000D2*
G1X296000Y361500D1*
G1X302000Y361500D1*
G1X302000Y363000D1*
G1X303500Y363000D1*
G1X304562Y362876D1*
G1X304954Y362292D1*
G1X305000Y361500D1*
G1X304876Y360438D1*
G1X304292Y360046D1*
G1X303500Y360000D1*
G1X302438Y360124D1*
G1X302046Y360708D1*
G1X302000Y361500D1*
G1X296000Y361500D1*
G1X296124Y360438D1*
G1X296708Y360046D1*
G1X297500Y360000D1*
G1X298562Y359876D1*
G1X298954Y359292D1*
G1X299000Y358500D1*
G1X299000Y357000D1*
G1X305000Y357000D1*
G1X305000Y354000D1*
G1X290000Y354000D1*
G1X290000Y351000D1*
G1X284000Y351000D1*
G1X284000Y349500D1*
G1X293000Y349500D1*
G1X293124Y350562D1*
G1X293708Y350954D1*
G1X294500Y351000D1*
G1X295562Y350876D1*
G1X295954Y350292D1*
G1X296000Y349500D1*
G1X295876Y348438D1*
G1X295292Y348046D1*
G1X294500Y348000D1*
G1X293438Y348124D1*
G1X293046Y348708D1*
G1X293000Y349500D1*
G1X284000Y349500D1*
G1X284124Y348438D1*
G1X284708Y348046D1*
G1X285500Y348000D1*
G1X286562Y347876D1*
G1X286954Y347292D1*
G1X287000Y346500D1*
G1X287000Y345000D1*
G1X299000Y345000D1*
G1X302000Y345000D1*
G1X302000Y348000D1*
G1X308000Y348000D1*
G1X308000Y345000D1*
G1X302000Y345000D1*
G1X299000Y345000D1*
G1X299000Y340500D1*
G1X302000Y340500D1*
G1X302124Y341562D1*
G1X302708Y341954D1*
G1X303500Y342000D1*
G1X304562Y341876D1*
G1X304954Y341292D1*
G1X305000Y340500D1*
G1X304876Y339438D1*
G1X304292Y339046D1*
G1X303500Y339000D1*
G1X302438Y339124D1*
G1X302046Y339708D1*
G1X302000Y340500D1*
G1X299000Y340500D1*
G1X299000Y336000D1*
G1X308000Y336000D1*
G1X308000Y345000D1*
G1X309500Y345000D1*
G1X310562Y344876D1*
G1X310954Y344292D1*
G1X311000Y343500D1*
G1X311124Y342438D1*
G1X311708Y342046D1*
G1X312500Y342000D1*
G1X314000Y342000D1*
G1X314000Y348000D1*
G1X317000Y348000D1*
G1X317000Y363000D1*
G1X318500Y363000D1*
G1X319562Y363124D1*
G1X319954Y363708D1*
G1X320000Y364500D1*
G1X320124Y365562D1*
G1X320708Y365954D1*
G1X321500Y366000D1*
G1X322562Y365876D1*
G1X322954Y365292D1*
G1X323000Y364500D1*
G1X322876Y363438D1*
G1X322292Y363046D1*
G1X321500Y363000D1*
G1X320000Y363000D1*
G1X320000Y354000D1*
G1X321500Y354000D1*
G1X322562Y353876D1*
G1X322954Y353292D1*
G1X323000Y352500D1*
G1X322876Y351438D1*
G1X322292Y351046D1*
G1X321500Y351000D1*
G1X320000Y351000D1*
G1X320000Y345000D1*
G1X318500Y345000D1*
G1X317438Y344876D1*
G1X317046Y344292D1*
G1X317000Y343500D1*
G1X316876Y342438D1*
G1X316292Y342046D1*
G1X315500Y342000D1*
G1X314000Y342000D1*
G1X312500Y342000D1*
G1X313562Y341876D1*
G1X313954Y341292D1*
G1X314000Y340500D1*
G1X314124Y339438D1*
G1X314708Y339046D1*
G1X315500Y339000D1*
G1X316562Y338876D1*
G1X316954Y338292D1*
G1X317000Y337500D1*
G1X317124Y336438D1*
G1X317708Y336046D1*
G1X318500Y336000D1*
G1X319562Y336124D1*
G1X319954Y336708D1*
G1X320000Y337500D1*
G1X319876Y338562D1*
G1X319292Y338954D1*
G1X318500Y339000D1*
G1X317438Y339124D1*
G1X317046Y339708D1*
G1X317000Y340500D1*
G1X317000Y342000D1*
G1X323000Y342000D1*
G1X323000Y340500D1*
G1X323124Y339438D1*
G1X323708Y339046D1*
G1X324500Y339000D1*
G1X326000Y339000D1*
G1X326000Y345000D1*
G1X324500Y345000D1*
G1X323438Y345124D1*
G1X323046Y345708D1*
G1X323000Y346500D1*
G1X323124Y347562D1*
G1X323708Y347954D1*
G1X324500Y348000D1*
G1X326000Y348000D1*
G1X326000Y357000D1*
G1X324500Y357000D1*
G1X323438Y357124D1*
G1X323046Y357708D1*
G1X323000Y358500D1*
G1X323124Y359562D1*
G1X323708Y359954D1*
G1X324500Y360000D1*
G1X326000Y360000D1*
G1X326000Y369000D1*
G1X324500Y369000D1*
G1X323438Y369124D1*
G1X323046Y369708D1*
G1X323000Y370500D1*
G1X322876Y371562D1*
G1X322292Y371954D1*
G1X321500Y372000D1*
G1X320000Y372000D1*
G1X320000Y366000D1*
G1X314000Y366000D1*
G1X314000Y367500D1*
G1X314124Y368562D1*
G1X314708Y368954D1*
G1X315500Y369000D1*
G1X316562Y369124D1*
G1X316954Y369708D1*
G1X317000Y370500D1*
G1X316876Y371562D1*
G1X316292Y371954D1*
G1X315500Y372000D1*
G1X314000Y372000D1*
G1X314000Y378000D1*
G1X315500Y378000D1*
G1X316562Y377876D1*
G1X316954Y377292D1*
G1X317000Y376500D1*
G1X317000Y375000D1*
G1X326000Y375000D1*
G1X326000Y381000D1*
G1X324500Y381000D1*
G1X323438Y381124D1*
G1X323046Y381708D1*
G1X323000Y382500D1*
G1X322876Y383562D1*
G1X322292Y383954D1*
G1X321500Y384000D1*
G1X320000Y384000D1*
G1X320000Y378000D1*
G1X317000Y378000D1*
G1X317000Y384000D1*
G1X314000Y384000D1*
G1X314000Y390000D1*
G1X315500Y390000D1*
G1X316562Y389876D1*
G1X316954Y389292D1*
G1X317000Y388500D1*
G1X317000Y387000D1*
G1X326000Y387000D1*
G1X326000Y393000D1*
G1X324500Y393000D1*
G1X323438Y393124D1*
G1X323046Y393708D1*
G1X323000Y394500D1*
G1X323124Y395562D1*
G1X323708Y395954D1*
G1X324500Y396000D1*
G1X325562Y396124D1*
G1X325954Y396708D1*
G1X326000Y397500D1*
G1X326000Y399000D1*
G1X320000Y399000D1*
G1X320000Y393000D1*
G1X321500Y393000D1*
G1X322562Y392876D1*
G1X322954Y392292D1*
G1X323000Y391500D1*
G1X323000Y390000D1*
G1X317000Y390000D1*
G1X317000Y391500D1*
G1X316876Y392562D1*
G1X316292Y392954D1*
G1X315500Y393000D1*
G1X314000Y393000D1*
G1X314000Y399000D1*
G1X308000Y399000D1*
G1X308000Y397500D1*
G1X308124Y396438D1*
G1X308708Y396046D1*
G1X309500Y396000D1*
G1X310562Y395876D1*
G1X310954Y395292D1*
G1X311000Y394500D1*
G1X310876Y393438D1*
G1X310292Y393046D1*
G1X309500Y393000D1*
G1X308000Y393000D1*
G1X308000Y387000D1*
G1X302000Y387000D1*
G1X302000Y388500D1*
G1X301876Y389562D1*
G1X301292Y389954D1*
G1X300500Y390000D1*
G1X299438Y390124D1*
G1X299046Y390708D1*
G1X299000Y391500D1*
G1X299000Y393000D1*
G1X305000Y393000D1*
G1X305000Y399000D1*
G1X296000Y399000D1*
G1X296000Y396000D1*
G1X290000Y396000D1*
G1X290000Y397500D1*
G1X289876Y398562D1*
G1X289292Y398954D1*
G1X288500Y399000D1*
G1X287000Y399000D1*
G1X287000Y390000D1*
G1X281000Y390000D1*
G1X281000Y384000D1*
G1X275000Y384000D1*
G1X275000Y390000D1*
G1X273500Y390000D1*
G1X272438Y390124D1*
G1X272046Y390708D1*
G1X272000Y391500D1*
G1X272124Y392562D1*
G1X272708Y392954D1*
G1X273500Y393000D1*
G1X274562Y393124D1*
G1X274954Y393708D1*
G1X275000Y394500D1*
G1X275124Y395562D1*
G1X275708Y395954D1*
G1X276500Y396000D1*
G1X277562Y396124D1*
G1X277954Y396708D1*
G1X278000Y397500D1*
G1X277876Y398562D1*
G1X277292Y398954D1*
G1X276500Y399000D1*
G1X275438Y398876D1*
G1X275046Y398292D1*
G1X275000Y397500D1*
G1X274876Y396438D1*
G1X274292Y396046D1*
G1X273500Y396000D1*
G1X272438Y396124D1*
G1X272046Y396708D1*
G1X272000Y397500D1*
G1X272000Y399000D1*
G1X263000Y399000D1*
G1X263000Y391500D1*
G1X266000Y391500D1*
G1X266124Y392562D1*
G1X266708Y392954D1*
G1X267500Y393000D1*
G1X268562Y392876D1*
G1X268954Y392292D1*
G1X269000Y391500D1*
G1X268876Y390438D1*
G1X268292Y390046D1*
G1X267500Y390000D1*
G1X266438Y390124D1*
G1X266046Y390708D1*
G1X266000Y391500D1*
G1X263000Y391500D1*
G1X263000Y390000D1*
G1X264500Y390000D1*
G1X265562Y389876D1*
G1X265954Y389292D1*
G1X266000Y388500D1*
G1X265876Y387438D1*
G1X265292Y387046D1*
G1X264500Y387000D1*
G1X263000Y387000D1*
G1X263000Y385500D1*
G1X266000Y385500D1*
G1X266000Y387000D1*
G1X272000Y387000D1*
G1X272000Y385500D1*
G1X272124Y384438D1*
G1X272708Y384046D1*
G1X273500Y384000D1*
G1X274562Y383876D1*
G1X274954Y383292D1*
G1X275000Y382500D1*
G1X275000Y381000D1*
G1X269000Y381000D1*
G1X269000Y382500D1*
G1X268876Y383562D1*
G1X268292Y383954D1*
G1X267500Y384000D1*
G1X266438Y384124D1*
G1X266046Y384708D1*
G1X266000Y385500D1*
G1X263000Y385500D1*
G1X263000Y375000D1*
G1X269000Y375000D1*
G1X269000Y376500D1*
G1X269124Y377562D1*
G1X269708Y377954D1*
G1X270500Y378000D1*
G1X271562Y377876D1*
G1X271954Y377292D1*
G1X272000Y376500D1*
G1X272124Y375438D1*
G1X272708Y375046D1*
G1X273500Y375000D1*
G1X274562Y374876D1*
G1X274954Y374292D1*
G1X275000Y373500D1*
G1X275124Y372438D1*
G1X275708Y372046D1*
G1X276500Y372000D1*
G1X277562Y372124D1*
G1X277954Y372708D1*
G1X278000Y373500D1*
G1X278124Y374562D1*
G1X278708Y374954D1*
G1X279500Y375000D1*
G1X280562Y375124D1*
G1X280954Y375708D1*
G1X281000Y376500D1*
G1X280876Y377562D1*
G1X280292Y377954D1*
G1X279500Y378000D1*
G1X278438Y378124D1*
G1X278046Y378708D1*
G1X278000Y379500D1*
G1X278124Y380562D1*
G1X278708Y380954D1*
G1X279500Y381000D1*
G1X280562Y380876D1*
G1X280954Y380292D1*
G1X281000Y379500D1*
G1X281124Y378438D1*
G1X281708Y378046D1*
G1X282500Y378000D1*
G1X284000Y378000D1*
G1X284000Y387000D1*
G1X290000Y387000D1*
G1X290000Y393000D1*
G1X296000Y393000D1*
G1X296000Y391500D1*
G1X296124Y390438D1*
G1X296708Y390046D1*
G1X297500Y390000D1*
G1X299000Y390000D1*
G1X299000Y381000D1*
G1X296000Y381000D1*
G1X296000Y375000D1*
G1X302000Y375000D1*
G1X302000Y384000D1*
G1X311000Y384000D1*
G1X311000Y375000D1*
G1X302000Y375000D1*
G1X296000Y375000D1*
G1X296000Y369000D1*
G1X302000Y369000D1*
G1X302000Y367500D1*
G1X305000Y367500D1*
G1X305124Y368562D1*
G1X305708Y368954D1*
G1X306500Y369000D1*
G1X307562Y368876D1*
G1X307954Y368292D1*
G1X308000Y367500D1*
G1X308000Y366000D1*
G1X314000Y366000D1*
G1X314000Y357000D1*
G1X312500Y357000D1*
G1X311438Y356876D1*
G1X311046Y356292D1*
G1X311000Y355500D1*
G1X311124Y354438D1*
G1X311708Y354046D1*
G1X312500Y354000D1*
G1X314000Y354000D1*
G1X314000Y348000D1*
G1X308000Y348000D1*
G1X308000Y360000D1*
G1X309500Y360000D1*
G1X310562Y360124D1*
G1X310954Y360708D1*
G1X311000Y361500D1*
G1X310876Y362562D1*
G1X310292Y362954D1*
G1X309500Y363000D1*
G1X308438Y363124D1*
G1X308046Y363708D1*
G1X308000Y364500D1*
G1X307876Y365562D1*
G1X307292Y365954D1*
G1X306500Y366000D1*
G1X305438Y366124D1*
G1X305046Y366708D1*
G1X305000Y367500D1*
G1X302000Y367500D1*
G1X302000Y363000D1*
G1X296000Y363000D1*
G36*
G1X281000Y313500D2*
G1X281000Y312000D1*
G1X287000Y312000D1*
G1X287000Y315000D1*
G1X293000Y315000D1*
G1X293000Y312000D1*
G1X299000Y312000D1*
G1X299000Y327000D1*
G1X302000Y327000D1*
G1X302000Y333000D1*
G1X300500Y333000D1*
G1X299438Y333124D1*
G1X299046Y333708D1*
G1X299000Y334500D1*
G1X299000Y336000D1*
G1X293000Y336000D1*
G1X293000Y342000D1*
G1X284000Y342000D1*
G1X284000Y339000D1*
G1X290000Y339000D1*
G1X290000Y333000D1*
G1X291500Y333000D1*
G1X292562Y332876D1*
G1X292954Y332292D1*
G1X293000Y331500D1*
G1X293124Y330438D1*
G1X293708Y330046D1*
G1X294500Y330000D1*
G1X295562Y330124D1*
G1X295954Y330708D1*
G1X296000Y331500D1*
G1X296124Y332562D1*
G1X296708Y332954D1*
G1X297500Y333000D1*
G1X298562Y332876D1*
G1X298954Y332292D1*
G1X299000Y331500D1*
G1X298876Y330438D1*
G1X298292Y330046D1*
G1X297500Y330000D1*
G1X296000Y330000D1*
G1X296000Y324000D1*
G1X294500Y324000D1*
G1X293438Y323876D1*
G1X293046Y323292D1*
G1X293000Y322500D1*
G1X293124Y321438D1*
G1X293708Y321046D1*
G1X294500Y321000D1*
G1X296000Y321000D1*
G1X296000Y315000D1*
G1X294500Y315000D1*
G1X293438Y315124D1*
G1X293046Y315708D1*
G1X293000Y316500D1*
G1X292876Y317562D1*
G1X292292Y317954D1*
G1X291500Y318000D1*
G1X290438Y318124D1*
G1X290046Y318708D1*
G1X290000Y319500D1*
G1X289876Y320562D1*
G1X289292Y320954D1*
G1X288500Y321000D1*
G1X287000Y321000D1*
G1X287000Y319500D1*
G1X286876Y318438D1*
G1X286292Y318046D1*
G1X285500Y318000D1*
G1X284438Y317876D1*
G1X284046Y317292D1*
G1X284000Y316500D1*
G1X283876Y315438D1*
G1X283292Y315046D1*
G1X282500Y315000D1*
G1X281438Y314876D1*
G1X281046Y314292D1*
G1X281000Y313500D1*
G37*
G1X287000Y319500D2*
G1X286876Y318438D1*
G1X286292Y318046D1*
G1X285500Y318000D1*
G1X284438Y317876D1*
G1X284046Y317292D1*
G1X284000Y316500D1*
G1X283876Y315438D1*
G1X283292Y315046D1*
G1X282500Y315000D1*
G1X281438Y314876D1*
G1X281046Y314292D1*
G1X281000Y313500D1*
G1X281000Y312000D1*
G1X287000Y312000D1*
G1X287000Y315000D1*
G1X293000Y315000D1*
G1X293000Y312000D1*
G1X299000Y312000D1*
G1X299000Y327000D1*
G1X302000Y327000D1*
G1X302000Y333000D1*
G1X300500Y333000D1*
G1X299438Y333124D1*
G1X299046Y333708D1*
G1X299000Y334500D1*
G1X299000Y336000D1*
G1X293000Y336000D1*
G1X293000Y342000D1*
G1X284000Y342000D1*
G1X284000Y339000D1*
G1X290000Y339000D1*
G1X290000Y333000D1*
G1X291500Y333000D1*
G1X292562Y332876D1*
G1X292954Y332292D1*
G1X293000Y331500D1*
G1X293124Y330438D1*
G1X293708Y330046D1*
G1X294500Y330000D1*
G1X295562Y330124D1*
G1X295954Y330708D1*
G1X296000Y331500D1*
G1X296124Y332562D1*
G1X296708Y332954D1*
G1X297500Y333000D1*
G1X298562Y332876D1*
G1X298954Y332292D1*
G1X299000Y331500D1*
G1X298876Y330438D1*
G1X298292Y330046D1*
G1X297500Y330000D1*
G1X296000Y330000D1*
G1X296000Y324000D1*
G1X294500Y324000D1*
G1X293438Y323876D1*
G1X293046Y323292D1*
G1X293000Y322500D1*
G1X293124Y321438D1*
G1X293708Y321046D1*
G1X294500Y321000D1*
G1X296000Y321000D1*
G1X296000Y315000D1*
G1X294500Y315000D1*
G1X293438Y315124D1*
G1X293046Y315708D1*
G1X293000Y316500D1*
G1X292876Y317562D1*
G1X292292Y317954D1*
G1X291500Y318000D1*
G1X290438Y318124D1*
G1X290046Y318708D1*
G1X290000Y319500D1*
G1X289876Y320562D1*
G1X289292Y320954D1*
G1X288500Y321000D1*
G1X287000Y321000D1*
G1X287000Y319500D1*
G36*
G1X278000Y391500D2*
G1X278124Y390438D1*
G1X278708Y390046D1*
G1X279500Y390000D1*
G1X281000Y390000D1*
G1X281000Y391500D1*
G1X280876Y392562D1*
G1X280292Y392954D1*
G1X279500Y393000D1*
G1X278438Y392876D1*
G1X278046Y392292D1*
G1X278000Y391500D1*
G37*
G1X281000Y391500D2*
G1X280876Y392562D1*
G1X280292Y392954D1*
G1X279500Y393000D1*
G1X278438Y392876D1*
G1X278046Y392292D1*
G1X278000Y391500D1*
G1X278124Y390438D1*
G1X278708Y390046D1*
G1X279500Y390000D1*
G1X281000Y390000D1*
G1X281000Y391500D1*
G36*
G1X239000Y388500D2*
G1X239000Y378000D1*
G1X260000Y378000D1*
G1X260000Y388500D1*
G1X257000Y388500D1*
G1X257000Y381000D1*
G1X242000Y381000D1*
G1X242000Y388500D1*
G1X239000Y388500D1*
G37*
G36*
G1X239000Y388500D2*
G1X242000Y388500D1*
G1X242000Y396000D1*
G1X257000Y396000D1*
G1X257000Y388500D1*
G1X260000Y388500D1*
G1X260000Y399000D1*
G1X239000Y399000D1*
G1X239000Y388500D1*
G37*
G1X260000Y399000D2*
G1X239000Y399000D1*
G1X239000Y381000D1*
G1X242000Y381000D1*
G1X242000Y396000D1*
G1X257000Y396000D1*
G1X257000Y381000D1*
G1X242000Y381000D1*
G1X239000Y381000D1*
G1X239000Y378000D1*
G1X260000Y378000D1*
G1X260000Y399000D1*
G1X290130Y289646D2*
G54D41*
G1X294870Y289646D1*
G1X290130Y300354D2*
G1X294870Y300354D1*
G1X502205Y333971D2*
G1X502205Y336029D1*
G1X507795Y333971D2*
G1X507795Y336029D1*
G1X34705Y333971D2*
G1X34705Y336029D1*
G1X40295Y333971D2*
G1X40295Y336029D1*
G1X273971Y232795D2*
G1X276029Y232795D1*
G1X273971Y227205D2*
G1X276029Y227205D1*
G1X265295Y263971D2*
G1X265295Y266029D1*
G1X259705Y263971D2*
G1X259705Y266029D1*
G1X53740Y312500D2*
G75*
G3X53740Y312500I-3740J0D1*
G74*
G1X394705Y218529D2*
G1X394705Y216471D1*
G1X400295Y218529D2*
G1X400295Y216471D1*
G1X55295Y221029D2*
G1X55295Y218971D1*
G1X49705Y221029D2*
G1X49705Y218971D1*
G1X517205Y221029D2*
G1X517205Y218971D1*
G1X522795Y221029D2*
G1X522795Y218971D1*
G1X517205Y263971D2*
G1X517205Y266029D1*
G1X522795Y263971D2*
G1X522795Y266029D1*
G1X55295Y263971D2*
G1X55295Y266029D1*
G1X49705Y263971D2*
G1X49705Y266029D1*
G1X290130Y207854D2*
G1X294870Y207854D1*
G1X290130Y197146D2*
G1X294870Y197146D1*
G1X415295Y218529D2*
G1X415295Y216471D1*
G1X409705Y218529D2*
G1X409705Y216471D1*
G1X488583Y219870D2*
G1X488583Y215130D1*
G1X481417Y219870D2*
G1X481417Y215130D1*
G1X236083Y264870D2*
G1X236083Y260130D1*
G1X228917Y264870D2*
G1X228917Y260130D1*
G1X13917Y219870D2*
G1X13917Y215130D1*
G1X21083Y219870D2*
G1X21083Y215130D1*
G1X236083Y225130D2*
G1X236083Y229870D1*
G1X228917Y225130D2*
G1X228917Y229870D1*
G1X415295Y198971D2*
G1X415295Y201029D1*
G1X409705Y198971D2*
G1X409705Y201029D1*
G1X394705Y198971D2*
G1X394705Y201029D1*
G1X400295Y198971D2*
G1X400295Y201029D1*
G1X250295Y281471D2*
G1X250295Y283529D1*
G1X244705Y281471D2*
G1X244705Y283529D1*
G1X265295Y281471D2*
G1X265295Y283529D1*
G1X259705Y281471D2*
G1X259705Y283529D1*
G1X12795Y352564D2*
G1X12795Y350507D1*
G1X7205Y352564D2*
G1X7205Y350507D1*
G1X244921Y242500D2*
G1X244921Y250177D1*
G1X244921Y242500D2*
G1X244921Y234823D1*
G1X265079Y242500D2*
G1X265079Y250177D1*
G1X265079Y242500D2*
G1X265079Y228917D1*
G1X480295Y352564D2*
G1X480295Y350507D1*
G1X474705Y352564D2*
G1X474705Y350507D1*
G1X235295Y281471D2*
G1X235295Y283529D1*
G1X229705Y281471D2*
G1X229705Y283529D1*
G1X521240Y312500D2*
G75*
G3X521240Y312500I-3740J0D1*
G74*
G1X522579Y242500D2*
G1X522579Y228917D1*
G1X522579Y242500D2*
G1X522579Y250177D1*
G1X502421Y242500D2*
G1X502421Y234823D1*
G1X502421Y242500D2*
G1X502421Y250177D1*
G1X9646Y265130D2*
G1X9646Y269870D1*
G1X20354Y265130D2*
G1X20354Y269870D1*
G1X34921Y242500D2*
G1X34921Y250177D1*
G1X34921Y242500D2*
G1X34921Y234823D1*
G1X55079Y242500D2*
G1X55079Y250177D1*
G1X55079Y242500D2*
G1X55079Y228917D1*
G1X487854Y265130D2*
G1X487854Y269870D1*
G1X477146Y265130D2*
G1X477146Y269870D1*
G1X415079Y242500D2*
G1X415079Y234823D1*
G1X415079Y242500D2*
G1X415079Y250177D1*
G1X394921Y242500D2*
G1X394921Y234823D1*
G1X394921Y242500D2*
G1X394921Y256083D1*
G1X311240Y127500D2*
G75*
G3X311240Y127500I-3740J0D1*
G1X296240Y127500D2*
G3X296240Y127500I-3740J0D1*
G74*
G1X463971Y162795D2*
G1X466029Y162795D1*
G1X463971Y157205D2*
G1X466029Y157205D1*
G1X463971Y142205D2*
G1X466029Y142205D1*
G1X463971Y147795D2*
G1X466029Y147795D1*
G1X463971Y132795D2*
G1X466029Y132795D1*
G1X463971Y127205D2*
G1X466029Y127205D1*
G1X463971Y112205D2*
G1X466029Y112205D1*
G1X463971Y117795D2*
G1X466029Y117795D1*
G1X463971Y102795D2*
G1X466029Y102795D1*
G1X463971Y97205D2*
G1X466029Y97205D1*
G1X17630Y167146D2*
G1X22370Y167146D1*
G1X17630Y177854D2*
G1X22370Y177854D1*
G1X42370Y167146D2*
G1X37630Y167146D1*
G1X42370Y177854D2*
G1X37630Y177854D1*
G1X381004Y49823D2*
G1X381004Y22657D1*
G1X393996Y49823D2*
G1X393996Y22657D1*
G1X381004Y49823D2*
G1X393996Y49823D1*
G1X105335Y198504D2*
G1X105335Y211496D1*
G1X132500Y211496D1*
G1X105335Y198504D2*
G1X132500Y198504D1*
G1X297795Y163971D2*
G1X297795Y166029D1*
G1X292205Y163971D2*
G1X292205Y166029D1*
G1X307795Y163971D2*
G1X307795Y166029D1*
G1X302205Y163971D2*
G1X302205Y166029D1*
G1X407008Y26280D2*
G1X412756Y26280D1*
G1X407008Y38720D2*
G1X415512Y38720D1*
G1X407008Y38720D2*
G1X407008Y35059D1*
G1X407008Y26280D2*
G1X407008Y29941D1*
G1X295031Y284618D2*
G54D39*
G1X295218Y284430D1*
G1X295781Y284243D1*
G1X296156Y284243D1*
G1X296718Y284430D1*
G1X297093Y284805D1*
G1X297281Y285180D1*
G1X297468Y285930D1*
G1X297468Y286492D1*
G1X297281Y287242D1*
G1X297093Y287617D1*
G1X296718Y287992D1*
G1X296156Y288180D1*
G1X295781Y288180D1*
G1X295218Y287992D1*
G1X295031Y287805D1*
G1X291281Y284243D2*
G1X293531Y284243D1*
G1X292406Y284243D2*
G1X292406Y288180D1*
G1X292781Y287617D1*
G1X293156Y287242D1*
G1X293531Y287055D1*
G1X287907Y286867D2*
G1X287907Y284243D1*
G1X288844Y288367D2*
G1X289782Y285555D1*
G1X287344Y285555D1*
G1X500281Y337531D2*
G1X498406Y338843D1*
G1X500281Y339781D2*
G1X496344Y339781D1*
G1X496344Y338281D1*
G1X496531Y337906D1*
G1X496719Y337718D1*
G1X497094Y337531D1*
G1X497656Y337531D1*
G1X498031Y337718D1*
G1X498219Y337906D1*
G1X498406Y338281D1*
G1X498406Y339781D1*
G1X496344Y336219D2*
G1X496344Y333781D1*
G1X497844Y335094D1*
G1X497844Y334531D1*
G1X498031Y334156D1*
G1X498219Y333969D1*
G1X498594Y333781D1*
G1X499531Y333781D1*
G1X499906Y333969D1*
G1X500094Y334156D1*
G1X500281Y334531D1*
G1X500281Y335656D1*
G1X500094Y336031D1*
G1X499906Y336219D1*
G1X496344Y332469D2*
G1X496344Y329844D1*
G1X500281Y331532D1*
G1X33281Y337531D2*
G1X31406Y338843D1*
G1X33281Y339781D2*
G1X29344Y339781D1*
G1X29344Y338281D1*
G1X29531Y337906D1*
G1X29719Y337718D1*
G1X30094Y337531D1*
G1X30656Y337531D1*
G1X31031Y337718D1*
G1X31219Y337906D1*
G1X31406Y338281D1*
G1X31406Y339781D1*
G1X29344Y336219D2*
G1X29344Y333781D1*
G1X30844Y335094D1*
G1X30844Y334531D1*
G1X31031Y334156D1*
G1X31219Y333969D1*
G1X31594Y333781D1*
G1X32531Y333781D1*
G1X32906Y333969D1*
G1X33094Y334156D1*
G1X33281Y334531D1*
G1X33281Y335656D1*
G1X33094Y336031D1*
G1X32906Y336219D1*
G1X29344Y330407D2*
G1X29344Y331157D1*
G1X29531Y331532D1*
G1X29719Y331719D1*
G1X30281Y332094D1*
G1X31031Y332282D1*
G1X32531Y332282D1*
G1X32906Y332094D1*
G1X33094Y331907D1*
G1X33281Y331532D1*
G1X33281Y330782D1*
G1X33094Y330407D1*
G1X32906Y330219D1*
G1X32531Y330032D1*
G1X31594Y330032D1*
G1X31219Y330219D1*
G1X31031Y330407D1*
G1X30844Y330782D1*
G1X30844Y331532D1*
G1X31031Y331907D1*
G1X31219Y332094D1*
G1X31594Y332282D1*
G1X277531Y222098D2*
G1X277718Y221910D1*
G1X278281Y221723D1*
G1X278656Y221723D1*
G1X279218Y221910D1*
G1X279593Y222285D1*
G1X279781Y222660D1*
G1X279968Y223410D1*
G1X279968Y223973D1*
G1X279781Y224723D1*
G1X279593Y225097D1*
G1X279218Y225472D1*
G1X278656Y225660D1*
G1X278281Y225660D1*
G1X277718Y225472D1*
G1X277531Y225285D1*
G1X276219Y225660D2*
G1X273781Y225660D1*
G1X275094Y224160D1*
G1X274531Y224160D1*
G1X274156Y223973D1*
G1X273969Y223785D1*
G1X273781Y223410D1*
G1X273781Y222473D1*
G1X273969Y222098D1*
G1X274156Y221910D1*
G1X274531Y221723D1*
G1X275656Y221723D1*
G1X276031Y221910D1*
G1X276219Y222098D1*
G1X270032Y221723D2*
G1X272282Y221723D1*
G1X271157Y221723D2*
G1X271157Y225660D1*
G1X271532Y225097D1*
G1X271907Y224723D1*
G1X272282Y224535D1*
G1X256406Y267531D2*
G1X256594Y267718D1*
G1X256781Y268281D1*
G1X256781Y268656D1*
G1X256594Y269218D1*
G1X256219Y269593D1*
G1X255844Y269781D1*
G1X255094Y269968D1*
G1X254531Y269968D1*
G1X253781Y269781D1*
G1X253406Y269593D1*
G1X253031Y269218D1*
G1X252844Y268656D1*
G1X252844Y268281D1*
G1X253031Y267718D1*
G1X253219Y267531D1*
G1X252844Y266219D2*
G1X252844Y263781D1*
G1X254344Y265094D1*
G1X254344Y264531D1*
G1X254531Y264156D1*
G1X254719Y263969D1*
G1X255094Y263781D1*
G1X256031Y263781D1*
G1X256406Y263969D1*
G1X256594Y264156D1*
G1X256781Y264531D1*
G1X256781Y265656D1*
G1X256594Y266031D1*
G1X256406Y266219D1*
G1X252844Y260219D2*
G1X252844Y262094D1*
G1X254719Y262282D1*
G1X254531Y262094D1*
G1X254344Y261719D1*
G1X254344Y260782D1*
G1X254531Y260407D1*
G1X254719Y260219D1*
G1X255094Y260032D1*
G1X256031Y260032D1*
G1X256406Y260219D1*
G1X256594Y260407D1*
G1X256781Y260782D1*
G1X256781Y261719D1*
G1X256594Y262094D1*
G1X256406Y262282D1*
G1X51594Y342311D2*
G1X51781Y341749D1*
G1X51781Y340811D1*
G1X51594Y340436D1*
G1X51406Y340249D1*
G1X51031Y340061D1*
G1X50656Y340061D1*
G1X50281Y340249D1*
G1X50094Y340436D1*
G1X49906Y340811D1*
G1X49719Y341561D1*
G1X49531Y341936D1*
G1X49344Y342124D1*
G1X48969Y342311D1*
G1X48594Y342311D1*
G1X48219Y342124D1*
G1X48031Y341936D1*
G1X47844Y341561D1*
G1X47844Y340624D1*
G1X48031Y340061D1*
G1X49719Y338374D2*
G1X49719Y337062D1*
G1X51781Y336499D2*
G1X51781Y338374D1*
G1X47844Y338374D1*
G1X47844Y336499D1*
G1X48031Y332750D2*
G1X47844Y333125D1*
G1X47844Y333687D1*
G1X48031Y334250D1*
G1X48406Y334624D1*
G1X48781Y334812D1*
G1X49531Y334999D1*
G1X50094Y334999D1*
G1X50844Y334812D1*
G1X51219Y334624D1*
G1X51594Y334250D1*
G1X51781Y333687D1*
G1X51781Y333312D1*
G1X51594Y332750D1*
G1X51406Y332562D1*
G1X50094Y332562D1*
G1X50094Y333312D1*
G1X51781Y328813D2*
G1X51781Y331062D1*
G1X51781Y329938D2*
G1X47844Y329938D1*
G1X48406Y330313D1*
G1X48781Y330687D1*
G1X48969Y331062D1*
G1X52156Y328063D2*
G1X52156Y325063D1*
G1X47844Y322251D2*
G1X47844Y324126D1*
G1X49719Y324313D1*
G1X49531Y324126D1*
G1X49344Y323751D1*
G1X49344Y322813D1*
G1X49531Y322439D1*
G1X49719Y322251D1*
G1X50094Y322064D1*
G1X51031Y322064D1*
G1X51406Y322251D1*
G1X51594Y322439D1*
G1X51781Y322813D1*
G1X51781Y323751D1*
G1X51594Y324126D1*
G1X51406Y324313D1*
G1X47844Y320939D2*
G1X51781Y319626D1*
G1X47844Y318314D1*
G1X405406Y220031D2*
G1X405594Y220218D1*
G1X405781Y220781D1*
G1X405781Y221156D1*
G1X405594Y221718D1*
G1X405219Y222093D1*
G1X404844Y222281D1*
G1X404094Y222468D1*
G1X403531Y222468D1*
G1X402781Y222281D1*
G1X402406Y222093D1*
G1X402031Y221718D1*
G1X401844Y221156D1*
G1X401844Y220781D1*
G1X402031Y220218D1*
G1X402219Y220031D1*
G1X405781Y216281D2*
G1X405781Y218531D1*
G1X405781Y217406D2*
G1X401844Y217406D1*
G1X402406Y217781D1*
G1X402781Y218156D1*
G1X402969Y218531D1*
G1X401844Y214969D2*
G1X401844Y212532D1*
G1X403344Y213844D1*
G1X403344Y213282D1*
G1X403531Y212907D1*
G1X403719Y212719D1*
G1X404094Y212532D1*
G1X405031Y212532D1*
G1X405406Y212719D1*
G1X405594Y212907D1*
G1X405781Y213282D1*
G1X405781Y214407D1*
G1X405594Y214782D1*
G1X405406Y214969D1*
G1X47410Y222531D2*
G1X47597Y222718D1*
G1X47785Y223281D1*
G1X47785Y223656D1*
G1X47597Y224218D1*
G1X47223Y224593D1*
G1X46848Y224781D1*
G1X46098Y224968D1*
G1X45535Y224968D1*
G1X44785Y224781D1*
G1X44410Y224593D1*
G1X44035Y224218D1*
G1X43848Y223656D1*
G1X43848Y223281D1*
G1X44035Y222718D1*
G1X44223Y222531D1*
G1X44223Y221031D2*
G1X44035Y220844D1*
G1X43848Y220469D1*
G1X43848Y219531D1*
G1X44035Y219156D1*
G1X44223Y218969D1*
G1X44598Y218781D1*
G1X44973Y218781D1*
G1X45535Y218969D1*
G1X47785Y221219D1*
G1X47785Y218781D1*
G1X44223Y217282D2*
G1X44035Y217094D1*
G1X43848Y216719D1*
G1X43848Y215782D1*
G1X44035Y215407D1*
G1X44223Y215219D1*
G1X44598Y215032D1*
G1X44973Y215032D1*
G1X45535Y215219D1*
G1X47785Y217469D1*
G1X47785Y215032D1*
G1X522531Y207594D2*
G1X522718Y207406D1*
G1X523281Y207219D1*
G1X523656Y207219D1*
G1X524218Y207406D1*
G1X524593Y207781D1*
G1X524781Y208156D1*
G1X524968Y208906D1*
G1X524968Y209469D1*
G1X524781Y210219D1*
G1X524593Y210594D1*
G1X524218Y210969D1*
G1X523656Y211156D1*
G1X523281Y211156D1*
G1X522718Y210969D1*
G1X522531Y210781D1*
G1X521031Y210781D2*
G1X520844Y210969D1*
G1X520469Y211156D1*
G1X519531Y211156D1*
G1X519156Y210969D1*
G1X518969Y210781D1*
G1X518781Y210406D1*
G1X518781Y210031D1*
G1X518969Y209469D1*
G1X521219Y207219D1*
G1X518781Y207219D1*
G1X515032Y207219D2*
G1X517282Y207219D1*
G1X516157Y207219D2*
G1X516157Y211156D1*
G1X516532Y210594D1*
G1X516907Y210219D1*
G1X517282Y210031D1*
G1X522531Y273594D2*
G1X522718Y273406D1*
G1X523281Y273219D1*
G1X523656Y273219D1*
G1X524218Y273406D1*
G1X524593Y273781D1*
G1X524781Y274156D1*
G1X524968Y274906D1*
G1X524968Y275469D1*
G1X524781Y276219D1*
G1X524593Y276594D1*
G1X524218Y276969D1*
G1X523656Y277156D1*
G1X523281Y277156D1*
G1X522718Y276969D1*
G1X522531Y276781D1*
G1X521031Y276781D2*
G1X520844Y276969D1*
G1X520469Y277156D1*
G1X519531Y277156D1*
G1X519156Y276969D1*
G1X518969Y276781D1*
G1X518781Y276406D1*
G1X518781Y276031D1*
G1X518969Y275469D1*
G1X521219Y273219D1*
G1X518781Y273219D1*
G1X516344Y277156D2*
G1X515969Y277156D1*
G1X515594Y276969D1*
G1X515407Y276781D1*
G1X515219Y276406D1*
G1X515032Y275656D1*
G1X515032Y274719D1*
G1X515219Y273969D1*
G1X515407Y273594D1*
G1X515594Y273406D1*
G1X515969Y273219D1*
G1X516344Y273219D1*
G1X516719Y273406D1*
G1X516907Y273594D1*
G1X517094Y273969D1*
G1X517282Y274719D1*
G1X517282Y275656D1*
G1X517094Y276406D1*
G1X516907Y276781D1*
G1X516719Y276969D1*
G1X516344Y277156D1*
G1X55031Y273594D2*
G1X55218Y273406D1*
G1X55781Y273219D1*
G1X56156Y273219D1*
G1X56718Y273406D1*
G1X57093Y273781D1*
G1X57281Y274156D1*
G1X57468Y274906D1*
G1X57468Y275469D1*
G1X57281Y276219D1*
G1X57093Y276594D1*
G1X56718Y276969D1*
G1X56156Y277156D1*
G1X55781Y277156D1*
G1X55218Y276969D1*
G1X55031Y276781D1*
G1X51281Y273219D2*
G1X53531Y273219D1*
G1X52406Y273219D2*
G1X52406Y277156D1*
G1X52781Y276594D1*
G1X53156Y276219D1*
G1X53531Y276031D1*
G1X49969Y277156D2*
G1X47344Y277156D1*
G1X49032Y273219D1*
G1X295031Y211094D2*
G1X295218Y210906D1*
G1X295781Y210719D1*
G1X296156Y210719D1*
G1X296718Y210906D1*
G1X297093Y211281D1*
G1X297281Y211656D1*
G1X297468Y212406D1*
G1X297468Y212969D1*
G1X297281Y213719D1*
G1X297093Y214094D1*
G1X296718Y214469D1*
G1X296156Y214656D1*
G1X295781Y214656D1*
G1X295218Y214469D1*
G1X295031Y214281D1*
G1X291281Y210719D2*
G1X293531Y210719D1*
G1X292406Y210719D2*
G1X292406Y214656D1*
G1X292781Y214094D1*
G1X293156Y213719D1*
G1X293531Y213531D1*
G1X287719Y214656D2*
G1X289594Y214656D1*
G1X289782Y212781D1*
G1X289594Y212969D1*
G1X289219Y213156D1*
G1X288282Y213156D1*
G1X287907Y212969D1*
G1X287719Y212781D1*
G1X287532Y212406D1*
G1X287532Y211469D1*
G1X287719Y211094D1*
G1X287907Y210906D1*
G1X288282Y210719D1*
G1X289219Y210719D1*
G1X289594Y210906D1*
G1X289782Y211094D1*
G1X420406Y220031D2*
G1X420594Y220218D1*
G1X420781Y220781D1*
G1X420781Y221156D1*
G1X420594Y221718D1*
G1X420219Y222093D1*
G1X419844Y222281D1*
G1X419094Y222468D1*
G1X418531Y222468D1*
G1X417781Y222281D1*
G1X417406Y222093D1*
G1X417031Y221718D1*
G1X416844Y221156D1*
G1X416844Y220781D1*
G1X417031Y220218D1*
G1X417219Y220031D1*
G1X420781Y216281D2*
G1X420781Y218531D1*
G1X420781Y217406D2*
G1X416844Y217406D1*
G1X417406Y217781D1*
G1X417781Y218156D1*
G1X417969Y218531D1*
G1X417219Y214782D2*
G1X417031Y214594D1*
G1X416844Y214219D1*
G1X416844Y213282D1*
G1X417031Y212907D1*
G1X417219Y212719D1*
G1X417594Y212532D1*
G1X417969Y212532D1*
G1X418531Y212719D1*
G1X420781Y214969D1*
G1X420781Y212532D1*
G1X479241Y220031D2*
G1X479428Y220218D1*
G1X479616Y220781D1*
G1X479616Y221156D1*
G1X479428Y221718D1*
G1X479053Y222093D1*
G1X478678Y222281D1*
G1X477928Y222468D1*
G1X477366Y222468D1*
G1X476616Y222281D1*
G1X476241Y222093D1*
G1X475866Y221718D1*
G1X475679Y221156D1*
G1X475679Y220781D1*
G1X475866Y220218D1*
G1X476054Y220031D1*
G1X476054Y218531D2*
G1X475866Y218344D1*
G1X475679Y217969D1*
G1X475679Y217031D1*
G1X475866Y216656D1*
G1X476054Y216469D1*
G1X476429Y216281D1*
G1X476804Y216281D1*
G1X477366Y216469D1*
G1X479616Y218719D1*
G1X479616Y216281D1*
G1X475679Y212907D2*
G1X475679Y213657D1*
G1X475866Y214032D1*
G1X476054Y214219D1*
G1X476616Y214594D1*
G1X477366Y214782D1*
G1X478866Y214782D1*
G1X479241Y214594D1*
G1X479428Y214407D1*
G1X479616Y214032D1*
G1X479616Y213282D1*
G1X479428Y212907D1*
G1X479241Y212719D1*
G1X478866Y212532D1*
G1X477928Y212532D1*
G1X477553Y212719D1*
G1X477366Y212907D1*
G1X477178Y213282D1*
G1X477178Y214032D1*
G1X477366Y214407D1*
G1X477553Y214594D1*
G1X477928Y214782D1*
G1X226406Y265031D2*
G1X226594Y265218D1*
G1X226781Y265781D1*
G1X226781Y266156D1*
G1X226594Y266718D1*
G1X226219Y267093D1*
G1X225844Y267281D1*
G1X225094Y267468D1*
G1X224531Y267468D1*
G1X223781Y267281D1*
G1X223406Y267093D1*
G1X223031Y266718D1*
G1X222844Y266156D1*
G1X222844Y265781D1*
G1X223031Y265218D1*
G1X223219Y265031D1*
G1X223219Y263531D2*
G1X223031Y263344D1*
G1X222844Y262969D1*
G1X222844Y262031D1*
G1X223031Y261656D1*
G1X223219Y261469D1*
G1X223594Y261281D1*
G1X223969Y261281D1*
G1X224531Y261469D1*
G1X226781Y263719D1*
G1X226781Y261281D1*
G1X222844Y259969D2*
G1X222844Y257344D1*
G1X226781Y259032D1*
G1X11741Y220031D2*
G1X11928Y220218D1*
G1X12116Y220781D1*
G1X12116Y221156D1*
G1X11928Y221718D1*
G1X11553Y222093D1*
G1X11178Y222281D1*
G1X10428Y222468D1*
G1X9866Y222468D1*
G1X9116Y222281D1*
G1X8741Y222093D1*
G1X8366Y221718D1*
G1X8179Y221156D1*
G1X8179Y220781D1*
G1X8366Y220218D1*
G1X8554Y220031D1*
G1X8554Y218531D2*
G1X8366Y218344D1*
G1X8179Y217969D1*
G1X8179Y217031D1*
G1X8366Y216656D1*
G1X8554Y216469D1*
G1X8929Y216281D1*
G1X9304Y216281D1*
G1X9866Y216469D1*
G1X12116Y218719D1*
G1X12116Y216281D1*
G1X8179Y212719D2*
G1X8179Y214594D1*
G1X10053Y214782D1*
G1X9866Y214594D1*
G1X9678Y214219D1*
G1X9678Y213282D1*
G1X9866Y212907D1*
G1X10053Y212719D1*
G1X10428Y212532D1*
G1X11366Y212532D1*
G1X11741Y212719D1*
G1X11928Y212907D1*
G1X12116Y213282D1*
G1X12116Y214219D1*
G1X11928Y214594D1*
G1X11741Y214782D1*
G1X241071Y230031D2*
G1X241259Y230218D1*
G1X241446Y230781D1*
G1X241446Y231156D1*
G1X241259Y231718D1*
G1X240884Y232093D1*
G1X240509Y232281D1*
G1X239759Y232468D1*
G1X239197Y232468D1*
G1X238447Y232281D1*
G1X238072Y232093D1*
G1X237697Y231718D1*
G1X237509Y231156D1*
G1X237509Y230781D1*
G1X237697Y230218D1*
G1X237884Y230031D1*
G1X237884Y228531D2*
G1X237697Y228344D1*
G1X237509Y227969D1*
G1X237509Y227031D1*
G1X237697Y226656D1*
G1X237884Y226469D1*
G1X238259Y226281D1*
G1X238634Y226281D1*
G1X239197Y226469D1*
G1X241446Y228719D1*
G1X241446Y226281D1*
G1X238822Y222907D2*
G1X241446Y222907D1*
G1X237322Y223844D2*
G1X240134Y224782D1*
G1X240134Y222344D1*
G1X420777Y202531D2*
G1X418902Y203843D1*
G1X420777Y204781D2*
G1X416840Y204781D1*
G1X416840Y203281D1*
G1X417028Y202906D1*
G1X417215Y202718D1*
G1X417590Y202531D1*
G1X418152Y202531D1*
G1X418527Y202718D1*
G1X418715Y202906D1*
G1X418902Y203281D1*
G1X418902Y204781D1*
G1X417215Y201031D2*
G1X417028Y200844D1*
G1X416840Y200469D1*
G1X416840Y199531D1*
G1X417028Y199156D1*
G1X417215Y198969D1*
G1X417590Y198781D1*
G1X417965Y198781D1*
G1X418527Y198969D1*
G1X420777Y201219D1*
G1X420777Y198781D1*
G1X418152Y195407D2*
G1X420777Y195407D1*
G1X416653Y196344D2*
G1X419465Y197282D1*
G1X419465Y194844D1*
G1X405777Y202531D2*
G1X403902Y203843D1*
G1X405777Y204781D2*
G1X401840Y204781D1*
G1X401840Y203281D1*
G1X402028Y202906D1*
G1X402215Y202718D1*
G1X402590Y202531D1*
G1X403152Y202531D1*
G1X403527Y202718D1*
G1X403715Y202906D1*
G1X403902Y203281D1*
G1X403902Y204781D1*
G1X402215Y201031D2*
G1X402028Y200844D1*
G1X401840Y200469D1*
G1X401840Y199531D1*
G1X402028Y199156D1*
G1X402215Y198969D1*
G1X402590Y198781D1*
G1X402965Y198781D1*
G1X403527Y198969D1*
G1X405777Y201219D1*
G1X405777Y198781D1*
G1X401840Y195219D2*
G1X401840Y197094D1*
G1X403715Y197282D1*
G1X403527Y197094D1*
G1X403340Y196719D1*
G1X403340Y195782D1*
G1X403527Y195407D1*
G1X403715Y195219D1*
G1X404090Y195032D1*
G1X405027Y195032D1*
G1X405402Y195219D1*
G1X405590Y195407D1*
G1X405777Y195782D1*
G1X405777Y196719D1*
G1X405590Y197094D1*
G1X405402Y197282D1*
G1X242053Y285031D2*
G1X240178Y286343D1*
G1X242053Y287281D2*
G1X238116Y287281D1*
G1X238116Y285781D1*
G1X238303Y285406D1*
G1X238491Y285218D1*
G1X238866Y285031D1*
G1X239428Y285031D1*
G1X239803Y285218D1*
G1X239990Y285406D1*
G1X240178Y285781D1*
G1X240178Y287281D1*
G1X239428Y281656D2*
G1X242053Y281656D1*
G1X237928Y282594D2*
G1X240740Y283531D1*
G1X240740Y281094D1*
G1X238116Y277719D2*
G1X238116Y279594D1*
G1X239990Y279782D1*
G1X239803Y279594D1*
G1X239615Y279219D1*
G1X239615Y278282D1*
G1X239803Y277907D1*
G1X239990Y277719D1*
G1X240365Y277532D1*
G1X241303Y277532D1*
G1X241678Y277719D1*
G1X241865Y277907D1*
G1X242053Y278282D1*
G1X242053Y279219D1*
G1X241865Y279594D1*
G1X241678Y279782D1*
G1X256781Y285031D2*
G1X254906Y286343D1*
G1X256781Y287281D2*
G1X252844Y287281D1*
G1X252844Y285781D1*
G1X253031Y285406D1*
G1X253219Y285218D1*
G1X253594Y285031D1*
G1X254156Y285031D1*
G1X254531Y285218D1*
G1X254719Y285406D1*
G1X254906Y285781D1*
G1X254906Y287281D1*
G1X254156Y281656D2*
G1X256781Y281656D1*
G1X252657Y282594D2*
G1X255469Y283531D1*
G1X255469Y281094D1*
G1X254156Y277907D2*
G1X256781Y277907D1*
G1X252657Y278844D2*
G1X255469Y279782D1*
G1X255469Y277344D1*
G1X11594Y388280D2*
G1X11781Y387717D1*
G1X11781Y386780D1*
G1X11594Y386405D1*
G1X11406Y386217D1*
G1X11031Y386030D1*
G1X10656Y386030D1*
G1X10281Y386217D1*
G1X10094Y386405D1*
G1X9906Y386780D1*
G1X9719Y387530D1*
G1X9531Y387905D1*
G1X9344Y388092D1*
G1X8969Y388280D1*
G1X8594Y388280D1*
G1X8219Y388092D1*
G1X8031Y387905D1*
G1X7844Y387530D1*
G1X7844Y386592D1*
G1X8031Y386030D1*
G1X9719Y384343D2*
G1X9719Y383030D1*
G1X11781Y382468D2*
G1X11781Y384343D1*
G1X7844Y384343D1*
G1X7844Y382468D1*
G1X8031Y378718D2*
G1X7844Y379093D1*
G1X7844Y379656D1*
G1X8031Y380218D1*
G1X8406Y380593D1*
G1X8781Y380780D1*
G1X9531Y380968D1*
G1X10094Y380968D1*
G1X10844Y380780D1*
G1X11219Y380593D1*
G1X11594Y380218D1*
G1X11781Y379656D1*
G1X11781Y379281D1*
G1X11594Y378718D1*
G1X11406Y378531D1*
G1X10094Y378531D1*
G1X10094Y379281D1*
G1X11781Y374781D2*
G1X11781Y377031D1*
G1X11781Y375906D2*
G1X7844Y375906D1*
G1X8406Y376281D1*
G1X8781Y376656D1*
G1X8969Y377031D1*
G1X12156Y374031D2*
G1X12156Y371032D1*
G1X11781Y367845D2*
G1X9906Y369157D1*
G1X11781Y370094D2*
G1X7844Y370094D1*
G1X7844Y368594D1*
G1X8031Y368220D1*
G1X8219Y368032D1*
G1X8594Y367845D1*
G1X9156Y367845D1*
G1X9531Y368032D1*
G1X9719Y368220D1*
G1X9906Y368594D1*
G1X9906Y370094D1*
G1X7844Y366720D2*
G1X7844Y364470D1*
G1X11781Y365595D2*
G1X7844Y365595D1*
G1X11781Y363158D2*
G1X7844Y363158D1*
G1X11781Y360908D1*
G1X7844Y360908D1*
G1X275874Y254656D2*
G1X275874Y251469D1*
G1X275687Y251094D1*
G1X275499Y250906D1*
G1X275124Y250719D1*
G1X274375Y250719D1*
G1X274000Y250906D1*
G1X273812Y251094D1*
G1X273625Y251469D1*
G1X273625Y254656D1*
G1X271937Y254281D2*
G1X271750Y254469D1*
G1X271375Y254656D1*
G1X270438Y254656D1*
G1X270063Y254469D1*
G1X269875Y254281D1*
G1X269688Y253906D1*
G1X269688Y253531D1*
G1X269875Y252969D1*
G1X272125Y250719D1*
G1X269688Y250719D1*
G1X265938Y250719D2*
G1X268188Y250719D1*
G1X267063Y250719D2*
G1X267063Y254656D1*
G1X267438Y254094D1*
G1X267813Y253719D1*
G1X268188Y253531D1*
G1X471594Y364780D2*
G1X471781Y364217D1*
G1X471781Y363280D1*
G1X471594Y362905D1*
G1X471406Y362717D1*
G1X471031Y362530D1*
G1X470656Y362530D1*
G1X470281Y362717D1*
G1X470094Y362905D1*
G1X469906Y363280D1*
G1X469719Y364030D1*
G1X469531Y364405D1*
G1X469344Y364592D1*
G1X468969Y364780D1*
G1X468594Y364780D1*
G1X468219Y364592D1*
G1X468031Y364405D1*
G1X467844Y364030D1*
G1X467844Y363092D1*
G1X468031Y362530D1*
G1X469719Y360843D2*
G1X469719Y359530D1*
G1X471781Y358968D2*
G1X471781Y360843D1*
G1X467844Y360843D1*
G1X467844Y358968D1*
G1X468031Y355218D2*
G1X467844Y355593D1*
G1X467844Y356156D1*
G1X468031Y356718D1*
G1X468406Y357093D1*
G1X468781Y357280D1*
G1X469531Y357468D1*
G1X470094Y357468D1*
G1X470844Y357280D1*
G1X471219Y357093D1*
G1X471594Y356718D1*
G1X471781Y356156D1*
G1X471781Y355781D1*
G1X471594Y355218D1*
G1X471406Y355031D1*
G1X470094Y355031D1*
G1X470094Y355781D1*
G1X468219Y353531D2*
G1X468031Y353343D1*
G1X467844Y352969D1*
G1X467844Y352031D1*
G1X468031Y351656D1*
G1X468219Y351469D1*
G1X468594Y351281D1*
G1X468969Y351281D1*
G1X469531Y351469D1*
G1X471781Y353718D1*
G1X471781Y351281D1*
G1X472156Y350531D2*
G1X472156Y347532D1*
G1X471781Y344345D2*
G1X469906Y345657D1*
G1X471781Y346594D2*
G1X467844Y346594D1*
G1X467844Y345094D1*
G1X468031Y344720D1*
G1X468219Y344532D1*
G1X468594Y344345D1*
G1X469156Y344345D1*
G1X469531Y344532D1*
G1X469719Y344720D1*
G1X469906Y345094D1*
G1X469906Y346594D1*
G1X467844Y343220D2*
G1X467844Y340970D1*
G1X471781Y342095D2*
G1X467844Y342095D1*
G1X471781Y339658D2*
G1X467844Y339658D1*
G1X471781Y337408D1*
G1X467844Y337408D1*
G1X226781Y285031D2*
G1X224906Y286343D1*
G1X226781Y287281D2*
G1X222844Y287281D1*
G1X222844Y285781D1*
G1X223031Y285406D1*
G1X223219Y285218D1*
G1X223594Y285031D1*
G1X224156Y285031D1*
G1X224531Y285218D1*
G1X224719Y285406D1*
G1X224906Y285781D1*
G1X224906Y287281D1*
G1X222844Y283719D2*
G1X222844Y281281D1*
G1X224344Y282594D1*
G1X224344Y282031D1*
G1X224531Y281656D1*
G1X224719Y281469D1*
G1X225094Y281281D1*
G1X226031Y281281D1*
G1X226406Y281469D1*
G1X226594Y281656D1*
G1X226781Y282031D1*
G1X226781Y283156D1*
G1X226594Y283531D1*
G1X226406Y283719D1*
G1X224156Y277907D2*
G1X226781Y277907D1*
G1X222657Y278844D2*
G1X225469Y279782D1*
G1X225469Y277344D1*
G1X519094Y342311D2*
G1X519281Y341749D1*
G1X519281Y340811D1*
G1X519094Y340436D1*
G1X518906Y340249D1*
G1X518531Y340061D1*
G1X518156Y340061D1*
G1X517781Y340249D1*
G1X517594Y340436D1*
G1X517406Y340811D1*
G1X517219Y341561D1*
G1X517031Y341936D1*
G1X516844Y342124D1*
G1X516469Y342311D1*
G1X516094Y342311D1*
G1X515719Y342124D1*
G1X515531Y341936D1*
G1X515344Y341561D1*
G1X515344Y340624D1*
G1X515531Y340061D1*
G1X517219Y338374D2*
G1X517219Y337062D1*
G1X519281Y336499D2*
G1X519281Y338374D1*
G1X515344Y338374D1*
G1X515344Y336499D1*
G1X515531Y332750D2*
G1X515344Y333125D1*
G1X515344Y333687D1*
G1X515531Y334250D1*
G1X515906Y334624D1*
G1X516281Y334812D1*
G1X517031Y334999D1*
G1X517594Y334999D1*
G1X518344Y334812D1*
G1X518719Y334624D1*
G1X519094Y334250D1*
G1X519281Y333687D1*
G1X519281Y333312D1*
G1X519094Y332750D1*
G1X518906Y332562D1*
G1X517594Y332562D1*
G1X517594Y333312D1*
G1X515719Y331062D2*
G1X515531Y330875D1*
G1X515344Y330500D1*
G1X515344Y329563D1*
G1X515531Y329188D1*
G1X515719Y329000D1*
G1X516094Y328813D1*
G1X516469Y328813D1*
G1X517031Y329000D1*
G1X519281Y331250D1*
G1X519281Y328813D1*
G1X519656Y328063D2*
G1X519656Y325063D1*
G1X515344Y322251D2*
G1X515344Y324126D1*
G1X517219Y324313D1*
G1X517031Y324126D1*
G1X516844Y323751D1*
G1X516844Y322813D1*
G1X517031Y322439D1*
G1X517219Y322251D1*
G1X517594Y322064D1*
G1X518531Y322064D1*
G1X518906Y322251D1*
G1X519094Y322439D1*
G1X519281Y322813D1*
G1X519281Y323751D1*
G1X519094Y324126D1*
G1X518906Y324313D1*
G1X515344Y320939D2*
G1X519281Y319626D1*
G1X515344Y318314D1*
G1X523844Y258874D2*
G1X527031Y258874D1*
G1X527406Y258687D1*
G1X527594Y258499D1*
G1X527781Y258124D1*
G1X527781Y257375D1*
G1X527594Y257000D1*
G1X527406Y256812D1*
G1X527031Y256625D1*
G1X523844Y256625D1*
G1X527781Y252688D2*
G1X527781Y254937D1*
G1X527781Y253813D2*
G1X523844Y253813D1*
G1X524406Y254187D1*
G1X524781Y254562D1*
G1X524969Y254937D1*
G1X523844Y249126D2*
G1X523844Y251000D1*
G1X525719Y251188D1*
G1X525531Y251000D1*
G1X525344Y250625D1*
G1X525344Y249688D1*
G1X525531Y249313D1*
G1X525719Y249126D1*
G1X526094Y248938D1*
G1X527031Y248938D1*
G1X527406Y249126D1*
G1X527594Y249313D1*
G1X527781Y249688D1*
G1X527781Y250625D1*
G1X527594Y251000D1*
G1X527406Y251188D1*
G1X17531Y278594D2*
G1X17718Y278406D1*
G1X18281Y278219D1*
G1X18656Y278219D1*
G1X19218Y278406D1*
G1X19593Y278781D1*
G1X19781Y279156D1*
G1X19968Y279906D1*
G1X19968Y280469D1*
G1X19781Y281219D1*
G1X19593Y281594D1*
G1X19218Y281969D1*
G1X18656Y282156D1*
G1X18281Y282156D1*
G1X17718Y281969D1*
G1X17531Y281781D1*
G1X16031Y281781D2*
G1X15844Y281969D1*
G1X15469Y282156D1*
G1X14531Y282156D1*
G1X14156Y281969D1*
G1X13969Y281781D1*
G1X13781Y281406D1*
G1X13781Y281031D1*
G1X13969Y280469D1*
G1X16219Y278219D1*
G1X13781Y278219D1*
G1X11532Y280469D2*
G1X11907Y280656D1*
G1X12094Y280844D1*
G1X12282Y281219D1*
G1X12282Y281406D1*
G1X12094Y281781D1*
G1X11907Y281969D1*
G1X11532Y282156D1*
G1X10782Y282156D1*
G1X10407Y281969D1*
G1X10219Y281781D1*
G1X10032Y281406D1*
G1X10032Y281219D1*
G1X10219Y280844D1*
G1X10407Y280656D1*
G1X10782Y280469D1*
G1X11532Y280469D1*
G1X11907Y280281D1*
G1X12094Y280094D1*
G1X12282Y279719D1*
G1X12282Y278969D1*
G1X12094Y278594D1*
G1X11907Y278406D1*
G1X11532Y278219D1*
G1X10782Y278219D1*
G1X10407Y278406D1*
G1X10219Y278594D1*
G1X10032Y278969D1*
G1X10032Y279719D1*
G1X10219Y280094D1*
G1X10407Y280281D1*
G1X10782Y280469D1*
G1X56844Y258374D2*
G1X60031Y258374D1*
G1X60406Y258187D1*
G1X60594Y257999D1*
G1X60781Y257624D1*
G1X60781Y256875D1*
G1X60594Y256500D1*
G1X60406Y256312D1*
G1X60031Y256125D1*
G1X56844Y256125D1*
G1X60781Y252188D2*
G1X60781Y254437D1*
G1X60781Y253313D2*
G1X56844Y253313D1*
G1X57406Y253687D1*
G1X57781Y254062D1*
G1X57969Y254437D1*
G1X58156Y248813D2*
G1X60781Y248813D1*
G1X56657Y249750D2*
G1X59469Y250688D1*
G1X59469Y248251D1*
G1X485031Y278594D2*
G1X485218Y278406D1*
G1X485781Y278219D1*
G1X486156Y278219D1*
G1X486718Y278406D1*
G1X487093Y278781D1*
G1X487281Y279156D1*
G1X487468Y279906D1*
G1X487468Y280469D1*
G1X487281Y281219D1*
G1X487093Y281594D1*
G1X486718Y281969D1*
G1X486156Y282156D1*
G1X485781Y282156D1*
G1X485218Y281969D1*
G1X485031Y281781D1*
G1X483531Y281781D2*
G1X483344Y281969D1*
G1X482969Y282156D1*
G1X482031Y282156D1*
G1X481656Y281969D1*
G1X481469Y281781D1*
G1X481281Y281406D1*
G1X481281Y281031D1*
G1X481469Y280469D1*
G1X483719Y278219D1*
G1X481281Y278219D1*
G1X479407Y278219D2*
G1X478657Y278219D1*
G1X478282Y278406D1*
G1X478094Y278594D1*
G1X477719Y279156D1*
G1X477532Y279906D1*
G1X477532Y281406D1*
G1X477719Y281781D1*
G1X477907Y281969D1*
G1X478282Y282156D1*
G1X479032Y282156D1*
G1X479407Y281969D1*
G1X479594Y281781D1*
G1X479782Y281406D1*
G1X479782Y280469D1*
G1X479594Y280094D1*
G1X479407Y279906D1*
G1X479032Y279719D1*
G1X478282Y279719D1*
G1X477907Y279906D1*
G1X477719Y280094D1*
G1X477532Y280469D1*
G1X403094Y263750D2*
G1X406281Y263750D1*
G1X406656Y263562D1*
G1X406844Y263375D1*
G1X407031Y263000D1*
G1X407031Y262250D1*
G1X406844Y261875D1*
G1X406656Y261687D1*
G1X406281Y261500D1*
G1X403094Y261500D1*
G1X404781Y259063D2*
G1X404594Y259438D1*
G1X404406Y259625D1*
G1X404031Y259813D1*
G1X403844Y259813D1*
G1X403469Y259625D1*
G1X403281Y259438D1*
G1X403094Y259063D1*
G1X403094Y258313D1*
G1X403281Y257938D1*
G1X403469Y257750D1*
G1X403844Y257563D1*
G1X404031Y257563D1*
G1X404406Y257750D1*
G1X404594Y257938D1*
G1X404781Y258313D1*
G1X404781Y259063D1*
G1X404969Y259438D1*
G1X405156Y259625D1*
G1X405531Y259813D1*
G1X406281Y259813D1*
G1X406656Y259625D1*
G1X406844Y259438D1*
G1X407031Y259063D1*
G1X407031Y258313D1*
G1X406844Y257938D1*
G1X406656Y257750D1*
G1X406281Y257563D1*
G1X405531Y257563D1*
G1X405156Y257750D1*
G1X404969Y257938D1*
G1X404781Y258313D1*
G1X324968Y129656D2*
G1X322718Y129656D1*
G1X323843Y125719D2*
G1X323843Y129656D1*
G1X321406Y125719D2*
G1X321406Y129656D1*
G1X319906Y129656D1*
G1X319531Y129469D1*
G1X319344Y129281D1*
G1X319156Y128906D1*
G1X319156Y128344D1*
G1X319344Y127969D1*
G1X319531Y127781D1*
G1X319906Y127594D1*
G1X321406Y127594D1*
G1X317282Y125719D2*
G1X316532Y125719D1*
G1X316157Y125906D1*
G1X315969Y126094D1*
G1X315594Y126656D1*
G1X315407Y127406D1*
G1X315407Y128906D1*
G1X315594Y129281D1*
G1X315782Y129469D1*
G1X316157Y129656D1*
G1X316907Y129656D1*
G1X317282Y129469D1*
G1X317469Y129281D1*
G1X317657Y128906D1*
G1X317657Y127969D1*
G1X317469Y127594D1*
G1X317282Y127406D1*
G1X316907Y127219D1*
G1X316157Y127219D1*
G1X315782Y127406D1*
G1X315594Y127594D1*
G1X315407Y127969D1*
G1X312187Y115906D2*
G1X311624Y115719D1*
G1X310687Y115719D1*
G1X310312Y115906D1*
G1X310125Y116094D1*
G1X309937Y116469D1*
G1X309937Y116844D1*
G1X310125Y117219D1*
G1X310312Y117406D1*
G1X310687Y117594D1*
G1X311437Y117781D1*
G1X311812Y117969D1*
G1X311999Y118156D1*
G1X312187Y118531D1*
G1X312187Y118906D1*
G1X311999Y119281D1*
G1X311812Y119469D1*
G1X311437Y119656D1*
G1X310500Y119656D1*
G1X309937Y119469D1*
G1X306000Y116094D2*
G1X306188Y115906D1*
G1X306750Y115719D1*
G1X307125Y115719D1*
G1X307687Y115906D1*
G1X308062Y116281D1*
G1X308250Y116656D1*
G1X308437Y117406D1*
G1X308437Y117969D1*
G1X308250Y118719D1*
G1X308062Y119094D1*
G1X307687Y119469D1*
G1X307125Y119656D1*
G1X306750Y119656D1*
G1X306188Y119469D1*
G1X306000Y119281D1*
G1X302438Y115719D2*
G1X304313Y115719D1*
G1X304313Y119656D1*
G1X284968Y129656D2*
G1X282718Y129656D1*
G1X283843Y125719D2*
G1X283843Y129656D1*
G1X281406Y125719D2*
G1X281406Y129656D1*
G1X279906Y129656D1*
G1X279531Y129469D1*
G1X279344Y129281D1*
G1X279156Y128906D1*
G1X279156Y128344D1*
G1X279344Y127969D1*
G1X279531Y127781D1*
G1X279906Y127594D1*
G1X281406Y127594D1*
G1X276907Y127969D2*
G1X277282Y128156D1*
G1X277469Y128344D1*
G1X277657Y128719D1*
G1X277657Y128906D1*
G1X277469Y129281D1*
G1X277282Y129469D1*
G1X276907Y129656D1*
G1X276157Y129656D1*
G1X275782Y129469D1*
G1X275594Y129281D1*
G1X275407Y128906D1*
G1X275407Y128719D1*
G1X275594Y128344D1*
G1X275782Y128156D1*
G1X276157Y127969D1*
G1X276907Y127969D1*
G1X277282Y127781D1*
G1X277469Y127594D1*
G1X277657Y127219D1*
G1X277657Y126469D1*
G1X277469Y126094D1*
G1X277282Y125906D1*
G1X276907Y125719D1*
G1X276157Y125719D1*
G1X275782Y125906D1*
G1X275594Y126094D1*
G1X275407Y126469D1*
G1X275407Y127219D1*
G1X275594Y127594D1*
G1X275782Y127781D1*
G1X276157Y127969D1*
G1X297281Y115906D2*
G1X296718Y115719D1*
G1X295781Y115719D1*
G1X295406Y115906D1*
G1X295218Y116094D1*
G1X295031Y116469D1*
G1X295031Y116844D1*
G1X295218Y117219D1*
G1X295406Y117406D1*
G1X295781Y117594D1*
G1X296531Y117781D1*
G1X296906Y117969D1*
G1X297093Y118156D1*
G1X297281Y118531D1*
G1X297281Y118906D1*
G1X297093Y119281D1*
G1X296906Y119469D1*
G1X296531Y119656D1*
G1X295593Y119656D1*
G1X295031Y119469D1*
G1X293344Y115719D2*
G1X293344Y119656D1*
G1X292406Y119656D1*
G1X291844Y119469D1*
G1X291469Y119094D1*
G1X291281Y118719D1*
G1X291094Y117969D1*
G1X291094Y117406D1*
G1X291281Y116656D1*
G1X291469Y116281D1*
G1X291844Y115906D1*
G1X292406Y115719D1*
G1X293344Y115719D1*
G1X289594Y116844D2*
G1X287719Y116844D1*
G1X289969Y115719D2*
G1X288657Y119656D1*
G1X287344Y115719D1*
G1X465656Y152098D2*
G1X465844Y151910D1*
G1X466406Y151723D1*
G1X466781Y151723D1*
G1X467343Y151910D1*
G1X467718Y152285D1*
G1X467906Y152660D1*
G1X468093Y153410D1*
G1X468093Y153973D1*
G1X467906Y154723D1*
G1X467718Y155097D1*
G1X467343Y155472D1*
G1X466781Y155660D1*
G1X466406Y155660D1*
G1X465844Y155472D1*
G1X465656Y155285D1*
G1X464344Y155660D2*
G1X461719Y155660D1*
G1X463406Y151723D1*
G1X465656Y137098D2*
G1X465844Y136910D1*
G1X466406Y136723D1*
G1X466781Y136723D1*
G1X467343Y136910D1*
G1X467718Y137285D1*
G1X467906Y137660D1*
G1X468093Y138410D1*
G1X468093Y138973D1*
G1X467906Y139723D1*
G1X467718Y140097D1*
G1X467343Y140472D1*
G1X466781Y140660D1*
G1X466406Y140660D1*
G1X465844Y140472D1*
G1X465656Y140285D1*
G1X463406Y138973D2*
G1X463781Y139160D1*
G1X463969Y139348D1*
G1X464156Y139723D1*
G1X464156Y139910D1*
G1X463969Y140285D1*
G1X463781Y140472D1*
G1X463406Y140660D1*
G1X462657Y140660D1*
G1X462282Y140472D1*
G1X462094Y140285D1*
G1X461907Y139910D1*
G1X461907Y139723D1*
G1X462094Y139348D1*
G1X462282Y139160D1*
G1X462657Y138973D1*
G1X463406Y138973D1*
G1X463781Y138785D1*
G1X463969Y138598D1*
G1X464156Y138223D1*
G1X464156Y137473D1*
G1X463969Y137098D1*
G1X463781Y136910D1*
G1X463406Y136723D1*
G1X462657Y136723D1*
G1X462282Y136910D1*
G1X462094Y137098D1*
G1X461907Y137473D1*
G1X461907Y138223D1*
G1X462094Y138598D1*
G1X462282Y138785D1*
G1X462657Y138973D1*
G1X465656Y122098D2*
G1X465844Y121910D1*
G1X466406Y121723D1*
G1X466781Y121723D1*
G1X467343Y121910D1*
G1X467718Y122285D1*
G1X467906Y122660D1*
G1X468093Y123410D1*
G1X468093Y123973D1*
G1X467906Y124723D1*
G1X467718Y125097D1*
G1X467343Y125472D1*
G1X466781Y125660D1*
G1X466406Y125660D1*
G1X465844Y125472D1*
G1X465656Y125285D1*
G1X463781Y121723D2*
G1X463031Y121723D1*
G1X462657Y121910D1*
G1X462469Y122098D1*
G1X462094Y122660D1*
G1X461907Y123410D1*
G1X461907Y124910D1*
G1X462094Y125285D1*
G1X462282Y125472D1*
G1X462657Y125660D1*
G1X463406Y125660D1*
G1X463781Y125472D1*
G1X463969Y125285D1*
G1X464156Y124910D1*
G1X464156Y123973D1*
G1X463969Y123598D1*
G1X463781Y123410D1*
G1X463406Y123223D1*
G1X462657Y123223D1*
G1X462282Y123410D1*
G1X462094Y123598D1*
G1X461907Y123973D1*
G1X467531Y107098D2*
G1X467718Y106910D1*
G1X468281Y106723D1*
G1X468656Y106723D1*
G1X469218Y106910D1*
G1X469593Y107285D1*
G1X469781Y107660D1*
G1X469968Y108410D1*
G1X469968Y108973D1*
G1X469781Y109723D1*
G1X469593Y110097D1*
G1X469218Y110472D1*
G1X468656Y110660D1*
G1X468281Y110660D1*
G1X467718Y110472D1*
G1X467531Y110285D1*
G1X463781Y106723D2*
G1X466031Y106723D1*
G1X464906Y106723D2*
G1X464906Y110660D1*
G1X465281Y110097D1*
G1X465656Y109723D1*
G1X466031Y109535D1*
G1X461344Y110660D2*
G1X460969Y110660D1*
G1X460594Y110472D1*
G1X460407Y110285D1*
G1X460219Y109910D1*
G1X460032Y109160D1*
G1X460032Y108223D1*
G1X460219Y107473D1*
G1X460407Y107098D1*
G1X460594Y106910D1*
G1X460969Y106723D1*
G1X461344Y106723D1*
G1X461719Y106910D1*
G1X461907Y107098D1*
G1X462094Y107473D1*
G1X462282Y108223D1*
G1X462282Y109160D1*
G1X462094Y109910D1*
G1X461907Y110285D1*
G1X461719Y110472D1*
G1X461344Y110660D1*
G1X467531Y92098D2*
G1X467718Y91910D1*
G1X468281Y91723D1*
G1X468656Y91723D1*
G1X469218Y91910D1*
G1X469593Y92285D1*
G1X469781Y92660D1*
G1X469968Y93410D1*
G1X469968Y93973D1*
G1X469781Y94723D1*
G1X469593Y95097D1*
G1X469218Y95472D1*
G1X468656Y95660D1*
G1X468281Y95660D1*
G1X467718Y95472D1*
G1X467531Y95285D1*
G1X463781Y91723D2*
G1X466031Y91723D1*
G1X464906Y91723D2*
G1X464906Y95660D1*
G1X465281Y95097D1*
G1X465656Y94723D1*
G1X466031Y94535D1*
G1X460032Y91723D2*
G1X462282Y91723D1*
G1X461157Y91723D2*
G1X461157Y95660D1*
G1X461532Y95097D1*
G1X461907Y94723D1*
G1X462282Y94535D1*
G1X22531Y181094D2*
G1X22718Y180906D1*
G1X23281Y180719D1*
G1X23656Y180719D1*
G1X24218Y180906D1*
G1X24593Y181281D1*
G1X24781Y181656D1*
G1X24968Y182406D1*
G1X24968Y182969D1*
G1X24781Y183719D1*
G1X24593Y184094D1*
G1X24218Y184469D1*
G1X23656Y184656D1*
G1X23281Y184656D1*
G1X22718Y184469D1*
G1X22531Y184281D1*
G1X18781Y180719D2*
G1X21031Y180719D1*
G1X19906Y180719D2*
G1X19906Y184656D1*
G1X20281Y184094D1*
G1X20656Y183719D1*
G1X21031Y183531D1*
G1X16532Y182969D2*
G1X16907Y183156D1*
G1X17094Y183344D1*
G1X17282Y183719D1*
G1X17282Y183906D1*
G1X17094Y184281D1*
G1X16907Y184469D1*
G1X16532Y184656D1*
G1X15782Y184656D1*
G1X15407Y184469D1*
G1X15219Y184281D1*
G1X15032Y183906D1*
G1X15032Y183719D1*
G1X15219Y183344D1*
G1X15407Y183156D1*
G1X15782Y182969D1*
G1X16532Y182969D1*
G1X16907Y182781D1*
G1X17094Y182594D1*
G1X17282Y182219D1*
G1X17282Y181469D1*
G1X17094Y181094D1*
G1X16907Y180906D1*
G1X16532Y180719D1*
G1X15782Y180719D1*
G1X15407Y180906D1*
G1X15219Y181094D1*
G1X15032Y181469D1*
G1X15032Y182219D1*
G1X15219Y182594D1*
G1X15407Y182781D1*
G1X15782Y182969D1*
G1X42531Y181094D2*
G1X42718Y180906D1*
G1X43281Y180719D1*
G1X43656Y180719D1*
G1X44218Y180906D1*
G1X44593Y181281D1*
G1X44781Y181656D1*
G1X44968Y182406D1*
G1X44968Y182969D1*
G1X44781Y183719D1*
G1X44593Y184094D1*
G1X44218Y184469D1*
G1X43656Y184656D1*
G1X43281Y184656D1*
G1X42718Y184469D1*
G1X42531Y184281D1*
G1X38781Y180719D2*
G1X41031Y180719D1*
G1X39906Y180719D2*
G1X39906Y184656D1*
G1X40281Y184094D1*
G1X40656Y183719D1*
G1X41031Y183531D1*
G1X36907Y180719D2*
G1X36157Y180719D1*
G1X35782Y180906D1*
G1X35594Y181094D1*
G1X35219Y181656D1*
G1X35032Y182406D1*
G1X35032Y183906D1*
G1X35219Y184281D1*
G1X35407Y184469D1*
G1X35782Y184656D1*
G1X36532Y184656D1*
G1X36907Y184469D1*
G1X37094Y184281D1*
G1X37282Y183906D1*
G1X37282Y182969D1*
G1X37094Y182594D1*
G1X36907Y182406D1*
G1X36532Y182219D1*
G1X35782Y182219D1*
G1X35407Y182406D1*
G1X35219Y182594D1*
G1X35032Y182969D1*
G1X390406Y50719D2*
G1X390406Y54656D1*
G1X389469Y54656D1*
G1X388906Y54469D1*
G1X388531Y54094D1*
G1X388344Y53719D1*
G1X388156Y52969D1*
G1X388156Y52406D1*
G1X388344Y51656D1*
G1X388531Y51281D1*
G1X388906Y50906D1*
G1X389469Y50719D1*
G1X390406Y50719D1*
G1X384407Y50719D2*
G1X386656Y50719D1*
G1X385531Y50719D2*
G1X385531Y54656D1*
G1X385906Y54094D1*
G1X386281Y53719D1*
G1X386656Y53531D1*
G1X125563Y193376D2*
G1X125563Y197313D1*
G1X124626Y197313D1*
G1X124064Y197126D1*
G1X123689Y196751D1*
G1X123501Y196376D1*
G1X123314Y195626D1*
G1X123314Y195064D1*
G1X123501Y194314D1*
G1X123689Y193939D1*
G1X124064Y193564D1*
G1X124626Y193376D1*
G1X125563Y193376D1*
G1X119939Y196001D2*
G1X119939Y193376D1*
G1X120876Y197501D2*
G1X121814Y194689D1*
G1X119377Y194689D1*
G1X287531Y168219D2*
G1X288843Y170094D1*
G1X289781Y168219D2*
G1X289781Y172156D1*
G1X288281Y172156D1*
G1X287906Y171969D1*
G1X287718Y171781D1*
G1X287531Y171406D1*
G1X287531Y170844D1*
G1X287718Y170469D1*
G1X287906Y170281D1*
G1X288281Y170094D1*
G1X289781Y170094D1*
G1X286031Y171781D2*
G1X285844Y171969D1*
G1X285469Y172156D1*
G1X284531Y172156D1*
G1X284156Y171969D1*
G1X283969Y171781D1*
G1X283781Y171406D1*
G1X283781Y171031D1*
G1X283969Y170469D1*
G1X286219Y168219D1*
G1X283781Y168219D1*
G1X282469Y172156D2*
G1X280032Y172156D1*
G1X281344Y170656D1*
G1X280782Y170656D1*
G1X280407Y170469D1*
G1X280219Y170281D1*
G1X280032Y169906D1*
G1X280032Y168969D1*
G1X280219Y168594D1*
G1X280407Y168406D1*
G1X280782Y168219D1*
G1X281907Y168219D1*
G1X282282Y168406D1*
G1X282469Y168594D1*
G1X317531Y168219D2*
G1X318843Y170094D1*
G1X319781Y168219D2*
G1X319781Y172156D1*
G1X318281Y172156D1*
G1X317906Y171969D1*
G1X317718Y171781D1*
G1X317531Y171406D1*
G1X317531Y170844D1*
G1X317718Y170469D1*
G1X317906Y170281D1*
G1X318281Y170094D1*
G1X319781Y170094D1*
G1X316031Y171781D2*
G1X315844Y171969D1*
G1X315469Y172156D1*
G1X314531Y172156D1*
G1X314156Y171969D1*
G1X313969Y171781D1*
G1X313781Y171406D1*
G1X313781Y171031D1*
G1X313969Y170469D1*
G1X316219Y168219D1*
G1X313781Y168219D1*
G1X312469Y172156D2*
G1X309844Y172156D1*
G1X311532Y168219D1*
G1X422875Y30344D2*
G1X423250Y30531D1*
G1X423625Y30906D1*
G1X424187Y31469D1*
G1X424562Y31656D1*
G1X424937Y31656D1*
G1X424750Y30719D2*
G1X425125Y30906D1*
G1X425500Y31281D1*
G1X425687Y32031D1*
G1X425687Y33344D1*
G1X425500Y34094D1*
G1X425125Y34469D1*
G1X424750Y34656D1*
G1X424000Y34656D1*
G1X423625Y34469D1*
G1X423250Y34094D1*
G1X423062Y33344D1*
G1X423062Y32031D1*
G1X423250Y31281D1*
G1X423625Y30906D1*
G1X424000Y30719D1*
G1X424750Y30719D1*
G1X419313Y30719D2*
G1X421563Y30719D1*
G1X420438Y30719D2*
G1X420438Y34656D1*
G1X420813Y34094D1*
G1X421188Y33719D1*
G1X421563Y33531D1*
G1X307528Y841469D2*
G1X307903Y841656D1*
G1X308466Y841656D1*
G1X309028Y841469D1*
G1X309403Y841094D1*
G1X309591Y840719D1*
G1X309778Y839969D1*
G1X309778Y839406D1*
G1X309591Y838656D1*
G1X309403Y838281D1*
G1X309028Y837906D1*
G1X308466Y837719D1*
G1X308091Y837719D1*
G1X307528Y837906D1*
G1X307341Y838094D1*
G1X307341Y839406D1*
G1X308091Y839406D1*
G1X305654Y837719D2*
G1X305654Y840344D1*
G1X305654Y841656D2*
G1X305841Y841469D1*
G1X305654Y841281D1*
G1X305466Y841469D1*
G1X305654Y841656D1*
G1X305654Y841281D1*
G1X304341Y840344D2*
G1X302841Y840344D1*
G1X303779Y841656D2*
G1X303779Y838281D1*
G1X303591Y837906D1*
G1X303216Y837719D1*
G1X302841Y837719D1*
G1X301529Y837719D2*
G1X301529Y841656D1*
G1X301529Y839781D2*
G1X299279Y839781D1*
G1X299279Y837719D2*
G1X299279Y841656D1*
G1X295717Y840344D2*
G1X295717Y837719D1*
G1X297405Y840344D2*
G1X297405Y838281D1*
G1X297217Y837906D1*
G1X296842Y837719D1*
G1X296280Y837719D1*
G1X295905Y837906D1*
G1X295717Y838094D1*
G1X293843Y837719D2*
G1X293843Y841656D1*
G1X293843Y840156D2*
G1X293468Y840344D1*
G1X292718Y840344D1*
G1X292343Y840156D1*
G1X292155Y839969D1*
G1X291968Y839594D1*
G1X291968Y838469D1*
G1X292155Y838094D1*
G1X292343Y837906D1*
G1X292718Y837719D1*
G1X293468Y837719D1*
G1X293843Y837906D1*
G1X285031Y837719D2*
G1X286343Y839594D1*
G1X287281Y837719D2*
G1X287281Y841656D1*
G1X285781Y841656D1*
G1X285406Y841469D1*
G1X285219Y841281D1*
G1X285031Y840906D1*
G1X285031Y840344D1*
G1X285219Y839969D1*
G1X285406Y839781D1*
G1X285781Y839594D1*
G1X287281Y839594D1*
G1X281844Y837906D2*
G1X282219Y837719D1*
G1X282969Y837719D1*
G1X283344Y837906D1*
G1X283531Y838281D1*
G1X283531Y839781D1*
G1X283344Y840156D1*
G1X282969Y840344D1*
G1X282219Y840344D1*
G1X281844Y840156D1*
G1X281657Y839781D1*
G1X281657Y839406D1*
G1X283531Y839031D1*
G1X279969Y840344D2*
G1X279969Y836407D1*
G1X279969Y840156D2*
G1X279594Y840344D1*
G1X278844Y840344D1*
G1X278469Y840156D1*
G1X278282Y839969D1*
G1X278094Y839594D1*
G1X278094Y838469D1*
G1X278282Y838094D1*
G1X278469Y837906D1*
G1X278844Y837719D1*
G1X279594Y837719D1*
G1X279969Y837906D1*
G1X275845Y837719D2*
G1X276220Y837906D1*
G1X276407Y838094D1*
G1X276595Y838469D1*
G1X276595Y839594D1*
G1X276407Y839969D1*
G1X276220Y840156D1*
G1X275845Y840344D1*
G1X275282Y840344D1*
G1X274907Y840156D1*
G1X274720Y839969D1*
G1X274532Y839594D1*
G1X274532Y838469D1*
G1X274720Y838094D1*
G1X274907Y837906D1*
G1X275282Y837719D1*
G1X275845Y837719D1*
G1X273033Y837906D2*
G1X272658Y837719D1*
G1X271908Y837719D1*
G1X271533Y837906D1*
G1X271345Y838281D1*
G1X271345Y838469D1*
G1X271533Y838844D1*
G1X271908Y839031D1*
G1X272470Y839031D1*
G1X272845Y839219D1*
G1X273033Y839594D1*
G1X273033Y839781D1*
G1X272845Y840156D1*
G1X272470Y840344D1*
G1X271908Y840344D1*
G1X271533Y840156D1*
G1X269658Y837719D2*
G1X269658Y840344D1*
G1X269658Y841656D2*
G1X269846Y841469D1*
G1X269658Y841281D1*
G1X269471Y841469D1*
G1X269658Y841656D1*
G1X269658Y841281D1*
G1X268346Y840344D2*
G1X266846Y840344D1*
G1X267783Y841656D2*
G1X267783Y838281D1*
G1X267596Y837906D1*
G1X267221Y837719D1*
G1X266846Y837719D1*
G1X264971Y837719D2*
G1X265346Y837906D1*
G1X265534Y838094D1*
G1X265721Y838469D1*
G1X265721Y839594D1*
G1X265534Y839969D1*
G1X265346Y840156D1*
G1X264971Y840344D1*
G1X264409Y840344D1*
G1X264034Y840156D1*
G1X263846Y839969D1*
G1X263659Y839594D1*
G1X263659Y838469D1*
G1X263846Y838094D1*
G1X264034Y837906D1*
G1X264409Y837719D1*
G1X264971Y837719D1*
G1X261971Y837719D2*
G1X261971Y840344D1*
G1X261971Y839594D2*
G1X261784Y839969D1*
G1X261597Y840156D1*
G1X261222Y840344D1*
G1X260847Y840344D1*
G1X259909Y840344D2*
G1X258972Y837719D1*
G1X258034Y840344D2*
G1X258972Y837719D1*
G1X259347Y836782D1*
G1X259534Y836594D1*
G1X259909Y836407D1*
G54D40*
G36*
G1X311000Y762000D2*
G1X311000Y753000D1*
G1X320000Y753000D1*
G1X320000Y762000D1*
G1X311000Y762000D1*
G37*
G1X320000Y762000D2*
G1X311000Y762000D1*
G1X311000Y753000D1*
G1X320000Y753000D1*
G1X320000Y762000D1*
G36*
G1X245000Y762000D2*
G1X245000Y753000D1*
G1X254000Y753000D1*
G1X254000Y762000D1*
G1X245000Y762000D1*
G37*
G1X254000Y762000D2*
G1X245000Y762000D1*
G1X245000Y753000D1*
G1X254000Y753000D1*
G1X254000Y762000D1*
G36*
G1X305000Y814500D2*
G1X305124Y813438D1*
G1X305708Y813046D1*
G1X306500Y813000D1*
G1X307562Y813124D1*
G1X307954Y813708D1*
G1X308000Y814500D1*
G1X307876Y815562D1*
G1X307292Y815954D1*
G1X306500Y816000D1*
G1X305438Y815876D1*
G1X305046Y815292D1*
G1X305000Y814500D1*
G37*
G1X307562Y813124D2*
G1X307954Y813708D1*
G1X308000Y814500D1*
G1X307876Y815562D1*
G1X307292Y815954D1*
G1X306500Y816000D1*
G1X305438Y815876D1*
G1X305046Y815292D1*
G1X305000Y814500D1*
G1X305124Y813438D1*
G1X305708Y813046D1*
G1X306500Y813000D1*
G1X307562Y813124D1*
G36*
G1X287000Y766500D2*
G1X287124Y765438D1*
G1X287708Y765046D1*
G1X288500Y765000D1*
G1X290000Y765000D1*
G1X290000Y759000D1*
G1X293000Y759000D1*
G1X293000Y765000D1*
G1X291500Y765000D1*
G1X290438Y765124D1*
G1X290046Y765708D1*
G1X290000Y766500D1*
G1X289876Y767562D1*
G1X289292Y767954D1*
G1X288500Y768000D1*
G1X287438Y767876D1*
G1X287046Y767292D1*
G1X287000Y766500D1*
G37*
G1X293000Y765000D2*
G1X291500Y765000D1*
G1X290438Y765124D1*
G1X290046Y765708D1*
G1X290000Y766500D1*
G1X289876Y767562D1*
G1X289292Y767954D1*
G1X288500Y768000D1*
G1X287438Y767876D1*
G1X287046Y767292D1*
G1X287000Y766500D1*
G1X287124Y765438D1*
G1X287708Y765046D1*
G1X288500Y765000D1*
G1X290000Y765000D1*
G1X290000Y759000D1*
G1X293000Y759000D1*
G1X293000Y765000D1*
G36*
G1X266000Y778500D2*
G1X266124Y777438D1*
G1X266708Y777046D1*
G1X267500Y777000D1*
G1X268562Y777124D1*
G1X268954Y777708D1*
G1X269000Y778500D1*
G1X268876Y779562D1*
G1X268292Y779954D1*
G1X267500Y780000D1*
G1X266438Y779876D1*
G1X266046Y779292D1*
G1X266000Y778500D1*
G37*
G1X268562Y777124D2*
G1X268954Y777708D1*
G1X269000Y778500D1*
G1X268876Y779562D1*
G1X268292Y779954D1*
G1X267500Y780000D1*
G1X266438Y779876D1*
G1X266046Y779292D1*
G1X266000Y778500D1*
G1X266124Y777438D1*
G1X266708Y777046D1*
G1X267500Y777000D1*
G1X268562Y777124D1*
G36*
G1X257000Y778500D2*
G1X257000Y777000D1*
G1X263000Y777000D1*
G1X263000Y783000D1*
G1X261500Y783000D1*
G1X260438Y782876D1*
G1X260046Y782292D1*
G1X260000Y781500D1*
G1X259876Y780438D1*
G1X259292Y780046D1*
G1X258500Y780000D1*
G1X257438Y779876D1*
G1X257046Y779292D1*
G1X257000Y778500D1*
G37*
G1X263000Y783000D2*
G1X261500Y783000D1*
G1X260438Y782876D1*
G1X260046Y782292D1*
G1X260000Y781500D1*
G1X259876Y780438D1*
G1X259292Y780046D1*
G1X258500Y780000D1*
G1X257438Y779876D1*
G1X257046Y779292D1*
G1X257000Y778500D1*
G1X257000Y777000D1*
G1X263000Y777000D1*
G1X263000Y783000D1*
G36*
G1X257000Y796500D2*
G1X257124Y795438D1*
G1X257708Y795046D1*
G1X258500Y795000D1*
G1X259562Y795124D1*
G1X259954Y795708D1*
G1X260000Y796500D1*
G1X259876Y797562D1*
G1X259292Y797954D1*
G1X258500Y798000D1*
G1X257438Y797876D1*
G1X257046Y797292D1*
G1X257000Y796500D1*
G37*
G1X259562Y795124D2*
G1X259954Y795708D1*
G1X260000Y796500D1*
G1X259876Y797562D1*
G1X259292Y797954D1*
G1X258500Y798000D1*
G1X257438Y797876D1*
G1X257046Y797292D1*
G1X257000Y796500D1*
G1X257124Y795438D1*
G1X257708Y795046D1*
G1X258500Y795000D1*
G1X259562Y795124D1*
G36*
G1X254000Y792000D2*
G1X254000Y789000D1*
G1X263000Y789000D1*
G1X263000Y786000D1*
G1X269000Y786000D1*
G1X269000Y792000D1*
G1X267500Y792000D1*
G1X266438Y791876D1*
G1X266046Y791292D1*
G1X266000Y790500D1*
G1X265876Y789438D1*
G1X265292Y789046D1*
G1X264500Y789000D1*
G1X263438Y789124D1*
G1X263046Y789708D1*
G1X263000Y790500D1*
G1X263124Y791562D1*
G1X263708Y791954D1*
G1X264500Y792000D1*
G1X254000Y792000D1*
G37*
G36*
G1X272000Y781500D2*
G1X272124Y780438D1*
G1X272708Y780046D1*
G1X273500Y780000D1*
G1X274562Y780124D1*
G1X274954Y780708D1*
G1X275000Y781500D1*
G1X275124Y782562D1*
G1X275708Y782954D1*
G1X276500Y783000D1*
G1X277562Y782876D1*
G1X277954Y782292D1*
G1X278000Y781500D1*
G1X278124Y780438D1*
G1X278708Y780046D1*
G1X279500Y780000D1*
G1X280562Y779876D1*
G1X280954Y779292D1*
G1X281000Y778500D1*
G1X281124Y777438D1*
G1X281708Y777046D1*
G1X282500Y777000D1*
G1X284000Y777000D1*
G1X284000Y783000D1*
G1X282500Y783000D1*
G1X281438Y783124D1*
G1X281046Y783708D1*
G1X281000Y784500D1*
G1X280876Y785562D1*
G1X280292Y785954D1*
G1X279500Y786000D1*
G1X278438Y786124D1*
G1X278046Y786708D1*
G1X278000Y787500D1*
G1X278124Y788562D1*
G1X278708Y788954D1*
G1X279500Y789000D1*
G1X281000Y789000D1*
G1X281000Y792000D1*
G1X272000Y792000D1*
G1X272000Y786000D1*
G1X273500Y786000D1*
G1X274562Y785876D1*
G1X274954Y785292D1*
G1X275000Y784500D1*
G1X274876Y783438D1*
G1X274292Y783046D1*
G1X273500Y783000D1*
G1X272438Y782876D1*
G1X272046Y782292D1*
G1X272000Y781500D1*
G37*
G36*
G1X263000Y793500D2*
G1X263000Y792000D1*
G1X264500Y792000D1*
G1X265562Y792124D1*
G1X265954Y792708D1*
G1X266000Y793500D1*
G1X263000Y793500D1*
G37*
G36*
G1X263000Y793500D2*
G1X266000Y793500D1*
G1X266124Y794562D1*
G1X266708Y794954D1*
G1X267500Y795000D1*
G1X268562Y794876D1*
G1X268954Y794292D1*
G1X269000Y793500D1*
G1X272000Y793500D1*
G1X272124Y794562D1*
G1X272708Y794954D1*
G1X273500Y795000D1*
G1X274562Y794876D1*
G1X274954Y794292D1*
G1X275000Y793500D1*
G1X281000Y793500D1*
G1X281000Y795000D1*
G1X275000Y795000D1*
G1X275000Y801000D1*
G1X272000Y801000D1*
G1X272000Y795000D1*
G1X269000Y795000D1*
G1X269000Y801000D1*
G1X266000Y801000D1*
G1X266000Y795000D1*
G1X264500Y795000D1*
G1X263438Y794876D1*
G1X263046Y794292D1*
G1X263000Y793500D1*
G37*
G36*
G1X268292Y792046D2*
G1X267500Y792000D1*
G1X273500Y792000D1*
G1X272438Y792124D1*
G1X272046Y792708D1*
G1X272000Y793500D1*
G1X269000Y793500D1*
G1X268876Y792438D1*
G1X268292Y792046D1*
G37*
G36*
G1X274292Y792046D2*
G1X273500Y792000D1*
G1X281000Y792000D1*
G1X281000Y793500D1*
G1X275000Y793500D1*
G1X274876Y792438D1*
G1X274292Y792046D1*
G37*
G1X275000Y795000D2*
G1X275000Y801000D1*
G1X272000Y801000D1*
G1X272000Y795000D1*
G1X269000Y795000D1*
G1X269000Y801000D1*
G1X266000Y801000D1*
G1X266000Y795000D1*
G1X264500Y795000D1*
G1X263438Y794876D1*
G1X263046Y794292D1*
G1X263000Y793500D1*
G1X263000Y792000D1*
G1X254000Y792000D1*
G1X254000Y790500D1*
G1X263000Y790500D1*
G1X263124Y791562D1*
G1X263708Y791954D1*
G1X264500Y792000D1*
G1X265562Y792124D1*
G1X265954Y792708D1*
G1X266000Y793500D1*
G1X266124Y794562D1*
G1X266708Y794954D1*
G1X267500Y795000D1*
G1X268562Y794876D1*
G1X268954Y794292D1*
G1X269000Y793500D1*
G1X272000Y793500D1*
G1X272124Y794562D1*
G1X272708Y794954D1*
G1X273500Y795000D1*
G1X274562Y794876D1*
G1X274954Y794292D1*
G1X275000Y793500D1*
G1X274876Y792438D1*
G1X274292Y792046D1*
G1X273500Y792000D1*
G1X272438Y792124D1*
G1X272046Y792708D1*
G1X272000Y793500D1*
G1X269000Y793500D1*
G1X268876Y792438D1*
G1X268292Y792046D1*
G1X267500Y792000D1*
G1X266438Y791876D1*
G1X266046Y791292D1*
G1X266000Y790500D1*
G1X265876Y789438D1*
G1X265292Y789046D1*
G1X264500Y789000D1*
G1X263438Y789124D1*
G1X263046Y789708D1*
G1X263000Y790500D1*
G1X254000Y790500D1*
G1X254000Y789000D1*
G1X263000Y789000D1*
G1X263000Y786000D1*
G1X269000Y786000D1*
G1X269000Y792000D1*
G1X272000Y792000D1*
G1X272000Y786000D1*
G1X273500Y786000D1*
G1X274562Y785876D1*
G1X274954Y785292D1*
G1X275000Y784500D1*
G1X274876Y783438D1*
G1X274292Y783046D1*
G1X273500Y783000D1*
G1X272438Y782876D1*
G1X272046Y782292D1*
G1X272000Y781500D1*
G1X272124Y780438D1*
G1X272708Y780046D1*
G1X273500Y780000D1*
G1X274562Y780124D1*
G1X274954Y780708D1*
G1X275000Y781500D1*
G1X275124Y782562D1*
G1X275708Y782954D1*
G1X276500Y783000D1*
G1X277562Y782876D1*
G1X277954Y782292D1*
G1X278000Y781500D1*
G1X278124Y780438D1*
G1X278708Y780046D1*
G1X279500Y780000D1*
G1X280562Y779876D1*
G1X280954Y779292D1*
G1X281000Y778500D1*
G1X281124Y777438D1*
G1X281708Y777046D1*
G1X282500Y777000D1*
G1X284000Y777000D1*
G1X284000Y783000D1*
G1X282500Y783000D1*
G1X281438Y783124D1*
G1X281046Y783708D1*
G1X281000Y784500D1*
G1X280876Y785562D1*
G1X280292Y785954D1*
G1X279500Y786000D1*
G1X278438Y786124D1*
G1X278046Y786708D1*
G1X278000Y787500D1*
G1X278124Y788562D1*
G1X278708Y788954D1*
G1X279500Y789000D1*
G1X281000Y789000D1*
G1X281000Y795000D1*
G1X275000Y795000D1*
G36*
G1X281000Y795000D2*
G1X282500Y795000D1*
G1X283562Y794876D1*
G1X283954Y794292D1*
G1X284000Y793500D1*
G1X284000Y792000D1*
G1X293000Y792000D1*
G1X293000Y796500D1*
G1X287000Y796500D1*
G1X286876Y795438D1*
G1X286292Y795046D1*
G1X285500Y795000D1*
G1X284438Y795124D1*
G1X284046Y795708D1*
G1X284000Y796500D1*
G1X281000Y796500D1*
G1X281000Y795000D1*
G37*
G36*
G1X281000Y796500D2*
G1X284000Y796500D1*
G1X284124Y797562D1*
G1X284708Y797954D1*
G1X285500Y798000D1*
G1X286562Y797876D1*
G1X286954Y797292D1*
G1X287000Y796500D1*
G1X293000Y796500D1*
G1X293000Y798000D1*
G1X294500Y798000D1*
G1X295562Y798124D1*
G1X295954Y798708D1*
G1X296000Y799500D1*
G1X296000Y801000D1*
G1X284000Y801000D1*
G1X284000Y799500D1*
G1X283876Y798438D1*
G1X283292Y798046D1*
G1X282500Y798000D1*
G1X281438Y797876D1*
G1X281046Y797292D1*
G1X281000Y796500D1*
G37*
G1X282500Y795000D2*
G1X283562Y794876D1*
G1X283954Y794292D1*
G1X284000Y793500D1*
G1X284000Y792000D1*
G1X293000Y792000D1*
G1X293000Y798000D1*
G1X294500Y798000D1*
G1X295562Y798124D1*
G1X295954Y798708D1*
G1X296000Y799500D1*
G1X296000Y801000D1*
G1X284000Y801000D1*
G1X284000Y799500D1*
G1X283876Y798438D1*
G1X283292Y798046D1*
G1X282500Y798000D1*
G1X281438Y797876D1*
G1X281046Y797292D1*
G1X281000Y796500D1*
G1X284000Y796500D1*
G1X284124Y797562D1*
G1X284708Y797954D1*
G1X285500Y798000D1*
G1X286562Y797876D1*
G1X286954Y797292D1*
G1X287000Y796500D1*
G1X286876Y795438D1*
G1X286292Y795046D1*
G1X285500Y795000D1*
G1X284438Y795124D1*
G1X284046Y795708D1*
G1X284000Y796500D1*
G1X281000Y796500D1*
G1X281000Y795000D1*
G1X282500Y795000D1*
G36*
G1X278000Y802500D2*
G1X278124Y801438D1*
G1X278708Y801046D1*
G1X279500Y801000D1*
G1X280562Y801124D1*
G1X280954Y801708D1*
G1X281000Y802500D1*
G1X280876Y803562D1*
G1X280292Y803954D1*
G1X279500Y804000D1*
G1X278438Y803876D1*
G1X278046Y803292D1*
G1X278000Y802500D1*
G37*
G1X280562Y801124D2*
G1X280954Y801708D1*
G1X281000Y802500D1*
G1X280876Y803562D1*
G1X280292Y803954D1*
G1X279500Y804000D1*
G1X278438Y803876D1*
G1X278046Y803292D1*
G1X278000Y802500D1*
G1X278124Y801438D1*
G1X278708Y801046D1*
G1X279500Y801000D1*
G1X280562Y801124D1*
G36*
G1X284000Y805500D2*
G1X284124Y804438D1*
G1X284708Y804046D1*
G1X285500Y804000D1*
G1X286562Y804124D1*
G1X286954Y804708D1*
G1X287000Y805500D1*
G1X287124Y806562D1*
G1X287708Y806954D1*
G1X288500Y807000D1*
G1X289562Y806876D1*
G1X289954Y806292D1*
G1X290000Y805500D1*
G1X290124Y804438D1*
G1X290708Y804046D1*
G1X291500Y804000D1*
G1X293000Y804000D1*
G1X293000Y813000D1*
G1X284000Y813000D1*
G1X284000Y811500D1*
G1X284124Y810438D1*
G1X284708Y810046D1*
G1X285500Y810000D1*
G1X286562Y809876D1*
G1X286954Y809292D1*
G1X287000Y808500D1*
G1X286876Y807438D1*
G1X286292Y807046D1*
G1X285500Y807000D1*
G1X284438Y806876D1*
G1X284046Y806292D1*
G1X284000Y805500D1*
G37*
G1X293000Y813000D2*
G1X284000Y813000D1*
G1X284000Y811500D1*
G1X284124Y810438D1*
G1X284708Y810046D1*
G1X285500Y810000D1*
G1X286562Y809876D1*
G1X286954Y809292D1*
G1X287000Y808500D1*
G1X286876Y807438D1*
G1X286292Y807046D1*
G1X285500Y807000D1*
G1X284438Y806876D1*
G1X284046Y806292D1*
G1X284000Y805500D1*
G1X284124Y804438D1*
G1X284708Y804046D1*
G1X285500Y804000D1*
G1X286562Y804124D1*
G1X286954Y804708D1*
G1X287000Y805500D1*
G1X287124Y806562D1*
G1X287708Y806954D1*
G1X288500Y807000D1*
G1X289562Y806876D1*
G1X289954Y806292D1*
G1X290000Y805500D1*
G1X290124Y804438D1*
G1X290708Y804046D1*
G1X291500Y804000D1*
G1X293000Y804000D1*
G1X293000Y813000D1*
G36*
G1X290000Y822000D2*
G1X290000Y816000D1*
G1X296000Y816000D1*
G1X296000Y822000D1*
G1X290000Y822000D1*
G37*
G1X296000Y822000D2*
G1X290000Y822000D1*
G1X290000Y816000D1*
G1X296000Y816000D1*
G1X296000Y822000D1*
G36*
G1X245000Y828000D2*
G1X245000Y819000D1*
G1X254000Y819000D1*
G1X254000Y828000D1*
G1X245000Y828000D1*
G37*
G1X254000Y828000D2*
G1X245000Y828000D1*
G1X245000Y819000D1*
G1X254000Y819000D1*
G1X254000Y828000D1*
G36*
G1X305000Y757500D2*
G1X305000Y747000D1*
G1X326000Y747000D1*
G1X326000Y757500D1*
G1X323000Y757500D1*
G1X323000Y750000D1*
G1X308000Y750000D1*
G1X308000Y757500D1*
G1X305000Y757500D1*
G37*
G36*
G1X305000Y757500D2*
G1X308000Y757500D1*
G1X308000Y765000D1*
G1X323000Y765000D1*
G1X323000Y757500D1*
G1X326000Y757500D1*
G1X326000Y768000D1*
G1X305000Y768000D1*
G1X305000Y757500D1*
G37*
G1X326000Y768000D2*
G1X305000Y768000D1*
G1X305000Y750000D1*
G1X308000Y750000D1*
G1X308000Y765000D1*
G1X323000Y765000D1*
G1X323000Y750000D1*
G1X308000Y750000D1*
G1X305000Y750000D1*
G1X305000Y747000D1*
G1X326000Y747000D1*
G1X326000Y768000D1*
G36*
G1X239000Y757500D2*
G1X239000Y747000D1*
G1X260000Y747000D1*
G1X260000Y757500D1*
G1X257000Y757500D1*
G1X257000Y750000D1*
G1X242000Y750000D1*
G1X242000Y757500D1*
G1X239000Y757500D1*
G37*
G36*
G1X239000Y757500D2*
G1X242000Y757500D1*
G1X242000Y765000D1*
G1X257000Y765000D1*
G1X257000Y757500D1*
G1X260000Y757500D1*
G1X260000Y768000D1*
G1X239000Y768000D1*
G1X239000Y757500D1*
G37*
G1X260000Y768000D2*
G1X239000Y768000D1*
G1X239000Y750000D1*
G1X242000Y750000D1*
G1X242000Y765000D1*
G1X257000Y765000D1*
G1X257000Y750000D1*
G1X242000Y750000D1*
G1X239000Y750000D1*
G1X239000Y747000D1*
G1X260000Y747000D1*
G1X260000Y768000D1*
G36*
G1X239000Y771000D2*
G1X248000Y771000D1*
G1X248000Y772500D1*
G1X248124Y773562D1*
G1X248708Y773954D1*
G1X249500Y774000D1*
G1X250562Y773876D1*
G1X250954Y773292D1*
G1X251000Y772500D1*
G1X251000Y771000D1*
G1X263000Y771000D1*
G1X263000Y765000D1*
G1X264500Y765000D1*
G1X265562Y764876D1*
G1X265954Y764292D1*
G1X266000Y763500D1*
G1X266124Y762438D1*
G1X266708Y762046D1*
G1X267500Y762000D1*
G1X268562Y761876D1*
G1X268954Y761292D1*
G1X269000Y760500D1*
G1X268876Y759438D1*
G1X268292Y759046D1*
G1X267500Y759000D1*
G1X266438Y758876D1*
G1X266046Y758292D1*
G1X266000Y757500D1*
G1X265876Y756438D1*
G1X265292Y756046D1*
G1X264500Y756000D1*
G1X263438Y755876D1*
G1X263046Y755292D1*
G1X263000Y754500D1*
G1X263000Y753000D1*
G1X269000Y753000D1*
G1X269000Y751500D1*
G1X268876Y750438D1*
G1X268292Y750046D1*
G1X267500Y750000D1*
G1X266438Y749876D1*
G1X266046Y749292D1*
G1X266000Y748500D1*
G1X266124Y747438D1*
G1X266708Y747046D1*
G1X267500Y747000D1*
G1X268562Y747124D1*
G1X268954Y747708D1*
G1X269000Y748500D1*
G1X269000Y750000D1*
G1X275000Y750000D1*
G1X275000Y748500D1*
G1X275124Y747438D1*
G1X275708Y747046D1*
G1X276500Y747000D1*
G1X278000Y747000D1*
G1X278000Y756000D1*
G1X276500Y756000D1*
G1X275438Y755876D1*
G1X275046Y755292D1*
G1X275000Y754500D1*
G1X274876Y753438D1*
G1X274292Y753046D1*
G1X273500Y753000D1*
G1X272438Y753124D1*
G1X272046Y753708D1*
G1X272000Y754500D1*
G1X272124Y755562D1*
G1X272708Y755954D1*
G1X273500Y756000D1*
G1X274562Y756124D1*
G1X274954Y756708D1*
G1X275000Y757500D1*
G1X274876Y758562D1*
G1X274292Y758954D1*
G1X273500Y759000D1*
G1X272438Y759124D1*
G1X272046Y759708D1*
G1X272000Y760500D1*
G1X271876Y761562D1*
G1X271292Y761954D1*
G1X270500Y762000D1*
G1X269438Y762124D1*
G1X269046Y762708D1*
G1X269000Y763500D1*
G1X268876Y764562D1*
G1X268292Y764954D1*
G1X267500Y765000D1*
G1X266438Y765124D1*
G1X266046Y765708D1*
G1X266000Y766500D1*
G1X266124Y767562D1*
G1X266708Y767954D1*
G1X267500Y768000D1*
G1X268562Y767876D1*
G1X268954Y767292D1*
G1X269000Y766500D1*
G1X269124Y765438D1*
G1X269708Y765046D1*
G1X270500Y765000D1*
G1X272000Y765000D1*
G1X272000Y771000D1*
G1X275000Y771000D1*
G1X275000Y777000D1*
G1X269000Y777000D1*
G1X269000Y771000D1*
G1X266000Y771000D1*
G1X266000Y777000D1*
G1X264500Y777000D1*
G1X263438Y776876D1*
G1X263046Y776292D1*
G1X263000Y775500D1*
G1X263000Y774000D1*
G1X251000Y774000D1*
G1X251000Y775500D1*
G1X250876Y776562D1*
G1X250292Y776954D1*
G1X249500Y777000D1*
G1X248438Y776876D1*
G1X248046Y776292D1*
G1X248000Y775500D1*
G1X248000Y774000D1*
G1X242000Y774000D1*
G1X242000Y780000D1*
G1X243500Y780000D1*
G1X244562Y779876D1*
G1X244954Y779292D1*
G1X245000Y778500D1*
G1X245124Y777438D1*
G1X245708Y777046D1*
G1X246500Y777000D1*
G1X247562Y777124D1*
G1X247954Y777708D1*
G1X248000Y778500D1*
G1X248000Y780000D1*
G1X257000Y780000D1*
G1X257000Y781500D1*
G1X257124Y782562D1*
G1X257708Y782954D1*
G1X258500Y783000D1*
G1X259562Y783124D1*
G1X259954Y783708D1*
G1X260000Y784500D1*
G1X260000Y786000D1*
G1X254000Y786000D1*
G1X254000Y783000D1*
G1X248000Y783000D1*
G1X248000Y784500D1*
G1X248124Y785562D1*
G1X248708Y785954D1*
G1X249500Y786000D1*
G1X251000Y786000D1*
G1X251000Y792000D1*
G1X249500Y792000D1*
G1X248438Y791876D1*
G1X248046Y791292D1*
G1X248000Y790500D1*
G1X247876Y789438D1*
G1X247292Y789046D1*
G1X246500Y789000D1*
G1X245438Y789124D1*
G1X245046Y789708D1*
G1X245000Y790500D1*
G1X245124Y791562D1*
G1X245708Y791954D1*
G1X246500Y792000D1*
G1X247562Y792124D1*
G1X247954Y792708D1*
G1X248000Y793500D1*
G1X247876Y794562D1*
G1X247292Y794954D1*
G1X246500Y795000D1*
G1X245438Y795124D1*
G1X245046Y795708D1*
G1X245000Y796500D1*
G1X245124Y797562D1*
G1X245708Y797954D1*
G1X246500Y798000D1*
G1X247562Y797876D1*
G1X247954Y797292D1*
G1X248000Y796500D1*
G1X248124Y795438D1*
G1X248708Y795046D1*
G1X249500Y795000D1*
G1X250562Y794876D1*
G1X250954Y794292D1*
G1X251000Y793500D1*
G1X251124Y792438D1*
G1X251708Y792046D1*
G1X252500Y792000D1*
G1X254000Y792000D1*
G1X254000Y798000D1*
G1X255500Y798000D1*
G1X256562Y798124D1*
G1X256954Y798708D1*
G1X257000Y799500D1*
G1X257124Y800562D1*
G1X257708Y800954D1*
G1X258500Y801000D1*
G1X259562Y801124D1*
G1X259954Y801708D1*
G1X260000Y802500D1*
G1X260124Y803562D1*
G1X260708Y803954D1*
G1X261500Y804000D1*
G1X262562Y803876D1*
G1X262954Y803292D1*
G1X263000Y802500D1*
G1X263124Y801438D1*
G1X263708Y801046D1*
G1X264500Y801000D1*
G1X265562Y801124D1*
G1X265954Y801708D1*
G1X266000Y802500D1*
G1X266000Y804000D1*
G1X275000Y804000D1*
G1X275000Y805500D1*
G1X274876Y806562D1*
G1X274292Y806954D1*
G1X273500Y807000D1*
G1X272438Y807124D1*
G1X272046Y807708D1*
G1X272000Y808500D1*
G1X271876Y809562D1*
G1X271292Y809954D1*
G1X270500Y810000D1*
G1X269438Y809876D1*
G1X269046Y809292D1*
G1X269000Y808500D1*
G1X269000Y807000D1*
G1X263000Y807000D1*
G1X263000Y810000D1*
G1X257000Y810000D1*
G1X257000Y808500D1*
G1X257124Y807438D1*
G1X257708Y807046D1*
G1X258500Y807000D1*
G1X259562Y806876D1*
G1X259954Y806292D1*
G1X260000Y805500D1*
G1X259876Y804438D1*
G1X259292Y804046D1*
G1X258500Y804000D1*
G1X257438Y803876D1*
G1X257046Y803292D1*
G1X257000Y802500D1*
G1X256876Y801438D1*
G1X256292Y801046D1*
G1X255500Y801000D1*
G1X254438Y801124D1*
G1X254046Y801708D1*
G1X254000Y802500D1*
G1X253876Y803562D1*
G1X253292Y803954D1*
G1X252500Y804000D1*
G1X251438Y804124D1*
G1X251046Y804708D1*
G1X251000Y805500D1*
G1X250876Y806562D1*
G1X250292Y806954D1*
G1X249500Y807000D1*
G1X248438Y807124D1*
G1X248046Y807708D1*
G1X248000Y808500D1*
G1X247876Y809562D1*
G1X247292Y809954D1*
G1X246500Y810000D1*
G1X245438Y809876D1*
G1X245046Y809292D1*
G1X245000Y808500D1*
G1X244876Y807438D1*
G1X244292Y807046D1*
G1X243500Y807000D1*
G1X242438Y807124D1*
G1X242046Y807708D1*
G1X242000Y808500D1*
G1X241876Y809562D1*
G1X241292Y809954D1*
G1X240500Y810000D1*
G1X239438Y809876D1*
G1X239046Y809292D1*
G1X239000Y808500D1*
G1X239124Y807438D1*
G1X239708Y807046D1*
G1X240500Y807000D1*
G1X241562Y806876D1*
G1X241954Y806292D1*
G1X242000Y805500D1*
G1X241876Y804438D1*
G1X241292Y804046D1*
G1X240500Y804000D1*
G1X239438Y803876D1*
G1X239046Y803292D1*
G1X239000Y802500D1*
G1X239124Y801438D1*
G1X239708Y801046D1*
G1X240500Y801000D1*
G1X241562Y801124D1*
G1X241954Y801708D1*
G1X242000Y802500D1*
G1X242124Y803562D1*
G1X242708Y803954D1*
G1X243500Y804000D1*
G1X244562Y804124D1*
G1X244954Y804708D1*
G1X245000Y805500D1*
G1X245124Y806562D1*
G1X245708Y806954D1*
G1X246500Y807000D1*
G1X247562Y806876D1*
G1X247954Y806292D1*
G1X248000Y805500D1*
G1X248124Y804438D1*
G1X248708Y804046D1*
G1X249500Y804000D1*
G1X250562Y803876D1*
G1X250954Y803292D1*
G1X251000Y802500D1*
G1X251000Y801000D1*
G1X245000Y801000D1*
G1X245000Y798000D1*
G1X239000Y798000D1*
G1X239000Y796500D1*
G1X239124Y795438D1*
G1X239708Y795046D1*
G1X240500Y795000D1*
G1X241562Y794876D1*
G1X241954Y794292D1*
G1X242000Y793500D1*
G1X241876Y792438D1*
G1X241292Y792046D1*
G1X240500Y792000D1*
G1X239438Y791876D1*
G1X239046Y791292D1*
G1X239000Y790500D1*
G1X239000Y789000D1*
G1X245000Y789000D1*
G1X245000Y783000D1*
G1X243500Y783000D1*
G1X242438Y782876D1*
G1X242046Y782292D1*
G1X242000Y781500D1*
G1X241876Y780438D1*
G1X241292Y780046D1*
G1X240500Y780000D1*
G1X239000Y780000D1*
G1X239000Y771000D1*
G37*
G36*
G1X275000Y771000D2*
G1X275000Y765000D1*
G1X276500Y765000D1*
G1X277562Y765124D1*
G1X277954Y765708D1*
G1X278000Y766500D1*
G1X278124Y767562D1*
G1X278708Y767954D1*
G1X279500Y768000D1*
G1X280562Y767876D1*
G1X280954Y767292D1*
G1X281000Y766500D1*
G1X280876Y765438D1*
G1X280292Y765046D1*
G1X279500Y765000D1*
G1X278000Y765000D1*
G1X278000Y756000D1*
G1X287000Y756000D1*
G1X287000Y765000D1*
G1X285500Y765000D1*
G1X284438Y765124D1*
G1X284046Y765708D1*
G1X284000Y766500D1*
G1X284124Y767562D1*
G1X284708Y767954D1*
G1X285500Y768000D1*
G1X286562Y768124D1*
G1X286954Y768708D1*
G1X287000Y769500D1*
G1X287000Y771000D1*
G1X281000Y771000D1*
G1X281000Y777000D1*
G1X278000Y777000D1*
G1X278000Y771000D1*
G1X275000Y771000D1*
G37*
G1X287000Y765000D2*
G1X285500Y765000D1*
G1X284438Y765124D1*
G1X284046Y765708D1*
G1X284000Y766500D1*
G1X284124Y767562D1*
G1X284708Y767954D1*
G1X285500Y768000D1*
G1X286562Y768124D1*
G1X286954Y768708D1*
G1X287000Y769500D1*
G1X287000Y771000D1*
G1X281000Y771000D1*
G1X281000Y777000D1*
G1X278000Y777000D1*
G1X278000Y771000D1*
G1X275000Y771000D1*
G1X275000Y777000D1*
G1X269000Y777000D1*
G1X269000Y771000D1*
G1X266000Y771000D1*
G1X266000Y777000D1*
G1X264500Y777000D1*
G1X263438Y776876D1*
G1X263046Y776292D1*
G1X263000Y775500D1*
G1X263000Y774000D1*
G1X251000Y774000D1*
G1X251000Y775500D1*
G1X250876Y776562D1*
G1X250292Y776954D1*
G1X249500Y777000D1*
G1X248438Y776876D1*
G1X248046Y776292D1*
G1X248000Y775500D1*
G1X248000Y774000D1*
G1X242000Y774000D1*
G1X242000Y780000D1*
G1X243500Y780000D1*
G1X244562Y779876D1*
G1X244954Y779292D1*
G1X245000Y778500D1*
G1X245124Y777438D1*
G1X245708Y777046D1*
G1X246500Y777000D1*
G1X247562Y777124D1*
G1X247954Y777708D1*
G1X248000Y778500D1*
G1X248000Y780000D1*
G1X257000Y780000D1*
G1X257000Y781500D1*
G1X257124Y782562D1*
G1X257708Y782954D1*
G1X258500Y783000D1*
G1X259562Y783124D1*
G1X259954Y783708D1*
G1X260000Y784500D1*
G1X260000Y786000D1*
G1X254000Y786000D1*
G1X254000Y783000D1*
G1X248000Y783000D1*
G1X248000Y784500D1*
G1X248124Y785562D1*
G1X248708Y785954D1*
G1X249500Y786000D1*
G1X251000Y786000D1*
G1X251000Y792000D1*
G1X249500Y792000D1*
G1X248438Y791876D1*
G1X248046Y791292D1*
G1X248000Y790500D1*
G1X247876Y789438D1*
G1X247292Y789046D1*
G1X246500Y789000D1*
G1X245438Y789124D1*
G1X245046Y789708D1*
G1X245000Y790500D1*
G1X245124Y791562D1*
G1X245708Y791954D1*
G1X246500Y792000D1*
G1X247562Y792124D1*
G1X247954Y792708D1*
G1X248000Y793500D1*
G1X247876Y794562D1*
G1X247292Y794954D1*
G1X246500Y795000D1*
G1X245438Y795124D1*
G1X245046Y795708D1*
G1X245000Y796500D1*
G1X245124Y797562D1*
G1X245708Y797954D1*
G1X246500Y798000D1*
G1X247562Y797876D1*
G1X247954Y797292D1*
G1X248000Y796500D1*
G1X248124Y795438D1*
G1X248708Y795046D1*
G1X249500Y795000D1*
G1X250562Y794876D1*
G1X250954Y794292D1*
G1X251000Y793500D1*
G1X251124Y792438D1*
G1X251708Y792046D1*
G1X252500Y792000D1*
G1X254000Y792000D1*
G1X254000Y798000D1*
G1X255500Y798000D1*
G1X256562Y798124D1*
G1X256954Y798708D1*
G1X257000Y799500D1*
G1X257124Y800562D1*
G1X257708Y800954D1*
G1X258500Y801000D1*
G1X259562Y801124D1*
G1X259954Y801708D1*
G1X260000Y802500D1*
G1X260124Y803562D1*
G1X260708Y803954D1*
G1X261500Y804000D1*
G1X262562Y803876D1*
G1X262954Y803292D1*
G1X263000Y802500D1*
G1X263124Y801438D1*
G1X263708Y801046D1*
G1X264500Y801000D1*
G1X265562Y801124D1*
G1X265954Y801708D1*
G1X266000Y802500D1*
G1X266000Y804000D1*
G1X275000Y804000D1*
G1X275000Y805500D1*
G1X274876Y806562D1*
G1X274292Y806954D1*
G1X273500Y807000D1*
G1X272438Y807124D1*
G1X272046Y807708D1*
G1X272000Y808500D1*
G1X271876Y809562D1*
G1X271292Y809954D1*
G1X270500Y810000D1*
G1X269438Y809876D1*
G1X269046Y809292D1*
G1X269000Y808500D1*
G1X269000Y807000D1*
G1X263000Y807000D1*
G1X263000Y810000D1*
G1X257000Y810000D1*
G1X257000Y808500D1*
G1X257124Y807438D1*
G1X257708Y807046D1*
G1X258500Y807000D1*
G1X259562Y806876D1*
G1X259954Y806292D1*
G1X260000Y805500D1*
G1X259876Y804438D1*
G1X259292Y804046D1*
G1X258500Y804000D1*
G1X257438Y803876D1*
G1X257046Y803292D1*
G1X257000Y802500D1*
G1X256876Y801438D1*
G1X256292Y801046D1*
G1X255500Y801000D1*
G1X254438Y801124D1*
G1X254046Y801708D1*
G1X254000Y802500D1*
G1X253876Y803562D1*
G1X253292Y803954D1*
G1X252500Y804000D1*
G1X251438Y804124D1*
G1X251046Y804708D1*
G1X251000Y805500D1*
G1X250876Y806562D1*
G1X250292Y806954D1*
G1X249500Y807000D1*
G1X248438Y807124D1*
G1X248046Y807708D1*
G1X248000Y808500D1*
G1X247876Y809562D1*
G1X247292Y809954D1*
G1X246500Y810000D1*
G1X245438Y809876D1*
G1X245046Y809292D1*
G1X245000Y808500D1*
G1X244876Y807438D1*
G1X244292Y807046D1*
G1X243500Y807000D1*
G1X242438Y807124D1*
G1X242046Y807708D1*
G1X242000Y808500D1*
G1X241876Y809562D1*
G1X241292Y809954D1*
G1X240500Y810000D1*
G1X239438Y809876D1*
G1X239046Y809292D1*
G1X239000Y808500D1*
G1X239124Y807438D1*
G1X239708Y807046D1*
G1X240500Y807000D1*
G1X241562Y806876D1*
G1X241954Y806292D1*
G1X242000Y805500D1*
G1X241876Y804438D1*
G1X241292Y804046D1*
G1X240500Y804000D1*
G1X239438Y803876D1*
G1X239046Y803292D1*
G1X239000Y802500D1*
G1X239124Y801438D1*
G1X239708Y801046D1*
G1X240500Y801000D1*
G1X241562Y801124D1*
G1X241954Y801708D1*
G1X242000Y802500D1*
G1X242124Y803562D1*
G1X242708Y803954D1*
G1X243500Y804000D1*
G1X244562Y804124D1*
G1X244954Y804708D1*
G1X245000Y805500D1*
G1X245124Y806562D1*
G1X245708Y806954D1*
G1X246500Y807000D1*
G1X247562Y806876D1*
G1X247954Y806292D1*
G1X248000Y805500D1*
G1X248124Y804438D1*
G1X248708Y804046D1*
G1X249500Y804000D1*
G1X250562Y803876D1*
G1X250954Y803292D1*
G1X251000Y802500D1*
G1X251000Y801000D1*
G1X245000Y801000D1*
G1X245000Y798000D1*
G1X239000Y798000D1*
G1X239000Y796500D1*
G1X239124Y795438D1*
G1X239708Y795046D1*
G1X240500Y795000D1*
G1X241562Y794876D1*
G1X241954Y794292D1*
G1X242000Y793500D1*
G1X241876Y792438D1*
G1X241292Y792046D1*
G1X240500Y792000D1*
G1X239438Y791876D1*
G1X239046Y791292D1*
G1X239000Y790500D1*
G1X239000Y789000D1*
G1X245000Y789000D1*
G1X245000Y783000D1*
G1X243500Y783000D1*
G1X242438Y782876D1*
G1X242046Y782292D1*
G1X242000Y781500D1*
G1X241876Y780438D1*
G1X241292Y780046D1*
G1X240500Y780000D1*
G1X239000Y780000D1*
G1X239000Y771000D1*
G1X248000Y771000D1*
G1X248000Y772500D1*
G1X248124Y773562D1*
G1X248708Y773954D1*
G1X249500Y774000D1*
G1X250562Y773876D1*
G1X250954Y773292D1*
G1X251000Y772500D1*
G1X251000Y771000D1*
G1X263000Y771000D1*
G1X263000Y766500D1*
G1X266000Y766500D1*
G1X266124Y767562D1*
G1X266708Y767954D1*
G1X267500Y768000D1*
G1X268562Y767876D1*
G1X268954Y767292D1*
G1X269000Y766500D1*
G1X269124Y765438D1*
G1X269708Y765046D1*
G1X270500Y765000D1*
G1X272000Y765000D1*
G1X272000Y771000D1*
G1X275000Y771000D1*
G1X275000Y765000D1*
G1X276500Y765000D1*
G1X277562Y765124D1*
G1X277954Y765708D1*
G1X278000Y766500D1*
G1X278124Y767562D1*
G1X278708Y767954D1*
G1X279500Y768000D1*
G1X280562Y767876D1*
G1X280954Y767292D1*
G1X281000Y766500D1*
G1X280876Y765438D1*
G1X280292Y765046D1*
G1X279500Y765000D1*
G1X278000Y765000D1*
G1X278000Y756000D1*
G1X276500Y756000D1*
G1X275438Y755876D1*
G1X275046Y755292D1*
G1X275000Y754500D1*
G1X274876Y753438D1*
G1X274292Y753046D1*
G1X273500Y753000D1*
G1X272438Y753124D1*
G1X272046Y753708D1*
G1X272000Y754500D1*
G1X272124Y755562D1*
G1X272708Y755954D1*
G1X273500Y756000D1*
G1X274562Y756124D1*
G1X274954Y756708D1*
G1X275000Y757500D1*
G1X274876Y758562D1*
G1X274292Y758954D1*
G1X273500Y759000D1*
G1X272438Y759124D1*
G1X272046Y759708D1*
G1X272000Y760500D1*
G1X271876Y761562D1*
G1X271292Y761954D1*
G1X270500Y762000D1*
G1X269438Y762124D1*
G1X269046Y762708D1*
G1X269000Y763500D1*
G1X268876Y764562D1*
G1X268292Y764954D1*
G1X267500Y765000D1*
G1X266438Y765124D1*
G1X266046Y765708D1*
G1X266000Y766500D1*
G1X263000Y766500D1*
G1X263000Y765000D1*
G1X264500Y765000D1*
G1X265562Y764876D1*
G1X265954Y764292D1*
G1X266000Y763500D1*
G1X266124Y762438D1*
G1X266708Y762046D1*
G1X267500Y762000D1*
G1X268562Y761876D1*
G1X268954Y761292D1*
G1X269000Y760500D1*
G1X268876Y759438D1*
G1X268292Y759046D1*
G1X267500Y759000D1*
G1X266438Y758876D1*
G1X266046Y758292D1*
G1X266000Y757500D1*
G1X265876Y756438D1*
G1X265292Y756046D1*
G1X264500Y756000D1*
G1X263438Y755876D1*
G1X263046Y755292D1*
G1X263000Y754500D1*
G1X263000Y753000D1*
G1X269000Y753000D1*
G1X269000Y751500D1*
G1X268876Y750438D1*
G1X268292Y750046D1*
G1X267500Y750000D1*
G1X266438Y749876D1*
G1X266046Y749292D1*
G1X266000Y748500D1*
G1X266124Y747438D1*
G1X266708Y747046D1*
G1X267500Y747000D1*
G1X268562Y747124D1*
G1X268954Y747708D1*
G1X269000Y748500D1*
G1X269000Y750000D1*
G1X275000Y750000D1*
G1X275000Y748500D1*
G1X275124Y747438D1*
G1X275708Y747046D1*
G1X276500Y747000D1*
G1X278000Y747000D1*
G1X278000Y756000D1*
G1X287000Y756000D1*
G1X287000Y765000D1*
G36*
G1X263000Y810000D2*
G1X269000Y810000D1*
G1X269000Y811500D1*
G1X269124Y812562D1*
G1X269708Y812954D1*
G1X270500Y813000D1*
G1X271562Y812876D1*
G1X271954Y812292D1*
G1X272000Y811500D1*
G1X272124Y810438D1*
G1X272708Y810046D1*
G1X273500Y810000D1*
G1X274562Y809876D1*
G1X274954Y809292D1*
G1X275000Y808500D1*
G1X275124Y807438D1*
G1X275708Y807046D1*
G1X276500Y807000D1*
G1X277562Y807124D1*
G1X277954Y807708D1*
G1X278000Y808500D1*
G1X278124Y809562D1*
G1X278708Y809954D1*
G1X279500Y810000D1*
G1X280562Y810124D1*
G1X280954Y810708D1*
G1X281000Y811500D1*
G1X280876Y812562D1*
G1X280292Y812954D1*
G1X279500Y813000D1*
G1X278438Y813124D1*
G1X278046Y813708D1*
G1X278000Y814500D1*
G1X278124Y815562D1*
G1X278708Y815954D1*
G1X279500Y816000D1*
G1X280562Y815876D1*
G1X280954Y815292D1*
G1X281000Y814500D1*
G1X281124Y813438D1*
G1X281708Y813046D1*
G1X282500Y813000D1*
G1X284000Y813000D1*
G1X284000Y819000D1*
G1X273500Y819000D1*
G1X274562Y818876D1*
G1X274954Y818292D1*
G1X275000Y817500D1*
G1X275000Y816000D1*
G1X269000Y816000D1*
G1X269000Y817500D1*
G1X268876Y818562D1*
G1X268292Y818954D1*
G1X267500Y819000D1*
G1X263000Y819000D1*
G1X263000Y810000D1*
G37*
G36*
G1X281000Y819000D2*
G1X284000Y819000D1*
G1X284000Y822000D1*
G1X290000Y822000D1*
G1X290000Y828000D1*
G1X296000Y828000D1*
G1X296000Y826500D1*
G1X296124Y825438D1*
G1X296708Y825046D1*
G1X297500Y825000D1*
G1X299000Y825000D1*
G1X299000Y819000D1*
G1X314000Y819000D1*
G1X314000Y825000D1*
G1X315500Y825000D1*
G1X316562Y824876D1*
G1X316954Y824292D1*
G1X317000Y823500D1*
G1X317000Y822000D1*
G1X326000Y822000D1*
G1X326000Y828000D1*
G1X324500Y828000D1*
G1X323438Y828124D1*
G1X323046Y828708D1*
G1X323000Y829500D1*
G1X323124Y830562D1*
G1X323708Y830954D1*
G1X324500Y831000D1*
G1X325562Y831124D1*
G1X325954Y831708D1*
G1X326000Y832500D1*
G1X326000Y834000D1*
G1X320000Y834000D1*
G1X320000Y828000D1*
G1X321500Y828000D1*
G1X322562Y827876D1*
G1X322954Y827292D1*
G1X323000Y826500D1*
G1X323000Y825000D1*
G1X317000Y825000D1*
G1X317000Y826500D1*
G1X316876Y827562D1*
G1X316292Y827954D1*
G1X315500Y828000D1*
G1X314000Y828000D1*
G1X314000Y834000D1*
G1X308000Y834000D1*
G1X308000Y832500D1*
G1X308124Y831438D1*
G1X308708Y831046D1*
G1X309500Y831000D1*
G1X310562Y830876D1*
G1X310954Y830292D1*
G1X311000Y829500D1*
G1X310876Y828438D1*
G1X310292Y828046D1*
G1X309500Y828000D1*
G1X308000Y828000D1*
G1X308000Y822000D1*
G1X302000Y822000D1*
G1X302000Y823500D1*
G1X301876Y824562D1*
G1X301292Y824954D1*
G1X300500Y825000D1*
G1X299438Y825124D1*
G1X299046Y825708D1*
G1X299000Y826500D1*
G1X299000Y828000D1*
G1X305000Y828000D1*
G1X305000Y834000D1*
G1X296000Y834000D1*
G1X296000Y831000D1*
G1X290000Y831000D1*
G1X290000Y832500D1*
G1X289876Y833562D1*
G1X289292Y833954D1*
G1X288500Y834000D1*
G1X287000Y834000D1*
G1X287000Y825000D1*
G1X281000Y825000D1*
G1X281000Y819000D1*
G37*
G36*
G1X263000Y822000D2*
G1X263000Y819000D1*
G1X267500Y819000D1*
G1X266438Y819124D1*
G1X266046Y819708D1*
G1X266000Y820500D1*
G1X266000Y822000D1*
G1X272000Y822000D1*
G1X272000Y820500D1*
G1X272124Y819438D1*
G1X272708Y819046D1*
G1X273500Y819000D1*
G1X275000Y819000D1*
G1X275000Y825000D1*
G1X273500Y825000D1*
G1X272438Y825124D1*
G1X272046Y825708D1*
G1X272000Y826500D1*
G1X269000Y826500D1*
G1X268876Y825438D1*
G1X268292Y825046D1*
G1X267500Y825000D1*
G1X266438Y825124D1*
G1X266046Y825708D1*
G1X266000Y826500D1*
G1X263000Y826500D1*
G1X263000Y825000D1*
G1X264500Y825000D1*
G1X265562Y824876D1*
G1X265954Y824292D1*
G1X266000Y823500D1*
G1X265876Y822438D1*
G1X265292Y822046D1*
G1X264500Y822000D1*
G1X263000Y822000D1*
G37*
G36*
G1X263000Y826500D2*
G1X266000Y826500D1*
G1X266124Y827562D1*
G1X266708Y827954D1*
G1X267500Y828000D1*
G1X268562Y827876D1*
G1X268954Y827292D1*
G1X269000Y826500D1*
G1X272000Y826500D1*
G1X272124Y827562D1*
G1X272708Y827954D1*
G1X273500Y828000D1*
G1X274562Y828124D1*
G1X274954Y828708D1*
G1X275000Y829500D1*
G1X275124Y830562D1*
G1X275708Y830954D1*
G1X276500Y831000D1*
G1X277562Y831124D1*
G1X277954Y831708D1*
G1X278000Y832500D1*
G1X277876Y833562D1*
G1X277292Y833954D1*
G1X276500Y834000D1*
G1X275438Y833876D1*
G1X275046Y833292D1*
G1X275000Y832500D1*
G1X274876Y831438D1*
G1X274292Y831046D1*
G1X273500Y831000D1*
G1X272438Y831124D1*
G1X272046Y831708D1*
G1X272000Y832500D1*
G1X272000Y834000D1*
G1X263000Y834000D1*
G1X263000Y826500D1*
G37*
G36*
G1X284000Y784500D2*
G1X293000Y784500D1*
G1X293124Y785562D1*
G1X293708Y785954D1*
G1X294500Y786000D1*
G1X295562Y785876D1*
G1X295954Y785292D1*
G1X296000Y784500D1*
G1X308000Y784500D1*
G1X308000Y795000D1*
G1X309500Y795000D1*
G1X310562Y795124D1*
G1X310954Y795708D1*
G1X311000Y796500D1*
G1X310876Y797562D1*
G1X310292Y797954D1*
G1X309500Y798000D1*
G1X308438Y798124D1*
G1X308046Y798708D1*
G1X308000Y799500D1*
G1X307876Y800562D1*
G1X307292Y800954D1*
G1X306500Y801000D1*
G1X305438Y801124D1*
G1X305046Y801708D1*
G1X305000Y802500D1*
G1X305124Y803562D1*
G1X305708Y803954D1*
G1X306500Y804000D1*
G1X307562Y803876D1*
G1X307954Y803292D1*
G1X308000Y802500D1*
G1X308000Y801000D1*
G1X314000Y801000D1*
G1X314000Y802500D1*
G1X314124Y803562D1*
G1X314708Y803954D1*
G1X315500Y804000D1*
G1X316562Y804124D1*
G1X316954Y804708D1*
G1X317000Y805500D1*
G1X316876Y806562D1*
G1X316292Y806954D1*
G1X315500Y807000D1*
G1X314000Y807000D1*
G1X314000Y813000D1*
G1X315500Y813000D1*
G1X316562Y812876D1*
G1X316954Y812292D1*
G1X317000Y811500D1*
G1X317000Y810000D1*
G1X326000Y810000D1*
G1X326000Y816000D1*
G1X324500Y816000D1*
G1X323438Y816124D1*
G1X323046Y816708D1*
G1X323000Y817500D1*
G1X322876Y818562D1*
G1X322292Y818954D1*
G1X321500Y819000D1*
G1X320000Y819000D1*
G1X320000Y813000D1*
G1X317000Y813000D1*
G1X317000Y819000D1*
G1X311000Y819000D1*
G1X311000Y810000D1*
G1X302000Y810000D1*
G1X302000Y819000D1*
G1X299000Y819000D1*
G1X299000Y816000D1*
G1X296000Y816000D1*
G1X296000Y804000D1*
G1X302000Y804000D1*
G1X302000Y798000D1*
G1X303500Y798000D1*
G1X304562Y797876D1*
G1X304954Y797292D1*
G1X305000Y796500D1*
G1X304876Y795438D1*
G1X304292Y795046D1*
G1X303500Y795000D1*
G1X302438Y795124D1*
G1X302046Y795708D1*
G1X302000Y796500D1*
G1X302000Y798000D1*
G1X296000Y798000D1*
G1X296000Y796500D1*
G1X296124Y795438D1*
G1X296708Y795046D1*
G1X297500Y795000D1*
G1X298562Y794876D1*
G1X298954Y794292D1*
G1X299000Y793500D1*
G1X299000Y792000D1*
G1X305000Y792000D1*
G1X305000Y789000D1*
G1X290000Y789000D1*
G1X290000Y786000D1*
G1X284000Y786000D1*
G1X284000Y784500D1*
G37*
G36*
G1X284000Y784500D2*
G1X284124Y783438D1*
G1X284708Y783046D1*
G1X285500Y783000D1*
G1X286562Y782876D1*
G1X286954Y782292D1*
G1X287000Y781500D1*
G1X287000Y780000D1*
G1X299000Y780000D1*
G1X299000Y775500D1*
G1X302000Y775500D1*
G1X302124Y776562D1*
G1X302708Y776954D1*
G1X303500Y777000D1*
G1X304562Y776876D1*
G1X304954Y776292D1*
G1X305000Y775500D1*
G1X308000Y775500D1*
G1X308000Y780000D1*
G1X302000Y780000D1*
G1X302000Y783000D1*
G1X308000Y783000D1*
G1X308000Y784500D1*
G1X296000Y784500D1*
G1X295876Y783438D1*
G1X295292Y783046D1*
G1X294500Y783000D1*
G1X293438Y783124D1*
G1X293046Y783708D1*
G1X293000Y784500D1*
G1X284000Y784500D1*
G37*
G36*
G1X299000Y775500D2*
G1X299000Y771000D1*
G1X308000Y771000D1*
G1X308000Y775500D1*
G1X305000Y775500D1*
G1X304876Y774438D1*
G1X304292Y774046D1*
G1X303500Y774000D1*
G1X302438Y774124D1*
G1X302046Y774708D1*
G1X302000Y775500D1*
G1X299000Y775500D1*
G37*
G36*
G1X308000Y780000D2*
G1X309500Y780000D1*
G1X310562Y779876D1*
G1X310954Y779292D1*
G1X311000Y778500D1*
G1X311124Y777438D1*
G1X311708Y777046D1*
G1X312500Y777000D1*
G1X313562Y776876D1*
G1X313954Y776292D1*
G1X314000Y775500D1*
G1X314124Y774438D1*
G1X314708Y774046D1*
G1X315500Y774000D1*
G1X316562Y773876D1*
G1X316954Y773292D1*
G1X317000Y772500D1*
G1X317124Y771438D1*
G1X317708Y771046D1*
G1X318500Y771000D1*
G1X319562Y771124D1*
G1X319954Y771708D1*
G1X320000Y772500D1*
G1X319876Y773562D1*
G1X319292Y773954D1*
G1X318500Y774000D1*
G1X317438Y774124D1*
G1X317046Y774708D1*
G1X317000Y775500D1*
G1X317000Y777000D1*
G1X323000Y777000D1*
G1X323000Y775500D1*
G1X323124Y774438D1*
G1X323708Y774046D1*
G1X324500Y774000D1*
G1X326000Y774000D1*
G1X326000Y780000D1*
G1X324500Y780000D1*
G1X323438Y780124D1*
G1X323046Y780708D1*
G1X323000Y781500D1*
G1X323124Y782562D1*
G1X323708Y782954D1*
G1X324500Y783000D1*
G1X326000Y783000D1*
G1X326000Y789000D1*
G1X321500Y789000D1*
G1X322562Y788876D1*
G1X322954Y788292D1*
G1X323000Y787500D1*
G1X322876Y786438D1*
G1X322292Y786046D1*
G1X321500Y786000D1*
G1X320000Y786000D1*
G1X320000Y780000D1*
G1X318500Y780000D1*
G1X317438Y779876D1*
G1X317046Y779292D1*
G1X317000Y778500D1*
G1X316876Y777438D1*
G1X316292Y777046D1*
G1X315500Y777000D1*
G1X314000Y777000D1*
G1X314000Y783000D1*
G1X308000Y783000D1*
G1X308000Y780000D1*
G37*
G36*
G1X311000Y790500D2*
G1X311124Y789438D1*
G1X311708Y789046D1*
G1X312500Y789000D1*
G1X317000Y789000D1*
G1X317000Y798000D1*
G1X318500Y798000D1*
G1X319562Y798124D1*
G1X319954Y798708D1*
G1X320000Y799500D1*
G1X320124Y800562D1*
G1X320708Y800954D1*
G1X321500Y801000D1*
G1X322562Y800876D1*
G1X322954Y800292D1*
G1X323000Y799500D1*
G1X322876Y798438D1*
G1X322292Y798046D1*
G1X321500Y798000D1*
G1X320000Y798000D1*
G1X320000Y789000D1*
G1X326000Y789000D1*
G1X326000Y792000D1*
G1X324500Y792000D1*
G1X323438Y792124D1*
G1X323046Y792708D1*
G1X323000Y793500D1*
G1X323124Y794562D1*
G1X323708Y794954D1*
G1X324500Y795000D1*
G1X326000Y795000D1*
G1X326000Y804000D1*
G1X324500Y804000D1*
G1X323438Y804124D1*
G1X323046Y804708D1*
G1X323000Y805500D1*
G1X322876Y806562D1*
G1X322292Y806954D1*
G1X321500Y807000D1*
G1X320000Y807000D1*
G1X320000Y801000D1*
G1X314000Y801000D1*
G1X314000Y792000D1*
G1X312500Y792000D1*
G1X311438Y791876D1*
G1X311046Y791292D1*
G1X311000Y790500D1*
G37*
G36*
G1X314000Y783000D2*
G1X317000Y783000D1*
G1X317000Y789000D1*
G1X314000Y789000D1*
G1X314000Y783000D1*
G37*
G1X296000Y798000D2*
G1X296000Y796500D1*
G1X302000Y796500D1*
G1X302000Y798000D1*
G1X303500Y798000D1*
G1X304562Y797876D1*
G1X304954Y797292D1*
G1X305000Y796500D1*
G1X304876Y795438D1*
G1X304292Y795046D1*
G1X303500Y795000D1*
G1X302438Y795124D1*
G1X302046Y795708D1*
G1X302000Y796500D1*
G1X296000Y796500D1*
G1X296124Y795438D1*
G1X296708Y795046D1*
G1X297500Y795000D1*
G1X298562Y794876D1*
G1X298954Y794292D1*
G1X299000Y793500D1*
G1X299000Y792000D1*
G1X305000Y792000D1*
G1X305000Y789000D1*
G1X290000Y789000D1*
G1X290000Y786000D1*
G1X284000Y786000D1*
G1X284000Y784500D1*
G1X293000Y784500D1*
G1X293124Y785562D1*
G1X293708Y785954D1*
G1X294500Y786000D1*
G1X295562Y785876D1*
G1X295954Y785292D1*
G1X296000Y784500D1*
G1X295876Y783438D1*
G1X295292Y783046D1*
G1X294500Y783000D1*
G1X293438Y783124D1*
G1X293046Y783708D1*
G1X293000Y784500D1*
G1X284000Y784500D1*
G1X284124Y783438D1*
G1X284708Y783046D1*
G1X285500Y783000D1*
G1X286562Y782876D1*
G1X286954Y782292D1*
G1X287000Y781500D1*
G1X287000Y780000D1*
G1X299000Y780000D1*
G1X302000Y780000D1*
G1X302000Y783000D1*
G1X308000Y783000D1*
G1X308000Y780000D1*
G1X302000Y780000D1*
G1X299000Y780000D1*
G1X299000Y775500D1*
G1X302000Y775500D1*
G1X302124Y776562D1*
G1X302708Y776954D1*
G1X303500Y777000D1*
G1X304562Y776876D1*
G1X304954Y776292D1*
G1X305000Y775500D1*
G1X304876Y774438D1*
G1X304292Y774046D1*
G1X303500Y774000D1*
G1X302438Y774124D1*
G1X302046Y774708D1*
G1X302000Y775500D1*
G1X299000Y775500D1*
G1X299000Y771000D1*
G1X308000Y771000D1*
G1X308000Y780000D1*
G1X309500Y780000D1*
G1X310562Y779876D1*
G1X310954Y779292D1*
G1X311000Y778500D1*
G1X311124Y777438D1*
G1X311708Y777046D1*
G1X312500Y777000D1*
G1X314000Y777000D1*
G1X314000Y783000D1*
G1X317000Y783000D1*
G1X317000Y798000D1*
G1X318500Y798000D1*
G1X319562Y798124D1*
G1X319954Y798708D1*
G1X320000Y799500D1*
G1X320124Y800562D1*
G1X320708Y800954D1*
G1X321500Y801000D1*
G1X322562Y800876D1*
G1X322954Y800292D1*
G1X323000Y799500D1*
G1X322876Y798438D1*
G1X322292Y798046D1*
G1X321500Y798000D1*
G1X320000Y798000D1*
G1X320000Y789000D1*
G1X321500Y789000D1*
G1X322562Y788876D1*
G1X322954Y788292D1*
G1X323000Y787500D1*
G1X322876Y786438D1*
G1X322292Y786046D1*
G1X321500Y786000D1*
G1X320000Y786000D1*
G1X320000Y780000D1*
G1X318500Y780000D1*
G1X317438Y779876D1*
G1X317046Y779292D1*
G1X317000Y778500D1*
G1X316876Y777438D1*
G1X316292Y777046D1*
G1X315500Y777000D1*
G1X314000Y777000D1*
G1X312500Y777000D1*
G1X313562Y776876D1*
G1X313954Y776292D1*
G1X314000Y775500D1*
G1X314124Y774438D1*
G1X314708Y774046D1*
G1X315500Y774000D1*
G1X316562Y773876D1*
G1X316954Y773292D1*
G1X317000Y772500D1*
G1X317124Y771438D1*
G1X317708Y771046D1*
G1X318500Y771000D1*
G1X319562Y771124D1*
G1X319954Y771708D1*
G1X320000Y772500D1*
G1X319876Y773562D1*
G1X319292Y773954D1*
G1X318500Y774000D1*
G1X317438Y774124D1*
G1X317046Y774708D1*
G1X317000Y775500D1*
G1X317000Y777000D1*
G1X323000Y777000D1*
G1X323000Y775500D1*
G1X323124Y774438D1*
G1X323708Y774046D1*
G1X324500Y774000D1*
G1X326000Y774000D1*
G1X326000Y780000D1*
G1X324500Y780000D1*
G1X323438Y780124D1*
G1X323046Y780708D1*
G1X323000Y781500D1*
G1X323124Y782562D1*
G1X323708Y782954D1*
G1X324500Y783000D1*
G1X326000Y783000D1*
G1X326000Y792000D1*
G1X324500Y792000D1*
G1X323438Y792124D1*
G1X323046Y792708D1*
G1X323000Y793500D1*
G1X323124Y794562D1*
G1X323708Y794954D1*
G1X324500Y795000D1*
G1X326000Y795000D1*
G1X326000Y804000D1*
G1X324500Y804000D1*
G1X323438Y804124D1*
G1X323046Y804708D1*
G1X323000Y805500D1*
G1X322876Y806562D1*
G1X322292Y806954D1*
G1X321500Y807000D1*
G1X320000Y807000D1*
G1X320000Y801000D1*
G1X314000Y801000D1*
G1X314000Y802500D1*
G1X314124Y803562D1*
G1X314708Y803954D1*
G1X315500Y804000D1*
G1X316562Y804124D1*
G1X316954Y804708D1*
G1X317000Y805500D1*
G1X316876Y806562D1*
G1X316292Y806954D1*
G1X315500Y807000D1*
G1X314000Y807000D1*
G1X314000Y813000D1*
G1X315500Y813000D1*
G1X316562Y812876D1*
G1X316954Y812292D1*
G1X317000Y811500D1*
G1X317000Y810000D1*
G1X326000Y810000D1*
G1X326000Y816000D1*
G1X324500Y816000D1*
G1X323438Y816124D1*
G1X323046Y816708D1*
G1X323000Y817500D1*
G1X322876Y818562D1*
G1X322292Y818954D1*
G1X321500Y819000D1*
G1X320000Y819000D1*
G1X320000Y813000D1*
G1X317000Y813000D1*
G1X317000Y819000D1*
G1X314000Y819000D1*
G1X314000Y825000D1*
G1X315500Y825000D1*
G1X316562Y824876D1*
G1X316954Y824292D1*
G1X317000Y823500D1*
G1X317000Y822000D1*
G1X326000Y822000D1*
G1X326000Y828000D1*
G1X324500Y828000D1*
G1X323438Y828124D1*
G1X323046Y828708D1*
G1X323000Y829500D1*
G1X323124Y830562D1*
G1X323708Y830954D1*
G1X324500Y831000D1*
G1X325562Y831124D1*
G1X325954Y831708D1*
G1X326000Y832500D1*
G1X326000Y834000D1*
G1X320000Y834000D1*
G1X320000Y828000D1*
G1X321500Y828000D1*
G1X322562Y827876D1*
G1X322954Y827292D1*
G1X323000Y826500D1*
G1X323000Y825000D1*
G1X317000Y825000D1*
G1X317000Y826500D1*
G1X316876Y827562D1*
G1X316292Y827954D1*
G1X315500Y828000D1*
G1X314000Y828000D1*
G1X314000Y834000D1*
G1X308000Y834000D1*
G1X308000Y832500D1*
G1X308124Y831438D1*
G1X308708Y831046D1*
G1X309500Y831000D1*
G1X310562Y830876D1*
G1X310954Y830292D1*
G1X311000Y829500D1*
G1X310876Y828438D1*
G1X310292Y828046D1*
G1X309500Y828000D1*
G1X308000Y828000D1*
G1X308000Y822000D1*
G1X302000Y822000D1*
G1X302000Y823500D1*
G1X301876Y824562D1*
G1X301292Y824954D1*
G1X300500Y825000D1*
G1X299438Y825124D1*
G1X299046Y825708D1*
G1X299000Y826500D1*
G1X299000Y828000D1*
G1X305000Y828000D1*
G1X305000Y834000D1*
G1X296000Y834000D1*
G1X296000Y831000D1*
G1X290000Y831000D1*
G1X290000Y832500D1*
G1X289876Y833562D1*
G1X289292Y833954D1*
G1X288500Y834000D1*
G1X287000Y834000D1*
G1X287000Y825000D1*
G1X281000Y825000D1*
G1X281000Y819000D1*
G1X275000Y819000D1*
G1X275000Y825000D1*
G1X273500Y825000D1*
G1X272438Y825124D1*
G1X272046Y825708D1*
G1X272000Y826500D1*
G1X272124Y827562D1*
G1X272708Y827954D1*
G1X273500Y828000D1*
G1X274562Y828124D1*
G1X274954Y828708D1*
G1X275000Y829500D1*
G1X275124Y830562D1*
G1X275708Y830954D1*
G1X276500Y831000D1*
G1X277562Y831124D1*
G1X277954Y831708D1*
G1X278000Y832500D1*
G1X277876Y833562D1*
G1X277292Y833954D1*
G1X276500Y834000D1*
G1X275438Y833876D1*
G1X275046Y833292D1*
G1X275000Y832500D1*
G1X274876Y831438D1*
G1X274292Y831046D1*
G1X273500Y831000D1*
G1X272438Y831124D1*
G1X272046Y831708D1*
G1X272000Y832500D1*
G1X272000Y834000D1*
G1X263000Y834000D1*
G1X263000Y826500D1*
G1X266000Y826500D1*
G1X266124Y827562D1*
G1X266708Y827954D1*
G1X267500Y828000D1*
G1X268562Y827876D1*
G1X268954Y827292D1*
G1X269000Y826500D1*
G1X268876Y825438D1*
G1X268292Y825046D1*
G1X267500Y825000D1*
G1X266438Y825124D1*
G1X266046Y825708D1*
G1X266000Y826500D1*
G1X263000Y826500D1*
G1X263000Y825000D1*
G1X264500Y825000D1*
G1X265562Y824876D1*
G1X265954Y824292D1*
G1X266000Y823500D1*
G1X265876Y822438D1*
G1X265292Y822046D1*
G1X264500Y822000D1*
G1X263000Y822000D1*
G1X263000Y820500D1*
G1X266000Y820500D1*
G1X266000Y822000D1*
G1X272000Y822000D1*
G1X272000Y820500D1*
G1X272124Y819438D1*
G1X272708Y819046D1*
G1X273500Y819000D1*
G1X274562Y818876D1*
G1X274954Y818292D1*
G1X275000Y817500D1*
G1X275000Y816000D1*
G1X269000Y816000D1*
G1X269000Y817500D1*
G1X268876Y818562D1*
G1X268292Y818954D1*
G1X267500Y819000D1*
G1X266438Y819124D1*
G1X266046Y819708D1*
G1X266000Y820500D1*
G1X263000Y820500D1*
G1X263000Y810000D1*
G1X269000Y810000D1*
G1X269000Y811500D1*
G1X269124Y812562D1*
G1X269708Y812954D1*
G1X270500Y813000D1*
G1X271562Y812876D1*
G1X271954Y812292D1*
G1X272000Y811500D1*
G1X272124Y810438D1*
G1X272708Y810046D1*
G1X273500Y810000D1*
G1X274562Y809876D1*
G1X274954Y809292D1*
G1X275000Y808500D1*
G1X275124Y807438D1*
G1X275708Y807046D1*
G1X276500Y807000D1*
G1X277562Y807124D1*
G1X277954Y807708D1*
G1X278000Y808500D1*
G1X278124Y809562D1*
G1X278708Y809954D1*
G1X279500Y810000D1*
G1X280562Y810124D1*
G1X280954Y810708D1*
G1X281000Y811500D1*
G1X280876Y812562D1*
G1X280292Y812954D1*
G1X279500Y813000D1*
G1X278438Y813124D1*
G1X278046Y813708D1*
G1X278000Y814500D1*
G1X278124Y815562D1*
G1X278708Y815954D1*
G1X279500Y816000D1*
G1X280562Y815876D1*
G1X280954Y815292D1*
G1X281000Y814500D1*
G1X281124Y813438D1*
G1X281708Y813046D1*
G1X282500Y813000D1*
G1X284000Y813000D1*
G1X284000Y822000D1*
G1X290000Y822000D1*
G1X290000Y828000D1*
G1X296000Y828000D1*
G1X296000Y826500D1*
G1X296124Y825438D1*
G1X296708Y825046D1*
G1X297500Y825000D1*
G1X299000Y825000D1*
G1X299000Y816000D1*
G1X296000Y816000D1*
G1X296000Y810000D1*
G1X302000Y810000D1*
G1X302000Y819000D1*
G1X311000Y819000D1*
G1X311000Y810000D1*
G1X302000Y810000D1*
G1X296000Y810000D1*
G1X296000Y804000D1*
G1X302000Y804000D1*
G1X302000Y802500D1*
G1X305000Y802500D1*
G1X305124Y803562D1*
G1X305708Y803954D1*
G1X306500Y804000D1*
G1X307562Y803876D1*
G1X307954Y803292D1*
G1X308000Y802500D1*
G1X308000Y801000D1*
G1X314000Y801000D1*
G1X314000Y792000D1*
G1X312500Y792000D1*
G1X311438Y791876D1*
G1X311046Y791292D1*
G1X311000Y790500D1*
G1X311124Y789438D1*
G1X311708Y789046D1*
G1X312500Y789000D1*
G1X314000Y789000D1*
G1X314000Y783000D1*
G1X308000Y783000D1*
G1X308000Y795000D1*
G1X309500Y795000D1*
G1X310562Y795124D1*
G1X310954Y795708D1*
G1X311000Y796500D1*
G1X310876Y797562D1*
G1X310292Y797954D1*
G1X309500Y798000D1*
G1X308438Y798124D1*
G1X308046Y798708D1*
G1X308000Y799500D1*
G1X307876Y800562D1*
G1X307292Y800954D1*
G1X306500Y801000D1*
G1X305438Y801124D1*
G1X305046Y801708D1*
G1X305000Y802500D1*
G1X302000Y802500D1*
G1X302000Y798000D1*
G1X296000Y798000D1*
G36*
G1X281000Y748500D2*
G1X281000Y747000D1*
G1X287000Y747000D1*
G1X287000Y750000D1*
G1X293000Y750000D1*
G1X293000Y747000D1*
G1X299000Y747000D1*
G1X299000Y762000D1*
G1X302000Y762000D1*
G1X302000Y768000D1*
G1X300500Y768000D1*
G1X299438Y768124D1*
G1X299046Y768708D1*
G1X299000Y769500D1*
G1X299000Y771000D1*
G1X293000Y771000D1*
G1X293000Y777000D1*
G1X284000Y777000D1*
G1X284000Y774000D1*
G1X290000Y774000D1*
G1X290000Y768000D1*
G1X291500Y768000D1*
G1X292562Y767876D1*
G1X292954Y767292D1*
G1X293000Y766500D1*
G1X293124Y765438D1*
G1X293708Y765046D1*
G1X294500Y765000D1*
G1X295562Y765124D1*
G1X295954Y765708D1*
G1X296000Y766500D1*
G1X296124Y767562D1*
G1X296708Y767954D1*
G1X297500Y768000D1*
G1X298562Y767876D1*
G1X298954Y767292D1*
G1X299000Y766500D1*
G1X298876Y765438D1*
G1X298292Y765046D1*
G1X297500Y765000D1*
G1X296000Y765000D1*
G1X296000Y759000D1*
G1X294500Y759000D1*
G1X293438Y758876D1*
G1X293046Y758292D1*
G1X293000Y757500D1*
G1X293124Y756438D1*
G1X293708Y756046D1*
G1X294500Y756000D1*
G1X296000Y756000D1*
G1X296000Y750000D1*
G1X294500Y750000D1*
G1X293438Y750124D1*
G1X293046Y750708D1*
G1X293000Y751500D1*
G1X292876Y752562D1*
G1X292292Y752954D1*
G1X291500Y753000D1*
G1X290438Y753124D1*
G1X290046Y753708D1*
G1X290000Y754500D1*
G1X289876Y755562D1*
G1X289292Y755954D1*
G1X288500Y756000D1*
G1X287000Y756000D1*
G1X287000Y754500D1*
G1X286876Y753438D1*
G1X286292Y753046D1*
G1X285500Y753000D1*
G1X284438Y752876D1*
G1X284046Y752292D1*
G1X284000Y751500D1*
G1X283876Y750438D1*
G1X283292Y750046D1*
G1X282500Y750000D1*
G1X281438Y749876D1*
G1X281046Y749292D1*
G1X281000Y748500D1*
G37*
G1X287000Y754500D2*
G1X286876Y753438D1*
G1X286292Y753046D1*
G1X285500Y753000D1*
G1X284438Y752876D1*
G1X284046Y752292D1*
G1X284000Y751500D1*
G1X283876Y750438D1*
G1X283292Y750046D1*
G1X282500Y750000D1*
G1X281438Y749876D1*
G1X281046Y749292D1*
G1X281000Y748500D1*
G1X281000Y747000D1*
G1X287000Y747000D1*
G1X287000Y750000D1*
G1X293000Y750000D1*
G1X293000Y747000D1*
G1X299000Y747000D1*
G1X299000Y762000D1*
G1X302000Y762000D1*
G1X302000Y768000D1*
G1X300500Y768000D1*
G1X299438Y768124D1*
G1X299046Y768708D1*
G1X299000Y769500D1*
G1X299000Y771000D1*
G1X293000Y771000D1*
G1X293000Y777000D1*
G1X284000Y777000D1*
G1X284000Y774000D1*
G1X290000Y774000D1*
G1X290000Y768000D1*
G1X291500Y768000D1*
G1X292562Y767876D1*
G1X292954Y767292D1*
G1X293000Y766500D1*
G1X293124Y765438D1*
G1X293708Y765046D1*
G1X294500Y765000D1*
G1X295562Y765124D1*
G1X295954Y765708D1*
G1X296000Y766500D1*
G1X296124Y767562D1*
G1X296708Y767954D1*
G1X297500Y768000D1*
G1X298562Y767876D1*
G1X298954Y767292D1*
G1X299000Y766500D1*
G1X298876Y765438D1*
G1X298292Y765046D1*
G1X297500Y765000D1*
G1X296000Y765000D1*
G1X296000Y759000D1*
G1X294500Y759000D1*
G1X293438Y758876D1*
G1X293046Y758292D1*
G1X293000Y757500D1*
G1X293124Y756438D1*
G1X293708Y756046D1*
G1X294500Y756000D1*
G1X296000Y756000D1*
G1X296000Y750000D1*
G1X294500Y750000D1*
G1X293438Y750124D1*
G1X293046Y750708D1*
G1X293000Y751500D1*
G1X292876Y752562D1*
G1X292292Y752954D1*
G1X291500Y753000D1*
G1X290438Y753124D1*
G1X290046Y753708D1*
G1X290000Y754500D1*
G1X289876Y755562D1*
G1X289292Y755954D1*
G1X288500Y756000D1*
G1X287000Y756000D1*
G1X287000Y754500D1*
G36*
G1X278000Y826500D2*
G1X278124Y825438D1*
G1X278708Y825046D1*
G1X279500Y825000D1*
G1X281000Y825000D1*
G1X281000Y826500D1*
G1X280876Y827562D1*
G1X280292Y827954D1*
G1X279500Y828000D1*
G1X278438Y827876D1*
G1X278046Y827292D1*
G1X278000Y826500D1*
G37*
G1X281000Y826500D2*
G1X280876Y827562D1*
G1X280292Y827954D1*
G1X279500Y828000D1*
G1X278438Y827876D1*
G1X278046Y827292D1*
G1X278000Y826500D1*
G1X278124Y825438D1*
G1X278708Y825046D1*
G1X279500Y825000D1*
G1X281000Y825000D1*
G1X281000Y826500D1*
G36*
G1X239000Y823500D2*
G1X239000Y813000D1*
G1X260000Y813000D1*
G1X260000Y823500D1*
G1X257000Y823500D1*
G1X257000Y816000D1*
G1X242000Y816000D1*
G1X242000Y823500D1*
G1X239000Y823500D1*
G37*
G36*
G1X239000Y823500D2*
G1X242000Y823500D1*
G1X242000Y831000D1*
G1X257000Y831000D1*
G1X257000Y823500D1*
G1X260000Y823500D1*
G1X260000Y834000D1*
G1X239000Y834000D1*
G1X239000Y823500D1*
G37*
G1X260000Y834000D2*
G1X239000Y834000D1*
G1X239000Y816000D1*
G1X242000Y816000D1*
G1X242000Y831000D1*
G1X257000Y831000D1*
G1X257000Y816000D1*
G1X242000Y816000D1*
G1X239000Y816000D1*
G1X239000Y813000D1*
G1X260000Y813000D1*
G1X260000Y834000D1*
G1X290130Y724646D2*
G54D41*
G1X294870Y724646D1*
G1X290130Y735354D2*
G1X294870Y735354D1*
G1X502205Y768971D2*
G1X502205Y771029D1*
G1X507795Y768971D2*
G1X507795Y771029D1*
G1X34705Y768971D2*
G1X34705Y771029D1*
G1X40295Y768971D2*
G1X40295Y771029D1*
G1X273971Y667795D2*
G1X276029Y667795D1*
G1X273971Y662205D2*
G1X276029Y662205D1*
G1X265295Y698971D2*
G1X265295Y701029D1*
G1X259705Y698971D2*
G1X259705Y701029D1*
G1X53740Y747500D2*
G75*
G3X53740Y747500I-3740J0D1*
G74*
G1X394705Y653529D2*
G1X394705Y651471D1*
G1X400295Y653529D2*
G1X400295Y651471D1*
G1X55295Y656029D2*
G1X55295Y653971D1*
G1X49705Y656029D2*
G1X49705Y653971D1*
G1X517205Y656029D2*
G1X517205Y653971D1*
G1X522795Y656029D2*
G1X522795Y653971D1*
G1X517205Y698971D2*
G1X517205Y701029D1*
G1X522795Y698971D2*
G1X522795Y701029D1*
G1X55295Y698971D2*
G1X55295Y701029D1*
G1X49705Y698971D2*
G1X49705Y701029D1*
G1X290130Y642854D2*
G1X294870Y642854D1*
G1X290130Y632146D2*
G1X294870Y632146D1*
G1X415295Y653529D2*
G1X415295Y651471D1*
G1X409705Y653529D2*
G1X409705Y651471D1*
G1X488583Y654870D2*
G1X488583Y650130D1*
G1X481417Y654870D2*
G1X481417Y650130D1*
G1X236083Y699870D2*
G1X236083Y695130D1*
G1X228917Y699870D2*
G1X228917Y695130D1*
G1X13917Y654870D2*
G1X13917Y650130D1*
G1X21083Y654870D2*
G1X21083Y650130D1*
G1X236083Y660130D2*
G1X236083Y664870D1*
G1X228917Y660130D2*
G1X228917Y664870D1*
G1X415295Y633971D2*
G1X415295Y636029D1*
G1X409705Y633971D2*
G1X409705Y636029D1*
G1X394705Y633971D2*
G1X394705Y636029D1*
G1X400295Y633971D2*
G1X400295Y636029D1*
G1X250295Y716471D2*
G1X250295Y718529D1*
G1X244705Y716471D2*
G1X244705Y718529D1*
G1X265295Y716471D2*
G1X265295Y718529D1*
G1X259705Y716471D2*
G1X259705Y718529D1*
G1X12795Y787564D2*
G1X12795Y785507D1*
G1X7205Y787564D2*
G1X7205Y785507D1*
G1X244921Y677500D2*
G1X244921Y685177D1*
G1X244921Y677500D2*
G1X244921Y669823D1*
G1X265079Y677500D2*
G1X265079Y685177D1*
G1X265079Y677500D2*
G1X265079Y663917D1*
G1X480295Y787564D2*
G1X480295Y785507D1*
G1X474705Y787564D2*
G1X474705Y785507D1*
G1X235295Y716471D2*
G1X235295Y718529D1*
G1X229705Y716471D2*
G1X229705Y718529D1*
G1X521240Y747500D2*
G75*
G3X521240Y747500I-3740J0D1*
G74*
G1X522579Y677500D2*
G1X522579Y663917D1*
G1X522579Y677500D2*
G1X522579Y685177D1*
G1X502421Y677500D2*
G1X502421Y669823D1*
G1X502421Y677500D2*
G1X502421Y685177D1*
G1X9646Y700130D2*
G1X9646Y704870D1*
G1X20354Y700130D2*
G1X20354Y704870D1*
G1X34921Y677500D2*
G1X34921Y685177D1*
G1X34921Y677500D2*
G1X34921Y669823D1*
G1X55079Y677500D2*
G1X55079Y685177D1*
G1X55079Y677500D2*
G1X55079Y663917D1*
G1X487854Y700130D2*
G1X487854Y704870D1*
G1X477146Y700130D2*
G1X477146Y704870D1*
G1X415079Y677500D2*
G1X415079Y669823D1*
G1X415079Y677500D2*
G1X415079Y685177D1*
G1X394921Y677500D2*
G1X394921Y669823D1*
G1X394921Y677500D2*
G1X394921Y691083D1*
G1X311240Y562500D2*
G75*
G3X311240Y562500I-3740J0D1*
G1X296240Y562500D2*
G3X296240Y562500I-3740J0D1*
G74*
G1X463971Y597795D2*
G1X466029Y597795D1*
G1X463971Y592205D2*
G1X466029Y592205D1*
G1X463971Y577205D2*
G1X466029Y577205D1*
G1X463971Y582795D2*
G1X466029Y582795D1*
G1X463971Y567795D2*
G1X466029Y567795D1*
G1X463971Y562205D2*
G1X466029Y562205D1*
G1X463971Y547205D2*
G1X466029Y547205D1*
G1X463971Y552795D2*
G1X466029Y552795D1*
G1X463971Y537795D2*
G1X466029Y537795D1*
G1X463971Y532205D2*
G1X466029Y532205D1*
G1X17630Y602146D2*
G1X22370Y602146D1*
G1X17630Y612854D2*
G1X22370Y612854D1*
G1X42370Y602146D2*
G1X37630Y602146D1*
G1X42370Y612854D2*
G1X37630Y612854D1*
G1X381004Y484823D2*
G1X381004Y457657D1*
G1X393996Y484823D2*
G1X393996Y457657D1*
G1X381004Y484823D2*
G1X393996Y484823D1*
G1X105335Y633504D2*
G1X105335Y646496D1*
G1X132500Y646496D1*
G1X105335Y633504D2*
G1X132500Y633504D1*
G1X297795Y598971D2*
G1X297795Y601029D1*
G1X292205Y598971D2*
G1X292205Y601029D1*
G1X307795Y598971D2*
G1X307795Y601029D1*
G1X302205Y598971D2*
G1X302205Y601029D1*
G1X407008Y461280D2*
G1X412756Y461280D1*
G1X407008Y473720D2*
G1X415512Y473720D1*
G1X407008Y473720D2*
G1X407008Y470059D1*
G1X407008Y461280D2*
G1X407008Y464941D1*
G1X295031Y719618D2*
G54D39*
G1X295218Y719430D1*
G1X295781Y719243D1*
G1X296156Y719243D1*
G1X296718Y719430D1*
G1X297093Y719805D1*
G1X297281Y720180D1*
G1X297468Y720930D1*
G1X297468Y721492D1*
G1X297281Y722242D1*
G1X297093Y722617D1*
G1X296718Y722992D1*
G1X296156Y723180D1*
G1X295781Y723180D1*
G1X295218Y722992D1*
G1X295031Y722805D1*
G1X291281Y719243D2*
G1X293531Y719243D1*
G1X292406Y719243D2*
G1X292406Y723180D1*
G1X292781Y722617D1*
G1X293156Y722242D1*
G1X293531Y722055D1*
G1X287907Y721867D2*
G1X287907Y719243D1*
G1X288844Y723367D2*
G1X289782Y720555D1*
G1X287344Y720555D1*
G1X500281Y772531D2*
G1X498406Y773843D1*
G1X500281Y774781D2*
G1X496344Y774781D1*
G1X496344Y773281D1*
G1X496531Y772906D1*
G1X496719Y772718D1*
G1X497094Y772531D1*
G1X497656Y772531D1*
G1X498031Y772718D1*
G1X498219Y772906D1*
G1X498406Y773281D1*
G1X498406Y774781D1*
G1X496344Y771219D2*
G1X496344Y768781D1*
G1X497844Y770094D1*
G1X497844Y769531D1*
G1X498031Y769156D1*
G1X498219Y768969D1*
G1X498594Y768781D1*
G1X499531Y768781D1*
G1X499906Y768969D1*
G1X500094Y769156D1*
G1X500281Y769531D1*
G1X500281Y770656D1*
G1X500094Y771031D1*
G1X499906Y771219D1*
G1X496344Y767469D2*
G1X496344Y764844D1*
G1X500281Y766532D1*
G1X33281Y772531D2*
G1X31406Y773843D1*
G1X33281Y774781D2*
G1X29344Y774781D1*
G1X29344Y773281D1*
G1X29531Y772906D1*
G1X29719Y772718D1*
G1X30094Y772531D1*
G1X30656Y772531D1*
G1X31031Y772718D1*
G1X31219Y772906D1*
G1X31406Y773281D1*
G1X31406Y774781D1*
G1X29344Y771219D2*
G1X29344Y768781D1*
G1X30844Y770094D1*
G1X30844Y769531D1*
G1X31031Y769156D1*
G1X31219Y768969D1*
G1X31594Y768781D1*
G1X32531Y768781D1*
G1X32906Y768969D1*
G1X33094Y769156D1*
G1X33281Y769531D1*
G1X33281Y770656D1*
G1X33094Y771031D1*
G1X32906Y771219D1*
G1X29344Y765407D2*
G1X29344Y766157D1*
G1X29531Y766532D1*
G1X29719Y766719D1*
G1X30281Y767094D1*
G1X31031Y767282D1*
G1X32531Y767282D1*
G1X32906Y767094D1*
G1X33094Y766907D1*
G1X33281Y766532D1*
G1X33281Y765782D1*
G1X33094Y765407D1*
G1X32906Y765219D1*
G1X32531Y765032D1*
G1X31594Y765032D1*
G1X31219Y765219D1*
G1X31031Y765407D1*
G1X30844Y765782D1*
G1X30844Y766532D1*
G1X31031Y766907D1*
G1X31219Y767094D1*
G1X31594Y767282D1*
G1X277531Y657098D2*
G1X277718Y656910D1*
G1X278281Y656723D1*
G1X278656Y656723D1*
G1X279218Y656910D1*
G1X279593Y657285D1*
G1X279781Y657660D1*
G1X279968Y658410D1*
G1X279968Y658973D1*
G1X279781Y659723D1*
G1X279593Y660097D1*
G1X279218Y660472D1*
G1X278656Y660660D1*
G1X278281Y660660D1*
G1X277718Y660472D1*
G1X277531Y660285D1*
G1X276219Y660660D2*
G1X273781Y660660D1*
G1X275094Y659160D1*
G1X274531Y659160D1*
G1X274156Y658973D1*
G1X273969Y658785D1*
G1X273781Y658410D1*
G1X273781Y657473D1*
G1X273969Y657098D1*
G1X274156Y656910D1*
G1X274531Y656723D1*
G1X275656Y656723D1*
G1X276031Y656910D1*
G1X276219Y657098D1*
G1X270032Y656723D2*
G1X272282Y656723D1*
G1X271157Y656723D2*
G1X271157Y660660D1*
G1X271532Y660097D1*
G1X271907Y659723D1*
G1X272282Y659535D1*
G1X256406Y702531D2*
G1X256594Y702718D1*
G1X256781Y703281D1*
G1X256781Y703656D1*
G1X256594Y704218D1*
G1X256219Y704593D1*
G1X255844Y704781D1*
G1X255094Y704968D1*
G1X254531Y704968D1*
G1X253781Y704781D1*
G1X253406Y704593D1*
G1X253031Y704218D1*
G1X252844Y703656D1*
G1X252844Y703281D1*
G1X253031Y702718D1*
G1X253219Y702531D1*
G1X252844Y701219D2*
G1X252844Y698781D1*
G1X254344Y700094D1*
G1X254344Y699531D1*
G1X254531Y699156D1*
G1X254719Y698969D1*
G1X255094Y698781D1*
G1X256031Y698781D1*
G1X256406Y698969D1*
G1X256594Y699156D1*
G1X256781Y699531D1*
G1X256781Y700656D1*
G1X256594Y701031D1*
G1X256406Y701219D1*
G1X252844Y695219D2*
G1X252844Y697094D1*
G1X254719Y697282D1*
G1X254531Y697094D1*
G1X254344Y696719D1*
G1X254344Y695782D1*
G1X254531Y695407D1*
G1X254719Y695219D1*
G1X255094Y695032D1*
G1X256031Y695032D1*
G1X256406Y695219D1*
G1X256594Y695407D1*
G1X256781Y695782D1*
G1X256781Y696719D1*
G1X256594Y697094D1*
G1X256406Y697282D1*
G1X51594Y777311D2*
G1X51781Y776749D1*
G1X51781Y775811D1*
G1X51594Y775436D1*
G1X51406Y775249D1*
G1X51031Y775061D1*
G1X50656Y775061D1*
G1X50281Y775249D1*
G1X50094Y775436D1*
G1X49906Y775811D1*
G1X49719Y776561D1*
G1X49531Y776936D1*
G1X49344Y777124D1*
G1X48969Y777311D1*
G1X48594Y777311D1*
G1X48219Y777124D1*
G1X48031Y776936D1*
G1X47844Y776561D1*
G1X47844Y775624D1*
G1X48031Y775061D1*
G1X49719Y773374D2*
G1X49719Y772062D1*
G1X51781Y771499D2*
G1X51781Y773374D1*
G1X47844Y773374D1*
G1X47844Y771499D1*
G1X48031Y767750D2*
G1X47844Y768125D1*
G1X47844Y768687D1*
G1X48031Y769250D1*
G1X48406Y769624D1*
G1X48781Y769812D1*
G1X49531Y769999D1*
G1X50094Y769999D1*
G1X50844Y769812D1*
G1X51219Y769624D1*
G1X51594Y769250D1*
G1X51781Y768687D1*
G1X51781Y768312D1*
G1X51594Y767750D1*
G1X51406Y767562D1*
G1X50094Y767562D1*
G1X50094Y768312D1*
G1X51781Y763813D2*
G1X51781Y766062D1*
G1X51781Y764938D2*
G1X47844Y764938D1*
G1X48406Y765313D1*
G1X48781Y765687D1*
G1X48969Y766062D1*
G1X52156Y763063D2*
G1X52156Y760063D1*
G1X47844Y757251D2*
G1X47844Y759126D1*
G1X49719Y759313D1*
G1X49531Y759126D1*
G1X49344Y758751D1*
G1X49344Y757813D1*
G1X49531Y757439D1*
G1X49719Y757251D1*
G1X50094Y757064D1*
G1X51031Y757064D1*
G1X51406Y757251D1*
G1X51594Y757439D1*
G1X51781Y757813D1*
G1X51781Y758751D1*
G1X51594Y759126D1*
G1X51406Y759313D1*
G1X47844Y755939D2*
G1X51781Y754626D1*
G1X47844Y753314D1*
G1X405406Y655031D2*
G1X405594Y655218D1*
G1X405781Y655781D1*
G1X405781Y656156D1*
G1X405594Y656718D1*
G1X405219Y657093D1*
G1X404844Y657281D1*
G1X404094Y657468D1*
G1X403531Y657468D1*
G1X402781Y657281D1*
G1X402406Y657093D1*
G1X402031Y656718D1*
G1X401844Y656156D1*
G1X401844Y655781D1*
G1X402031Y655218D1*
G1X402219Y655031D1*
G1X405781Y651281D2*
G1X405781Y653531D1*
G1X405781Y652406D2*
G1X401844Y652406D1*
G1X402406Y652781D1*
G1X402781Y653156D1*
G1X402969Y653531D1*
G1X401844Y649969D2*
G1X401844Y647532D1*
G1X403344Y648844D1*
G1X403344Y648282D1*
G1X403531Y647907D1*
G1X403719Y647719D1*
G1X404094Y647532D1*
G1X405031Y647532D1*
G1X405406Y647719D1*
G1X405594Y647907D1*
G1X405781Y648282D1*
G1X405781Y649407D1*
G1X405594Y649782D1*
G1X405406Y649969D1*
G1X47410Y657531D2*
G1X47597Y657718D1*
G1X47785Y658281D1*
G1X47785Y658656D1*
G1X47597Y659218D1*
G1X47223Y659593D1*
G1X46848Y659781D1*
G1X46098Y659968D1*
G1X45535Y659968D1*
G1X44785Y659781D1*
G1X44410Y659593D1*
G1X44035Y659218D1*
G1X43848Y658656D1*
G1X43848Y658281D1*
G1X44035Y657718D1*
G1X44223Y657531D1*
G1X44223Y656031D2*
G1X44035Y655844D1*
G1X43848Y655469D1*
G1X43848Y654531D1*
G1X44035Y654156D1*
G1X44223Y653969D1*
G1X44598Y653781D1*
G1X44973Y653781D1*
G1X45535Y653969D1*
G1X47785Y656219D1*
G1X47785Y653781D1*
G1X44223Y652282D2*
G1X44035Y652094D1*
G1X43848Y651719D1*
G1X43848Y650782D1*
G1X44035Y650407D1*
G1X44223Y650219D1*
G1X44598Y650032D1*
G1X44973Y650032D1*
G1X45535Y650219D1*
G1X47785Y652469D1*
G1X47785Y650032D1*
G1X522531Y642594D2*
G1X522718Y642406D1*
G1X523281Y642219D1*
G1X523656Y642219D1*
G1X524218Y642406D1*
G1X524593Y642781D1*
G1X524781Y643156D1*
G1X524968Y643906D1*
G1X524968Y644469D1*
G1X524781Y645219D1*
G1X524593Y645594D1*
G1X524218Y645969D1*
G1X523656Y646156D1*
G1X523281Y646156D1*
G1X522718Y645969D1*
G1X522531Y645781D1*
G1X521031Y645781D2*
G1X520844Y645969D1*
G1X520469Y646156D1*
G1X519531Y646156D1*
G1X519156Y645969D1*
G1X518969Y645781D1*
G1X518781Y645406D1*
G1X518781Y645031D1*
G1X518969Y644469D1*
G1X521219Y642219D1*
G1X518781Y642219D1*
G1X515032Y642219D2*
G1X517282Y642219D1*
G1X516157Y642219D2*
G1X516157Y646156D1*
G1X516532Y645594D1*
G1X516907Y645219D1*
G1X517282Y645031D1*
G1X522531Y708594D2*
G1X522718Y708406D1*
G1X523281Y708219D1*
G1X523656Y708219D1*
G1X524218Y708406D1*
G1X524593Y708781D1*
G1X524781Y709156D1*
G1X524968Y709906D1*
G1X524968Y710469D1*
G1X524781Y711219D1*
G1X524593Y711594D1*
G1X524218Y711969D1*
G1X523656Y712156D1*
G1X523281Y712156D1*
G1X522718Y711969D1*
G1X522531Y711781D1*
G1X521031Y711781D2*
G1X520844Y711969D1*
G1X520469Y712156D1*
G1X519531Y712156D1*
G1X519156Y711969D1*
G1X518969Y711781D1*
G1X518781Y711406D1*
G1X518781Y711031D1*
G1X518969Y710469D1*
G1X521219Y708219D1*
G1X518781Y708219D1*
G1X516344Y712156D2*
G1X515969Y712156D1*
G1X515594Y711969D1*
G1X515407Y711781D1*
G1X515219Y711406D1*
G1X515032Y710656D1*
G1X515032Y709719D1*
G1X515219Y708969D1*
G1X515407Y708594D1*
G1X515594Y708406D1*
G1X515969Y708219D1*
G1X516344Y708219D1*
G1X516719Y708406D1*
G1X516907Y708594D1*
G1X517094Y708969D1*
G1X517282Y709719D1*
G1X517282Y710656D1*
G1X517094Y711406D1*
G1X516907Y711781D1*
G1X516719Y711969D1*
G1X516344Y712156D1*
G1X55031Y708594D2*
G1X55218Y708406D1*
G1X55781Y708219D1*
G1X56156Y708219D1*
G1X56718Y708406D1*
G1X57093Y708781D1*
G1X57281Y709156D1*
G1X57468Y709906D1*
G1X57468Y710469D1*
G1X57281Y711219D1*
G1X57093Y711594D1*
G1X56718Y711969D1*
G1X56156Y712156D1*
G1X55781Y712156D1*
G1X55218Y711969D1*
G1X55031Y711781D1*
G1X51281Y708219D2*
G1X53531Y708219D1*
G1X52406Y708219D2*
G1X52406Y712156D1*
G1X52781Y711594D1*
G1X53156Y711219D1*
G1X53531Y711031D1*
G1X49969Y712156D2*
G1X47344Y712156D1*
G1X49032Y708219D1*
G1X295031Y646094D2*
G1X295218Y645906D1*
G1X295781Y645719D1*
G1X296156Y645719D1*
G1X296718Y645906D1*
G1X297093Y646281D1*
G1X297281Y646656D1*
G1X297468Y647406D1*
G1X297468Y647969D1*
G1X297281Y648719D1*
G1X297093Y649094D1*
G1X296718Y649469D1*
G1X296156Y649656D1*
G1X295781Y649656D1*
G1X295218Y649469D1*
G1X295031Y649281D1*
G1X291281Y645719D2*
G1X293531Y645719D1*
G1X292406Y645719D2*
G1X292406Y649656D1*
G1X292781Y649094D1*
G1X293156Y648719D1*
G1X293531Y648531D1*
G1X287719Y649656D2*
G1X289594Y649656D1*
G1X289782Y647781D1*
G1X289594Y647969D1*
G1X289219Y648156D1*
G1X288282Y648156D1*
G1X287907Y647969D1*
G1X287719Y647781D1*
G1X287532Y647406D1*
G1X287532Y646469D1*
G1X287719Y646094D1*
G1X287907Y645906D1*
G1X288282Y645719D1*
G1X289219Y645719D1*
G1X289594Y645906D1*
G1X289782Y646094D1*
G1X420406Y655031D2*
G1X420594Y655218D1*
G1X420781Y655781D1*
G1X420781Y656156D1*
G1X420594Y656718D1*
G1X420219Y657093D1*
G1X419844Y657281D1*
G1X419094Y657468D1*
G1X418531Y657468D1*
G1X417781Y657281D1*
G1X417406Y657093D1*
G1X417031Y656718D1*
G1X416844Y656156D1*
G1X416844Y655781D1*
G1X417031Y655218D1*
G1X417219Y655031D1*
G1X420781Y651281D2*
G1X420781Y653531D1*
G1X420781Y652406D2*
G1X416844Y652406D1*
G1X417406Y652781D1*
G1X417781Y653156D1*
G1X417969Y653531D1*
G1X417219Y649782D2*
G1X417031Y649594D1*
G1X416844Y649219D1*
G1X416844Y648282D1*
G1X417031Y647907D1*
G1X417219Y647719D1*
G1X417594Y647532D1*
G1X417969Y647532D1*
G1X418531Y647719D1*
G1X420781Y649969D1*
G1X420781Y647532D1*
G1X479241Y655031D2*
G1X479428Y655218D1*
G1X479616Y655781D1*
G1X479616Y656156D1*
G1X479428Y656718D1*
G1X479053Y657093D1*
G1X478678Y657281D1*
G1X477928Y657468D1*
G1X477366Y657468D1*
G1X476616Y657281D1*
G1X476241Y657093D1*
G1X475866Y656718D1*
G1X475679Y656156D1*
G1X475679Y655781D1*
G1X475866Y655218D1*
G1X476054Y655031D1*
G1X476054Y653531D2*
G1X475866Y653344D1*
G1X475679Y652969D1*
G1X475679Y652031D1*
G1X475866Y651656D1*
G1X476054Y651469D1*
G1X476429Y651281D1*
G1X476804Y651281D1*
G1X477366Y651469D1*
G1X479616Y653719D1*
G1X479616Y651281D1*
G1X475679Y647907D2*
G1X475679Y648657D1*
G1X475866Y649032D1*
G1X476054Y649219D1*
G1X476616Y649594D1*
G1X477366Y649782D1*
G1X478866Y649782D1*
G1X479241Y649594D1*
G1X479428Y649407D1*
G1X479616Y649032D1*
G1X479616Y648282D1*
G1X479428Y647907D1*
G1X479241Y647719D1*
G1X478866Y647532D1*
G1X477928Y647532D1*
G1X477553Y647719D1*
G1X477366Y647907D1*
G1X477178Y648282D1*
G1X477178Y649032D1*
G1X477366Y649407D1*
G1X477553Y649594D1*
G1X477928Y649782D1*
G1X226406Y700031D2*
G1X226594Y700218D1*
G1X226781Y700781D1*
G1X226781Y701156D1*
G1X226594Y701718D1*
G1X226219Y702093D1*
G1X225844Y702281D1*
G1X225094Y702468D1*
G1X224531Y702468D1*
G1X223781Y702281D1*
G1X223406Y702093D1*
G1X223031Y701718D1*
G1X222844Y701156D1*
G1X222844Y700781D1*
G1X223031Y700218D1*
G1X223219Y700031D1*
G1X223219Y698531D2*
G1X223031Y698344D1*
G1X222844Y697969D1*
G1X222844Y697031D1*
G1X223031Y696656D1*
G1X223219Y696469D1*
G1X223594Y696281D1*
G1X223969Y696281D1*
G1X224531Y696469D1*
G1X226781Y698719D1*
G1X226781Y696281D1*
G1X222844Y694969D2*
G1X222844Y692344D1*
G1X226781Y694032D1*
G1X11741Y655031D2*
G1X11928Y655218D1*
G1X12116Y655781D1*
G1X12116Y656156D1*
G1X11928Y656718D1*
G1X11553Y657093D1*
G1X11178Y657281D1*
G1X10428Y657468D1*
G1X9866Y657468D1*
G1X9116Y657281D1*
G1X8741Y657093D1*
G1X8366Y656718D1*
G1X8179Y656156D1*
G1X8179Y655781D1*
G1X8366Y655218D1*
G1X8554Y655031D1*
G1X8554Y653531D2*
G1X8366Y653344D1*
G1X8179Y652969D1*
G1X8179Y652031D1*
G1X8366Y651656D1*
G1X8554Y651469D1*
G1X8929Y651281D1*
G1X9304Y651281D1*
G1X9866Y651469D1*
G1X12116Y653719D1*
G1X12116Y651281D1*
G1X8179Y647719D2*
G1X8179Y649594D1*
G1X10053Y649782D1*
G1X9866Y649594D1*
G1X9678Y649219D1*
G1X9678Y648282D1*
G1X9866Y647907D1*
G1X10053Y647719D1*
G1X10428Y647532D1*
G1X11366Y647532D1*
G1X11741Y647719D1*
G1X11928Y647907D1*
G1X12116Y648282D1*
G1X12116Y649219D1*
G1X11928Y649594D1*
G1X11741Y649782D1*
G1X241071Y665031D2*
G1X241259Y665218D1*
G1X241446Y665781D1*
G1X241446Y666156D1*
G1X241259Y666718D1*
G1X240884Y667093D1*
G1X240509Y667281D1*
G1X239759Y667468D1*
G1X239197Y667468D1*
G1X238447Y667281D1*
G1X238072Y667093D1*
G1X237697Y666718D1*
G1X237509Y666156D1*
G1X237509Y665781D1*
G1X237697Y665218D1*
G1X237884Y665031D1*
G1X237884Y663531D2*
G1X237697Y663344D1*
G1X237509Y662969D1*
G1X237509Y662031D1*
G1X237697Y661656D1*
G1X237884Y661469D1*
G1X238259Y661281D1*
G1X238634Y661281D1*
G1X239197Y661469D1*
G1X241446Y663719D1*
G1X241446Y661281D1*
G1X238822Y657907D2*
G1X241446Y657907D1*
G1X237322Y658844D2*
G1X240134Y659782D1*
G1X240134Y657344D1*
G1X420777Y637531D2*
G1X418902Y638843D1*
G1X420777Y639781D2*
G1X416840Y639781D1*
G1X416840Y638281D1*
G1X417028Y637906D1*
G1X417215Y637718D1*
G1X417590Y637531D1*
G1X418152Y637531D1*
G1X418527Y637718D1*
G1X418715Y637906D1*
G1X418902Y638281D1*
G1X418902Y639781D1*
G1X417215Y636031D2*
G1X417028Y635844D1*
G1X416840Y635469D1*
G1X416840Y634531D1*
G1X417028Y634156D1*
G1X417215Y633969D1*
G1X417590Y633781D1*
G1X417965Y633781D1*
G1X418527Y633969D1*
G1X420777Y636219D1*
G1X420777Y633781D1*
G1X418152Y630407D2*
G1X420777Y630407D1*
G1X416653Y631344D2*
G1X419465Y632282D1*
G1X419465Y629844D1*
G1X405777Y637531D2*
G1X403902Y638843D1*
G1X405777Y639781D2*
G1X401840Y639781D1*
G1X401840Y638281D1*
G1X402028Y637906D1*
G1X402215Y637718D1*
G1X402590Y637531D1*
G1X403152Y637531D1*
G1X403527Y637718D1*
G1X403715Y637906D1*
G1X403902Y638281D1*
G1X403902Y639781D1*
G1X402215Y636031D2*
G1X402028Y635844D1*
G1X401840Y635469D1*
G1X401840Y634531D1*
G1X402028Y634156D1*
G1X402215Y633969D1*
G1X402590Y633781D1*
G1X402965Y633781D1*
G1X403527Y633969D1*
G1X405777Y636219D1*
G1X405777Y633781D1*
G1X401840Y630219D2*
G1X401840Y632094D1*
G1X403715Y632282D1*
G1X403527Y632094D1*
G1X403340Y631719D1*
G1X403340Y630782D1*
G1X403527Y630407D1*
G1X403715Y630219D1*
G1X404090Y630032D1*
G1X405027Y630032D1*
G1X405402Y630219D1*
G1X405590Y630407D1*
G1X405777Y630782D1*
G1X405777Y631719D1*
G1X405590Y632094D1*
G1X405402Y632282D1*
G1X242053Y720031D2*
G1X240178Y721343D1*
G1X242053Y722281D2*
G1X238116Y722281D1*
G1X238116Y720781D1*
G1X238303Y720406D1*
G1X238491Y720218D1*
G1X238866Y720031D1*
G1X239428Y720031D1*
G1X239803Y720218D1*
G1X239990Y720406D1*
G1X240178Y720781D1*
G1X240178Y722281D1*
G1X239428Y716656D2*
G1X242053Y716656D1*
G1X237928Y717594D2*
G1X240740Y718531D1*
G1X240740Y716094D1*
G1X238116Y712719D2*
G1X238116Y714594D1*
G1X239990Y714782D1*
G1X239803Y714594D1*
G1X239615Y714219D1*
G1X239615Y713282D1*
G1X239803Y712907D1*
G1X239990Y712719D1*
G1X240365Y712532D1*
G1X241303Y712532D1*
G1X241678Y712719D1*
G1X241865Y712907D1*
G1X242053Y713282D1*
G1X242053Y714219D1*
G1X241865Y714594D1*
G1X241678Y714782D1*
G1X256781Y720031D2*
G1X254906Y721343D1*
G1X256781Y722281D2*
G1X252844Y722281D1*
G1X252844Y720781D1*
G1X253031Y720406D1*
G1X253219Y720218D1*
G1X253594Y720031D1*
G1X254156Y720031D1*
G1X254531Y720218D1*
G1X254719Y720406D1*
G1X254906Y720781D1*
G1X254906Y722281D1*
G1X254156Y716656D2*
G1X256781Y716656D1*
G1X252657Y717594D2*
G1X255469Y718531D1*
G1X255469Y716094D1*
G1X254156Y712907D2*
G1X256781Y712907D1*
G1X252657Y713844D2*
G1X255469Y714782D1*
G1X255469Y712344D1*
G1X11594Y823280D2*
G1X11781Y822717D1*
G1X11781Y821780D1*
G1X11594Y821405D1*
G1X11406Y821217D1*
G1X11031Y821030D1*
G1X10656Y821030D1*
G1X10281Y821217D1*
G1X10094Y821405D1*
G1X9906Y821780D1*
G1X9719Y822530D1*
G1X9531Y822905D1*
G1X9344Y823092D1*
G1X8969Y823280D1*
G1X8594Y823280D1*
G1X8219Y823092D1*
G1X8031Y822905D1*
G1X7844Y822530D1*
G1X7844Y821592D1*
G1X8031Y821030D1*
G1X9719Y819343D2*
G1X9719Y818030D1*
G1X11781Y817468D2*
G1X11781Y819343D1*
G1X7844Y819343D1*
G1X7844Y817468D1*
G1X8031Y813718D2*
G1X7844Y814093D1*
G1X7844Y814656D1*
G1X8031Y815218D1*
G1X8406Y815593D1*
G1X8781Y815780D1*
G1X9531Y815968D1*
G1X10094Y815968D1*
G1X10844Y815780D1*
G1X11219Y815593D1*
G1X11594Y815218D1*
G1X11781Y814656D1*
G1X11781Y814281D1*
G1X11594Y813718D1*
G1X11406Y813531D1*
G1X10094Y813531D1*
G1X10094Y814281D1*
G1X11781Y809781D2*
G1X11781Y812031D1*
G1X11781Y810906D2*
G1X7844Y810906D1*
G1X8406Y811281D1*
G1X8781Y811656D1*
G1X8969Y812031D1*
G1X12156Y809031D2*
G1X12156Y806032D1*
G1X11781Y802845D2*
G1X9906Y804157D1*
G1X11781Y805094D2*
G1X7844Y805094D1*
G1X7844Y803594D1*
G1X8031Y803220D1*
G1X8219Y803032D1*
G1X8594Y802845D1*
G1X9156Y802845D1*
G1X9531Y803032D1*
G1X9719Y803220D1*
G1X9906Y803594D1*
G1X9906Y805094D1*
G1X7844Y801720D2*
G1X7844Y799470D1*
G1X11781Y800595D2*
G1X7844Y800595D1*
G1X11781Y798158D2*
G1X7844Y798158D1*
G1X11781Y795908D1*
G1X7844Y795908D1*
G1X275874Y689656D2*
G1X275874Y686469D1*
G1X275687Y686094D1*
G1X275499Y685906D1*
G1X275124Y685719D1*
G1X274375Y685719D1*
G1X274000Y685906D1*
G1X273812Y686094D1*
G1X273625Y686469D1*
G1X273625Y689656D1*
G1X271937Y689281D2*
G1X271750Y689469D1*
G1X271375Y689656D1*
G1X270438Y689656D1*
G1X270063Y689469D1*
G1X269875Y689281D1*
G1X269688Y688906D1*
G1X269688Y688531D1*
G1X269875Y687969D1*
G1X272125Y685719D1*
G1X269688Y685719D1*
G1X265938Y685719D2*
G1X268188Y685719D1*
G1X267063Y685719D2*
G1X267063Y689656D1*
G1X267438Y689094D1*
G1X267813Y688719D1*
G1X268188Y688531D1*
G1X471594Y799780D2*
G1X471781Y799217D1*
G1X471781Y798280D1*
G1X471594Y797905D1*
G1X471406Y797717D1*
G1X471031Y797530D1*
G1X470656Y797530D1*
G1X470281Y797717D1*
G1X470094Y797905D1*
G1X469906Y798280D1*
G1X469719Y799030D1*
G1X469531Y799405D1*
G1X469344Y799592D1*
G1X468969Y799780D1*
G1X468594Y799780D1*
G1X468219Y799592D1*
G1X468031Y799405D1*
G1X467844Y799030D1*
G1X467844Y798092D1*
G1X468031Y797530D1*
G1X469719Y795843D2*
G1X469719Y794530D1*
G1X471781Y793968D2*
G1X471781Y795843D1*
G1X467844Y795843D1*
G1X467844Y793968D1*
G1X468031Y790218D2*
G1X467844Y790593D1*
G1X467844Y791156D1*
G1X468031Y791718D1*
G1X468406Y792093D1*
G1X468781Y792280D1*
G1X469531Y792468D1*
G1X470094Y792468D1*
G1X470844Y792280D1*
G1X471219Y792093D1*
G1X471594Y791718D1*
G1X471781Y791156D1*
G1X471781Y790781D1*
G1X471594Y790218D1*
G1X471406Y790031D1*
G1X470094Y790031D1*
G1X470094Y790781D1*
G1X468219Y788531D2*
G1X468031Y788343D1*
G1X467844Y787969D1*
G1X467844Y787031D1*
G1X468031Y786656D1*
G1X468219Y786469D1*
G1X468594Y786281D1*
G1X468969Y786281D1*
G1X469531Y786469D1*
G1X471781Y788718D1*
G1X471781Y786281D1*
G1X472156Y785531D2*
G1X472156Y782532D1*
G1X471781Y779345D2*
G1X469906Y780657D1*
G1X471781Y781594D2*
G1X467844Y781594D1*
G1X467844Y780094D1*
G1X468031Y779720D1*
G1X468219Y779532D1*
G1X468594Y779345D1*
G1X469156Y779345D1*
G1X469531Y779532D1*
G1X469719Y779720D1*
G1X469906Y780094D1*
G1X469906Y781594D1*
G1X467844Y778220D2*
G1X467844Y775970D1*
G1X471781Y777095D2*
G1X467844Y777095D1*
G1X471781Y774658D2*
G1X467844Y774658D1*
G1X471781Y772408D1*
G1X467844Y772408D1*
G1X226781Y720031D2*
G1X224906Y721343D1*
G1X226781Y722281D2*
G1X222844Y722281D1*
G1X222844Y720781D1*
G1X223031Y720406D1*
G1X223219Y720218D1*
G1X223594Y720031D1*
G1X224156Y720031D1*
G1X224531Y720218D1*
G1X224719Y720406D1*
G1X224906Y720781D1*
G1X224906Y722281D1*
G1X222844Y718719D2*
G1X222844Y716281D1*
G1X224344Y717594D1*
G1X224344Y717031D1*
G1X224531Y716656D1*
G1X224719Y716469D1*
G1X225094Y716281D1*
G1X226031Y716281D1*
G1X226406Y716469D1*
G1X226594Y716656D1*
G1X226781Y717031D1*
G1X226781Y718156D1*
G1X226594Y718531D1*
G1X226406Y718719D1*
G1X224156Y712907D2*
G1X226781Y712907D1*
G1X222657Y713844D2*
G1X225469Y714782D1*
G1X225469Y712344D1*
G1X519094Y777311D2*
G1X519281Y776749D1*
G1X519281Y775811D1*
G1X519094Y775436D1*
G1X518906Y775249D1*
G1X518531Y775061D1*
G1X518156Y775061D1*
G1X517781Y775249D1*
G1X517594Y775436D1*
G1X517406Y775811D1*
G1X517219Y776561D1*
G1X517031Y776936D1*
G1X516844Y777124D1*
G1X516469Y777311D1*
G1X516094Y777311D1*
G1X515719Y777124D1*
G1X515531Y776936D1*
G1X515344Y776561D1*
G1X515344Y775624D1*
G1X515531Y775061D1*
G1X517219Y773374D2*
G1X517219Y772062D1*
G1X519281Y771499D2*
G1X519281Y773374D1*
G1X515344Y773374D1*
G1X515344Y771499D1*
G1X515531Y767750D2*
G1X515344Y768125D1*
G1X515344Y768687D1*
G1X515531Y769250D1*
G1X515906Y769624D1*
G1X516281Y769812D1*
G1X517031Y769999D1*
G1X517594Y769999D1*
G1X518344Y769812D1*
G1X518719Y769624D1*
G1X519094Y769250D1*
G1X519281Y768687D1*
G1X519281Y768312D1*
G1X519094Y767750D1*
G1X518906Y767562D1*
G1X517594Y767562D1*
G1X517594Y768312D1*
G1X515719Y766062D2*
G1X515531Y765875D1*
G1X515344Y765500D1*
G1X515344Y764563D1*
G1X515531Y764188D1*
G1X515719Y764000D1*
G1X516094Y763813D1*
G1X516469Y763813D1*
G1X517031Y764000D1*
G1X519281Y766250D1*
G1X519281Y763813D1*
G1X519656Y763063D2*
G1X519656Y760063D1*
G1X515344Y757251D2*
G1X515344Y759126D1*
G1X517219Y759313D1*
G1X517031Y759126D1*
G1X516844Y758751D1*
G1X516844Y757813D1*
G1X517031Y757439D1*
G1X517219Y757251D1*
G1X517594Y757064D1*
G1X518531Y757064D1*
G1X518906Y757251D1*
G1X519094Y757439D1*
G1X519281Y757813D1*
G1X519281Y758751D1*
G1X519094Y759126D1*
G1X518906Y759313D1*
G1X515344Y755939D2*
G1X519281Y754626D1*
G1X515344Y753314D1*
G1X523844Y693874D2*
G1X527031Y693874D1*
G1X527406Y693687D1*
G1X527594Y693499D1*
G1X527781Y693124D1*
G1X527781Y692375D1*
G1X527594Y692000D1*
G1X527406Y691812D1*
G1X527031Y691625D1*
G1X523844Y691625D1*
G1X527781Y687688D2*
G1X527781Y689937D1*
G1X527781Y688813D2*
G1X523844Y688813D1*
G1X524406Y689187D1*
G1X524781Y689562D1*
G1X524969Y689937D1*
G1X523844Y684126D2*
G1X523844Y686000D1*
G1X525719Y686188D1*
G1X525531Y686000D1*
G1X525344Y685625D1*
G1X525344Y684688D1*
G1X525531Y684313D1*
G1X525719Y684126D1*
G1X526094Y683938D1*
G1X527031Y683938D1*
G1X527406Y684126D1*
G1X527594Y684313D1*
G1X527781Y684688D1*
G1X527781Y685625D1*
G1X527594Y686000D1*
G1X527406Y686188D1*
G1X17531Y713594D2*
G1X17718Y713406D1*
G1X18281Y713219D1*
G1X18656Y713219D1*
G1X19218Y713406D1*
G1X19593Y713781D1*
G1X19781Y714156D1*
G1X19968Y714906D1*
G1X19968Y715469D1*
G1X19781Y716219D1*
G1X19593Y716594D1*
G1X19218Y716969D1*
G1X18656Y717156D1*
G1X18281Y717156D1*
G1X17718Y716969D1*
G1X17531Y716781D1*
G1X16031Y716781D2*
G1X15844Y716969D1*
G1X15469Y717156D1*
G1X14531Y717156D1*
G1X14156Y716969D1*
G1X13969Y716781D1*
G1X13781Y716406D1*
G1X13781Y716031D1*
G1X13969Y715469D1*
G1X16219Y713219D1*
G1X13781Y713219D1*
G1X11532Y715469D2*
G1X11907Y715656D1*
G1X12094Y715844D1*
G1X12282Y716219D1*
G1X12282Y716406D1*
G1X12094Y716781D1*
G1X11907Y716969D1*
G1X11532Y717156D1*
G1X10782Y717156D1*
G1X10407Y716969D1*
G1X10219Y716781D1*
G1X10032Y716406D1*
G1X10032Y716219D1*
G1X10219Y715844D1*
G1X10407Y715656D1*
G1X10782Y715469D1*
G1X11532Y715469D1*
G1X11907Y715281D1*
G1X12094Y715094D1*
G1X12282Y714719D1*
G1X12282Y713969D1*
G1X12094Y713594D1*
G1X11907Y713406D1*
G1X11532Y713219D1*
G1X10782Y713219D1*
G1X10407Y713406D1*
G1X10219Y713594D1*
G1X10032Y713969D1*
G1X10032Y714719D1*
G1X10219Y715094D1*
G1X10407Y715281D1*
G1X10782Y715469D1*
G1X56844Y693374D2*
G1X60031Y693374D1*
G1X60406Y693187D1*
G1X60594Y692999D1*
G1X60781Y692624D1*
G1X60781Y691875D1*
G1X60594Y691500D1*
G1X60406Y691312D1*
G1X60031Y691125D1*
G1X56844Y691125D1*
G1X60781Y687188D2*
G1X60781Y689437D1*
G1X60781Y688313D2*
G1X56844Y688313D1*
G1X57406Y688687D1*
G1X57781Y689062D1*
G1X57969Y689437D1*
G1X58156Y683813D2*
G1X60781Y683813D1*
G1X56657Y684750D2*
G1X59469Y685688D1*
G1X59469Y683251D1*
G1X485031Y713594D2*
G1X485218Y713406D1*
G1X485781Y713219D1*
G1X486156Y713219D1*
G1X486718Y713406D1*
G1X487093Y713781D1*
G1X487281Y714156D1*
G1X487468Y714906D1*
G1X487468Y715469D1*
G1X487281Y716219D1*
G1X487093Y716594D1*
G1X486718Y716969D1*
G1X486156Y717156D1*
G1X485781Y717156D1*
G1X485218Y716969D1*
G1X485031Y716781D1*
G1X483531Y716781D2*
G1X483344Y716969D1*
G1X482969Y717156D1*
G1X482031Y717156D1*
G1X481656Y716969D1*
G1X481469Y716781D1*
G1X481281Y716406D1*
G1X481281Y716031D1*
G1X481469Y715469D1*
G1X483719Y713219D1*
G1X481281Y713219D1*
G1X479407Y713219D2*
G1X478657Y713219D1*
G1X478282Y713406D1*
G1X478094Y713594D1*
G1X477719Y714156D1*
G1X477532Y714906D1*
G1X477532Y716406D1*
G1X477719Y716781D1*
G1X477907Y716969D1*
G1X478282Y717156D1*
G1X479032Y717156D1*
G1X479407Y716969D1*
G1X479594Y716781D1*
G1X479782Y716406D1*
G1X479782Y715469D1*
G1X479594Y715094D1*
G1X479407Y714906D1*
G1X479032Y714719D1*
G1X478282Y714719D1*
G1X477907Y714906D1*
G1X477719Y715094D1*
G1X477532Y715469D1*
G1X403094Y698750D2*
G1X406281Y698750D1*
G1X406656Y698562D1*
G1X406844Y698375D1*
G1X407031Y698000D1*
G1X407031Y697250D1*
G1X406844Y696875D1*
G1X406656Y696687D1*
G1X406281Y696500D1*
G1X403094Y696500D1*
G1X404781Y694063D2*
G1X404594Y694438D1*
G1X404406Y694625D1*
G1X404031Y694813D1*
G1X403844Y694813D1*
G1X403469Y694625D1*
G1X403281Y694438D1*
G1X403094Y694063D1*
G1X403094Y693313D1*
G1X403281Y692938D1*
G1X403469Y692750D1*
G1X403844Y692563D1*
G1X404031Y692563D1*
G1X404406Y692750D1*
G1X404594Y692938D1*
G1X404781Y693313D1*
G1X404781Y694063D1*
G1X404969Y694438D1*
G1X405156Y694625D1*
G1X405531Y694813D1*
G1X406281Y694813D1*
G1X406656Y694625D1*
G1X406844Y694438D1*
G1X407031Y694063D1*
G1X407031Y693313D1*
G1X406844Y692938D1*
G1X406656Y692750D1*
G1X406281Y692563D1*
G1X405531Y692563D1*
G1X405156Y692750D1*
G1X404969Y692938D1*
G1X404781Y693313D1*
G1X324968Y564656D2*
G1X322718Y564656D1*
G1X323843Y560719D2*
G1X323843Y564656D1*
G1X321406Y560719D2*
G1X321406Y564656D1*
G1X319906Y564656D1*
G1X319531Y564469D1*
G1X319344Y564281D1*
G1X319156Y563906D1*
G1X319156Y563344D1*
G1X319344Y562969D1*
G1X319531Y562781D1*
G1X319906Y562594D1*
G1X321406Y562594D1*
G1X317282Y560719D2*
G1X316532Y560719D1*
G1X316157Y560906D1*
G1X315969Y561094D1*
G1X315594Y561656D1*
G1X315407Y562406D1*
G1X315407Y563906D1*
G1X315594Y564281D1*
G1X315782Y564469D1*
G1X316157Y564656D1*
G1X316907Y564656D1*
G1X317282Y564469D1*
G1X317469Y564281D1*
G1X317657Y563906D1*
G1X317657Y562969D1*
G1X317469Y562594D1*
G1X317282Y562406D1*
G1X316907Y562219D1*
G1X316157Y562219D1*
G1X315782Y562406D1*
G1X315594Y562594D1*
G1X315407Y562969D1*
G1X312187Y550906D2*
G1X311624Y550719D1*
G1X310687Y550719D1*
G1X310312Y550906D1*
G1X310125Y551094D1*
G1X309937Y551469D1*
G1X309937Y551844D1*
G1X310125Y552219D1*
G1X310312Y552406D1*
G1X310687Y552594D1*
G1X311437Y552781D1*
G1X311812Y552969D1*
G1X311999Y553156D1*
G1X312187Y553531D1*
G1X312187Y553906D1*
G1X311999Y554281D1*
G1X311812Y554469D1*
G1X311437Y554656D1*
G1X310500Y554656D1*
G1X309937Y554469D1*
G1X306000Y551094D2*
G1X306188Y550906D1*
G1X306750Y550719D1*
G1X307125Y550719D1*
G1X307687Y550906D1*
G1X308062Y551281D1*
G1X308250Y551656D1*
G1X308437Y552406D1*
G1X308437Y552969D1*
G1X308250Y553719D1*
G1X308062Y554094D1*
G1X307687Y554469D1*
G1X307125Y554656D1*
G1X306750Y554656D1*
G1X306188Y554469D1*
G1X306000Y554281D1*
G1X302438Y550719D2*
G1X304313Y550719D1*
G1X304313Y554656D1*
G1X284968Y564656D2*
G1X282718Y564656D1*
G1X283843Y560719D2*
G1X283843Y564656D1*
G1X281406Y560719D2*
G1X281406Y564656D1*
G1X279906Y564656D1*
G1X279531Y564469D1*
G1X279344Y564281D1*
G1X279156Y563906D1*
G1X279156Y563344D1*
G1X279344Y562969D1*
G1X279531Y562781D1*
G1X279906Y562594D1*
G1X281406Y562594D1*
G1X276907Y562969D2*
G1X277282Y563156D1*
G1X277469Y563344D1*
G1X277657Y563719D1*
G1X277657Y563906D1*
G1X277469Y564281D1*
G1X277282Y564469D1*
G1X276907Y564656D1*
G1X276157Y564656D1*
G1X275782Y564469D1*
G1X275594Y564281D1*
G1X275407Y563906D1*
G1X275407Y563719D1*
G1X275594Y563344D1*
G1X275782Y563156D1*
G1X276157Y562969D1*
G1X276907Y562969D1*
G1X277282Y562781D1*
G1X277469Y562594D1*
G1X277657Y562219D1*
G1X277657Y561469D1*
G1X277469Y561094D1*
G1X277282Y560906D1*
G1X276907Y560719D1*
G1X276157Y560719D1*
G1X275782Y560906D1*
G1X275594Y561094D1*
G1X275407Y561469D1*
G1X275407Y562219D1*
G1X275594Y562594D1*
G1X275782Y562781D1*
G1X276157Y562969D1*
G1X297281Y550906D2*
G1X296718Y550719D1*
G1X295781Y550719D1*
G1X295406Y550906D1*
G1X295218Y551094D1*
G1X295031Y551469D1*
G1X295031Y551844D1*
G1X295218Y552219D1*
G1X295406Y552406D1*
G1X295781Y552594D1*
G1X296531Y552781D1*
G1X296906Y552969D1*
G1X297093Y553156D1*
G1X297281Y553531D1*
G1X297281Y553906D1*
G1X297093Y554281D1*
G1X296906Y554469D1*
G1X296531Y554656D1*
G1X295593Y554656D1*
G1X295031Y554469D1*
G1X293344Y550719D2*
G1X293344Y554656D1*
G1X292406Y554656D1*
G1X291844Y554469D1*
G1X291469Y554094D1*
G1X291281Y553719D1*
G1X291094Y552969D1*
G1X291094Y552406D1*
G1X291281Y551656D1*
G1X291469Y551281D1*
G1X291844Y550906D1*
G1X292406Y550719D1*
G1X293344Y550719D1*
G1X289594Y551844D2*
G1X287719Y551844D1*
G1X289969Y550719D2*
G1X288657Y554656D1*
G1X287344Y550719D1*
G1X465656Y587098D2*
G1X465844Y586910D1*
G1X466406Y586723D1*
G1X466781Y586723D1*
G1X467343Y586910D1*
G1X467718Y587285D1*
G1X467906Y587660D1*
G1X468093Y588410D1*
G1X468093Y588973D1*
G1X467906Y589723D1*
G1X467718Y590097D1*
G1X467343Y590472D1*
G1X466781Y590660D1*
G1X466406Y590660D1*
G1X465844Y590472D1*
G1X465656Y590285D1*
G1X464344Y590660D2*
G1X461719Y590660D1*
G1X463406Y586723D1*
G1X465656Y572098D2*
G1X465844Y571910D1*
G1X466406Y571723D1*
G1X466781Y571723D1*
G1X467343Y571910D1*
G1X467718Y572285D1*
G1X467906Y572660D1*
G1X468093Y573410D1*
G1X468093Y573973D1*
G1X467906Y574723D1*
G1X467718Y575097D1*
G1X467343Y575472D1*
G1X466781Y575660D1*
G1X466406Y575660D1*
G1X465844Y575472D1*
G1X465656Y575285D1*
G1X463406Y573973D2*
G1X463781Y574160D1*
G1X463969Y574348D1*
G1X464156Y574723D1*
G1X464156Y574910D1*
G1X463969Y575285D1*
G1X463781Y575472D1*
G1X463406Y575660D1*
G1X462657Y575660D1*
G1X462282Y575472D1*
G1X462094Y575285D1*
G1X461907Y574910D1*
G1X461907Y574723D1*
G1X462094Y574348D1*
G1X462282Y574160D1*
G1X462657Y573973D1*
G1X463406Y573973D1*
G1X463781Y573785D1*
G1X463969Y573598D1*
G1X464156Y573223D1*
G1X464156Y572473D1*
G1X463969Y572098D1*
G1X463781Y571910D1*
G1X463406Y571723D1*
G1X462657Y571723D1*
G1X462282Y571910D1*
G1X462094Y572098D1*
G1X461907Y572473D1*
G1X461907Y573223D1*
G1X462094Y573598D1*
G1X462282Y573785D1*
G1X462657Y573973D1*
G1X465656Y557098D2*
G1X465844Y556910D1*
G1X466406Y556723D1*
G1X466781Y556723D1*
G1X467343Y556910D1*
G1X467718Y557285D1*
G1X467906Y557660D1*
G1X468093Y558410D1*
G1X468093Y558973D1*
G1X467906Y559723D1*
G1X467718Y560097D1*
G1X467343Y560472D1*
G1X466781Y560660D1*
G1X466406Y560660D1*
G1X465844Y560472D1*
G1X465656Y560285D1*
G1X463781Y556723D2*
G1X463031Y556723D1*
G1X462657Y556910D1*
G1X462469Y557098D1*
G1X462094Y557660D1*
G1X461907Y558410D1*
G1X461907Y559910D1*
G1X462094Y560285D1*
G1X462282Y560472D1*
G1X462657Y560660D1*
G1X463406Y560660D1*
G1X463781Y560472D1*
G1X463969Y560285D1*
G1X464156Y559910D1*
G1X464156Y558973D1*
G1X463969Y558598D1*
G1X463781Y558410D1*
G1X463406Y558223D1*
G1X462657Y558223D1*
G1X462282Y558410D1*
G1X462094Y558598D1*
G1X461907Y558973D1*
G1X467531Y542098D2*
G1X467718Y541910D1*
G1X468281Y541723D1*
G1X468656Y541723D1*
G1X469218Y541910D1*
G1X469593Y542285D1*
G1X469781Y542660D1*
G1X469968Y543410D1*
G1X469968Y543973D1*
G1X469781Y544723D1*
G1X469593Y545097D1*
G1X469218Y545472D1*
G1X468656Y545660D1*
G1X468281Y545660D1*
G1X467718Y545472D1*
G1X467531Y545285D1*
G1X463781Y541723D2*
G1X466031Y541723D1*
G1X464906Y541723D2*
G1X464906Y545660D1*
G1X465281Y545097D1*
G1X465656Y544723D1*
G1X466031Y544535D1*
G1X461344Y545660D2*
G1X460969Y545660D1*
G1X460594Y545472D1*
G1X460407Y545285D1*
G1X460219Y544910D1*
G1X460032Y544160D1*
G1X460032Y543223D1*
G1X460219Y542473D1*
G1X460407Y542098D1*
G1X460594Y541910D1*
G1X460969Y541723D1*
G1X461344Y541723D1*
G1X461719Y541910D1*
G1X461907Y542098D1*
G1X462094Y542473D1*
G1X462282Y543223D1*
G1X462282Y544160D1*
G1X462094Y544910D1*
G1X461907Y545285D1*
G1X461719Y545472D1*
G1X461344Y545660D1*
G1X467531Y527098D2*
G1X467718Y526910D1*
G1X468281Y526723D1*
G1X468656Y526723D1*
G1X469218Y526910D1*
G1X469593Y527285D1*
G1X469781Y527660D1*
G1X469968Y528410D1*
G1X469968Y528973D1*
G1X469781Y529723D1*
G1X469593Y530097D1*
G1X469218Y530472D1*
G1X468656Y530660D1*
G1X468281Y530660D1*
G1X467718Y530472D1*
G1X467531Y530285D1*
G1X463781Y526723D2*
G1X466031Y526723D1*
G1X464906Y526723D2*
G1X464906Y530660D1*
G1X465281Y530097D1*
G1X465656Y529723D1*
G1X466031Y529535D1*
G1X460032Y526723D2*
G1X462282Y526723D1*
G1X461157Y526723D2*
G1X461157Y530660D1*
G1X461532Y530097D1*
G1X461907Y529723D1*
G1X462282Y529535D1*
G1X22531Y616094D2*
G1X22718Y615906D1*
G1X23281Y615719D1*
G1X23656Y615719D1*
G1X24218Y615906D1*
G1X24593Y616281D1*
G1X24781Y616656D1*
G1X24968Y617406D1*
G1X24968Y617969D1*
G1X24781Y618719D1*
G1X24593Y619094D1*
G1X24218Y619469D1*
G1X23656Y619656D1*
G1X23281Y619656D1*
G1X22718Y619469D1*
G1X22531Y619281D1*
G1X18781Y615719D2*
G1X21031Y615719D1*
G1X19906Y615719D2*
G1X19906Y619656D1*
G1X20281Y619094D1*
G1X20656Y618719D1*
G1X21031Y618531D1*
G1X16532Y617969D2*
G1X16907Y618156D1*
G1X17094Y618344D1*
G1X17282Y618719D1*
G1X17282Y618906D1*
G1X17094Y619281D1*
G1X16907Y619469D1*
G1X16532Y619656D1*
G1X15782Y619656D1*
G1X15407Y619469D1*
G1X15219Y619281D1*
G1X15032Y618906D1*
G1X15032Y618719D1*
G1X15219Y618344D1*
G1X15407Y618156D1*
G1X15782Y617969D1*
G1X16532Y617969D1*
G1X16907Y617781D1*
G1X17094Y617594D1*
G1X17282Y617219D1*
G1X17282Y616469D1*
G1X17094Y616094D1*
G1X16907Y615906D1*
G1X16532Y615719D1*
G1X15782Y615719D1*
G1X15407Y615906D1*
G1X15219Y616094D1*
G1X15032Y616469D1*
G1X15032Y617219D1*
G1X15219Y617594D1*
G1X15407Y617781D1*
G1X15782Y617969D1*
G1X42531Y616094D2*
G1X42718Y615906D1*
G1X43281Y615719D1*
G1X43656Y615719D1*
G1X44218Y615906D1*
G1X44593Y616281D1*
G1X44781Y616656D1*
G1X44968Y617406D1*
G1X44968Y617969D1*
G1X44781Y618719D1*
G1X44593Y619094D1*
G1X44218Y619469D1*
G1X43656Y619656D1*
G1X43281Y619656D1*
G1X42718Y619469D1*
G1X42531Y619281D1*
G1X38781Y615719D2*
G1X41031Y615719D1*
G1X39906Y615719D2*
G1X39906Y619656D1*
G1X40281Y619094D1*
G1X40656Y618719D1*
G1X41031Y618531D1*
G1X36907Y615719D2*
G1X36157Y615719D1*
G1X35782Y615906D1*
G1X35594Y616094D1*
G1X35219Y616656D1*
G1X35032Y617406D1*
G1X35032Y618906D1*
G1X35219Y619281D1*
G1X35407Y619469D1*
G1X35782Y619656D1*
G1X36532Y619656D1*
G1X36907Y619469D1*
G1X37094Y619281D1*
G1X37282Y618906D1*
G1X37282Y617969D1*
G1X37094Y617594D1*
G1X36907Y617406D1*
G1X36532Y617219D1*
G1X35782Y617219D1*
G1X35407Y617406D1*
G1X35219Y617594D1*
G1X35032Y617969D1*
G1X390406Y485719D2*
G1X390406Y489656D1*
G1X389469Y489656D1*
G1X388906Y489469D1*
G1X388531Y489094D1*
G1X388344Y488719D1*
G1X388156Y487969D1*
G1X388156Y487406D1*
G1X388344Y486656D1*
G1X388531Y486281D1*
G1X388906Y485906D1*
G1X389469Y485719D1*
G1X390406Y485719D1*
G1X384407Y485719D2*
G1X386656Y485719D1*
G1X385531Y485719D2*
G1X385531Y489656D1*
G1X385906Y489094D1*
G1X386281Y488719D1*
G1X386656Y488531D1*
G1X125563Y628376D2*
G1X125563Y632313D1*
G1X124626Y632313D1*
G1X124064Y632126D1*
G1X123689Y631751D1*
G1X123501Y631376D1*
G1X123314Y630626D1*
G1X123314Y630064D1*
G1X123501Y629314D1*
G1X123689Y628939D1*
G1X124064Y628564D1*
G1X124626Y628376D1*
G1X125563Y628376D1*
G1X119939Y631001D2*
G1X119939Y628376D1*
G1X120876Y632501D2*
G1X121814Y629689D1*
G1X119377Y629689D1*
G1X287531Y603219D2*
G1X288843Y605094D1*
G1X289781Y603219D2*
G1X289781Y607156D1*
G1X288281Y607156D1*
G1X287906Y606969D1*
G1X287718Y606781D1*
G1X287531Y606406D1*
G1X287531Y605844D1*
G1X287718Y605469D1*
G1X287906Y605281D1*
G1X288281Y605094D1*
G1X289781Y605094D1*
G1X286031Y606781D2*
G1X285844Y606969D1*
G1X285469Y607156D1*
G1X284531Y607156D1*
G1X284156Y606969D1*
G1X283969Y606781D1*
G1X283781Y606406D1*
G1X283781Y606031D1*
G1X283969Y605469D1*
G1X286219Y603219D1*
G1X283781Y603219D1*
G1X282469Y607156D2*
G1X280032Y607156D1*
G1X281344Y605656D1*
G1X280782Y605656D1*
G1X280407Y605469D1*
G1X280219Y605281D1*
G1X280032Y604906D1*
G1X280032Y603969D1*
G1X280219Y603594D1*
G1X280407Y603406D1*
G1X280782Y603219D1*
G1X281907Y603219D1*
G1X282282Y603406D1*
G1X282469Y603594D1*
G1X317531Y603219D2*
G1X318843Y605094D1*
G1X319781Y603219D2*
G1X319781Y607156D1*
G1X318281Y607156D1*
G1X317906Y606969D1*
G1X317718Y606781D1*
G1X317531Y606406D1*
G1X317531Y605844D1*
G1X317718Y605469D1*
G1X317906Y605281D1*
G1X318281Y605094D1*
G1X319781Y605094D1*
G1X316031Y606781D2*
G1X315844Y606969D1*
G1X315469Y607156D1*
G1X314531Y607156D1*
G1X314156Y606969D1*
G1X313969Y606781D1*
G1X313781Y606406D1*
G1X313781Y606031D1*
G1X313969Y605469D1*
G1X316219Y603219D1*
G1X313781Y603219D1*
G1X312469Y607156D2*
G1X309844Y607156D1*
G1X311532Y603219D1*
G1X422875Y465344D2*
G1X423250Y465531D1*
G1X423625Y465906D1*
G1X424187Y466469D1*
G1X424562Y466656D1*
G1X424937Y466656D1*
G1X424750Y465719D2*
G1X425125Y465906D1*
G1X425500Y466281D1*
G1X425687Y467031D1*
G1X425687Y468344D1*
G1X425500Y469094D1*
G1X425125Y469469D1*
G1X424750Y469656D1*
G1X424000Y469656D1*
G1X423625Y469469D1*
G1X423250Y469094D1*
G1X423062Y468344D1*
G1X423062Y467031D1*
G1X423250Y466281D1*
G1X423625Y465906D1*
G1X424000Y465719D1*
G1X424750Y465719D1*
G1X419313Y465719D2*
G1X421563Y465719D1*
G1X420438Y465719D2*
G1X420438Y469656D1*
G1X420813Y469094D1*
G1X421188Y468719D1*
G1X421563Y468531D1*
M2*
